<svg width="29" height="29" viewBox="0 0 29 29" fill="none" xmlns="http://www.w3.org/2000/svg">
<rect x="0.5" y="0.5" width="28" height="28" rx="14" stroke="#F8F8F8"/>
<g clip-path="url(#clip0_2610_2107)">
<path fill-rule="evenodd" clip-rule="evenodd" d="M14.146 5.87533C14.3689 5.76389 14.6312 5.76389 14.8541 5.87533L22.7707 9.83366C23.0389 9.96776 23.2084 10.2419 23.2084 10.5417C23.2084 10.8416 23.0389 11.1157 22.7707 11.2498L14.8541 15.2082C14.6312 15.3196 14.3689 15.3196 14.146 15.2082L6.22931 11.2498C5.96111 11.1157 5.79169 10.8416 5.79169 10.5417C5.79169 10.2419 5.96111 9.96776 6.22931 9.83366L14.146 5.87533ZM8.35357 10.5417L14.5 13.615L20.6465 10.5417L14.5 7.46852L8.35357 10.5417Z" fill="#F8F8F8"/>
<path fill-rule="evenodd" clip-rule="evenodd" d="M5.87526 18.1043C6.07079 17.7132 6.54632 17.5547 6.93739 17.7503L14.5 21.5316L22.0626 17.7503C22.4537 17.5547 22.9292 17.7132 23.1248 18.1043C23.3203 18.4954 23.1618 18.9709 22.7707 19.1664L14.8541 23.1248C14.6312 23.2362 14.3688 23.2362 14.146 23.1248L6.2293 19.1664C5.83823 18.9709 5.67972 18.4954 5.87526 18.1043Z" fill="#F8F8F8"/>
<path fill-rule="evenodd" clip-rule="evenodd" d="M5.87526 14.146C6.07079 13.755 6.54632 13.5965 6.93739 13.792L14.5 17.5733L22.0626 13.792C22.4537 13.5965 22.9292 13.755 23.1248 14.146C23.3203 14.5371 23.1618 15.0126 22.7707 15.2082L14.8541 19.1665C14.6312 19.278 14.3688 19.278 14.146 19.1665L6.2293 15.2082C5.83823 15.0126 5.67972 14.5371 5.87526 14.146Z" fill="#F8F8F8"/>
</g>
<defs>
<clipPath id="clip0_2610_2107">
<rect width="19" height="19" fill="white" transform="translate(5 5)"/>
</clipPath>
</defs>
</svg>
