<svg width="29" height="29" viewBox="0 0 29 29" fill="none" xmlns="http://www.w3.org/2000/svg">
<rect width="29" height="29" rx="14.5" fill="#F8F8F8"/>
<path fill-rule="evenodd" clip-rule="evenodd" d="M6.58331 7.37492C6.58331 6.93769 6.93775 6.58325 7.37498 6.58325H12.9166C13.3539 6.58325 13.7083 6.93769 13.7083 7.37492V12.9166C13.7083 13.3538 13.3539 13.7083 12.9166 13.7083H7.37498C6.93775 13.7083 6.58331 13.3538 6.58331 12.9166V7.37492ZM8.16665 8.16659V12.1249H12.125V8.16659H8.16665Z" fill="#0C0C0C"/>
<path fill-rule="evenodd" clip-rule="evenodd" d="M15.2917 7.37492C15.2917 6.93769 15.6461 6.58325 16.0834 6.58325H21.625C22.0622 6.58325 22.4167 6.93769 22.4167 7.37492V12.9166C22.4167 13.3538 22.0622 13.7083 21.625 13.7083H16.0834C15.6461 13.7083 15.2917 13.3538 15.2917 12.9166V7.37492ZM16.875 8.16659V12.1249H20.8334V8.16659H16.875Z" fill="#0C0C0C"/>
<path fill-rule="evenodd" clip-rule="evenodd" d="M15.2917 16.0834C15.2917 15.6462 15.6461 15.2917 16.0834 15.2917H21.625C22.0622 15.2917 22.4167 15.6462 22.4167 16.0834V21.6251C22.4167 22.0623 22.0622 22.4167 21.625 22.4167H16.0834C15.6461 22.4167 15.2917 22.0623 15.2917 21.6251V16.0834ZM16.875 16.8751V20.8334H20.8334V16.8751H16.875Z" fill="#0C0C0C"/>
<path fill-rule="evenodd" clip-rule="evenodd" d="M6.58331 16.0834C6.58331 15.6462 6.93775 15.2917 7.37498 15.2917H12.9166C13.3539 15.2917 13.7083 15.6462 13.7083 16.0834V21.6251C13.7083 22.0623 13.3539 22.4167 12.9166 22.4167H7.37498C6.93775 22.4167 6.58331 22.0623 6.58331 21.6251V16.0834ZM8.16665 16.8751V20.8334H12.125V16.8751H8.16665Z" fill="#0C0C0C"/>
</svg>
