<svg width="25" height="24" viewBox="0 0 25 24" fill="none" xmlns="http://www.w3.org/2000/svg">
<path fill-rule="evenodd" clip-rule="evenodd" d="M17.1722 3.02796C16.6892 2.97339 16.1981 2.9892 15.7145 3.07733C14.7145 3.25952 13.7939 3.74211 13.0752 4.46081C12.3565 5.1795 11.8739 6.10016 11.6917 7.10009C11.5095 8.10001 11.6364 9.13172 12.0554 10.0577C12.227 10.4369 12.1458 10.8828 11.8515 11.1771L4.94146 18.0871C4.73118 18.2974 4.61304 18.5826 4.61304 18.88C4.61304 19.1774 4.73118 19.4626 4.94146 19.6729C5.15175 19.8832 5.43697 20.0013 5.73436 20.0013C6.03175 20.0013 6.31696 19.8832 6.52725 19.6729L13.4373 12.7629C13.7316 12.4686 14.1774 12.3873 14.5566 12.5589C15.4826 12.978 16.5143 13.1048 17.5143 12.9226C18.5142 12.7404 19.4348 12.2578 20.1535 11.5392C20.8722 10.8205 21.3548 9.8998 21.537 8.89987C21.6251 8.41622 21.6409 7.92514 21.5864 7.44218L19.0144 10.0142C18.6405 10.3806 18.1379 10.5858 17.6144 10.5858C17.0909 10.5858 16.5882 10.3806 16.2144 10.0141L16.2072 10.0071L14.6002 8.40002C14.2337 8.02616 14.0285 7.52349 14.0285 6.99998C14.0285 6.47647 14.2338 5.97384 14.6002 5.59998L14.6072 5.59284L17.1722 3.02796ZM15.356 1.10972C16.7559 0.854655 18.2002 1.03228 19.4966 1.61892C19.7957 1.75426 20.0093 2.02777 20.0682 2.35073C20.127 2.67369 20.0236 3.00496 19.7915 3.23709L16.0286 6.99998L17.6144 8.58577L21.3772 4.82287C21.6094 4.59075 21.9406 4.48733 22.2636 4.54618C22.5866 4.60502 22.8601 4.81863 22.9954 5.11771C23.5821 6.41409 23.7597 7.85848 23.5046 9.25838C23.2496 10.6583 22.5739 11.9472 21.5677 12.9534C20.5616 13.9595 19.2726 14.6352 17.8728 14.8902C16.7053 15.103 15.5069 15.0147 14.3892 14.6393L7.94146 21.0871C7.3561 21.6724 6.56218 22.0013 5.73436 22.0013C4.90653 22.0013 4.11261 21.6724 3.52725 21.0871C2.94189 20.5017 2.61304 19.7078 2.61304 18.88C2.61304 18.0522 2.94189 17.2582 3.52725 16.6729L9.97501 10.2251C9.5996 9.10743 9.51138 7.90903 9.7241 6.74158C9.97916 5.34169 10.6548 4.05277 11.661 3.0466C12.6671 2.04042 13.9561 1.36478 15.356 1.10972Z" fill="#F8F8F8"/>
</svg>
