<svg width="19" height="18" viewBox="0 0 19 18" fill="none" xmlns="http://www.w3.org/2000/svg">
    <path d="M12.3801 13.8773L14.0058 15.503L17.2572 12.2515M9.12862 11.4387H5.87717C4.36219 11.4387 3.60469 11.4387 3.00717 11.6862C2.21048 12.0162 1.5775 12.6491 1.2475 13.4458C1 14.0434 1 14.8009 1 16.3158M11.9736 1.92067C13.1652 2.40301 14.0058 3.57123 14.0058 4.93577C14.0058 6.30032 13.1652 7.46853 11.9736 7.95088M10.3479 4.93577C10.3479 6.7315 8.89219 8.18722 7.09647 8.18722C5.30074 8.18722 3.84502 6.7315 3.84502 4.93577C3.84502 3.14005 5.30074 1.68433 7.09647 1.68433C8.89219 1.68433 10.3479 3.14005 10.3479 4.93577Z"
          stroke="#F8F8F8" stroke-width="2" stroke-linecap="round" stroke-linejoin="round"/>
</svg>
