<svg width="18" height="20" viewBox="0 0 18 20" fill="none" xmlns="http://www.w3.org/2000/svg">
    <path d="M17 15.6667V10C17 5.30558 13.4183 1.5 9 1.5C4.58172 1.5 1 5.30558 1 10V15.6667M3.22222 18.5C1.99492 18.5 1 17.4429 1 16.1389V14.25C1 12.946 1.99492 11.8889 3.22222 11.8889C4.44952 11.8889 5.44444 12.946 5.44444 14.25V16.1389C5.44444 17.4429 4.44952 18.5 3.22222 18.5ZM14.7778 18.5C13.5505 18.5 12.5556 17.4429 12.5556 16.1389V14.25C12.5556 12.946 13.5505 11.8889 14.7778 11.8889C16.0051 11.8889 17 12.946 17 14.25V16.1389C17 17.4429 16.0051 18.5 14.7778 18.5Z"
          stroke="#F8F8F8" stroke-width="2" stroke-linecap="round" stroke-linejoin="round"/>
</svg>
