<svg width="22" height="23" viewBox="0 0 22 23" fill="none" xmlns="http://www.w3.org/2000/svg">
<path fill-rule="evenodd" clip-rule="evenodd" d="M4.58301 4.16659C4.33989 4.16659 4.10673 4.26316 3.93483 4.43507C3.76292 4.60698 3.66634 4.84014 3.66634 5.08325V17.9166C3.66634 18.1597 3.76292 18.3929 3.93483 18.5648C4.10674 18.7367 4.33989 18.8333 4.58301 18.8333H8.24967C8.75594 18.8333 9.16634 19.2437 9.16634 19.7499C9.16634 20.2562 8.75594 20.6666 8.24967 20.6666H4.58301C3.85366 20.6666 3.15419 20.3769 2.63846 19.8611C2.12274 19.3454 1.83301 18.6459 1.83301 17.9166V5.08325C1.83301 4.35391 2.12274 3.65443 2.63846 3.13871C3.15419 2.62298 3.85366 2.33325 4.58301 2.33325H8.24967C8.75594 2.33325 9.16634 2.74366 9.16634 3.24992C9.16634 3.75618 8.75594 4.16659 8.24967 4.16659H4.58301Z" fill="#F8F8F8"/>
<path fill-rule="evenodd" clip-rule="evenodd" d="M14.0185 6.26849C14.3765 5.9105 14.9569 5.9105 15.3148 6.26849L19.8982 10.8518C20.2562 11.2098 20.2562 11.7902 19.8982 12.1482L15.3148 16.7315C14.9569 17.0895 14.3765 17.0895 14.0185 16.7315C13.6605 16.3735 13.6605 15.7931 14.0185 15.4352L17.9536 11.5L14.0185 7.56485C13.6605 7.20687 13.6605 6.62647 14.0185 6.26849Z" fill="#F8F8F8"/>
<path fill-rule="evenodd" clip-rule="evenodd" d="M7.33301 11.4999C7.33301 10.9937 7.74341 10.5833 8.24967 10.5833H19.2497C19.7559 10.5833 20.1663 10.9937 20.1663 11.4999C20.1663 12.0062 19.7559 12.4166 19.2497 12.4166H8.24967C7.74341 12.4166 7.33301 12.0062 7.33301 11.4999Z" fill="#F8F8F8"/>
</svg>
