<svg width="130" height="35" viewBox="0 0 130 35" fill="none" xmlns="http://www.w3.org/2000/svg">
<path d="M22.659 27.2551H19.406V12.8969H19.3079L13.4608 27.0869H10.993L5.14596 12.8969H5.04781V27.2551H1.78075V7.02183H5.97324L12.1708 22.2914H12.283L18.4806 7.02183H22.659V27.2551ZM48.4029 21.5623H51.9083C52.0205 22.4878 52.4972 23.2356 53.3385 23.8058C54.1798 24.3667 55.2221 24.6471 56.4653 24.6471C57.6806 24.6471 58.6714 24.376 59.4379 23.8338C60.2138 23.2917 60.6017 22.5999 60.6017 21.7586C60.6017 21.0295 60.3213 20.4406 59.7604 19.9919C59.1996 19.5339 58.2835 19.1553 57.0122 18.8561L54.3901 18.2392C52.5299 17.8092 51.1464 17.1408 50.2397 16.2341C49.3423 15.3273 48.8936 14.1495 48.8936 12.7006C48.8936 10.9152 49.5947 9.46628 50.9969 8.35389C52.3991 7.2415 54.2078 6.68531 56.4233 6.68531C58.648 6.68531 60.4382 7.23683 61.7936 8.33987C63.1584 9.43356 63.8641 10.8731 63.9109 12.6585H60.4615C60.3774 11.7144 59.9708 10.9759 59.2416 10.4431C58.5125 9.90095 57.5637 9.62986 56.3952 9.62986C55.2548 9.62986 54.3294 9.88693 53.6189 10.4011C52.9179 10.9152 52.5673 11.5929 52.5673 12.4342C52.5673 13.1072 52.8384 13.6541 53.3806 14.0747C53.9321 14.4954 54.8295 14.8553 56.0727 15.1544L58.4003 15.6872C60.4475 16.1546 61.9338 16.837 62.8592 17.7344C63.7847 18.6318 64.2474 19.833 64.2474 21.338C64.2474 23.2543 63.5276 24.778 62.088 25.909C60.6578 27.0308 58.7182 27.5916 56.269 27.5916C53.9321 27.5916 52.0532 27.0541 50.6323 25.9792C49.2208 24.8948 48.4777 23.4225 48.4029 21.5623ZM70.5992 27.2551H66.9816V7.02183H70.5992V27.2551ZM110.379 27.2551L108.654 22.025H101.209L99.4839 27.2551H95.7541L102.933 7.02183H107.014L114.193 27.2551H110.379ZM104.882 10.5974L102.05 19.2347H107.799L104.98 10.5974H104.882ZM129.168 24.1984V27.2551H116.366V7.02183H119.984V24.1984H129.168Z" fill="#F8F8F8"/>
<path d="M45.9078 18.0522C45.9078 20.95 44.973 23.2449 43.1035 24.9368C41.2339 26.6195 38.682 27.4608 35.4476 27.4608C32.232 27.4608 29.6894 26.6148 27.8198 24.9228C25.9409 23.2215 25.0015 20.9313 25.0015 18.0522C25.0015 15.6966 25.6745 13.7101 27.0206 12.093C28.3573 10.4758 30.11 9.55506 32.2787 9.33071V12.8922C31.0074 13.1259 29.9885 13.7195 29.222 14.673C28.4555 15.6171 28.0722 16.7435 28.0722 18.0522C28.0722 19.7909 28.7406 21.179 30.0773 22.2166C31.4047 23.2449 33.1948 23.759 35.4476 23.759C37.7191 23.759 39.5186 23.2449 40.846 22.2166C42.1734 21.1884 42.8371 19.7956 42.8371 18.0382C42.8371 16.7014 42.4959 15.5797 41.8135 14.673C41.1217 13.7569 40.1683 13.1586 38.9531 12.8782V9.33071C41.1217 9.64853 42.823 10.5833 44.0569 12.135C45.2909 13.6868 45.9078 15.6592 45.9078 18.0522Z" fill="#F8F8F8"/>
<path d="M95.2472 18.0522C95.2472 20.95 94.3124 23.2449 92.4428 24.9368C90.5733 26.6195 88.0213 27.4608 84.787 27.4608C81.5713 27.4608 79.0287 26.6148 77.1592 24.9228C75.2803 23.2215 74.3408 20.9313 74.3408 18.0522C74.3408 15.6966 75.0139 13.7101 76.36 12.093C77.6967 10.4758 79.4494 9.55506 81.6181 9.33071V12.8922C80.3468 13.1259 79.3279 13.7195 78.5614 14.673C77.7948 15.6171 77.4116 16.7435 77.4116 18.0522C77.4116 19.7909 78.0799 21.179 79.4167 22.2166C80.7441 23.2449 82.5342 23.759 84.787 23.759C87.0585 23.759 88.8579 23.2449 90.1853 22.2166C91.5127 21.1884 92.1764 19.7956 92.1764 18.0382C92.1764 16.7014 91.8352 15.5797 91.1528 14.673C90.4611 13.7569 89.5076 13.1586 88.2924 12.8782V9.33071C90.4611 9.64853 92.1624 10.5833 93.3963 12.135C94.6302 13.6868 95.2472 15.6592 95.2472 18.0522Z" fill="#F8F8F8"/>
</svg>
