<svg width="98" height="59" viewBox="0 0 98 59" fill="none" xmlns="http://www.w3.org/2000/svg">
    <path d="M31.4288 29.4055C31.4288 45.6457 44.7724 58.811 28.8429 58.811C12.9134 58.811 0 45.6457 0 29.4055C0 13.1653 12.9134 0 28.8429 0C44.7724 0 31.4288 13.1653 31.4288 29.4055Z"
          fill="#5347CC"/>
    <path d="M27.9268 36.5499C27.6106 36.5499 27.3632 36.4605 27.1844 36.2818C27.0195 36.1031 26.937 35.8556 26.937 35.5394V22.7331C26.937 22.4031 27.0263 22.1557 27.2051 21.9907C27.3838 21.812 27.6244 21.7226 27.9268 21.7226C28.2155 21.7226 28.4355 21.7776 28.5867 21.8876C28.7517 21.9838 28.9029 22.1626 29.0404 22.4238L34.4434 32.508H33.8041L39.1865 22.4238C39.3239 22.1626 39.4683 21.9838 39.6195 21.8876C39.7708 21.7776 39.9907 21.7226 40.2794 21.7226C40.5819 21.7226 40.8156 21.812 40.9806 21.9907C41.1456 22.1557 41.228 22.4031 41.228 22.7331V35.5394C41.228 35.8556 41.1456 36.1031 40.9806 36.2818C40.8294 36.4605 40.5956 36.5499 40.2794 36.5499C39.9632 36.5499 39.7226 36.4605 39.5577 36.2818C39.3927 36.1031 39.3102 35.8556 39.3102 35.5394V24.8984H39.7639L34.9796 33.7453C34.8696 33.9515 34.7527 34.1027 34.629 34.199C34.5053 34.2952 34.3334 34.3433 34.1134 34.3433C33.8935 34.3433 33.7147 34.2952 33.5773 34.199C33.4398 34.089 33.3161 33.9377 33.2061 33.7453L28.3805 24.8778H28.8754V35.5394C28.8754 35.8556 28.7929 36.1031 28.628 36.2818C28.4767 36.4605 28.243 36.5499 27.9268 36.5499ZM48.0195 36.5911C47.2083 36.5911 46.5278 36.4399 45.9779 36.1374C45.4417 35.835 45.0361 35.3882 44.7612 34.797C44.5 34.1921 44.3694 33.4359 44.3694 32.5286V27.2493C44.3694 26.8919 44.4587 26.6307 44.6374 26.4657C44.8162 26.287 45.0705 26.1976 45.4005 26.1976C45.7304 26.1976 45.9848 26.287 46.1635 26.4657C46.356 26.6307 46.4522 26.8919 46.4522 27.2493V32.5492C46.4522 33.3603 46.6172 33.9584 46.9471 34.3433C47.2771 34.7283 47.7995 34.9207 48.5144 34.9207C49.298 34.9207 49.9304 34.6595 50.4116 34.1371C50.9066 33.6009 51.154 32.8998 51.154 32.0336V27.2493C51.154 26.8919 51.2434 26.6307 51.4221 26.4657C51.6008 26.287 51.862 26.1976 52.2057 26.1976C52.5357 26.1976 52.79 26.287 52.9688 26.4657C53.1475 26.6307 53.2368 26.8919 53.2368 27.2493V35.4981C53.2368 36.1993 52.9 36.5499 52.2264 36.5499C51.9102 36.5499 51.6627 36.4605 51.484 36.2818C51.3052 36.0893 51.2159 35.8281 51.2159 35.4981V33.7453L51.484 34.199C51.209 34.9688 50.7691 35.56 50.1642 35.9725C49.5592 36.3849 48.8443 36.5911 48.0195 36.5911ZM59.6985 36.5911C59.0936 36.5911 58.468 36.5224 57.8219 36.3849C57.1895 36.2474 56.6052 36.0137 56.069 35.6837C55.8903 35.56 55.7665 35.4225 55.6978 35.2713C55.6291 35.1201 55.6016 34.9688 55.6153 34.8176C55.6428 34.6526 55.7047 34.5152 55.8009 34.4052C55.9109 34.2814 56.0415 34.2058 56.1927 34.1783C56.3577 34.1508 56.5295 34.1852 56.7083 34.2814C57.2444 34.5839 57.76 34.797 58.2549 34.9207C58.7499 35.0307 59.2379 35.0857 59.7191 35.0857C60.4477 35.0857 60.9977 34.9551 61.3689 34.6939C61.7401 34.4327 61.9257 34.0821 61.9257 33.6422C61.9257 33.2847 61.8019 33.0098 61.5545 32.8173C61.307 32.6111 60.9358 32.453 60.4409 32.343L58.4818 31.9512C57.6294 31.7724 56.9832 31.4562 56.5433 31.0025C56.1034 30.5489 55.8834 29.9714 55.8834 29.2703C55.8834 28.6379 56.0552 28.088 56.3989 27.6205C56.7426 27.1531 57.2238 26.7956 57.8425 26.5482C58.4611 26.287 59.176 26.1564 59.9872 26.1564C60.5921 26.1564 61.1626 26.232 61.6988 26.3832C62.235 26.5344 62.7299 26.7613 63.1836 27.0637C63.3623 27.16 63.4792 27.2906 63.5342 27.4555C63.5892 27.6068 63.596 27.758 63.5548 27.9092C63.5273 28.0605 63.4586 28.1979 63.3486 28.3217C63.2386 28.4317 63.1011 28.5004 62.9361 28.5279C62.7849 28.5416 62.6131 28.5004 62.4206 28.4042C62.0081 28.143 61.5957 27.9574 61.1833 27.8474C60.7846 27.7374 60.3859 27.6824 59.9872 27.6824C59.2585 27.6824 58.7086 27.8199 58.3374 28.0948C57.98 28.356 57.8012 28.7135 57.8012 29.1672C57.8012 29.5109 57.9112 29.7927 58.1312 30.0127C58.3512 30.2327 58.6949 30.3908 59.1623 30.487L61.1214 30.8788C62.015 31.0575 62.6887 31.36 63.1424 31.7862C63.6098 32.2124 63.8435 32.7898 63.8435 33.5184C63.8435 34.467 63.4654 35.2163 62.7093 35.7662C61.9531 36.3162 60.9495 36.5911 59.6985 36.5911ZM67.192 36.5292C66.8621 36.5292 66.6077 36.433 66.429 36.2405C66.2503 36.0343 66.1609 35.7525 66.1609 35.395V27.3524C66.1609 26.995 66.2503 26.72 66.429 26.5276C66.6077 26.3351 66.8621 26.2388 67.192 26.2388C67.522 26.2388 67.7763 26.3351 67.955 26.5276C68.1475 26.72 68.2437 26.995 68.2437 27.3524V35.395C68.2437 35.7525 68.1544 36.0343 67.9756 36.2405C67.7969 36.433 67.5357 36.5292 67.192 36.5292ZM67.192 24.0942C66.7796 24.0942 66.4565 23.991 66.2228 23.7848C66.0028 23.5786 65.8928 23.2899 65.8928 22.9187C65.8928 22.5338 66.0028 22.245 66.2228 22.0526C66.4565 21.8464 66.7796 21.7432 67.192 21.7432C67.6044 21.7432 67.9207 21.8464 68.1406 22.0526C68.3743 22.245 68.4912 22.5338 68.4912 22.9187C68.4912 23.2899 68.3743 23.5786 68.1406 23.7848C67.9207 23.991 67.6044 24.0942 67.192 24.0942ZM75.6092 36.5911C74.5781 36.5911 73.6845 36.378 72.9283 35.9518C72.1859 35.5119 71.6085 34.9001 71.1961 34.1165C70.7836 33.3191 70.5774 32.3842 70.5774 31.3119C70.5774 30.5145 70.6943 29.7996 70.928 29.1672C71.1617 28.521 71.4917 27.978 71.9178 27.538C72.3578 27.0981 72.8871 26.7613 73.5057 26.5276C74.1381 26.2801 74.8393 26.1564 75.6092 26.1564C76.0904 26.1564 76.5922 26.232 77.1146 26.3832C77.6508 26.5207 78.1457 26.7544 78.5994 27.0844C78.7781 27.1943 78.8881 27.3318 78.9293 27.4968C78.9843 27.648 78.9912 27.8061 78.95 27.9711C78.9225 28.1361 78.8468 28.2804 78.7231 28.4042C78.6131 28.5141 78.4757 28.5829 78.3107 28.6104C78.1457 28.6241 77.967 28.576 77.7745 28.466C77.4445 28.2323 77.1077 28.0673 76.764 27.9711C76.4203 27.8611 76.0904 27.8061 75.7742 27.8061C75.2792 27.8061 74.8393 27.8886 74.4544 28.0536C74.0832 28.2048 73.767 28.4317 73.5057 28.7341C73.2445 29.0228 73.0452 29.3871 72.9077 29.8271C72.784 30.267 72.7221 30.7688 72.7221 31.3325C72.7221 32.4598 72.9833 33.3466 73.5057 33.9927C74.0419 34.6251 74.7981 34.9414 75.7742 34.9414C76.0904 34.9414 76.4203 34.8932 76.764 34.797C77.1077 34.7008 77.4445 34.5358 77.7745 34.3021C77.967 34.1921 78.1457 34.1508 78.3107 34.1783C78.4757 34.2058 78.6063 34.2814 78.7025 34.4052C78.8125 34.5152 78.8812 34.6526 78.9087 34.8176C78.95 34.9688 78.9431 35.127 78.8881 35.2919C78.8331 35.4569 78.7162 35.5944 78.5375 35.7044C78.0976 36.0206 77.6164 36.2474 77.094 36.3849C76.5853 36.5224 76.0904 36.5911 75.6092 36.5911ZM83.9382 36.5911C83.2371 36.5911 82.6047 36.4536 82.041 36.1787C81.4911 35.9037 81.058 35.5325 80.7418 35.0651C80.4256 34.5977 80.2675 34.0684 80.2675 33.4772C80.2675 32.7348 80.4531 32.1505 80.8243 31.7243C81.2093 31.2844 81.8348 30.975 82.7009 30.7963C83.5808 30.6038 84.7631 30.5076 86.2479 30.5076H87.2171V31.7862H86.2685C85.2787 31.7862 84.495 31.8343 83.9176 31.9305C83.3402 32.0268 82.9278 32.1917 82.6803 32.4255C82.4466 32.6454 82.3297 32.9548 82.3297 33.3535C82.3297 33.8759 82.5084 34.3021 82.8659 34.632C83.2233 34.9482 83.7183 35.1063 84.3507 35.1063C84.8594 35.1063 85.3062 34.9895 85.6911 34.7558C86.0761 34.5083 86.3785 34.1783 86.5985 33.7659C86.8322 33.3535 86.9491 32.8791 86.9491 32.343V29.9714C86.9491 29.1878 86.7841 28.6241 86.4541 28.2804C86.1242 27.9367 85.5811 27.7649 84.825 27.7649C84.385 27.7649 83.9245 27.8199 83.4433 27.9299C82.9759 28.0398 82.4878 28.2254 81.9791 28.4867C81.7454 28.5966 81.5461 28.631 81.3811 28.5898C81.2161 28.5485 81.0855 28.4592 80.9893 28.3217C80.893 28.1704 80.8381 28.0123 80.8243 27.8474C80.8243 27.6686 80.8656 27.4968 80.948 27.3318C81.0443 27.1668 81.2024 27.0431 81.4223 26.9606C82.0273 26.6719 82.6253 26.4657 83.2165 26.342C83.8076 26.2182 84.3644 26.1564 84.8868 26.1564C85.808 26.1564 86.5641 26.3007 87.1553 26.5894C87.7602 26.8781 88.207 27.3181 88.4957 27.9092C88.7844 28.5004 88.9288 29.2634 88.9288 30.1983V35.4981C88.9288 35.8281 88.8463 36.0893 88.6813 36.2818C88.5163 36.4605 88.2757 36.5499 87.9595 36.5499C87.6571 36.5499 87.4165 36.4605 87.2378 36.2818C87.059 36.0893 86.9697 35.8281 86.9697 35.4981V34.1577H87.1553C87.0453 34.6664 86.8391 35.1063 86.5366 35.4775C86.2479 35.835 85.8836 36.1099 85.4436 36.3024C85.0037 36.4949 84.5019 36.5911 83.9382 36.5911ZM95.0352 36.5911C93.9628 36.5911 93.1517 36.2818 92.6018 35.6631C92.0656 35.0307 91.7975 34.1233 91.7975 32.941V22.7743C91.7975 22.4306 91.8869 22.1694 92.0656 21.9907C92.2443 21.812 92.4986 21.7226 92.8286 21.7226C93.1585 21.7226 93.4129 21.812 93.5916 21.9907C93.7841 22.1694 93.8803 22.4306 93.8803 22.7743V32.8173C93.8803 33.5047 94.0178 34.0202 94.2928 34.3639C94.5815 34.6939 94.9939 34.8589 95.5301 34.8589C95.6538 34.8589 95.7638 34.8589 95.86 34.8589C95.9563 34.8451 96.0525 34.8314 96.1487 34.8176C96.3137 34.8039 96.4306 34.852 96.4993 34.962C96.5681 35.0582 96.6024 35.2644 96.6024 35.5806C96.6024 35.8693 96.5406 36.0962 96.4168 36.2612C96.2931 36.4124 96.0938 36.5086 95.8188 36.5499C95.6951 36.5636 95.5645 36.5705 95.427 36.5705C95.2895 36.5842 95.1589 36.5911 95.0352 36.5911Z"
          fill="#F8F8F8"/>
</svg>
