<svg width="25" height="24" viewBox="0 0 25 24" fill="none" xmlns="http://www.w3.org/2000/svg">
    <path fill-rule="evenodd" clip-rule="evenodd"
          d="M5.25732 4C4.99211 4 4.73775 4.10536 4.55022 4.29289C4.36268 4.48043 4.25732 4.73478 4.25732 5V19C4.25732 19.2652 4.36268 19.5196 4.55022 19.7071C4.73775 19.8946 4.99211 20 5.25732 20H9.25732C9.80961 20 10.2573 20.4477 10.2573 21C10.2573 21.5523 9.80961 22 9.25732 22H5.25732C4.46167 22 3.69861 21.6839 3.136 21.1213C2.57339 20.5587 2.25732 19.7957 2.25732 19V5C2.25732 4.20435 2.57339 3.44129 3.136 2.87868C3.69861 2.31607 4.46167 2 5.25732 2H9.25732C9.80961 2 10.2573 2.44772 10.2573 3C10.2573 3.55228 9.80961 4 9.25732 4H5.25732Z"
          fill="#F8F8F8"/>
    <path fill-rule="evenodd" clip-rule="evenodd"
          d="M15.5502 6.29289C15.9407 5.90237 16.5739 5.90237 16.9644 6.29289L21.9644 11.2929C22.355 11.6834 22.355 12.3166 21.9644 12.7071L16.9644 17.7071C16.5739 18.0976 15.9407 18.0976 15.5502 17.7071C15.1597 17.3166 15.1597 16.6834 15.5502 16.2929L19.8431 12L15.5502 7.70711C15.1597 7.31658 15.1597 6.68342 15.5502 6.29289Z"
          fill="#F8F8F8"/>
    <path fill-rule="evenodd" clip-rule="evenodd"
          d="M8.25732 12C8.25732 11.4477 8.70504 11 9.25732 11H21.2573C21.8096 11 22.2573 11.4477 22.2573 12C22.2573 12.5523 21.8096 13 21.2573 13H9.25732C8.70504 13 8.25732 12.5523 8.25732 12Z"
          fill="#F8F8F8"/>
</svg>
