<svg width="25" height="24" viewBox="0 0 25 24" fill="none" xmlns="http://www.w3.org/2000/svg">
<path d="M12.7422 23.0001C11.6922 23.0001 10.6622 22.8001 9.68219 22.3901C8.70219 21.9801 7.83219 21.4001 7.09219 20.6601C6.34219 19.9101 5.76219 19.0401 5.36219 18.0601C4.95219 17.0801 4.74219 16.0501 4.74219 15.0001C4.74219 13.7001 5.21219 12.3101 5.96219 11.3701C6.23219 11.0401 6.67219 10.9101 7.07219 11.0501C7.47219 11.2001 7.74219 11.5801 7.74219 12.0001C7.74219 12.4001 7.90219 12.7801 8.18219 13.0601C8.75219 13.6301 9.73219 13.6301 10.3022 13.0601C10.5822 12.7801 10.7422 12.4001 10.7422 12.0001C10.7422 11.1201 10.5022 10.6701 10.1322 9.99005C10.0422 9.82005 9.94219 9.64005 9.85219 9.45005C8.62219 7.00005 9.35219 4.64005 12.0922 2.25005C12.3622 2.01005 12.7322 1.94005 13.0722 2.06005C13.4122 2.17005 13.6622 2.46005 13.7322 2.81005C14.1822 5.05005 15.5422 7.26005 17.3722 8.73005C19.5722 10.4901 20.7422 12.6601 20.7422 15.0001C20.7422 16.0601 20.5322 17.0901 20.1322 18.0601C19.7322 19.0401 19.1422 19.9101 18.4022 20.6601C17.6522 21.4101 16.7822 21.9901 15.8022 22.3901C14.8322 22.7901 13.8022 23.0001 12.7422 23.0001ZM6.78219 14.4901C6.75219 14.6601 6.74219 14.8301 6.74219 15.0001C6.74219 15.7901 6.89219 16.5601 7.20219 17.3001C7.50219 18.0301 7.94219 18.6901 8.50219 19.2501C9.06219 19.8101 9.71219 20.2501 10.4522 20.5501C11.9222 21.1601 13.5822 21.1501 15.0422 20.5501C15.7722 20.2501 16.4322 19.8101 16.9922 19.2501C17.5522 18.6901 17.9922 18.0401 18.2922 17.3001C18.5922 16.5601 18.7422 15.7901 18.7422 15.0001C18.7422 13.2901 17.8322 11.6501 16.1222 10.2801C14.4022 8.90005 13.0322 6.98005 12.2622 4.91005C10.9422 6.51005 11.1822 7.64005 11.6322 8.55005C11.7222 8.72005 11.8022 8.89005 11.8922 9.04005C12.3122 9.82005 12.7422 10.6201 12.7422 12.0001C12.7422 12.9401 12.3822 13.8101 11.7222 14.4701C10.3922 15.7901 8.10219 15.8001 6.78219 14.4901Z" fill="#F8F8F8"/>
</svg>
