<svg width="22" height="22" viewBox="0 0 22 22" fill="none" xmlns="http://www.w3.org/2000/svg">
<path fill-rule="evenodd" clip-rule="evenodd" d="M6.17285 16.25C5.82475 16.25 5.49092 16.3883 5.24477 16.6344C4.99863 16.8806 4.86035 17.2144 4.86035 17.5625C4.86035 18.0457 4.4686 18.4375 3.98535 18.4375C3.5021 18.4375 3.11035 18.0457 3.11035 17.5625C3.11035 16.7503 3.43301 15.9713 4.00734 15.397C4.58167 14.8227 5.36063 14.5 6.17285 14.5H17.9854C18.4686 14.5 18.8604 14.8918 18.8604 15.375C18.8604 15.8582 18.4686 16.25 17.9854 16.25H6.17285Z" fill="#F8F8F8"/>
<path fill-rule="evenodd" clip-rule="evenodd" d="M6.17285 3.125C5.82475 3.125 5.49092 3.26328 5.24477 3.50942C4.99863 3.75556 4.86035 4.0894 4.86035 4.4375V17.5625C4.86035 17.9106 4.99863 18.2444 5.24477 18.4906C5.49092 18.7367 5.82475 18.875 6.17285 18.875H17.1104V3.125H6.17285ZM6.17285 1.375H17.9854C18.4686 1.375 18.8604 1.76675 18.8604 2.25V19.75C18.8604 20.2332 18.4686 20.625 17.9854 20.625H6.17285C5.36063 20.625 4.58167 20.3023 4.00734 19.728C3.43301 19.1537 3.11035 18.3747 3.11035 17.5625V4.4375C3.11035 3.62527 3.43301 2.84632 4.00734 2.27199C4.58167 1.69766 5.36063 1.375 6.17285 1.375Z" fill="#F8F8F8"/>
</svg>
