<svg width="22" height="23" viewBox="0 0 22 23" fill="none" xmlns="http://www.w3.org/2000/svg">
<path fill-rule="evenodd" clip-rule="evenodd" d="M4.09243 14.6757C4.95197 13.8161 6.11776 13.3333 7.33333 13.3333H14.6667C15.8822 13.3333 17.048 13.8161 17.9076 14.6757C18.7671 15.5352 19.25 16.701 19.25 17.9166V19.7499C19.25 20.2562 18.8396 20.6666 18.3333 20.6666C17.8271 20.6666 17.4167 20.2562 17.4167 19.7499V17.9166C17.4167 17.1872 17.1269 16.4878 16.6112 15.972C16.0955 15.4563 15.396 15.1666 14.6667 15.1666H7.33333C6.60399 15.1666 5.90452 15.4563 5.38879 15.972C4.87306 16.4878 4.58333 17.1872 4.58333 17.9166V19.7499C4.58333 20.2562 4.17293 20.6666 3.66667 20.6666C3.16041 20.6666 2.75 20.2562 2.75 19.7499V17.9166C2.75 16.701 3.23289 15.5352 4.09243 14.6757Z" fill="#F8F8F8"/>
<path fill-rule="evenodd" clip-rule="evenodd" d="M11.0003 4.16659C9.48154 4.16659 8.25033 5.3978 8.25033 6.91659C8.25033 8.43537 9.48154 9.66659 11.0003 9.66659C12.5191 9.66659 13.7503 8.43537 13.7503 6.91659C13.7503 5.3978 12.5191 4.16659 11.0003 4.16659ZM6.41699 6.91659C6.41699 4.38528 8.46902 2.33325 11.0003 2.33325C13.5316 2.33325 15.5837 4.38528 15.5837 6.91659C15.5837 9.44789 13.5316 11.4999 11.0003 11.4999C8.46902 11.4999 6.41699 9.44789 6.41699 6.91659Z" fill="#F8F8F8"/>
</svg>
