<svg width="17" height="18" viewBox="0 0 17 18" fill="none" xmlns="http://www.w3.org/2000/svg">
    <path d="M9.62388 8.18796H4.75248M6.37628 11.4356H4.75248M11.2477 4.94036H4.75248M14.4953 7.37606V4.77798C14.4953 3.41386 14.4953 2.7318 14.2298 2.21077C13.9963 1.75247 13.6237 1.37985 13.1654 1.14633C12.6443 0.880859 11.9623 0.880859 10.5982 0.880859H5.402C4.03788 0.880859 3.35582 0.880859 2.8348 1.14633C2.37649 1.37985 2.00388 1.75247 1.77036 2.21077C1.50488 2.7318 1.50488 3.41386 1.50488 4.77798V13.2217C1.50488 14.5859 1.50488 15.2679 1.77036 15.7889C2.00388 16.2472 2.37649 16.6199 2.8348 16.8534C3.35582 17.1189 4.03788 17.1189 5.402 17.1189H8.40603M12.8715 16.307C12.8715 16.307 15.3072 15.146 15.3072 13.4046V11.3729L13.5311 10.7383C13.1043 10.5854 12.6377 10.5854 12.2109 10.7383L10.4358 11.3729V13.4046C10.4358 15.146 12.8715 16.307 12.8715 16.307Z"
          stroke="#F8F8F8" stroke-width="1.6238" stroke-linecap="round" stroke-linejoin="round"/>
</svg>
