<svg width="18" height="18" viewBox="0 0 18 18" fill="none" xmlns="http://www.w3.org/2000/svg">
    <path d="M12.8645 11.3208L12 10.5L11.7633 11.0429C12.7719 9.86964 13.3791 8.34648 13.3791 6.68954C13.3791 2.99485 10.3842 0 6.68954 0C2.99485 0 0 2.99485 0 6.68954C0 10.3842 2.99485 13.3791 6.68954 13.3791C8.34648 13.3791 9.86964 12.7719 11.0429 11.7633L10.5 12L11.3208 12.8645L15.6991 17.234C16.1231 17.6572 16.8097 17.6569 17.2333 17.2333V17.2333C17.6569 16.8097 17.6572 16.1231 17.234 15.6991L12.8645 11.3208ZM6.68954 11.3208C4.12693 11.3208 2.05832 9.25214 2.05832 6.68954C2.05832 4.12693 4.12693 2.05832 6.68954 2.05832C9.25214 2.05832 11.3208 4.12693 11.3208 6.68954C11.3208 9.25214 9.25214 11.3208 6.68954 11.3208Z"
          fill="#F8F8F8"/>
</svg>
