<svg width="25" height="24" viewBox="0 0 25 24" fill="none" xmlns="http://www.w3.org/2000/svg">
    <path d="M9.65237 19.3711L10.2368 20.6856C10.4106 21.0768 10.6941 21.4093 11.053 21.6426C11.412 21.8759 11.8309 22.0001 12.259 22C12.6871 22.0001 13.1061 21.8759 13.465 21.6426C13.824 21.4093 14.1075 21.0768 14.2813 20.6856L14.8657 19.3711C15.0737 18.9047 15.4237 18.5159 15.8657 18.26C16.3105 18.0034 16.825 17.8941 17.3357 17.9478L18.7657 18.1C19.1914 18.145 19.621 18.0656 20.0024 17.8713C20.3838 17.6771 20.7007 17.3763 20.9146 17.0056C21.1288 16.635 21.2308 16.2103 21.2083 15.7829C21.1858 15.3555 21.0398 14.9438 20.7879 14.5978L19.9413 13.4344C19.6398 13.0171 19.4787 12.5148 19.4813 12C19.4812 11.4866 19.6438 10.9864 19.9457 10.5711L20.7924 9.40778C21.0442 9.06175 21.1903 8.65007 21.2128 8.22267C21.2352 7.79528 21.1332 7.37054 20.919 7C20.7051 6.62923 20.3883 6.32849 20.0068 6.13423C19.6254 5.93997 19.1958 5.86053 18.7701 5.90556L17.3401 6.05778C16.8295 6.11141 16.3149 6.00212 15.8701 5.74556C15.4273 5.48825 15.0772 5.09736 14.8701 4.62889L14.2813 3.31444C14.1075 2.92317 13.824 2.59072 13.465 2.3574C13.1061 2.12408 12.6871 1.99993 12.259 2C11.8309 1.99993 11.412 2.12408 11.053 2.3574C10.6941 2.59072 10.4106 2.92317 10.2368 3.31444L9.65237 4.62889C9.44529 5.09736 9.09524 5.48825 8.65237 5.74556C8.20758 6.00212 7.69304 6.11141 7.18237 6.05778L5.74792 5.90556C5.32225 5.86053 4.89266 5.93997 4.51124 6.13423C4.12981 6.32849 3.81294 6.62923 3.59903 7C3.38485 7.37054 3.28282 7.79528 3.3053 8.22267C3.32778 8.65007 3.47382 9.06175 3.7257 9.40778L4.57237 10.5711C4.87431 10.9864 5.0369 11.4866 5.03681 12C5.0369 12.5134 4.87431 13.0137 4.57237 13.4289L3.7257 14.5922C3.47382 14.9382 3.32778 15.3499 3.3053 15.7773C3.28282 16.2047 3.38485 16.6295 3.59903 17C3.81315 17.3706 4.13006 17.6712 4.51143 17.8654C4.8928 18.0596 5.32228 18.1392 5.74792 18.0944L7.17792 17.9422C7.68859 17.8886 8.20314 17.9979 8.64792 18.2544C9.09245 18.511 9.44413 18.902 9.65237 19.3711Z"
          stroke="#F8F8F8" stroke-width="2" stroke-linecap="round" stroke-linejoin="round"/>
    <path d="M12.2572 15C13.9141 15 15.2572 13.6569 15.2572 12C15.2572 10.3431 13.9141 9 12.2572 9C10.6004 9 9.25725 10.3431 9.25725 12C9.25725 13.6569 10.6004 15 12.2572 15Z"
          stroke="#F8F8F8" stroke-width="2" stroke-linecap="round" stroke-linejoin="round"/>
</svg>
