<svg width="22" height="23" viewBox="0 0 22 23" fill="none" xmlns="http://www.w3.org/2000/svg">
<path fill-rule="evenodd" clip-rule="evenodd" d="M9.16699 6.91667C9.16699 6.41041 9.5774 6 10.0837 6H18.3337C18.8399 6 19.2503 6.41041 19.2503 6.91667C19.2503 7.42293 18.8399 7.83333 18.3337 7.83333H10.0837C9.5774 7.83333 9.16699 7.42293 9.16699 6.91667Z" fill="#F8F8F8"/>
<path fill-rule="evenodd" clip-rule="evenodd" d="M3.66699 16.0834C3.66699 15.5772 4.0774 15.1667 4.58366 15.1667H12.8337C13.3399 15.1667 13.7503 15.5772 13.7503 16.0834C13.7503 16.5897 13.3399 17.0001 12.8337 17.0001H4.58366C4.0774 17.0001 3.66699 16.5897 3.66699 16.0834Z" fill="#F8F8F8"/>
<path fill-rule="evenodd" clip-rule="evenodd" d="M15.5837 14.2501C14.5711 14.2501 13.7503 15.0709 13.7503 16.0834C13.7503 17.0959 14.5711 17.9167 15.5837 17.9167C16.5962 17.9167 17.417 17.0959 17.417 16.0834C17.417 15.0709 16.5962 14.2501 15.5837 14.2501ZM11.917 16.0834C11.917 14.0584 13.5586 12.4167 15.5837 12.4167C17.6087 12.4167 19.2503 14.0584 19.2503 16.0834C19.2503 18.1085 17.6087 19.7501 15.5837 19.7501C13.5586 19.7501 11.917 18.1085 11.917 16.0834Z" fill="#F8F8F8"/>
<path fill-rule="evenodd" clip-rule="evenodd" d="M6.41667 5.08333C5.40414 5.08333 4.58333 5.90414 4.58333 6.91667C4.58333 7.92919 5.40414 8.75 6.41667 8.75C7.42919 8.75 8.25 7.92919 8.25 6.91667C8.25 5.90414 7.42919 5.08333 6.41667 5.08333ZM2.75 6.91667C2.75 4.89162 4.39162 3.25 6.41667 3.25C8.44171 3.25 10.0833 4.89162 10.0833 6.91667C10.0833 8.94171 8.44171 10.5833 6.41667 10.5833C4.39162 10.5833 2.75 8.94171 2.75 6.91667Z" fill="#F8F8F8"/>
</svg>
