<svg width="22" height="23" viewBox="0 0 22 23" fill="none" xmlns="http://www.w3.org/2000/svg">
<path fill-rule="evenodd" clip-rule="evenodd" d="M4.76634 1.78341C4.93946 1.55259 5.21115 1.41675 5.49967 1.41675H16.4997C16.7882 1.41675 17.0599 1.55259 17.233 1.78341L19.983 5.45008C20.102 5.60875 20.1663 5.80174 20.1663 6.00008V18.8334C20.1663 19.5628 19.8766 20.2622 19.3609 20.778C18.8452 21.2937 18.1457 21.5834 17.4163 21.5834H4.58301C3.85366 21.5834 3.15419 21.2937 2.63846 20.778C2.12274 20.2622 1.83301 19.5628 1.83301 18.8334V6.00008C1.83301 5.80174 1.89734 5.60875 2.01634 5.45008L4.76634 1.78341ZM5.95801 3.25008L3.66634 6.30564V18.8334C3.66634 19.0765 3.76292 19.3097 3.93483 19.4816C4.10673 19.6535 4.33989 19.7501 4.58301 19.7501H17.4163C17.6595 19.7501 17.8926 19.6535 18.0645 19.4816C18.2364 19.3097 18.333 19.0765 18.333 18.8334V6.30564L16.0413 3.25008H5.95801Z" fill="#F8F8F8"/>
<path fill-rule="evenodd" clip-rule="evenodd" d="M1.83301 5.99992C1.83301 5.49366 2.24341 5.08325 2.74967 5.08325H19.2497C19.7559 5.08325 20.1663 5.49366 20.1663 5.99992C20.1663 6.50618 19.7559 6.91658 19.2497 6.91658H2.74967C2.24341 6.91658 1.83301 6.50618 1.83301 5.99992Z" fill="#F8F8F8"/>
<path fill-rule="evenodd" clip-rule="evenodd" d="M7.33366 8.75C7.83992 8.75 8.25033 9.16041 8.25033 9.66667C8.25033 10.396 8.54006 11.0955 9.05578 11.6112C9.57151 12.1269 10.271 12.4167 11.0003 12.4167C11.7297 12.4167 12.4291 12.1269 12.9449 11.6112C13.4606 11.0955 13.7503 10.396 13.7503 9.66667C13.7503 9.16041 14.1607 8.75 14.667 8.75C15.1733 8.75 15.5837 9.16041 15.5837 9.66667C15.5837 10.8822 15.1008 12.048 14.2412 12.9076C13.3817 13.7671 12.2159 14.25 11.0003 14.25C9.78475 14.25 8.61896 13.7671 7.75942 12.9076C6.89988 12.048 6.41699 10.8822 6.41699 9.66667C6.41699 9.16041 6.8274 8.75 7.33366 8.75Z" fill="#F8F8F8"/>
</svg>
