<svg width="20" height="22" viewBox="0 0 20 22" fill="none" xmlns="http://www.w3.org/2000/svg">
    <path d="M3.63732 2.108L2.16399 4.084C1.87217 4.47538 1.72626 4.67107 1.72965 4.83487C1.7326 4.97742 1.79904 5.11109 1.91064 5.19899C2.03889 5.3 2.28207 5.3 2.76844 5.3H16.7462C17.2326 5.3 17.4758 5.3 17.604 5.19899C17.7156 5.11109 17.7821 4.97742 17.785 4.83487C17.7884 4.67107 17.6425 4.47538 17.3507 4.084L15.8773 2.108M3.63732 2.108C3.80355 1.88507 3.88666 1.7736 3.99199 1.69321C4.08528 1.622 4.19092 1.56887 4.30352 1.53652C4.43066 1.5 4.56918 1.5 4.84621 1.5H14.6684C14.9455 1.5 15.084 1.5 15.2111 1.53652C15.3237 1.56887 15.4294 1.622 15.5227 1.69321C15.628 1.7736 15.7111 1.88507 15.8773 2.108M3.63732 2.108L1.86177 4.48933C1.6375 4.79012 1.52537 4.94051 1.44574 5.10613C1.37508 5.25309 1.32355 5.4086 1.29241 5.56881C1.25732 5.74936 1.25732 5.93735 1.25732 6.31333L1.25732 17.46C1.25732 18.5241 1.25732 19.0561 1.4632 19.4626C1.64429 19.8201 1.93326 20.1108 2.28868 20.2929C2.69273 20.5 3.22167 20.5 4.27955 20.5L15.2351 20.5C16.293 20.5 16.8219 20.5 17.226 20.2929C17.5814 20.1108 17.8704 19.8201 18.0514 19.4626C18.2573 19.0561 18.2573 18.5241 18.2573 17.46V6.31333C18.2573 5.93735 18.2573 5.74936 18.2222 5.56881C18.1911 5.4086 18.1396 5.25309 18.0689 5.10613C17.9893 4.94051 17.8771 4.79012 17.6529 4.48933L15.8773 2.108M13.5351 9.1C13.5351 10.1078 13.1371 11.0744 12.4286 11.787C11.7201 12.4996 10.7593 12.9 9.75732 12.9C8.7554 12.9 7.7945 12.4996 7.08603 11.787C6.37756 11.0744 5.97955 10.1078 5.97955 9.1"
          stroke="#F8F8F8" stroke-width="2" stroke-linecap="round" stroke-linejoin="round"/>
</svg>
