<svg width="24" height="20" viewBox="0 0 24 20" fill="none" xmlns="http://www.w3.org/2000/svg">
<path d="M2.45513 9.58186C2.45513 11.0044 2.16322 12.3407 1.82817 13.517C1.67571 14.0522 1.51172 14.5628 1.36113 15.0316C1.34637 15.0776 1.33175 15.1231 1.31727 15.1683C1.15283 15.6809 1.00997 16.1339 0.907091 16.541C0.803472 16.9511 0.751066 17.275 0.75009 17.5302C0.749132 17.7804 0.797819 17.9157 0.850883 17.9955C0.946362 18.1392 1.28417 18.4137 2.54776 18.4137C7.31062 18.4137 11.1963 14.4733 11.1963 9.58186C11.1963 4.69043 7.31062 0.75 2.54776 0.75C1.28417 0.75 0.946362 1.02455 0.850883 1.16818C0.797819 1.24801 0.749132 1.38328 0.75009 1.63356C0.751066 1.88871 0.803472 2.21266 0.907091 2.62271C1.00997 3.02983 1.15283 3.48284 1.31727 3.99546C1.33174 4.04058 1.34637 4.08611 1.36112 4.13205C1.51172 4.6009 1.67571 5.11147 1.82817 5.64671C2.16322 6.82302 2.45513 8.15935 2.45513 9.58186Z" stroke="#F8F8F8" stroke-width="1.5"/>
<path d="M21.456 9.58186C21.456 11.0044 21.7479 12.3407 22.083 13.517C22.2354 14.0522 22.3994 14.5628 22.55 15.0316C22.5648 15.0776 22.5794 15.1231 22.5939 15.1683C22.7583 15.6809 22.9012 16.1339 23.004 16.541C23.1077 16.9511 23.1601 17.275 23.161 17.5302C23.162 17.7804 23.1133 17.9157 23.0602 17.9955C22.9648 18.1392 22.627 18.4137 21.3634 18.4137C16.6005 18.4137 12.7148 14.4733 12.7148 9.58186C12.7148 4.69043 16.6005 0.75 21.3634 0.75C22.627 0.75 22.9648 1.02455 23.0602 1.16818C23.1133 1.24801 23.162 1.38328 23.161 1.63356C23.1601 1.88871 23.1077 2.21266 23.004 2.62271C22.9012 3.02983 22.7583 3.48284 22.5939 3.99546C22.5794 4.04058 22.5648 4.08611 22.55 4.13205C22.3994 4.6009 22.2354 5.11147 22.083 5.64671C21.7479 6.82302 21.456 8.15935 21.456 9.58186Z" stroke="#F8F8F8" stroke-width="1.5"/>
</svg>
