<svg width="20" height="21" viewBox="0 0 20 21" fill="none" xmlns="http://www.w3.org/2000/svg">
<path fill-rule="evenodd" clip-rule="evenodd" d="M19.548 5.87752C19.8255 6.02036 20 6.30634 20 6.61849V14.9518C20 15.264 19.8255 15.55 19.548 15.6928C19.2704 15.8356 18.9363 15.8114 18.6823 15.6299L12.849 11.4633C12.63 11.3068 12.5 11.0543 12.5 10.7852C12.5 10.516 12.63 10.2635 12.849 10.107L18.6823 5.94038C18.9363 5.75894 19.2704 5.73468 19.548 5.87752ZM14.7671 10.7852L18.3333 13.3325V8.23782L14.7671 10.7852Z" fill="#D523B7"/>
<path fill-rule="evenodd" clip-rule="evenodd" d="M2.5 5.78532C2.03976 5.78532 1.66667 6.15841 1.66667 6.61865V14.952C1.66667 15.4122 2.03976 15.7853 2.5 15.7853H11.6667C12.1269 15.7853 12.5 15.4122 12.5 14.952V6.61865C12.5 6.15841 12.1269 5.78532 11.6667 5.78532H2.5ZM0 6.61865C0 5.23794 1.11929 4.11865 2.5 4.11865H11.6667C13.0474 4.11865 14.1667 5.23794 14.1667 6.61865V14.952C14.1667 16.3327 13.0474 17.452 11.6667 17.452H2.5C1.11929 17.452 0 16.3327 0 14.952V6.61865Z" fill="#D523B7"/>
</svg>
