<svg width="22" height="23" viewBox="0 0 22 23" fill="none" xmlns="http://www.w3.org/2000/svg">
<path fill-rule="evenodd" clip-rule="evenodd" d="M7.661 2.63175C8.77176 2.54384 9.88794 2.7102 10.9248 3.11819C11.9616 3.52618 12.8919 4.16508 13.6449 4.98636C14.2409 5.63645 14.7135 6.38728 15.0417 7.20186H16.054C17.1227 7.21627 18.1592 7.57001 19.0138 8.21186C19.8684 8.85371 20.4969 9.75054 20.8086 10.7729C21.1202 11.7952 21.099 12.8901 20.7478 13.8996C20.3967 14.9091 19.7338 15.7808 18.8549 16.389C18.4386 16.6771 17.8676 16.5731 17.5795 16.1568C17.2914 15.7405 17.3954 15.1695 17.8117 14.8814C18.371 14.4944 18.7928 13.9396 19.0163 13.2973C19.2397 12.6549 19.2533 11.9581 19.0549 11.3075C18.8566 10.6569 18.4566 10.0862 17.9128 9.67779C17.3705 9.2705 16.7131 9.04556 16.0351 9.03519H14.3916C13.9857 9.03519 13.6281 8.76823 13.5128 8.37906C13.2753 7.57784 12.8583 6.84129 12.2936 6.22533C11.7288 5.60936 11.0311 5.13019 10.2535 4.8242C9.47585 4.5182 8.63872 4.39343 7.80565 4.45937C6.97258 4.5253 6.16549 4.7802 5.44567 5.20471C4.72585 5.62922 4.11222 6.21217 3.6514 6.90931C3.19058 7.60644 2.89467 8.39941 2.78615 9.22801C2.67764 10.0566 2.75936 10.899 3.02512 11.6913C3.29088 12.4836 3.73369 13.2049 4.31992 13.8005C4.67506 14.1613 4.67048 14.7417 4.30968 15.0968C3.94889 15.4519 3.3685 15.4474 3.01336 15.0866C2.23172 14.2925 1.64131 13.3307 1.28697 12.2744C0.93262 11.218 0.823653 10.0947 0.968344 8.98994C1.11303 7.88514 1.50758 6.82784 2.12201 5.89833C2.73644 4.96883 3.5546 4.19155 4.51436 3.62554C5.47412 3.05953 6.55024 2.71966 7.661 2.63175Z" fill="#7466FF"/>
<path fill-rule="evenodd" clip-rule="evenodd" d="M10.9999 10.8684C11.5062 10.8684 11.9166 11.2788 11.9166 11.7851V20.0351C11.9166 20.5413 11.5062 20.9517 10.9999 20.9517C10.4937 20.9517 10.0833 20.5413 10.0833 20.0351V11.7851C10.0833 11.2788 10.4937 10.8684 10.9999 10.8684Z" fill="#7466FF"/>
<path fill-rule="evenodd" clip-rule="evenodd" d="M6.68523 15.7204C7.04321 15.3624 7.62362 15.3624 7.9816 15.7204L11.0001 18.7389L14.0186 15.7204C14.3765 15.3624 14.9569 15.3624 15.3149 15.7204C15.6729 16.0784 15.6729 16.6588 15.3149 17.0168L11.6483 20.6834C11.2903 21.0414 10.7099 21.0414 10.3519 20.6834L6.68523 17.0168C6.32725 16.6588 6.32725 16.0784 6.68523 15.7204Z" fill="#7466FF"/>
</svg>
