<svg width="21" height="21" viewBox="0 0 21 21" fill="none" xmlns="http://www.w3.org/2000/svg">
<g clip-path="url(#clip0_2096_2804)">
<path d="M10.2188 20.113C9.32467 20.113 8.44755 19.9427 7.61301 19.5936C6.77847 19.2444 6.0376 18.7505 5.40744 18.1204C4.76876 17.4817 4.27485 16.7408 3.93422 15.9063C3.58508 15.0717 3.40625 14.1946 3.40625 13.3005C3.40625 12.1934 3.80649 11.0097 4.44517 10.2093C4.67509 9.92824 5.04978 9.81754 5.39041 9.93676C5.73104 10.0645 5.96096 10.3881 5.96096 10.7457C5.96096 11.0864 6.09721 11.41 6.33565 11.6484C6.82105 12.1338 7.65559 12.1338 8.14099 11.6484C8.37943 11.41 8.51568 11.0864 8.51568 10.7457C8.51568 9.99637 8.3113 9.61316 7.99622 9.03409C7.91958 8.88932 7.83442 8.73604 7.75778 8.57424C6.71035 6.48789 7.33199 4.47819 9.6653 2.44293C9.89522 2.23855 10.2103 2.17894 10.4998 2.28113C10.7894 2.37481 11.0023 2.62176 11.0619 2.91981C11.4451 4.82733 12.6032 6.7093 14.1616 7.96111C16.035 9.45988 17.0314 11.3078 17.0314 13.3005C17.0314 14.2031 16.8526 15.0802 16.5119 15.9063C16.1713 16.7408 15.6689 17.4817 15.0387 18.1204C14.4 18.759 13.6592 19.2529 12.8246 19.5936C11.9986 19.9342 11.1215 20.113 10.2188 20.113ZM5.14346 12.8662C5.11791 13.0109 5.10939 13.1557 5.10939 13.3005C5.10939 13.9732 5.23713 14.6289 5.50111 15.2591C5.75659 15.8807 6.13128 16.4428 6.60816 16.9196C7.08504 17.3965 7.63856 17.7712 8.26872 18.0267C9.52053 18.5461 10.9341 18.5376 12.1774 18.0267C12.7991 17.7712 13.3611 17.3965 13.838 16.9196C14.3149 16.4428 14.6896 15.8892 14.945 15.2591C15.2005 14.6289 15.3282 13.9732 15.3282 13.3005C15.3282 11.8443 14.5533 10.4477 13.0971 9.28105C11.6324 8.10588 10.4658 6.47086 9.81006 4.70811C8.68599 6.07062 8.89037 7.0329 9.27357 7.80783C9.35022 7.9526 9.41834 8.09736 9.49498 8.2251C9.85264 8.88932 10.2188 9.57058 10.2188 10.7457C10.2188 11.5462 9.91225 12.2871 9.35022 12.8491C8.21763 13.9732 6.26753 13.9817 5.14346 12.8662Z" fill="#38FC63"/>
</g>
<defs>
<clipPath id="clip0_2096_2804">
<rect width="20.4377" height="20.4377" fill="white" transform="translate(0 0.527344)"/>
</clipPath>
</defs>
</svg>
