<svg width="20" height="21" viewBox="0 0 20 21" fill="none" xmlns="http://www.w3.org/2000/svg">
<path fill-rule="evenodd" clip-rule="evenodd" d="M3.33333 9.95166C3.79357 9.95166 4.16667 10.3248 4.16667 10.785V18.285H15.8333V10.785C15.8333 10.3248 16.2064 9.95166 16.6667 9.95166C17.1269 9.95166 17.5 10.3248 17.5 10.785V19.1183C17.5 19.5786 17.1269 19.9517 16.6667 19.9517H3.33333C2.8731 19.9517 2.5 19.5786 2.5 19.1183V10.785C2.5 10.3248 2.8731 9.95166 3.33333 9.95166Z" fill="#D523B7"/>
<path fill-rule="evenodd" clip-rule="evenodd" d="M0.833252 6.61849C0.833252 6.15825 1.20635 5.78516 1.66659 5.78516H18.3333C18.7935 5.78516 19.1666 6.15825 19.1666 6.61849V10.7852C19.1666 11.2454 18.7935 11.6185 18.3333 11.6185H1.66659C1.20635 11.6185 0.833252 11.2454 0.833252 10.7852V6.61849ZM2.49992 7.45182V9.95182H17.4999V7.45182H2.49992Z" fill="#D523B7"/>
<path fill-rule="evenodd" clip-rule="evenodd" d="M10.0001 5.78516C10.4603 5.78516 10.8334 6.15825 10.8334 6.61849V19.1185C10.8334 19.5787 10.4603 19.9518 10.0001 19.9518C9.53984 19.9518 9.16675 19.5787 9.16675 19.1185V6.61849C9.16675 6.15825 9.53984 5.78516 10.0001 5.78516Z" fill="#D523B7"/>
<path fill-rule="evenodd" clip-rule="evenodd" d="M6.24992 3.28532C5.9184 3.28532 5.60046 3.41702 5.36604 3.65144C5.13161 3.88586 4.99992 4.2038 4.99992 4.53532C4.99992 4.86684 5.13161 5.18478 5.36604 5.4192C5.60046 5.65362 5.9184 5.78532 6.24992 5.78532H8.87827C8.77654 5.51916 8.64776 5.2265 8.48849 4.93692C7.96435 3.98394 7.24484 3.28532 6.24992 3.28532ZM9.99992 6.61865C10.8171 6.45522 10.817 6.45494 10.817 6.45464L10.8168 6.45395L10.8165 6.4523L10.8156 6.44784L10.8128 6.43443C10.8105 6.42351 10.8073 6.40869 10.8031 6.39022C10.7949 6.3533 10.7829 6.3017 10.7669 6.2375C10.7348 6.10929 10.6863 5.92984 10.6186 5.71603C10.4841 5.29142 10.2693 4.71644 9.94885 4.13372C9.32715 3.00337 8.17167 1.61865 6.24992 1.61865C5.47637 1.61865 4.7345 1.92594 4.18752 2.47292C3.64054 3.01991 3.33325 3.76177 3.33325 4.53532C3.33325 5.30887 3.64054 6.05073 4.18752 6.59771C4.7345 7.14469 5.47637 7.45199 6.24992 7.45199H9.99992C10.2496 7.45199 10.4861 7.34005 10.6444 7.14698C10.8027 6.9539 10.866 6.70003 10.8171 6.45522L9.99992 6.61865Z" fill="#D523B7"/>
<path fill-rule="evenodd" clip-rule="evenodd" d="M10.0512 4.13372C10.6729 3.00337 11.8283 1.61865 13.7501 1.61865C14.5236 1.61865 15.2655 1.92594 15.8125 2.47292C16.3595 3.01991 16.6668 3.76177 16.6668 4.53532C16.6668 5.30887 16.3595 6.05073 15.8125 6.59771C15.2655 7.14469 14.5236 7.45199 13.7501 7.45199H10.0001C9.75043 7.45199 9.51392 7.34005 9.35564 7.14698C9.19735 6.9539 9.13398 6.70003 9.18294 6.45522L10.0001 6.61865C9.18294 6.45522 9.183 6.45494 9.18306 6.45464L9.18319 6.45395L9.18353 6.4523L9.18444 6.44784L9.18724 6.43443C9.18954 6.42351 9.19274 6.40869 9.19686 6.39022C9.20511 6.3533 9.21709 6.3017 9.23314 6.2375C9.26519 6.10929 9.31371 5.92984 9.38142 5.71603C9.51588 5.29142 9.73066 4.71644 10.0512 4.13372ZM11.1217 5.78532H13.7501C14.0816 5.78532 14.3996 5.65362 14.634 5.4192C14.8684 5.18478 15.0001 4.86684 15.0001 4.53532C15.0001 4.2038 14.8684 3.88586 14.634 3.65144C14.3996 3.41702 14.0816 3.28532 13.7501 3.28532C12.7552 3.28532 12.0357 3.98394 11.5115 4.93692C11.3522 5.2265 11.2235 5.51916 11.1217 5.78532ZM10.817 6.78349C10.8169 6.78371 10.8169 6.78369 10.817 6.78342L10.817 6.78349Z" fill="#D523B7"/>
</svg>
