<svg width="20" height="21" viewBox="0 0 20 21" fill="none" xmlns="http://www.w3.org/2000/svg">
<path fill-rule="evenodd" clip-rule="evenodd" d="M10.0001 4.11857C8.23197 4.11857 6.53628 4.82095 5.28604 6.07119C4.03579 7.32143 3.33341 9.01713 3.33341 10.7852V15.7852C3.33341 16.2455 2.96032 16.6186 2.50008 16.6186C2.03984 16.6186 1.66675 16.2455 1.66675 15.7852V10.7852C1.66675 8.5751 2.54472 6.45548 4.10752 4.89268C5.67033 3.32988 7.78994 2.4519 10.0001 2.4519C12.2102 2.4519 14.3298 3.32988 15.8926 4.89268C17.4554 6.45548 18.3334 8.5751 18.3334 10.7852V15.7852C18.3334 16.2455 17.9603 16.6186 17.5001 16.6186C17.0398 16.6186 16.6667 16.2455 16.6667 15.7852V10.7852C16.6667 9.01713 15.9644 7.32143 14.7141 6.07119C13.4639 4.82095 11.7682 4.11857 10.0001 4.11857Z" fill="#7466FF"/>
<path fill-rule="evenodd" clip-rule="evenodd" d="M1.66675 12.4517C1.66675 11.9915 2.03984 11.6184 2.50008 11.6184H5.00008C5.66312 11.6184 6.29901 11.8818 6.76785 12.3506C7.23669 12.8195 7.50008 13.4554 7.50008 14.1184V16.6184C7.50008 17.2815 7.23669 17.9173 6.76785 18.3862C6.29901 18.855 5.66312 19.1184 5.00008 19.1184H4.16675C3.50371 19.1184 2.86782 18.855 2.39898 18.3862C1.93014 17.9173 1.66675 17.2815 1.66675 16.6184V12.4517ZM3.33341 13.2851V16.6184C3.33341 16.8394 3.42121 17.0514 3.57749 17.2077C3.73377 17.3639 3.94573 17.4517 4.16675 17.4517H5.00008C5.2211 17.4517 5.43306 17.3639 5.58934 17.2077C5.74562 17.0514 5.83342 16.8394 5.83342 16.6184V14.1184C5.83342 13.8974 5.74562 13.6854 5.58934 13.5292C5.43306 13.3729 5.2211 13.2851 5.00008 13.2851H3.33341ZM15.0001 13.2851C14.7791 13.2851 14.5671 13.3729 14.4108 13.5292C14.2545 13.6854 14.1667 13.8974 14.1667 14.1184V16.6184C14.1667 16.8394 14.2545 17.0514 14.4108 17.2077C14.5671 17.3639 14.7791 17.4517 15.0001 17.4517H15.8334C16.0544 17.4517 16.2664 17.3639 16.4227 17.2077C16.579 17.0514 16.6667 16.8394 16.6667 16.6184V13.2851H15.0001ZM13.2323 12.3506C13.7012 11.8818 14.337 11.6184 15.0001 11.6184H17.5001C17.9603 11.6184 18.3334 11.9915 18.3334 12.4517V16.6184C18.3334 17.2815 18.07 17.9173 17.6012 18.3862C17.1323 18.855 16.4965 19.1184 15.8334 19.1184H15.0001C14.337 19.1184 13.7012 18.855 13.2323 18.3862C12.7635 17.9173 12.5001 17.2815 12.5001 16.6184V14.1184C12.5001 13.4554 12.7635 12.8195 13.2323 12.3506Z" fill="#7466FF"/>
</svg>
