<svg width="20" height="19" viewBox="0 0 20 19" fill="none" xmlns="http://www.w3.org/2000/svg">
<path fill-rule="evenodd" clip-rule="evenodd" d="M1.1641 2.98093C1.50748 2.80355 1.92775 2.88555 2.17927 3.17899L6.4097 8.1145L9.15635 3.30787C9.30472 3.04822 9.58084 2.88798 9.87988 2.88798C10.1789 2.88798 10.4551 3.04822 10.6034 3.30787L13.3501 8.1145L17.5805 3.17899C17.832 2.88555 18.2523 2.80355 18.5957 2.98093C18.939 3.1583 19.1154 3.54849 19.0217 3.92343L16.5217 13.9234C16.4289 14.2944 16.0956 14.5546 15.7132 14.5546H4.04655C3.66416 14.5546 3.33084 14.2944 3.2381 13.9234L0.7381 3.92343C0.644364 3.54849 0.820725 3.1583 1.1641 2.98093ZM3.21117 6.94386L4.6972 12.888H15.0626L16.5486 6.94386L13.8459 10.097C13.6696 10.3027 13.4042 10.4099 13.1344 10.3842C12.8646 10.3586 12.6241 10.2034 12.4897 9.9681L9.87988 5.40095L7.27009 9.9681C7.13563 10.2034 6.89517 10.3586 6.62538 10.3842C6.3556 10.4099 6.0902 10.3027 5.91384 10.097L3.21117 6.94386ZM3.21322 17.0546C3.21322 16.5944 3.58631 16.2213 4.04655 16.2213H15.7132C16.1735 16.2213 16.5466 16.5944 16.5466 17.0546C16.5466 17.5149 16.1735 17.888 15.7132 17.888H4.04655C3.58631 17.888 3.21322 17.5149 3.21322 17.0546Z" fill="#38FC63"/>
</svg>
