<svg width="20" height="21" viewBox="0 0 20 21" fill="none" xmlns="http://www.w3.org/2000/svg">
<path fill-rule="evenodd" clip-rule="evenodd" d="M9.62724 1.70663C9.86185 1.58933 10.138 1.58933 10.3726 1.70663L18.7059 5.8733C18.9882 6.01446 19.1666 6.30301 19.1666 6.61865C19.1666 6.9343 18.9882 7.22285 18.7059 7.36401L10.3726 11.5307C10.138 11.648 9.86185 11.648 9.62724 11.5307L1.29391 7.36401C1.01159 7.22285 0.833252 6.9343 0.833252 6.61865C0.833252 6.30301 1.01159 6.01446 1.29391 5.8733L9.62724 1.70663ZM3.52997 6.61865L9.99992 9.85362L16.4699 6.61865L9.99992 3.38368L3.52997 6.61865Z" fill="#D523B7"/>
<path fill-rule="evenodd" clip-rule="evenodd" d="M0.921412 14.579C1.12724 14.1674 1.6278 14.0005 2.03945 14.2063L10.0001 18.1867L17.9608 14.2063C18.3724 14.0005 18.873 14.1674 19.0788 14.579C19.2846 14.9907 19.1178 15.4912 18.7061 15.697L10.3728 19.8637C10.1382 19.981 9.86203 19.981 9.62742 19.8637L1.29409 15.697C0.882441 15.4912 0.715587 14.9907 0.921412 14.579Z" fill="#D523B7"/>
<path fill-rule="evenodd" clip-rule="evenodd" d="M0.921412 10.4125C1.12724 10.0008 1.6278 9.834 2.03945 10.0398L10.0001 14.0201L17.9608 10.0398C18.3724 9.834 18.873 10.0008 19.0788 10.4125C19.2846 10.8241 19.1178 11.3247 18.7061 11.5305L10.3728 15.6972C10.1382 15.8145 9.86203 15.8145 9.62742 15.6972L1.29409 11.5305C0.882441 11.3247 0.715587 10.8241 0.921412 10.4125Z" fill="#D523B7"/>
</svg>
