<svg width="20" height="21" viewBox="0 0 20 21" fill="none" xmlns="http://www.w3.org/2000/svg">
<path fill-rule="evenodd" clip-rule="evenodd" d="M10.0676 2.87586C10.2289 3.16201 10.207 3.5162 10.0118 3.78035C9.29996 4.7434 8.95741 5.92995 9.04647 7.12421C9.13553 8.31847 9.65028 9.4411 10.4971 10.2879C11.3439 11.1347 12.4665 11.6495 13.6608 11.7385C14.8551 11.8276 16.0416 11.4851 17.0047 10.7732L17.5 11.4433L18.3298 11.52C18.1841 13.0961 17.5926 14.5982 16.6245 15.8504C15.6563 17.1026 14.3515 18.0532 12.8629 18.5909C11.3742 19.1286 9.76312 19.2313 8.21822 18.8868C6.67333 18.5423 5.2585 17.765 4.13927 16.6457C3.02003 15.5265 2.2427 14.1117 1.89823 12.5668C1.55376 11.0219 1.65639 9.41084 2.19411 7.92215C2.73184 6.43346 3.68242 5.1287 4.93462 4.16054C6.18683 3.19238 7.68887 2.60086 9.26498 2.45521C9.59206 2.42498 9.90637 2.58971 10.0676 2.87586ZM16.3008 13.0214C15.4232 13.3389 14.4818 13.4711 13.5368 13.4006C11.9445 13.2818 10.4477 12.5955 9.31858 11.4664C8.18949 10.3373 7.50316 8.84051 7.38442 7.24816C7.31395 6.30318 7.44615 5.36183 7.76366 4.48422C7.11564 4.71868 6.50466 5.05336 5.95406 5.47907C4.9523 6.25359 4.19183 7.2974 3.76165 8.48836C3.33147 9.67931 3.24937 10.9681 3.52495 12.2041C3.80053 13.44 4.42239 14.5718 5.31778 15.4672C6.21316 16.3626 7.34503 16.9845 8.58094 17.2601C9.81686 17.5356 11.1057 17.4535 12.2966 17.0234C13.4876 16.5932 14.5314 15.8327 15.3059 14.8309C15.7316 14.2803 16.0663 13.6694 16.3008 13.0214Z" fill="#D523B7"/>
</svg>
