<svg width="23" height="21" viewBox="0 0 23 21" fill="none" xmlns="http://www.w3.org/2000/svg">
<g clip-path="url(#clip0_2096_2800)">
<path fill-rule="evenodd" clip-rule="evenodd" d="M20.372 2.47291C20.5784 2.64771 20.6974 2.90445 20.6974 3.17489V15.1349C20.6974 15.643 20.2855 16.0549 19.7774 16.0549C19.2693 16.0549 18.8574 15.643 18.8574 15.1349V4.26091L9.65738 5.79425V16.9749C9.65738 17.483 9.24548 17.8949 8.73738 17.8949C8.22928 17.8949 7.81738 17.483 7.81738 16.9749V5.01489C7.81738 4.56516 8.14252 4.18134 8.58614 4.10741L19.6261 2.26741C19.8929 2.22295 20.1657 2.29811 20.372 2.47291Z" fill="#38FC63"/>
<path fill-rule="evenodd" clip-rule="evenodd" d="M5.97736 15.1339C4.96116 15.1339 4.13736 15.9577 4.13736 16.9739C4.13736 17.9901 4.96116 18.8139 5.97736 18.8139C6.99357 18.8139 7.81736 17.9901 7.81736 16.9739C7.81736 15.9577 6.99357 15.1339 5.97736 15.1339ZM2.29736 16.9739C2.29736 14.9415 3.94496 13.2939 5.97736 13.2939C8.00977 13.2939 9.65736 14.9415 9.65736 16.9739C9.65736 19.0064 8.00977 20.6539 5.97736 20.6539C3.94496 20.6539 2.29736 19.0064 2.29736 16.9739Z" fill="#38FC63"/>
<path fill-rule="evenodd" clip-rule="evenodd" d="M17.0174 13.2939C16.0012 13.2939 15.1774 14.1177 15.1774 15.1339C15.1774 16.1501 16.0012 16.9739 17.0174 16.9739C18.0336 16.9739 18.8574 16.1501 18.8574 15.1339C18.8574 14.1177 18.0336 13.2939 17.0174 13.2939ZM13.3374 15.1339C13.3374 13.1014 14.985 11.4539 17.0174 11.4539C19.0498 11.4539 20.6974 13.1014 20.6974 15.1339C20.6974 17.1663 19.0498 18.8139 17.0174 18.8139C14.985 18.8139 13.3374 17.1663 13.3374 15.1339Z" fill="#38FC63"/>
</g>
<defs>
<clipPath id="clip0_2096_2800">
<rect width="23" height="20.24" fill="white" transform="translate(0 0.625977)"/>
</clipPath>
</defs>
</svg>
