<svg width="44" height="45" viewBox="0 0 44 45" fill="none" xmlns="http://www.w3.org/2000/svg">
<path fill-rule="evenodd" clip-rule="evenodd" d="M2.68485 28.6131C4.40394 26.894 6.73551 25.9282 9.16667 25.9282H22C24.4312 25.9282 26.7627 26.894 28.4818 28.6131C30.2009 30.3322 31.1667 32.6637 31.1667 35.0949V38.7616C31.1667 39.7741 30.3459 40.5949 29.3333 40.5949C28.3208 40.5949 27.5 39.7741 27.5 38.7616V35.0949C27.5 33.6362 26.9205 32.2373 25.8891 31.2058C24.8576 30.1744 23.4587 29.5949 22 29.5949H9.16667C7.70798 29.5949 6.30903 30.1744 5.27758 31.2058C4.24613 32.2373 3.66667 33.6362 3.66667 35.0949V38.7616C3.66667 39.7741 2.84586 40.5949 1.83333 40.5949C0.820811 40.5949 0 39.7741 0 38.7616V35.0949C0 32.6637 0.965771 30.3322 2.68485 28.6131Z" fill="#F8F8F8"/>
<path fill-rule="evenodd" clip-rule="evenodd" d="M15.5834 7.59489C12.5458 7.59489 10.0834 10.0573 10.0834 13.0949C10.0834 16.1325 12.5458 18.5949 15.5834 18.5949C18.621 18.5949 21.0834 16.1325 21.0834 13.0949C21.0834 10.0573 18.621 7.59489 15.5834 7.59489ZM6.41675 13.0949C6.41675 8.03228 10.5208 3.92822 15.5834 3.92822C20.646 3.92822 24.7501 8.03228 24.7501 13.0949C24.7501 18.1575 20.646 22.2616 15.5834 22.2616C10.5208 22.2616 6.41675 18.1575 6.41675 13.0949Z" fill="#F8F8F8"/>
<path fill-rule="evenodd" clip-rule="evenodd" d="M36.6666 13.0952C37.6791 13.0952 38.4999 13.916 38.4999 14.9285V25.9285C38.4999 26.9411 37.6791 27.7619 36.6666 27.7619C35.6541 27.7619 34.8333 26.9411 34.8333 25.9285V14.9285C34.8333 13.916 35.6541 13.0952 36.6666 13.0952Z" fill="#F8F8F8"/>
<path fill-rule="evenodd" clip-rule="evenodd" d="M29.3333 20.4285C29.3333 19.416 30.1541 18.5952 31.1666 18.5952H42.1666C43.1791 18.5952 43.9999 19.416 43.9999 20.4285C43.9999 21.4411 43.1791 22.2619 42.1666 22.2619H31.1666C30.1541 22.2619 29.3333 21.4411 29.3333 20.4285Z" fill="#F8F8F8"/>
</svg>
