<svg width="70" height="71" viewBox="0 0 70 71" fill="none" xmlns="http://www.w3.org/2000/svg">
<rect y="0.261719" width="70" height="70" rx="35" fill="#D032DD"/>
<path d="M41 44.7617L44 47.7617L50 41.7617M35 40.2617H29C26.2044 40.2617 24.8065 40.2617 23.7039 40.7184C22.2337 41.3274 21.0657 42.4954 20.4567 43.9656C20 45.0682 20 46.4661 20 49.2617M40.25 22.6979C42.4489 23.5879 44 25.7437 44 28.2617C44 30.7798 42.4489 32.9355 40.25 33.8256M37.25 28.2617C37.25 31.5754 34.5637 34.2617 31.25 34.2617C27.9363 34.2617 25.25 31.5754 25.25 28.2617C25.25 24.948 27.9363 22.2617 31.25 22.2617C34.5637 22.2617 37.25 24.948 37.25 28.2617Z" stroke="#F8F8F8" stroke-width="3" stroke-linecap="round" stroke-linejoin="round"/>
</svg>
