<svg width="70" height="71" viewBox="0 0 70 71" fill="none" xmlns="http://www.w3.org/2000/svg">
<rect y="0.261719" width="70" height="70" rx="35" fill="#D032DD"/>
<g clip-path="url(#clip0_2096_2655)">
<path fill-rule="evenodd" clip-rule="evenodd" d="M34.9999 18.2617C35.7823 18.2617 36.4166 18.896 36.4166 19.6784V50.8451C36.4166 51.6275 35.7823 52.2617 34.9999 52.2617C34.2175 52.2617 33.5833 51.6275 33.5833 50.8451V19.6784C33.5833 18.896 34.2175 18.2617 34.9999 18.2617Z" fill="#F8F8F8"/>
<path fill-rule="evenodd" clip-rule="evenodd" d="M26.9504 25.7954C28.146 24.5999 29.7675 23.9282 31.4583 23.9282H42.0833C42.8657 23.9282 43.4999 24.5625 43.4999 25.3449C43.4999 26.1273 42.8657 26.7616 42.0833 26.7616H31.4583C30.5189 26.7616 29.6181 27.1347 28.9539 27.7989C28.2897 28.4631 27.9166 29.3639 27.9166 30.3032C27.9166 31.2425 28.2897 32.1434 28.9539 32.8076C29.6181 33.4718 30.5189 33.8449 31.4583 33.8449H38.5416C40.2323 33.8449 41.8538 34.5165 43.0494 35.7121C44.2449 36.9076 44.9166 38.5291 44.9166 40.2199C44.9166 41.9106 44.2449 43.5322 43.0494 44.7277C41.8538 45.9232 40.2323 46.5949 38.5416 46.5949H26.4999C25.7175 46.5949 25.0833 45.9606 25.0833 45.1782C25.0833 44.3958 25.7175 43.7616 26.4999 43.7616H38.5416C39.4809 43.7616 40.3817 43.3884 41.0459 42.7242C41.7101 42.06 42.0833 41.1592 42.0833 40.2199C42.0833 39.2806 41.7101 38.3797 41.0459 37.7156C40.3817 37.0514 39.4809 36.6782 38.5416 36.6782H31.4583C29.7675 36.6782 28.146 36.0066 26.9504 34.811C25.7549 33.6155 25.0833 31.994 25.0833 30.3032C25.0833 28.6125 25.7549 26.991 26.9504 25.7954Z" fill="#F8F8F8"/>
</g>
<defs>
<clipPath id="clip0_2096_2655">
<rect width="34" height="34" fill="white" transform="translate(18 18.2617)"/>
</clipPath>
</defs>
</svg>
