<svg width="545" height="194" viewBox="0 0 545 194" fill="none" xmlns="http://www.w3.org/2000/svg">
<path d="M0 193.217C0 193.217 38.3566 177.172 67.3819 157.289C102.289 133.377 122.585 85.168 164.986 85.432C209.338 85.7081 220.998 151.035 264.077 140.555C305.786 130.408 285.462 61.7944 327 50.9801C382.995 36.4018 371.764 154.059 429.559 157.289C493.355 160.854 544.009 41.1367 544.009 41.1367" stroke="#D032DD" stroke-width="2" stroke-dasharray="4.24 4.24"/>
<path d="M2.47681 170.578C2.47681 170.578 30.6595 98.9029 71.345 88.3853C119.107 76.0384 134.293 159.687 182.327 148.43C230.183 137.215 205.493 45.9297 254.663 46.0587C292.224 46.1573 291.923 106.828 329.477 106.103C355.435 105.603 362.776 79.5131 388.436 75.5889C441.061 67.541 456.32 173.169 503.382 148.43C532.485 133.131 545 75.5889 545 75.5889" stroke="#5347CC" stroke-width="4" stroke-linecap="round"/>
<path d="M234.834 23.3597C234.629 23.3597 234.47 23.3037 234.358 23.1917C234.246 23.0704 234.19 22.9024 234.19 22.6877V14.0497C234.19 13.8351 234.246 13.6717 234.358 13.5597C234.479 13.4477 234.643 13.3917 234.848 13.3917H238.18C239.244 13.3917 240.061 13.6531 240.63 14.1757C241.209 14.6984 241.498 15.4311 241.498 16.3737C241.498 17.3257 241.209 18.0631 240.63 18.5857C240.061 19.1084 239.244 19.3697 238.18 19.3697H235.492V22.6877C235.492 22.9024 235.436 23.0704 235.324 23.1917C235.221 23.3037 235.058 23.3597 234.834 23.3597ZM235.492 18.3197H238.012C238.74 18.3197 239.286 18.1564 239.65 17.8297C240.023 17.4937 240.21 17.0084 240.21 16.3737C240.21 15.7391 240.023 15.2631 239.65 14.9457C239.286 14.6191 238.74 14.4557 238.012 14.4557H235.492V18.3197ZM245.532 23.3877C244.86 23.3877 244.276 23.2431 243.782 22.9537C243.287 22.6644 242.904 22.2537 242.634 21.7217C242.363 21.1897 242.228 20.5644 242.228 19.8457C242.228 19.3044 242.302 18.8191 242.452 18.3897C242.61 17.9511 242.834 17.5777 243.124 17.2697C243.413 16.9617 243.758 16.7284 244.16 16.5697C244.57 16.4017 245.028 16.3177 245.532 16.3177C246.204 16.3177 246.787 16.4624 247.282 16.7517C247.776 17.0411 248.159 17.4517 248.43 17.9837C248.7 18.5064 248.836 19.1271 248.836 19.8457C248.836 20.3871 248.756 20.8771 248.598 21.3157C248.448 21.7544 248.229 22.1277 247.94 22.4357C247.65 22.7437 247.3 22.9817 246.89 23.1497C246.488 23.3084 246.036 23.3877 245.532 23.3877ZM245.532 22.3797C245.942 22.3797 246.297 22.2817 246.596 22.0857C246.904 21.8897 247.137 21.6051 247.296 21.2317C247.464 20.8584 247.548 20.3964 247.548 19.8457C247.548 19.0244 247.366 18.3991 247.002 17.9697C246.638 17.5404 246.148 17.3257 245.532 17.3257C245.13 17.3257 244.776 17.4237 244.468 17.6197C244.169 17.8064 243.936 18.0864 243.768 18.4597C243.6 18.8331 243.516 19.2951 243.516 19.8457C243.516 20.6671 243.698 21.2971 244.062 21.7357C244.435 22.1651 244.925 22.3797 245.532 22.3797ZM253.446 23.3877C252.755 23.3877 252.158 23.2431 251.654 22.9537C251.15 22.6551 250.762 22.2397 250.492 21.7077C250.221 21.1664 250.086 20.5317 250.086 19.8037C250.086 19.2624 250.16 18.7771 250.31 18.3477C250.468 17.9184 250.692 17.5544 250.982 17.2557C251.271 16.9477 251.621 16.7144 252.032 16.5557C252.452 16.3971 252.923 16.3177 253.446 16.3177C253.772 16.3177 254.118 16.3691 254.482 16.4717C254.846 16.5744 255.182 16.7424 255.49 16.9757C255.592 17.0504 255.658 17.1391 255.686 17.2417C255.714 17.3351 255.714 17.4331 255.686 17.5357C255.667 17.6384 255.62 17.7271 255.546 17.8017C255.48 17.8671 255.392 17.9044 255.28 17.9137C255.177 17.9231 255.065 17.8904 254.944 17.8157C254.72 17.6477 254.482 17.5264 254.23 17.4517C253.987 17.3771 253.754 17.3397 253.53 17.3397C253.184 17.3397 252.876 17.3957 252.606 17.5077C252.344 17.6197 252.12 17.7831 251.934 17.9977C251.756 18.2031 251.621 18.4597 251.528 18.7677C251.434 19.0664 251.388 19.4164 251.388 19.8177C251.388 20.6111 251.574 21.2364 251.948 21.6937C252.321 22.1417 252.848 22.3657 253.53 22.3657C253.754 22.3657 253.987 22.3331 254.23 22.2677C254.472 22.1931 254.71 22.0717 254.944 21.9037C255.065 21.8291 255.177 21.8011 255.28 21.8197C255.382 21.8291 255.466 21.8711 255.532 21.9457C255.606 22.0111 255.653 22.0951 255.672 22.1977C255.69 22.2911 255.681 22.3891 255.644 22.4917C255.616 22.5944 255.55 22.6784 255.448 22.7437C255.149 22.9677 254.822 23.1311 254.468 23.2337C254.113 23.3364 253.772 23.3877 253.446 23.3877ZM259.964 23.3877C259.273 23.3877 258.676 23.2431 258.172 22.9537C257.668 22.6551 257.281 22.2397 257.01 21.7077C256.739 21.1664 256.604 20.5317 256.604 19.8037C256.604 19.2624 256.679 18.7771 256.828 18.3477C256.987 17.9184 257.211 17.5544 257.5 17.2557C257.789 16.9477 258.139 16.7144 258.55 16.5557C258.97 16.3971 259.441 16.3177 259.964 16.3177C260.291 16.3177 260.636 16.3691 261 16.4717C261.364 16.5744 261.7 16.7424 262.008 16.9757C262.111 17.0504 262.176 17.1391 262.204 17.2417C262.232 17.3351 262.232 17.4331 262.204 17.5357C262.185 17.6384 262.139 17.7271 262.064 17.8017C261.999 17.8671 261.91 17.9044 261.798 17.9137C261.695 17.9231 261.583 17.8904 261.462 17.8157C261.238 17.6477 261 17.5264 260.748 17.4517C260.505 17.3771 260.272 17.3397 260.048 17.3397C259.703 17.3397 259.395 17.3957 259.124 17.5077C258.863 17.6197 258.639 17.7831 258.452 17.9977C258.275 18.2031 258.139 18.4597 258.046 18.7677C257.953 19.0664 257.906 19.4164 257.906 19.8177C257.906 20.6111 258.093 21.2364 258.466 21.6937C258.839 22.1417 259.367 22.3657 260.048 22.3657C260.272 22.3657 260.505 22.3331 260.748 22.2677C260.991 22.1931 261.229 22.0717 261.462 21.9037C261.583 21.8291 261.695 21.8011 261.798 21.8197C261.901 21.8291 261.985 21.8711 262.05 21.9457C262.125 22.0111 262.171 22.0951 262.19 22.1977C262.209 22.2911 262.199 22.3891 262.162 22.4917C262.134 22.5944 262.069 22.6784 261.966 22.7437C261.667 22.9677 261.341 23.1311 260.986 23.2337C260.631 23.3364 260.291 23.3877 259.964 23.3877ZM264.116 23.3597C263.995 23.3597 263.887 23.3364 263.794 23.2897C263.71 23.2431 263.645 23.1684 263.598 23.0657C263.551 22.9631 263.528 22.8324 263.528 22.6737V16.9617C263.528 16.7657 263.579 16.6164 263.682 16.5137C263.785 16.4017 263.929 16.3457 264.116 16.3457C264.293 16.3457 264.433 16.4017 264.536 16.5137C264.639 16.6164 264.69 16.7657 264.69 16.9617V22.0157H264.326L268.274 16.7517C268.349 16.6491 268.442 16.5557 268.554 16.4717C268.666 16.3877 268.815 16.3457 269.002 16.3457C269.133 16.3457 269.24 16.3691 269.324 16.4157C269.408 16.4624 269.469 16.5371 269.506 16.6397C269.553 16.7331 269.576 16.8591 269.576 17.0177V22.7437C269.576 22.9304 269.525 23.0797 269.422 23.1917C269.329 23.3037 269.193 23.3597 269.016 23.3597C268.82 23.3597 268.671 23.3037 268.568 23.1917C268.475 23.0797 268.428 22.9304 268.428 22.7437V17.6757H268.792L264.844 22.9537C264.769 23.0564 264.676 23.1497 264.564 23.2337C264.452 23.3177 264.303 23.3597 264.116 23.3597ZM276.449 23.3597C276.262 23.3597 276.117 23.3084 276.015 23.2057C275.912 23.0937 275.861 22.9397 275.861 22.7437V20.7137H274.923C274.577 20.7137 274.279 20.8024 274.027 20.9797C273.775 21.1571 273.574 21.3811 273.425 21.6517L272.655 22.9957C272.561 23.1544 272.449 23.2571 272.319 23.3037C272.197 23.3597 272.071 23.3691 271.941 23.3317C271.819 23.3037 271.712 23.2431 271.619 23.1497C271.525 23.0564 271.465 22.9444 271.437 22.8137C271.418 22.6831 271.455 22.5477 271.549 22.4077L272.151 21.3577C272.309 21.0964 272.519 20.8724 272.781 20.6857C273.042 20.4991 273.313 20.4057 273.593 20.4057H273.789V20.5317C273.023 20.5317 272.426 20.3544 271.997 19.9997C271.567 19.6451 271.353 19.1504 271.353 18.5157C271.353 18.0957 271.446 17.7317 271.633 17.4237C271.829 17.1064 272.113 16.8637 272.487 16.6957C272.86 16.5277 273.327 16.4437 273.887 16.4437H276.393C276.598 16.4437 276.757 16.4997 276.869 16.6117C276.99 16.7237 277.051 16.8871 277.051 17.1017V22.7437C277.051 22.9397 276.995 23.0937 276.883 23.2057C276.78 23.3084 276.635 23.3597 276.449 23.3597ZM274.139 19.8317H275.861V17.3257H274.139C273.607 17.3257 273.215 17.4377 272.963 17.6617C272.711 17.8764 272.585 18.1797 272.585 18.5717C272.585 18.9637 272.711 19.2717 272.963 19.4957C273.215 19.7197 273.607 19.8317 274.139 19.8317Z" fill="white"/>
<path d="M255.535 50.3332C258.898 50.3332 261.897 47.7667 261.897 44.2752C261.897 40.7838 258.898 38.2173 255.535 38.2173C252.173 38.2173 249.173 40.7838 249.173 44.2752C249.173 47.7667 252.173 50.3332 255.535 50.3332Z" fill="#0E132F" stroke="white" stroke-width="4.24125"/>
</svg>
