<svg width="44" height="45" viewBox="0 0 44 45" fill="none" xmlns="http://www.w3.org/2000/svg">
<path fill-rule="evenodd" clip-rule="evenodd" d="M10.9997 16.7578C9.98715 16.7578 9.16634 17.5786 9.16634 18.5911V36.9245C9.16634 37.937 9.98715 38.7578 10.9997 38.7578C12.0122 38.7578 12.833 37.937 12.833 36.9245V18.5911C12.833 17.5786 12.0122 16.7578 10.9997 16.7578Z" fill="#F8F8F8"/>
<path fill-rule="evenodd" clip-rule="evenodd" d="M22.0004 5.76074C20.9879 5.76074 20.1671 6.58155 20.1671 7.59408V36.9274C20.1671 37.9399 20.9879 38.7607 22.0004 38.7607C23.0129 38.7607 23.8337 37.9399 23.8337 36.9274V7.59408C23.8337 6.58155 23.0129 5.76074 22.0004 5.76074Z" fill="#F8F8F8"/>
<path fill-rule="evenodd" clip-rule="evenodd" d="M32.9999 24.0981C31.9874 24.0981 31.1666 24.919 31.1666 25.9315V36.9315C31.1666 37.944 31.9874 38.7648 32.9999 38.7648C34.0124 38.7648 34.8333 37.944 34.8333 36.9315V25.9315C34.8333 24.919 34.0124 24.0981 32.9999 24.0981Z" fill="#F8F8F8"/>
</svg>
