<svg width="22" height="23" viewBox="0 0 22 23" fill="none" xmlns="http://www.w3.org/2000/svg">
<path d="M11.2198 21.8686H10.8165C10.0832 21.8686 9.39568 21.5844 8.87318 21.0619C8.35068 20.5394 8.06651 19.8519 8.06651 19.1186V18.9536C8.06651 18.7977 8.02068 18.6327 7.94734 18.4952C7.86484 18.3577 7.75484 18.2386 7.60818 18.1561L7.21401 17.9269C6.93901 17.7711 6.58151 17.7711 6.29734 17.9269L6.13234 18.0186C5.52734 18.3669 4.78484 18.4677 4.07901 18.2752C3.38234 18.0827 2.76818 17.6244 2.41068 16.9919L2.19984 16.6527C1.83318 16.0111 1.73234 15.2777 1.92484 14.5627C2.11734 13.8569 2.56651 13.2611 3.19901 12.8944L3.31818 12.8211C3.47401 12.7294 3.58401 12.6194 3.66651 12.4727C3.74901 12.3352 3.78568 12.1702 3.78568 12.0144V11.5377C3.78568 11.3819 3.73984 11.2261 3.66651 11.0886C3.60234 10.9602 3.48318 10.8411 3.34568 10.7677L3.16234 10.6486C2.56651 10.3002 2.11734 9.71357 1.92484 8.99857C1.74151 8.29274 1.83318 7.55024 2.19984 6.91774L2.40151 6.5694C2.75901 5.94607 3.37318 5.47857 4.06984 5.29524C4.77568 5.10274 5.51818 5.20357 6.15068 5.57024L6.26068 5.62524C6.59984 5.81774 6.92984 5.7994 7.21401 5.6344L7.60818 5.4144C7.74568 5.3319 7.86484 5.21274 7.94734 5.07524C8.02068 4.93774 8.06651 4.77274 8.06651 4.6169V4.4519C8.06651 3.71857 8.35068 3.03107 8.87318 2.50857C9.38651 1.98607 10.0832 1.7019 10.8165 1.7019H11.2198C11.9532 1.7019 12.6407 1.98607 13.1632 2.50857C13.6857 3.03107 13.9698 3.71857 13.9698 4.4519V4.6169C13.9698 4.77274 14.0157 4.93774 14.089 5.07524C14.1715 5.21274 14.2815 5.3319 14.4282 5.40524L14.8223 5.6344C15.0973 5.79024 15.4548 5.79024 15.739 5.6344L15.904 5.54274C16.509 5.1944 17.2607 5.09357 17.9665 5.28607C18.6723 5.47857 19.2682 5.92774 19.6348 6.56024L19.8365 6.90857C20.2032 7.54107 20.304 8.28357 20.1115 8.9894C19.919 9.69524 19.4698 10.2911 18.8373 10.6577L18.6998 10.7494C18.544 10.8411 18.434 10.9511 18.3515 11.0886C18.269 11.2261 18.2232 11.3911 18.2323 11.5469V12.0052C18.2323 12.1702 18.2782 12.3261 18.3515 12.4727C18.434 12.6102 18.544 12.7294 18.6907 12.8119L18.8007 12.8669C19.4607 13.2519 19.919 13.8477 20.1115 14.5536C20.304 15.2594 20.2032 16.0019 19.8365 16.6344L19.644 16.9827C19.2682 17.6244 18.6815 18.0827 17.9665 18.2661C17.2698 18.4494 16.509 18.3486 15.8857 17.9911L15.7757 17.9361C15.4457 17.7436 15.1157 17.7619 14.8315 17.9177L14.4373 18.1469C14.2907 18.2294 14.1807 18.3486 14.0982 18.4861C14.0157 18.6236 13.979 18.7794 13.979 18.9444V19.1186C13.979 19.8519 13.6948 20.5394 13.1723 21.0619C12.6407 21.5844 11.9532 21.8686 11.2198 21.8686ZM6.75568 15.9744C7.24151 15.9744 7.70901 16.1027 8.13068 16.3411L8.52484 16.5702C8.93734 16.8086 9.28568 17.1569 9.52401 17.5694C9.76234 17.9911 9.89067 18.4586 9.89067 18.9444V19.1186C9.89067 19.3661 9.98234 19.5952 10.1565 19.7694C10.3398 19.9436 10.569 20.0352 10.8165 20.0352H11.2198C11.4673 20.0352 11.6965 19.9436 11.8707 19.7694C12.0448 19.5952 12.1365 19.3661 12.1365 19.1186V18.9536C12.1365 18.4769 12.2648 18.0002 12.5032 17.5786C12.7415 17.1569 13.0898 16.8177 13.5115 16.5702L13.9057 16.3411C14.7398 15.8552 15.8215 15.8552 16.6557 16.3411L16.7657 16.3961C16.9948 16.5336 17.2515 16.5611 17.4898 16.4969C17.7282 16.4327 17.9207 16.2861 18.049 16.0752L18.2415 15.7269C18.3698 15.5069 18.3973 15.2594 18.3423 15.0211C18.2782 14.7919 18.1223 14.5811 17.9115 14.4619L17.8015 14.4069C17.3523 14.1502 17.004 13.8019 16.7657 13.3802C16.5273 12.9586 16.399 12.4819 16.399 12.0052V11.5469C16.399 11.0702 16.5273 10.5844 16.7657 10.1719C17.004 9.75024 17.3523 9.40191 17.774 9.16357L17.9023 9.09024C18.1223 8.96191 18.269 8.76024 18.3332 8.53107C18.3973 8.3019 18.3607 8.04524 18.2415 7.8344L18.0398 7.48607C17.9207 7.27524 17.719 7.12857 17.4807 7.0644C17.2515 7.00024 16.9948 7.0369 16.784 7.15607L16.619 7.24774C15.8398 7.70607 14.7307 7.71524 13.8965 7.2294L13.5023 7.00024C13.0898 6.7619 12.7415 6.41357 12.5032 6.00107C12.2648 5.5794 12.1365 5.10274 12.1365 4.62607V4.4519C12.1365 4.21357 12.0357 3.97524 11.8707 3.80107C11.6965 3.63607 11.4582 3.53524 11.2198 3.53524H10.8165C10.5782 3.53524 10.3398 3.63607 10.1657 3.80107C10.0007 3.97524 9.89984 4.21357 9.89984 4.4519V4.6169C9.89984 5.10274 9.77151 5.57024 9.53317 5.9919C9.29484 6.4044 8.94651 6.75274 8.52484 7.00024L8.13068 7.22024C7.28734 7.70607 6.20568 7.70607 5.38068 7.22024L5.27068 7.16524C5.03234 7.02774 4.78484 7.00024 4.54651 7.0644C4.31734 7.1194 4.11568 7.27524 3.99651 7.48607L3.78568 7.8344C3.66651 8.04524 3.63901 8.29274 3.69401 8.53107C3.75818 8.7694 3.91401 8.96191 4.12484 9.08107L4.30818 9.20024C4.67484 9.41107 5.02318 9.75024 5.26151 10.1719C5.49984 10.5936 5.63734 11.0611 5.63734 11.5377V12.0144C5.63734 12.4911 5.51818 12.9677 5.27068 13.3894C5.03234 13.8111 4.68401 14.1594 4.26234 14.3977L4.14318 14.4711C3.91401 14.5994 3.76734 14.8011 3.70318 15.0394C3.63901 15.2777 3.67568 15.5252 3.79484 15.7361L3.99651 16.0844C4.11568 16.2952 4.31734 16.4511 4.55568 16.5152C4.79401 16.5794 5.04151 16.5427 5.25234 16.4236L5.41734 16.3319C5.79318 16.1027 6.26984 15.9744 6.75568 15.9744Z" fill="#7466FF"/>
<path d="M11.0182 15.4517C8.9924 15.4517 7.35156 13.8109 7.35156 11.7851C7.35156 9.75924 8.9924 8.11841 11.0182 8.11841C13.0441 8.11841 14.6849 9.75924 14.6849 11.7851C14.6849 13.8109 13.0349 15.4517 11.0182 15.4517ZM11.0182 9.95174C10.0099 9.95174 9.1849 10.7767 9.1849 11.7851C9.1849 12.7934 10.0099 13.6184 11.0182 13.6184C12.0266 13.6184 12.8516 12.7934 12.8516 11.7851C12.8516 10.7767 12.0266 9.95174 11.0182 9.95174Z" fill="#7466FF"/>
</svg>
