<svg width="22" height="23" viewBox="0 0 22 23" fill="none" xmlns="http://www.w3.org/2000/svg">
<path fill-rule="evenodd" clip-rule="evenodd" d="M4.125 19.1186C4.125 18.6123 4.53541 18.2019 5.04167 18.2019H7.33333C7.83959 18.2019 8.25 18.6123 8.25 19.1186C8.25 19.6248 7.83959 20.0352 7.33333 20.0352H5.04167C4.53541 20.0352 4.125 19.6248 4.125 19.1186Z" fill="#7466FF"/>
<path fill-rule="evenodd" clip-rule="evenodd" d="M14.6667 9.03507C14.6667 8.52881 15.0772 8.11841 15.5834 8.11841H15.5926C16.0988 8.11841 16.5092 8.52881 16.5092 9.03507C16.5092 9.54134 16.0988 9.95174 15.5926 9.95174H15.5834C15.0772 9.95174 14.6667 9.54134 14.6667 9.03507Z" fill="#7466FF"/>
<path fill-rule="evenodd" clip-rule="evenodd" d="M12.8333 5.36849C12.327 5.36849 11.9166 5.7789 11.9166 6.28516V17.2852C11.9166 17.7914 12.327 18.2018 12.8333 18.2018H18.3333C18.8395 18.2018 19.2499 17.7914 19.2499 17.2852V6.28516C19.2499 5.7789 18.8395 5.36849 18.3333 5.36849H12.8333ZM10.0833 6.28516C10.0833 4.76637 11.3145 3.53516 12.8333 3.53516H18.3333C19.852 3.53516 21.0833 4.76637 21.0833 6.28516V17.2852C21.0833 18.8039 19.852 20.0352 18.3333 20.0352H12.8333C11.3145 20.0352 10.0833 18.8039 10.0833 17.2852V6.28516Z" fill="#7466FF"/>
<path fill-rule="evenodd" clip-rule="evenodd" d="M1.7222 6.17386C2.23793 5.65814 2.9374 5.36841 3.66675 5.36841H7.33342C7.83968 5.36841 8.25008 5.77881 8.25008 6.28507C8.25008 6.79134 7.83968 7.20174 7.33342 7.20174H3.66675C3.42363 7.20174 3.19047 7.29832 3.01857 7.47023C2.84666 7.64214 2.75008 7.87529 2.75008 8.11841V13.6184C2.75008 13.8615 2.84666 14.0947 3.01857 14.2666C3.19048 14.4385 3.42363 14.5351 3.66675 14.5351H7.33342C7.83968 14.5351 8.25008 14.9455 8.25008 15.4517C8.25008 15.958 7.83968 16.3684 7.33342 16.3684H3.66675C2.9374 16.3684 2.23793 16.0787 1.7222 15.563C1.20648 15.0472 0.916748 14.3478 0.916748 13.6184V8.11841C0.916748 7.38906 1.20648 6.68959 1.7222 6.17386Z" fill="#7466FF"/>
<path fill-rule="evenodd" clip-rule="evenodd" d="M13.75 14.5352C13.75 13.5227 14.5708 12.7019 15.5833 12.7019C16.5959 12.7019 17.4167 13.5227 17.4167 14.5352C17.4167 15.5478 16.5959 16.3686 15.5833 16.3686C14.5708 16.3686 13.75 15.5478 13.75 14.5352Z" fill="#7466FF"/>
</svg>
