<svg width="21" height="21" viewBox="0 0 21 21" fill="none" xmlns="http://www.w3.org/2000/svg">
<path fill-rule="evenodd" clip-rule="evenodd" d="M4.23953 13.6963C5.03803 12.8978 6.12103 12.4492 7.25029 12.4492H14.0629C15.1921 12.4492 16.2751 12.8978 17.0736 13.6963C17.8721 14.4948 18.3207 15.5778 18.3207 16.7071V18.4102C18.3207 18.8805 17.9394 19.2618 17.4691 19.2618C16.9988 19.2618 16.6176 18.8805 16.6176 18.4102V16.7071C16.6176 16.0295 16.3484 15.3797 15.8693 14.9006C15.3902 14.4215 14.7404 14.1524 14.0629 14.1524H7.25029C6.57274 14.1524 5.92293 14.4215 5.44383 14.9006C4.96473 15.3797 4.69557 16.0295 4.69557 16.7071V18.4102C4.69557 18.8805 4.31431 19.2618 3.844 19.2618C3.37369 19.2618 2.99243 18.8805 2.99243 18.4102V16.7071C2.99243 15.5778 3.44103 14.4948 4.23953 13.6963Z" fill="#38FC63"/>
<path fill-rule="evenodd" clip-rule="evenodd" d="M10.6565 3.93361C9.24561 3.93361 8.10182 5.07739 8.10182 6.48832C8.10182 7.89925 9.24561 9.04304 10.6565 9.04304C12.0675 9.04304 13.2113 7.89925 13.2113 6.48832C13.2113 5.07739 12.0675 3.93361 10.6565 3.93361ZM6.39868 6.48832C6.39868 4.13678 8.30499 2.23047 10.6565 2.23047C13.0081 2.23047 14.9144 4.13678 14.9144 6.48832C14.9144 8.83987 13.0081 10.7462 10.6565 10.7462C8.30499 10.7462 6.39868 8.83987 6.39868 6.48832Z" fill="#38FC63"/>
</svg>
