<svg width="100" height="100" viewBox="0 0 100 100" fill="none" xmlns="http://www.w3.org/2000/svg">
<rect width="100" height="100" fill="#292929"/>
<path d="M16.512 57.147C16.288 57.147 16.106 57.098 15.966 57C15.84 56.888 15.763 56.748 15.735 56.58C15.721 56.398 15.763 56.195 15.861 55.971L21.636 42.825C21.762 42.545 21.909 42.349 22.077 42.237C22.259 42.111 22.455 42.048 22.665 42.048C22.875 42.048 23.064 42.111 23.232 42.237C23.414 42.349 23.561 42.545 23.673 42.825L29.469 55.971C29.581 56.195 29.623 56.398 29.595 56.58C29.581 56.762 29.511 56.902 29.385 57C29.259 57.098 29.084 57.147 28.86 57.147C28.608 57.147 28.405 57.084 28.251 56.958C28.097 56.818 27.971 56.622 27.873 56.37L26.319 52.779L27.159 53.22H18.129L18.99 52.779L17.457 56.37C17.331 56.636 17.198 56.832 17.058 56.958C16.918 57.084 16.736 57.147 16.512 57.147ZM22.644 44.211L19.263 52.17L18.759 51.771H26.529L26.067 52.17L22.686 44.211H22.644ZM33.0708 57C32.7628 57 32.5248 56.923 32.3568 56.769C32.2028 56.601 32.1258 56.363 32.1258 56.055V43.14C32.1258 42.832 32.2028 42.601 32.3568 42.447C32.5248 42.279 32.7628 42.195 33.0708 42.195H37.1238C39.5178 42.195 41.3658 42.825 42.6678 44.085C43.9698 45.345 44.6208 47.179 44.6208 49.587C44.6208 50.791 44.4528 51.855 44.1168 52.779C43.7948 53.689 43.3118 54.459 42.6678 55.089C42.0238 55.719 41.2398 56.195 40.3158 56.517C39.3918 56.839 38.3278 57 37.1238 57H33.0708ZM33.8478 55.53H36.9978C37.9778 55.53 38.8248 55.404 39.5388 55.152C40.2668 54.9 40.8688 54.529 41.3448 54.039C41.8348 53.549 42.1988 52.933 42.4368 52.191C42.6748 51.435 42.7938 50.567 42.7938 49.587C42.7938 47.613 42.3108 46.136 41.3448 45.156C40.3788 44.162 38.9298 43.665 36.9978 43.665H33.8478V55.53ZM48.5518 57.147C48.2998 57.147 48.1038 57.077 47.9638 56.937C47.8238 56.783 47.7538 56.573 47.7538 56.307V42.888C47.7538 42.608 47.8238 42.398 47.9638 42.258C48.1038 42.118 48.2998 42.048 48.5518 42.048C48.7758 42.048 48.9508 42.097 49.0768 42.195C49.2168 42.279 49.3428 42.426 49.4548 42.636L55.2088 53.472H54.5788L60.3118 42.636C60.4238 42.426 60.5428 42.279 60.6688 42.195C60.7948 42.097 60.9768 42.048 61.2148 42.048C61.4528 42.048 61.6418 42.118 61.7818 42.258C61.9218 42.398 61.9918 42.608 61.9918 42.888V56.307C61.9918 56.573 61.9218 56.783 61.7818 56.937C61.6558 57.077 61.4598 57.147 61.1938 57.147C60.9418 57.147 60.7458 57.077 60.6058 56.937C60.4658 56.783 60.3958 56.573 60.3958 56.307V44.505H60.8998L55.6498 54.354C55.5518 54.536 55.4468 54.669 55.3348 54.753C55.2368 54.823 55.0898 54.858 54.8938 54.858C54.6978 54.858 54.5438 54.816 54.4318 54.732C54.3198 54.648 54.2218 54.522 54.1378 54.354L48.8248 44.484H49.3288V56.307C49.3288 56.573 49.2588 56.783 49.1188 56.937C48.9928 57.077 48.8038 57.147 48.5518 57.147ZM66.5376 57.147C66.2576 57.147 66.0406 57.07 65.8866 56.916C65.7466 56.748 65.6766 56.524 65.6766 56.244V42.951C65.6766 42.657 65.7466 42.433 65.8866 42.279C66.0406 42.125 66.2576 42.048 66.5376 42.048C66.8176 42.048 67.0276 42.125 67.1676 42.279C67.3216 42.433 67.3986 42.657 67.3986 42.951V56.244C67.3986 56.524 67.3286 56.748 67.1886 56.916C67.0486 57.07 66.8316 57.147 66.5376 57.147ZM71.8892 57.147C71.6232 57.147 71.4202 57.077 71.2802 56.937C71.1402 56.783 71.0702 56.566 71.0702 56.286V42.93C71.0702 42.65 71.1402 42.433 71.2802 42.279C71.4202 42.125 71.6022 42.048 71.8262 42.048C72.0502 42.048 72.2112 42.09 72.3092 42.174C72.4212 42.244 72.5472 42.377 72.6872 42.573L81.8432 54.774H81.3392V42.888C81.3392 42.622 81.4092 42.419 81.5492 42.279C81.6892 42.125 81.8922 42.048 82.1582 42.048C82.4102 42.048 82.5992 42.125 82.7252 42.279C82.8652 42.419 82.9352 42.622 82.9352 42.888V56.307C82.9352 56.573 82.8722 56.783 82.7462 56.937C82.6342 57.077 82.4662 57.147 82.2422 57.147C82.0322 57.147 81.8642 57.105 81.7382 57.021C81.6122 56.937 81.4792 56.804 81.3392 56.622L72.2042 44.421H72.6872V56.286C72.6872 56.566 72.6172 56.783 72.4772 56.937C72.3372 57.077 72.1412 57.147 71.8892 57.147Z" fill="white"/>
</svg>
