<svg width="27" height="24" viewBox="0 0 27 24" fill="none" xmlns="http://www.w3.org/2000/svg">
<path d="M17.9801 19.1929L20.4058 21.6187L25.2572 16.7672M13.1286 15.5543H8.27717C6.01668 15.5543 4.88644 15.5543 3.99488 15.9236C2.80614 16.416 1.86169 17.3605 1.36929 18.5492C1 19.4408 1 20.571 1 22.8315M17.3736 1.35265C19.1516 2.07235 20.4058 3.81543 20.4058 5.85145C20.4058 7.88747 19.1516 9.63055 17.3736 10.3502M14.9479 5.85145C14.9479 8.53083 12.7758 10.7029 10.0965 10.7029C7.41708 10.7029 5.24502 8.53083 5.24502 5.85145C5.24502 3.17207 7.41708 1 10.0965 1C12.7758 1 14.9479 3.17207 14.9479 5.85145Z" stroke="#F8F8F8" stroke-width="2" stroke-linecap="round" stroke-linejoin="round"/>
</svg>
