<svg width="40" height="40" viewBox="0 0 40 40" fill="none" xmlns="http://www.w3.org/2000/svg">
<rect width="40" height="40" rx="20" fill="#B44646"/>
<path fill-rule="evenodd" clip-rule="evenodd" d="M12.5 15.5C12.5 15.0858 12.8358 14.75 13.25 14.75H26.75C27.1642 14.75 27.5 15.0858 27.5 15.5C27.5 15.9142 27.1642 16.25 26.75 16.25H13.25C12.8358 16.25 12.5 15.9142 12.5 15.5Z" fill="#F8F8F8"/>
<path fill-rule="evenodd" clip-rule="evenodd" d="M18.5 13.25C18.3011 13.25 18.1103 13.329 17.9697 13.4697C17.829 13.6103 17.75 13.8011 17.75 14V14.75H22.25V14C22.25 13.8011 22.171 13.6103 22.0303 13.4697C21.8897 13.329 21.6989 13.25 21.5 13.25H18.5ZM23.75 14.75V14C23.75 13.4033 23.5129 12.831 23.091 12.409C22.669 11.9871 22.0967 11.75 21.5 11.75H18.5C17.9033 11.75 17.331 11.9871 16.909 12.409C16.4871 12.831 16.25 13.4033 16.25 14V14.75H14.75C14.3358 14.75 14 15.0858 14 15.5V26C14 26.5967 14.2371 27.169 14.659 27.591C15.081 28.0129 15.6533 28.25 16.25 28.25H23.75C24.3467 28.25 24.919 28.0129 25.341 27.591C25.7629 27.169 26 26.5967 26 26V15.5C26 15.0858 25.6642 14.75 25.25 14.75H23.75ZM15.5 16.25V26C15.5 26.1989 15.579 26.3897 15.7197 26.5303C15.8603 26.671 16.0511 26.75 16.25 26.75H23.75C23.9489 26.75 24.1397 26.671 24.2803 26.5303C24.421 26.3897 24.5 26.1989 24.5 26V16.25H15.5Z" fill="#F8F8F8"/>
<path fill-rule="evenodd" clip-rule="evenodd" d="M18.5 18.5C18.9142 18.5 19.25 18.8358 19.25 19.25V23.75C19.25 24.1642 18.9142 24.5 18.5 24.5C18.0858 24.5 17.75 24.1642 17.75 23.75V19.25C17.75 18.8358 18.0858 18.5 18.5 18.5Z" fill="#F8F8F8"/>
<path fill-rule="evenodd" clip-rule="evenodd" d="M21.5 18.5C21.9142 18.5 22.25 18.8358 22.25 19.25V23.75C22.25 24.1642 21.9142 24.5 21.5 24.5C21.0858 24.5 20.75 24.1642 20.75 23.75V19.25C20.75 18.8358 21.0858 18.5 21.5 18.5Z" fill="#F8F8F8"/>
</svg>
