<svg width="40" height="40" viewBox="0 0 40 40" fill="none" xmlns="http://www.w3.org/2000/svg">
<rect width="40" height="40" rx="20" fill="#E67A17"/>
<g clip-path="url(#clip0_1588_1855)">
<path fill-rule="evenodd" clip-rule="evenodd" d="M24.666 14.1143C24.506 14.1143 24.3474 14.1459 24.1996 14.2071C24.0517 14.2684 23.9173 14.3582 23.8041 14.4714L14.9293 23.3462L14.2828 25.7165L16.6531 25.07L25.528 16.1952C25.6412 16.082 25.7309 15.9477 25.7922 15.7998C25.8535 15.6519 25.885 15.4934 25.885 15.3333C25.885 15.1732 25.8535 15.0147 25.7922 14.8668C25.7309 14.7189 25.6412 14.5846 25.528 14.4714C25.4148 14.3582 25.2804 14.2684 25.1325 14.2071C24.9846 14.1459 24.8261 14.1143 24.666 14.1143ZM23.6893 12.9753C23.999 12.847 24.3309 12.781 24.666 12.781C25.0012 12.781 25.3331 12.847 25.6427 12.9753C25.9524 13.1036 26.2338 13.2916 26.4708 13.5286C26.7078 13.7656 26.8958 14.0469 27.024 14.3566C27.1523 14.6662 27.2183 14.9981 27.2183 15.3333C27.2183 15.6685 27.1523 16.0003 27.024 16.31C26.8958 16.6197 26.7078 16.901 26.4708 17.138L17.4708 26.138C17.3887 26.2201 17.2867 26.2793 17.1748 26.3098L13.5081 27.3098C13.2773 27.3727 13.0305 27.3072 12.8613 27.138C12.6921 26.9689 12.6266 26.722 12.6895 26.4912L13.6895 22.8245C13.72 22.7126 13.7793 22.6106 13.8613 22.5286L22.8613 13.5286C23.0983 13.2916 23.3797 13.1036 23.6893 12.9753Z" fill="white"/>
</g>
<defs>
<clipPath id="clip0_1588_1855">
<rect width="16" height="16" fill="white" transform="translate(12 12)"/>
</clipPath>
</defs>
</svg>
