<svg width="162" height="58" viewBox="0 0 162 58" fill="none" xmlns="http://www.w3.org/2000/svg">
<path d="M25.6222 31H21.9437V14.7642H21.8327L15.2211 30.8097H12.4306L5.81889 14.7642H5.70791V31H2.01362V8.12081H6.75436L13.7624 25.3872H13.8892L20.8973 8.12081H25.6222V31ZM54.7325 24.5628H58.6963C58.8231 25.6092 59.3622 26.4548 60.3135 27.0996C61.2649 27.7338 62.4434 28.0509 63.8493 28.0509C65.2234 28.0509 66.3438 27.7444 67.2106 27.1313C68.0879 26.5182 68.5266 25.736 68.5266 24.7847C68.5266 23.9602 68.2095 23.2943 67.5753 22.787C66.941 22.269 65.9052 21.8409 64.4676 21.5027L61.5027 20.805C59.3992 20.3188 57.8348 19.563 56.8095 18.5377C55.7948 17.5124 55.2874 16.1806 55.2874 14.5422C55.2874 12.5233 56.0802 10.8849 57.6657 9.62706C59.2512 8.36921 61.2966 7.74028 63.8017 7.74028C66.3174 7.74028 68.3416 8.36393 69.8743 9.61121C71.4175 10.8479 72.2156 12.4757 72.2684 14.4946H68.368C68.2729 13.427 67.8131 12.592 66.9886 11.9895C66.1641 11.3764 65.0913 11.0699 63.77 11.0699C62.4804 11.0699 61.434 11.3606 60.6306 11.9419C59.8379 12.5233 59.4415 13.2896 59.4415 14.241C59.4415 15.002 59.748 15.6204 60.3611 16.096C60.9847 16.5717 61.9995 16.9786 63.4053 17.3169L66.0373 17.9194C68.3522 18.4479 70.0328 19.2195 71.0793 20.2343C72.1257 21.249 72.649 22.6073 72.649 24.3091C72.649 26.476 71.835 28.1989 70.2072 29.4779C68.59 30.7463 66.3967 31.3805 63.6273 31.3805C60.9847 31.3805 58.8601 30.7727 57.2535 29.5572C55.6574 28.331 54.817 26.6662 54.7325 24.5628ZM79.8314 31H75.7407V8.12081H79.8314V31ZM124.813 31L122.863 25.086H114.444L112.493 31H108.276L116.394 8.12081H121.008L129.126 31H124.813ZM118.598 12.1639L115.395 21.9308H121.895L118.709 12.1639H118.598ZM146.059 27.5435V31H131.583V8.12081H135.674V27.5435H146.059Z" fill="#F8F8F8"/>
<path d="M52.3805 20.1244C52.3805 23.4011 51.3235 25.9961 49.2095 27.9093C47.0954 29.812 44.2098 30.7633 40.5525 30.7633C36.9163 30.7633 34.0412 29.8067 31.9272 27.8935C29.8026 25.9697 28.7403 23.38 28.7403 20.1244C28.7403 17.4607 29.5013 15.2145 31.0234 13.3859C32.535 11.5572 34.5169 10.5161 36.9692 10.2624V14.2896C35.5316 14.5539 34.3795 15.2251 33.5127 16.3033C32.646 17.3708 32.2126 18.6446 32.2126 20.1244C32.2126 22.0904 32.9684 23.6601 34.4799 24.8334C35.9809 25.9961 38.0051 26.5775 40.5525 26.5775C43.121 26.5775 45.1558 25.9961 46.6568 24.8334C48.1577 23.6707 48.9082 22.0957 48.9082 20.1085C48.9082 18.597 48.5224 17.3286 47.7508 16.3033C46.9686 15.2674 45.8904 14.5909 44.5163 14.2738V10.2624C46.9686 10.6218 48.8924 11.6788 50.2876 13.4335C51.6829 15.1881 52.3805 17.4184 52.3805 20.1244Z" fill="#F8F8F8"/>
<path d="M108.172 20.1244C108.172 23.4011 107.115 25.9961 105 27.9093C102.886 29.812 100.001 30.7633 96.3435 30.7633C92.7073 30.7633 89.8323 29.8067 87.7182 27.8935C85.5936 25.9697 84.5313 23.38 84.5313 20.1244C84.5313 17.4607 85.2924 15.2145 86.8145 13.3859C88.326 11.5572 90.3079 10.5161 92.7602 10.2624V14.2896C91.3227 14.5539 90.1705 15.2251 89.3037 16.3033C88.437 17.3708 88.0036 18.6446 88.0036 20.1244C88.0036 22.0904 88.7594 23.6601 90.2709 24.8334C91.7719 25.9961 93.7961 26.5775 96.3435 26.5775C98.9121 26.5775 100.947 25.9961 102.448 24.8334C103.949 23.6707 104.699 22.0957 104.699 20.1085C104.699 18.597 104.313 17.3286 103.542 16.3033C102.76 15.2674 101.681 14.5909 100.307 14.2738V10.2624C102.76 10.6218 104.683 11.6788 106.079 13.4335C107.474 15.1881 108.172 17.4184 108.172 20.1244Z" fill="#F8F8F8"/>
<path d="M3.60156 49.8516C3.5599 50.5495 3.48177 51.1146 3.36719 51.5469C3.25781 51.9792 3.07292 52.3542 2.8125 52.6719V52.7344H8.28125V43.9922H3.96875L3.60156 49.8516ZM1.53906 54V56.2266H0.234375V52.7344H1.07031C1.46094 52.526 1.7474 52.1849 1.92969 51.7109C2.11719 51.2318 2.23438 50.6016 2.28125 49.8203L2.71094 42.7266H9.6875V52.7344H11.0938V56.2266H9.78906V54H1.53906ZM14.9219 50.4141C14.8854 50.8828 14.8333 51.2969 14.7656 51.6562C14.7031 52.0156 14.612 52.3516 14.4922 52.6641C14.3724 52.9766 14.224 53.2344 14.0469 53.4375C13.875 53.6354 13.6589 53.7917 13.3984 53.9062C13.1432 54.0156 12.8464 54.0703 12.5078 54.0703C12.3203 54.0703 12.1589 54.0417 12.0234 53.9844V52.7578C12.1484 52.7995 12.2865 52.8203 12.4375 52.8203C12.8177 52.8203 13.1016 52.6146 13.2891 52.2031C13.4766 51.7865 13.5964 51.1797 13.6484 50.3828L13.9609 45.875H19.2812V54H17.9375V46.9922H15.1719L14.9219 50.4141ZM24.125 49.9922H25.6797V46.9922H24.125C23.5938 46.9922 23.1719 47.1302 22.8594 47.4062C22.5521 47.6823 22.3984 48.0625 22.3984 48.5469C22.3984 48.974 22.5547 49.3229 22.8672 49.5938C23.1849 49.8594 23.6042 49.9922 24.125 49.9922ZM25.6797 54V51.1094H24.2422L22.1797 54H20.625L22.8906 50.8594C22.3125 50.6927 21.8594 50.4089 21.5312 50.0078C21.2083 49.6068 21.0469 49.1276 21.0469 48.5703C21.0469 47.737 21.3229 47.0807 21.875 46.6016C22.4323 46.1172 23.1797 45.875 24.1172 45.875H27.0234V54H25.6797ZM39.7656 54L38.6328 50.7734H34.1484L33.0156 54H31.5391L35.6953 42.7266H37.0859L41.2422 54H39.7656ZM36.3672 44.4375L34.5625 49.5781H38.2188L36.4141 44.4375H36.3672ZM47.8594 52.8828V46.9922H44.8125L44.5625 50.4141C44.4844 51.5286 44.263 52.3307 43.8984 52.8203V52.8828H47.8594ZM42.9297 56.1484H41.6641V52.8828H42.3438C42.8906 52.5234 43.2109 51.6901 43.3047 50.3828L43.6172 45.875H49.2109V52.8828H50.5V56.1484H49.2344V54H42.9297V56.1484ZM53.0625 54H51.7188V45.875H53.3672L56.2578 52.2031H56.3203L59.2266 45.875H60.8125V54H59.4609V48.2344H59.4062L56.7812 53.7656H55.7422L53.1172 48.2344H53.0625V54ZM64.0625 54H62.7188V45.875H64.0625V51.9219H64.125L68.1875 45.875H69.5312V54H68.1875V47.9531H68.125L64.0625 54ZM76.7891 54V50.3438H72.7812V54H71.4375V45.875H72.7812V49.2266H76.7891V45.875H78.1328V54H76.7891ZM81.3906 54H80.0469V45.875H81.3906V51.9219H81.4531L85.5156 45.875H86.8594V54H85.5156V47.9531H85.4531L81.3906 54ZM95.4922 48.375H94.1484C94.0234 47.9531 93.7865 47.6068 93.4375 47.3359C93.0885 47.0651 92.6432 46.9297 92.1016 46.9297C91.3932 46.9297 90.8255 47.2057 90.3984 47.7578C89.9714 48.3047 89.7578 49.0312 89.7578 49.9375C89.7578 50.8594 89.9714 51.5911 90.3984 52.1328C90.8307 52.6745 91.4036 52.9453 92.1172 52.9453C92.6484 52.9453 93.0885 52.8203 93.4375 52.5703C93.7917 52.3203 94.0339 51.9688 94.1641 51.5156H95.5078C95.3724 52.2969 94.9974 52.9297 94.3828 53.4141C93.7682 53.8984 93.0104 54.1406 92.1094 54.1406C90.974 54.1406 90.0677 53.763 89.3906 53.0078C88.7135 52.2474 88.375 51.224 88.375 49.9375C88.375 48.6719 88.7135 47.6562 89.3906 46.8906C90.0677 46.1198 90.9688 45.7344 92.0938 45.7344C93.026 45.7344 93.7917 45.9896 94.3906 46.5C94.9948 47.0104 95.362 47.6354 95.4922 48.375ZM102.711 45.875V46.9922H100.086V54H98.7422V46.9922H96.1172V45.875H102.711ZM107.922 45.7344C108.964 45.7344 109.802 46.1172 110.438 46.8828C111.078 47.6484 111.398 48.6667 111.398 49.9375C111.398 51.2031 111.081 52.2214 110.445 52.9922C109.81 53.7578 108.979 54.1406 107.953 54.1406C107.38 54.1406 106.867 54.0104 106.414 53.75C105.961 53.4896 105.612 53.1328 105.367 52.6797H105.336V56.7109H103.977V45.875H105.266V47.25H105.297C105.552 46.7812 105.909 46.4115 106.367 46.1406C106.826 45.8698 107.344 45.7344 107.922 45.7344ZM107.656 52.9453C108.38 52.9453 108.953 52.6745 109.375 52.1328C109.797 51.5911 110.008 50.8594 110.008 49.9375C110.008 49.0156 109.797 48.2839 109.375 47.7422C108.953 47.2005 108.38 46.9297 107.656 46.9297C106.958 46.9297 106.396 47.2057 105.969 47.7578C105.542 48.3099 105.328 49.0365 105.328 49.9375C105.328 50.8438 105.542 51.5729 105.969 52.125C106.396 52.6719 106.958 52.9453 107.656 52.9453ZM115.594 52.9844C116.234 52.9844 116.771 52.7865 117.203 52.3906C117.641 51.9896 117.859 51.4974 117.859 50.9141V50.25L115.688 50.3828C115.141 50.4193 114.716 50.5521 114.414 50.7812C114.117 51.0104 113.969 51.3177 113.969 51.7031C113.969 52.0885 114.117 52.3984 114.414 52.6328C114.711 52.8672 115.104 52.9844 115.594 52.9844ZM115.289 54.1406C114.482 54.1406 113.828 53.9167 113.328 53.4688C112.833 53.0208 112.586 52.4323 112.586 51.7031C112.586 51.0052 112.841 50.4479 113.352 50.0312C113.867 49.6146 114.594 49.3802 115.531 49.3281L117.859 49.1953V48.5156C117.859 48.0208 117.703 47.6328 117.391 47.3516C117.078 47.0703 116.641 46.9297 116.078 46.9297C115.562 46.9297 115.143 47.0443 114.82 47.2734C114.497 47.4974 114.292 47.8125 114.203 48.2188H112.891C112.938 47.4948 113.25 46.901 113.828 46.4375C114.411 45.9688 115.172 45.7344 116.109 45.7344C117.062 45.7344 117.818 45.974 118.375 46.4531C118.938 46.9323 119.219 47.5755 119.219 48.3828V54H117.93V52.6016H117.898C117.654 53.0651 117.294 53.4375 116.82 53.7188C116.346 54 115.836 54.1406 115.289 54.1406ZM126.883 45.875V46.9922H124.258V54H122.914V46.9922H120.289V45.875H126.883ZM131.359 54.1406C130.224 54.1406 129.312 53.763 128.625 53.0078C127.938 52.2474 127.594 51.224 127.594 49.9375C127.594 48.651 127.938 47.6302 128.625 46.875C129.312 46.1146 130.224 45.7344 131.359 45.7344C132.49 45.7344 133.398 46.1146 134.086 46.875C134.773 47.6302 135.117 48.651 135.117 49.9375C135.117 51.2188 134.773 52.2396 134.086 53C133.398 53.7604 132.49 54.1406 131.359 54.1406ZM129.617 52.1484C130.049 52.6797 130.63 52.9453 131.359 52.9453C132.089 52.9453 132.667 52.6823 133.094 52.1562C133.521 51.625 133.734 50.8854 133.734 49.9375C133.734 48.9896 133.521 48.2526 133.094 47.7266C132.667 47.1953 132.089 46.9297 131.359 46.9297C130.63 46.9297 130.049 47.1953 129.617 47.7266C129.19 48.2578 128.977 48.9948 128.977 49.9375C128.977 50.8802 129.19 51.6172 129.617 52.1484ZM140.578 45.7344C141.62 45.7344 142.458 46.1172 143.094 46.8828C143.734 47.6484 144.055 48.6667 144.055 49.9375C144.055 51.2031 143.737 52.2214 143.102 52.9922C142.466 53.7578 141.635 54.1406 140.609 54.1406C140.036 54.1406 139.523 54.0104 139.07 53.75C138.617 53.4896 138.268 53.1328 138.023 52.6797H137.992V56.7109H136.633V45.875H137.922V47.25H137.953C138.208 46.7812 138.565 46.4115 139.023 46.1406C139.482 45.8698 140 45.7344 140.578 45.7344ZM140.312 52.9453C141.036 52.9453 141.609 52.6745 142.031 52.1328C142.453 51.5911 142.664 50.8594 142.664 49.9375C142.664 49.0156 142.453 48.2839 142.031 47.7422C141.609 47.2005 141.036 46.9297 140.312 46.9297C139.615 46.9297 139.052 47.2057 138.625 47.7578C138.198 48.3099 137.984 49.0365 137.984 49.9375C137.984 50.8438 138.198 51.5729 138.625 52.125C139.052 52.6719 139.615 52.9453 140.312 52.9453ZM148.938 54.1406C147.802 54.1406 146.891 53.763 146.203 53.0078C145.516 52.2474 145.172 51.224 145.172 49.9375C145.172 48.651 145.516 47.6302 146.203 46.875C146.891 46.1146 147.802 45.7344 148.938 45.7344C150.068 45.7344 150.977 46.1146 151.664 46.875C152.352 47.6302 152.695 48.651 152.695 49.9375C152.695 51.2188 152.352 52.2396 151.664 53C150.977 53.7604 150.068 54.1406 148.938 54.1406ZM147.195 52.1484C147.628 52.6797 148.208 52.9453 148.938 52.9453C149.667 52.9453 150.245 52.6823 150.672 52.1562C151.099 51.625 151.312 50.8854 151.312 49.9375C151.312 48.9896 151.099 48.2526 150.672 47.7266C150.245 47.1953 149.667 46.9297 148.938 46.9297C148.208 46.9297 147.628 47.1953 147.195 47.7266C146.768 48.2578 146.555 48.9948 146.555 49.9375C146.555 50.8802 146.768 51.6172 147.195 52.1484ZM157.492 46.9766H155.547V49.25H157.289C158.299 49.25 158.805 48.8646 158.805 48.0938C158.805 47.7344 158.693 47.4583 158.469 47.2656C158.245 47.0729 157.919 46.9766 157.492 46.9766ZM157.398 50.3438H155.547V52.8984H157.641C158.13 52.8984 158.505 52.7917 158.766 52.5781C159.026 52.3594 159.156 52.0443 159.156 51.6328C159.156 50.7734 158.57 50.3438 157.398 50.3438ZM154.203 54V45.875H157.68C158.44 45.875 159.039 46.0599 159.477 46.4297C159.914 46.7995 160.133 47.3073 160.133 47.9531C160.133 48.3646 160.003 48.7396 159.742 49.0781C159.487 49.4167 159.172 49.625 158.797 49.7031V49.7656C159.307 49.8385 159.716 50.0469 160.023 50.3906C160.336 50.7344 160.492 51.1589 160.492 51.6641C160.492 52.3828 160.242 52.9531 159.742 53.375C159.247 53.7917 158.568 54 157.703 54H154.203Z" fill="#F8F8F8"/>
</svg>
