<svg width="22" height="22" viewBox="0 0 22 22" fill="none" xmlns="http://www.w3.org/2000/svg">
<path fill-rule="evenodd" clip-rule="evenodd" d="M4.58301 3.66659C4.33989 3.66659 4.10673 3.76316 3.93483 3.93507C3.76292 4.10698 3.66634 4.34014 3.66634 4.58325V17.4166C3.66634 17.6597 3.76292 17.8929 3.93483 18.0648C4.10674 18.2367 4.33989 18.3333 4.58301 18.3333H8.24967C8.75594 18.3333 9.16634 18.7437 9.16634 19.2499C9.16634 19.7562 8.75594 20.1666 8.24967 20.1666H4.58301C3.85366 20.1666 3.15419 19.8769 2.63846 19.3611C2.12274 18.8454 1.83301 18.1459 1.83301 17.4166V4.58325C1.83301 3.85391 2.12274 3.15443 2.63846 2.63871C3.15419 2.12298 3.85366 1.83325 4.58301 1.83325H8.24967C8.75594 1.83325 9.16634 2.24366 9.16634 2.74992C9.16634 3.25618 8.75594 3.66659 8.24967 3.66659H4.58301Z" fill="#F8F8F8"/>
<path fill-rule="evenodd" clip-rule="evenodd" d="M14.0185 5.76849C14.3765 5.4105 14.9569 5.4105 15.3148 5.76849L19.8982 10.3518C20.2562 10.7098 20.2562 11.2902 19.8982 11.6482L15.3148 16.2315C14.9569 16.5895 14.3765 16.5895 14.0185 16.2315C13.6605 15.8735 13.6605 15.2931 14.0185 14.9352L17.9536 11L14.0185 7.06485C13.6605 6.70687 13.6605 6.12647 14.0185 5.76849Z" fill="#F8F8F8"/>
<path fill-rule="evenodd" clip-rule="evenodd" d="M7.33301 10.9999C7.33301 10.4937 7.74341 10.0833 8.24967 10.0833H19.2497C19.7559 10.0833 20.1663 10.4937 20.1663 10.9999C20.1663 11.5062 19.7559 11.9166 19.2497 11.9166H8.24967C7.74341 11.9166 7.33301 11.5062 7.33301 10.9999Z" fill="#F8F8F8"/>
</svg>
