<svg width="22" height="22" viewBox="0 0 22 22" fill="none" xmlns="http://www.w3.org/2000/svg">
<path fill-rule="evenodd" clip-rule="evenodd" d="M3.6665 3.66671C3.16024 3.66671 2.74984 4.07711 2.74984 4.58337V13.75C2.74984 14.2563 3.16024 14.6667 3.6665 14.6667H18.3332C18.8394 14.6667 19.2498 14.2563 19.2498 13.75V4.58337C19.2498 4.07711 18.8394 3.66671 18.3332 3.66671H3.6665ZM0.916504 4.58337C0.916504 3.06459 2.14772 1.83337 3.6665 1.83337H18.3332C19.852 1.83337 21.0832 3.06459 21.0832 4.58337V13.75C21.0832 15.2688 19.852 16.5 18.3332 16.5H3.6665C2.14772 16.5 0.916504 15.2688 0.916504 13.75V4.58337Z" fill="#F8F8F8"/>
<path fill-rule="evenodd" clip-rule="evenodd" d="M6.4165 19.25C6.4165 18.7438 6.82691 18.3334 7.33317 18.3334H14.6665C15.1728 18.3334 15.5832 18.7438 15.5832 19.25C15.5832 19.7563 15.1728 20.1667 14.6665 20.1667H7.33317C6.82691 20.1667 6.4165 19.7563 6.4165 19.25Z" fill="#F8F8F8"/>
<path fill-rule="evenodd" clip-rule="evenodd" d="M11.0002 14.6666C11.5064 14.6666 11.9168 15.077 11.9168 15.5833V19.25C11.9168 19.7562 11.5064 20.1666 11.0002 20.1666C10.4939 20.1666 10.0835 19.7562 10.0835 19.25V15.5833C10.0835 15.077 10.4939 14.6666 11.0002 14.6666Z" fill="#F8F8F8"/>
</svg>
