<svg width="28" height="28" viewBox="0 0 28 28" fill="none" xmlns="http://www.w3.org/2000/svg">
<path d="M14.0003 26.8333C12.7753 26.8333 11.5737 26.5999 10.4303 26.1216C9.28699 25.6433 8.27199 24.9666 7.40866 24.1033C6.53366 23.2283 5.85699 22.2133 5.39033 21.0699C4.91199 19.9266 4.66699 18.7249 4.66699 17.4999C4.66699 15.9833 5.21533 14.3616 6.09033 13.2649C6.40533 12.8799 6.91866 12.7283 7.38533 12.8916C7.85199 13.0666 8.16699 13.5099 8.16699 13.9999C8.16699 14.4666 8.35366 14.9099 8.68033 15.2366C9.34533 15.9016 10.4887 15.9016 11.1537 15.2366C11.4803 14.9099 11.667 14.4666 11.667 13.9999C11.667 12.9733 11.387 12.4483 10.9553 11.6549C10.8503 11.4566 10.7337 11.2466 10.6287 11.0249C9.19366 8.16658 10.0453 5.41325 13.242 2.62492C13.557 2.34492 13.9887 2.26325 14.3853 2.40325C14.782 2.53158 15.0737 2.86992 15.1553 3.27825C15.6803 5.89158 17.267 8.46992 19.402 10.1849C21.9687 12.2383 23.3337 14.7699 23.3337 17.4999C23.3337 18.7366 23.0887 19.9383 22.622 21.0699C22.1553 22.2133 21.467 23.2283 20.6037 24.1033C19.7287 24.9783 18.7137 25.6549 17.5703 26.1216C16.4387 26.5883 15.237 26.8333 14.0003 26.8333ZM7.04699 16.9049C7.01199 17.1033 7.00033 17.3016 7.00033 17.4999C7.00033 18.4216 7.17533 19.3199 7.53699 20.1833C7.88699 21.0349 8.40033 21.8049 9.05366 22.4583C9.70699 23.1116 10.4653 23.6249 11.3287 23.9749C13.0437 24.6866 14.9803 24.6749 16.6837 23.9749C17.5353 23.6249 18.3053 23.1116 18.9587 22.4583C19.612 21.8049 20.1253 21.0466 20.4753 20.1833C20.8253 19.3199 21.0003 18.4216 21.0003 17.4999C21.0003 15.5049 19.9387 13.5916 17.9437 11.9933C15.937 10.3833 14.3387 8.14325 13.4403 5.72825C11.9003 7.59492 12.1803 8.91325 12.7053 9.97492C12.8103 10.1733 12.9037 10.3716 13.0087 10.5466C13.4987 11.4566 14.0003 12.3899 14.0003 13.9999C14.0003 15.0966 13.5803 16.1116 12.8103 16.8816C11.2587 18.4216 8.58699 18.4333 7.04699 16.9049Z" fill="#F8F8F8"/>
</svg>
