<svg width="24" height="26" viewBox="0 0 24 26" fill="none" xmlns="http://www.w3.org/2000/svg">
<path d="M23 20.9982V13.3315C23 6.98027 18.0751 1.83154 12 1.83154C5.92487 1.83154 1 6.98027 1 13.3315V20.9982M4.05556 24.8315C2.36802 24.8315 1 23.4013 1 21.6371V19.0815C1 17.3173 2.36802 15.8871 4.05556 15.8871C5.74309 15.8871 7.11111 17.3173 7.11111 19.0815V21.6371C7.11111 23.4013 5.74309 24.8315 4.05556 24.8315ZM19.9444 24.8315C18.2569 24.8315 16.8889 23.4013 16.8889 21.6371V19.0815C16.8889 17.3173 18.2569 15.8871 19.9444 15.8871C21.632 15.8871 23 17.3173 23 19.0815V21.6371C23 23.4013 21.632 24.8315 19.9444 24.8315Z" stroke="#F8F8F8" stroke-width="2" stroke-linecap="round" stroke-linejoin="round"/>
</svg>
