<svg width="28" height="29" viewBox="0 0 28 29" fill="none" xmlns="http://www.w3.org/2000/svg">
<path fill-rule="evenodd" clip-rule="evenodd" d="M25.2548 3.44128C25.5164 3.66295 25.6673 3.98853 25.6673 4.33147V19.4981C25.6673 20.1425 25.145 20.6648 24.5007 20.6648C23.8563 20.6648 23.334 20.1425 23.334 19.4981V5.70867L11.6673 7.65312V21.8315C11.6673 22.4758 11.145 22.9981 10.5007 22.9981C9.85632 22.9981 9.33398 22.4758 9.33398 21.8315V6.6648C9.33398 6.09449 9.7463 5.60777 10.3089 5.51401L24.3089 3.18068C24.6471 3.1243 24.9931 3.21961 25.2548 3.44128Z" fill="#F8F8F8"/>
<path fill-rule="evenodd" clip-rule="evenodd" d="M7.00065 19.4981C5.71199 19.4981 4.66732 20.5428 4.66732 21.8315C4.66732 23.1201 5.71199 24.1648 7.00065 24.1648C8.28932 24.1648 9.33398 23.1201 9.33398 21.8315C9.33398 20.5428 8.28932 19.4981 7.00065 19.4981ZM2.33398 21.8315C2.33398 19.2541 4.42332 17.1648 7.00065 17.1648C9.57798 17.1648 11.6673 19.2541 11.6673 21.8315C11.6673 24.4088 9.57798 26.4981 7.00065 26.4981C4.42332 26.4981 2.33398 24.4088 2.33398 21.8315Z" fill="#F8F8F8"/>
<path fill-rule="evenodd" clip-rule="evenodd" d="M21.0007 17.1649C19.712 17.1649 18.6673 18.2095 18.6673 19.4982C18.6673 20.7869 19.712 21.8315 21.0007 21.8315C22.2893 21.8315 23.334 20.7869 23.334 19.4982C23.334 18.2095 22.2893 17.1649 21.0007 17.1649ZM16.334 19.4982C16.334 16.9209 18.4233 14.8315 21.0007 14.8315C23.578 14.8315 25.6673 16.9209 25.6673 19.4982C25.6673 22.0755 23.578 24.1649 21.0007 24.1649C18.4233 24.1649 16.334 22.0755 16.334 19.4982Z" fill="#F8F8F8"/>
</svg>
