<svg width="26" height="26" viewBox="0 0 26 26" fill="none" xmlns="http://www.w3.org/2000/svg">
<path fill-rule="evenodd" clip-rule="evenodd" d="M4.8365 16.753C5.85233 15.7372 7.23008 15.1665 8.66667 15.1665H17.3333C18.7699 15.1665 20.1477 15.7372 21.1635 16.753C22.1793 17.7688 22.75 19.1466 22.75 20.5832V22.7498C22.75 23.3481 22.265 23.8332 21.6667 23.8332C21.0684 23.8332 20.5833 23.3481 20.5833 22.7498V20.5832C20.5833 19.7212 20.2409 18.8946 19.6314 18.2851C19.0219 17.6756 18.1953 17.3332 17.3333 17.3332H8.66667C7.80471 17.3332 6.97806 17.6756 6.36857 18.2851C5.75908 18.8946 5.41667 19.7212 5.41667 20.5832V22.7498C5.41667 23.3481 4.93164 23.8332 4.33333 23.8332C3.73502 23.8332 3.25 23.3481 3.25 22.7498V20.5832C3.25 19.1466 3.82068 17.7688 4.8365 16.753Z" fill="#F8F8F8"/>
<path fill-rule="evenodd" clip-rule="evenodd" d="M12.9997 4.33341C11.2047 4.33341 9.74967 5.78849 9.74967 7.58341C9.74967 9.37834 11.2047 10.8334 12.9997 10.8334C14.7946 10.8334 16.2497 9.37834 16.2497 7.58341C16.2497 5.78849 14.7946 4.33341 12.9997 4.33341ZM7.58301 7.58341C7.58301 4.59187 10.0081 2.16675 12.9997 2.16675C15.9912 2.16675 18.4163 4.59187 18.4163 7.58341C18.4163 10.575 15.9912 13.0001 12.9997 13.0001C10.0081 13.0001 7.58301 10.575 7.58301 7.58341Z" fill="#F8F8F8"/>
</svg>
