<svg width="66" height="66" viewBox="0 0 66 66" fill="none" xmlns="http://www.w3.org/2000/svg">
    <rect width="65.8551" height="65.8551" rx="6.17391" fill="#D88A42"/>
    <path fill-rule="evenodd" clip-rule="evenodd"
          d="M31.6842 42.8747C31.6842 42.188 32.2409 41.6313 32.9276 41.6313H44.1178C44.8045 41.6313 45.3611 42.188 45.3611 42.8747C45.3611 43.5614 44.8045 44.1181 44.1178 44.1181H32.9276C32.2409 44.1181 31.6842 43.5614 31.6842 42.8747Z"
          fill="#F8F8F8"/>
    <path fill-rule="evenodd" clip-rule="evenodd"
          d="M40.3877 22.83C40.018 22.83 39.6633 22.9769 39.4019 23.2383L24.1034 38.5368L23.4462 41.1657L26.0751 40.5085L41.3736 25.21C41.503 25.0806 41.6057 24.9269 41.6758 24.7577C41.7459 24.5886 41.7819 24.4073 41.7819 24.2242C41.7819 24.0411 41.7459 23.8598 41.6758 23.6906C41.6057 23.5215 41.503 23.3678 41.3736 23.2383C41.2441 23.1089 41.0904 23.0062 40.9213 22.9361C40.7521 22.866 40.5708 22.83 40.3877 22.83ZM37.6435 21.48C38.3713 20.7521 39.3585 20.3433 40.3877 20.3433C40.8974 20.3433 41.402 20.4436 41.8729 20.6387C42.3438 20.8337 42.7716 21.1196 43.132 21.48C43.4923 21.8403 43.7782 22.2682 43.9732 22.739C44.1683 23.2099 44.2687 23.7145 44.2687 24.2242C44.2687 24.7338 44.1683 25.2385 43.9732 25.7093C43.7782 26.1802 43.4923 26.608 43.132 26.9684L27.59 42.5104C27.4306 42.6697 27.231 42.7828 27.0124 42.8374L22.0389 44.0808C21.6152 44.1867 21.167 44.0626 20.8582 43.7537C20.5494 43.4449 20.4252 42.9967 20.5311 42.573L21.7745 37.5996C21.8292 37.3809 21.9422 37.1813 22.1015 37.0219L37.6435 21.48Z"
          fill="#F8F8F8"/>
</svg>
