<svg width="66" height="66" viewBox="0 0 66 66" fill="none" xmlns="http://www.w3.org/2000/svg">
    <rect width="65.8551" height="65.8551" rx="6.17391" fill="#46B451"/>
    <path fill-rule="evenodd" clip-rule="evenodd"
          d="M32.9275 22.9807C33.6142 22.9807 34.1709 23.5374 34.1709 24.2241V41.6311C34.1709 42.3178 33.6142 42.8744 32.9275 42.8744C32.2409 42.8744 31.6842 42.3178 31.6842 41.6311V24.2241C31.6842 23.5374 32.2409 22.9807 32.9275 22.9807Z"
          fill="#F8F8F8"/>
    <path fill-rule="evenodd" clip-rule="evenodd"
          d="M22.9807 32.9277C22.9807 32.241 23.5373 31.6843 24.224 31.6843H41.631C42.3177 31.6843 42.8744 32.241 42.8744 32.9277C42.8744 33.6144 42.3177 34.171 41.631 34.171H24.224C23.5373 34.171 22.9807 33.6144 22.9807 32.9277Z"
          fill="#F8F8F8"/>
</svg>
