<svg width="66" height="66" viewBox="0 0 66 66" fill="none" xmlns="http://www.w3.org/2000/svg">
    <rect x="0.144928" width="65.8551" height="65.8551" rx="6.17391" fill="#B44646"/>
    <path fill-rule="evenodd" clip-rule="evenodd"
          d="M20.6389 25.4675C20.6389 24.7808 21.1956 24.2241 21.8823 24.2241H44.2627C44.9494 24.2241 45.5061 24.7808 45.5061 25.4675C45.5061 26.1542 44.9494 26.7108 44.2627 26.7108H21.8823C21.1956 26.7108 20.6389 26.1542 20.6389 25.4675Z"
          fill="#F8F8F8"/>
    <path fill-rule="evenodd" clip-rule="evenodd"
          d="M30.5858 21.7372C30.256 21.7372 29.9397 21.8682 29.7066 22.1014C29.4734 22.3345 29.3424 22.6508 29.3424 22.9806V24.2239H36.8025V22.9806C36.8025 22.6508 36.6715 22.3345 36.4384 22.1014C36.2052 21.8682 35.8889 21.7372 35.5592 21.7372H30.5858ZM39.2893 24.2239V22.9806C39.2893 21.9913 38.8963 21.0425 38.1967 20.343C37.4972 19.6435 36.5485 19.2505 35.5592 19.2505H30.5858C29.5965 19.2505 28.6477 19.6435 27.9482 20.343C27.2487 21.0425 26.8557 21.9913 26.8557 22.9806V24.2239H24.369C23.6823 24.2239 23.1256 24.7806 23.1256 25.4673V42.8743C23.1256 43.8636 23.5186 44.8123 24.2181 45.5118C24.9176 46.2114 25.8664 46.6044 26.8557 46.6044H39.2893C40.2785 46.6044 41.2273 46.2114 41.9268 45.5118C42.6263 44.8123 43.0193 43.8636 43.0193 42.8743V25.4673C43.0193 24.7806 42.4627 24.2239 41.776 24.2239H39.2893ZM25.6123 26.7106V42.8743C25.6123 43.204 25.7433 43.5203 25.9765 43.7535C26.2097 43.9866 26.5259 44.1176 26.8557 44.1176H39.2893C39.619 44.1176 39.9353 43.9866 40.1684 43.7535C40.4016 43.5203 40.5326 43.204 40.5326 42.8743V26.7106H25.6123Z"
          fill="#F8F8F8"/>
    <path fill-rule="evenodd" clip-rule="evenodd"
          d="M30.5858 30.4409C31.2725 30.4409 31.8291 30.9976 31.8291 31.6843V39.1444C31.8291 39.8311 31.2725 40.3878 30.5858 40.3878C29.8991 40.3878 29.3424 39.8311 29.3424 39.1444V31.6843C29.3424 30.9976 29.8991 30.4409 30.5858 30.4409Z"
          fill="#F8F8F8"/>
    <path fill-rule="evenodd" clip-rule="evenodd"
          d="M35.5592 30.4409C36.2459 30.4409 36.8025 30.9976 36.8025 31.6843V39.1444C36.8025 39.8311 36.2459 40.3878 35.5592 40.3878C34.8725 40.3878 34.3158 39.8311 34.3158 39.1444V31.6843C34.3158 30.9976 34.8725 30.4409 35.5592 30.4409Z"
          fill="#F8F8F8"/>
</svg>
