<svg width="200" height="200" viewBox="0 0 200 200" fill="none" xmlns="http://www.w3.org/2000/svg">
<path opacity="0.953" fill-rule="evenodd" clip-rule="evenodd" d="M73.2422 8.39844C74.1266 15.6146 74.8426 22.9063 75.3906 30.2734C78.5027 28.5546 81.693 26.9921 84.9609 25.5859C85.4184 33.8277 86.1996 42.0309 87.3047 50.1953C83.4973 52.2449 79.591 54.068 75.5859 55.6641C75.7793 49.6266 76.4305 43.6367 77.5391 37.6953C77.409 37.3047 77.2785 36.9141 77.1484 36.5234C74.5676 38.2065 71.8332 39.4434 68.9453 40.2344C70.0094 29.5737 71.4418 18.9618 73.2422 8.39844Z" fill="#FFD55E"/>
<path opacity="0.952" fill-rule="evenodd" clip-rule="evenodd" d="M109.961 18.5547C110.173 18.5781 110.303 18.7083 110.352 18.9453C107.954 25.6161 105.48 32.2568 102.93 38.8672C106.569 39.1922 110.214 39.3875 113.867 39.4531C110.556 46.9105 107.627 54.5277 105.078 62.3047C100.87 62.8199 96.6387 62.8199 92.3828 62.3047C95.1477 56.6406 98.4027 51.302 102.148 46.2891C99.0211 46.1195 95.8961 45.9891 92.7734 45.8984C98.116 36.5096 103.845 27.395 109.961 18.5547Z" fill="#FFD55E"/>
<path opacity="0.957" fill-rule="evenodd" clip-rule="evenodd" d="M42.3828 28.3203C45.9215 34.7448 49.3719 41.2551 52.7344 47.8516C54.8828 45.4426 57.0312 43.034 59.1797 40.625C59.6719 40.1902 60.1277 40.125 60.5469 40.4297C63.6508 47.6789 67.1664 54.7102 71.0938 61.5234C71.3543 61.9141 71.3543 62.3047 71.0938 62.6953C68.3594 65.6902 65.625 68.6848 62.8906 71.6797C60.4059 65.7812 58.5828 59.6613 57.4219 53.3203C56.9738 52.9461 56.5832 53.0762 56.25 53.7109C54.7707 55.8422 53.143 57.8605 51.3672 59.7656C50.9375 59.9344 50.677 59.7391 50.5859 59.1797C47.423 49.0023 44.6887 38.7161 42.3828 28.3203Z" fill="#FFD55F"/>
<path fill-rule="evenodd" clip-rule="evenodd" d="M58.789 50.5859C59.4527 50.5234 60.1039 50.5883 60.7422 50.7812C61.3308 51.1082 61.5261 51.5641 61.3281 52.1484C59.625 53.2613 58.7785 52.7406 58.789 50.5859Z" fill="#FFECB9"/>
<path fill-rule="evenodd" clip-rule="evenodd" d="M61.5235 56.4453C63.2973 56.5684 63.6879 57.2848 62.6953 58.5938C61.1473 58.6398 60.7567 57.9234 61.5235 56.4453Z" fill="#FFEAB3"/>
<path fill-rule="evenodd" clip-rule="evenodd" d="M142.383 62.6953C141.06 69.1117 139.563 75.4922 137.891 81.8359C137.134 82.8539 136.157 83.5699 134.961 83.9844C117.6 88.3898 100.152 92.4262 82.6172 96.0938C72.7156 97.9938 62.7547 99.491 52.7344 100.586C51 100.716 49.3727 100.39 47.8516 99.6094C45.0359 96.6 42.3016 93.5398 39.6484 90.4297C44.9219 90.0879 50.2605 90.0879 55.6641 90.4297C55.7941 90.4297 55.9246 90.4297 56.0547 90.4297C65.2074 91.3012 74.3219 90.7152 83.3984 88.6719C89.8605 86.7453 95.4594 83.425 100.195 78.7109C101.543 79.0016 102.194 78.4805 102.148 77.1484C102.638 76.1355 103.289 75.2238 104.102 74.4141C104.492 73.8934 104.883 73.3723 105.273 72.8516C107.767 70.3352 109.98 67.6008 111.914 64.6484C120.52 62.732 129.179 61.0391 137.891 59.5703C139.176 59.5422 140.413 59.7375 141.602 60.1563C142.277 60.8551 142.537 61.7016 142.383 62.6953Z" fill="#FB4949"/>
<path fill-rule="evenodd" clip-rule="evenodd" d="M142.383 62.6953C142.773 62.8254 143.034 63.0859 143.164 63.4766C143.546 65.1629 143.482 66.8555 142.969 68.5547C141.656 74.066 140.224 79.5348 138.672 84.9609C138.121 85.4637 137.535 85.9195 136.914 86.3281C109.625 93.7391 81.9559 99.4031 53.9062 103.32C51.957 103.532 50.1992 103.076 48.6328 101.953C46.0938 99.1535 43.5547 96.3543 41.0156 93.5547C39.9633 92.2297 39.1172 90.7973 38.4766 89.2578C38.9563 89.5727 39.3469 89.9633 39.6484 90.4297C42.3016 93.5398 45.0359 96.6 47.8516 99.6094C49.3727 100.39 51 100.716 52.7344 100.586C62.7547 99.491 72.7156 97.9938 82.6172 96.0938C100.152 92.4262 117.6 88.3898 134.961 83.9844C136.157 83.5699 137.134 82.8539 137.891 81.8359C139.563 75.4922 141.06 69.1117 142.383 62.6953Z" fill="#CFD0D5"/>
<path fill-rule="evenodd" clip-rule="evenodd" d="M143.164 63.4766C146.422 63.4117 149.677 63.4766 152.93 63.6719C159.443 64.2191 164.065 67.409 166.797 73.2422C170.902 89.0125 175.069 104.768 179.297 120.508C180.608 129.018 182.171 137.481 183.984 145.898C186.155 155.297 182.835 161.742 174.023 165.234C166.801 167.534 159.509 169.552 152.148 171.289C147.664 168.329 143.237 165.27 138.867 162.109C138.146 161.669 137.365 161.473 136.523 161.523C136.657 161.196 136.917 161.066 137.305 161.133C141.985 159.898 146.673 158.661 151.367 157.422C154.822 156.509 157.752 154.752 160.156 152.148C161.418 149.551 161.809 146.816 161.328 143.945C158.514 127.741 154.478 111.856 149.219 96.2891C147.516 93.1227 144.847 91.3648 141.211 91.0156C139.518 90.7551 137.825 90.7551 136.133 91.0156C106.963 97.1359 77.7965 103.255 48.6328 109.375C44.8453 110.12 41.8508 112.008 39.6484 115.039C39.2578 115.56 38.8672 116.081 38.4766 116.602C34.7419 116.224 30.9659 116.419 27.1484 117.187C23.6037 117.976 20.0881 118.823 16.6016 119.727C15.1452 113.995 14.9498 108.266 16.0156 102.539C17.4166 97.882 20.3463 94.5617 24.8047 92.5781C29.0491 91.0289 33.346 89.6617 37.6953 88.4766C38.2161 88.4766 38.4766 88.7371 38.4766 89.2578C39.1172 90.7973 39.9633 92.2297 41.0156 93.5547C43.5547 96.3543 46.0938 99.1535 48.6328 101.953C50.1992 103.076 51.957 103.532 53.9063 103.32C81.9559 99.4031 109.625 93.7391 136.914 86.3281C137.535 85.9195 138.121 85.4637 138.672 84.9609C140.224 79.5348 141.656 74.066 142.969 68.5547C143.482 66.8555 143.546 65.1629 143.164 63.4766Z" fill="#DFE3E8"/>
<path opacity="0.99" fill-rule="evenodd" clip-rule="evenodd" d="M111.914 64.6484C109.98 67.6008 107.767 70.3352 105.273 72.8516C105.084 70.3926 103.782 69.5465 101.367 70.3125C99.1391 73.8488 100.05 75.216 104.102 74.4141C103.289 75.2238 102.638 76.1355 102.148 77.1484C100.168 75.8707 99.5164 76.3918 100.195 78.7109C95.4594 83.425 89.8605 86.7453 83.3984 88.6719C74.3219 90.7152 65.2074 91.3012 56.0547 90.4297C58.9797 89.959 61.8441 89.2426 64.6484 88.2812C65.0168 87.1875 64.9516 86.0805 64.4531 84.9609C64.0797 84.4164 63.559 84.1559 62.8906 84.1797C60.2871 84.684 57.748 85.4 55.2734 86.3281C54.8539 86.6168 54.5934 87.0074 54.4922 87.5C54.6789 88.5859 55.0695 89.5625 55.6641 90.4297C50.2605 90.0879 44.9219 90.0879 39.6484 90.4297C39.3469 89.9633 38.9563 89.5727 38.4766 89.2578C38.4766 88.7371 38.2161 88.4766 37.6953 88.4766C37.167 87.4445 36.9066 86.3375 36.9141 85.1562C36.8379 84.2375 37.0983 83.4563 37.6953 82.8125C40.7293 81.4102 43.8543 80.2383 47.0703 79.2969C68.6609 74.2887 90.2758 69.4059 111.914 64.6484Z" fill="#FC615C"/>
<path fill-rule="evenodd" clip-rule="evenodd" d="M105.273 72.8516C104.883 73.3723 104.492 73.8934 104.102 74.4141C100.05 75.216 99.139 73.8488 101.367 70.3125C103.782 69.5465 105.084 70.3926 105.273 72.8516Z" fill="#FEBCBA"/>
<path fill-rule="evenodd" clip-rule="evenodd" d="M153.711 70.5078C158.091 70.7848 159.589 72.9984 158.203 77.1484C155.522 79.477 153.308 79.0863 151.563 75.9766C150.886 73.5602 151.602 71.7371 153.711 70.5078Z" fill="#4A4649"/>
<path fill-rule="evenodd" clip-rule="evenodd" d="M115.82 72.4609C117.129 72.3965 118.431 72.4617 119.727 72.6562C120.448 73.6637 120.643 74.7703 120.313 75.9766C119.081 76.7586 117.714 77.2141 116.211 77.3437C114.532 77.7703 112.839 77.9004 111.133 77.7344C110.36 76.759 110.165 75.652 110.547 74.4141C110.9 73.9449 111.355 73.6191 111.914 73.4375C113.296 73.2285 114.598 72.9031 115.82 72.4609Z" fill="#282121"/>
<path fill-rule="evenodd" clip-rule="evenodd" d="M102.148 77.1484C102.194 78.4805 101.543 79.0016 100.195 78.7109C99.5164 76.3918 100.168 75.8707 102.148 77.1484Z" fill="#FEB5B3"/>
<path fill-rule="evenodd" clip-rule="evenodd" d="M104.883 77.1484C106.304 76.8504 106.89 77.3711 106.641 78.7109C104.85 79.4582 104.264 78.9371 104.883 77.1484Z" fill="#FEACAC"/>
<path fill-rule="evenodd" clip-rule="evenodd" d="M56.0547 90.4297C55.9246 90.4297 55.7941 90.4297 55.6641 90.4297C55.0695 89.5625 54.6789 88.5859 54.4922 87.5C54.5934 87.0074 54.8539 86.6168 55.2734 86.3281C57.748 85.4 60.2871 84.684 62.8906 84.1797C63.559 84.1559 64.0797 84.4164 64.4531 84.9609C64.9516 86.0805 65.0168 87.1875 64.6484 88.2813C61.8441 89.2426 58.9797 89.959 56.0547 90.4297Z" fill="#282122"/>
<path fill-rule="evenodd" clip-rule="evenodd" d="M137.305 161.133C131.706 156.966 126.107 152.8 120.508 148.633C128.454 147.418 136.267 145.66 143.945 143.359C147.958 141.109 150.563 137.788 151.758 133.398C152.98 134.912 153.63 136.67 153.711 138.672C153.361 141.219 152.58 143.628 151.367 145.898C151.879 148.298 153.311 149.144 155.664 148.437C157.042 147.572 157.888 146.335 158.203 144.727C158.062 140.37 157.411 136.073 156.25 131.836C155.725 129.942 154.488 129.03 152.539 129.102C152.288 119.873 147.73 114.144 138.867 111.914C139.774 110.363 140.686 108.8 141.602 107.227C143.91 106.678 146.254 106.287 148.633 106.055C147.12 104.218 145.688 102.33 144.336 100.391C144.613 98.3699 145.134 96.4168 145.898 94.5313C145.768 94.3359 145.638 94.1406 145.508 93.9453C143.425 94.8566 141.341 95.7684 139.258 96.6797C137.403 95.459 135.514 94.2871 133.594 93.1641C133.594 95.5078 133.594 97.8516 133.594 100.195C131.93 101.582 130.302 103.014 128.711 104.492C128.793 104.721 128.923 104.916 129.102 105.078C131.255 105.35 133.338 105.87 135.352 106.641C136.272 108.167 136.923 109.794 137.305 111.523C135.331 111.504 133.378 111.699 131.445 112.109C115.851 115.476 100.226 118.666 84.5703 121.68C79.1539 123.736 73.8152 126.014 68.5547 128.516C66.2746 128.677 64.3215 127.961 62.6953 126.367C67.3875 125.389 72.075 124.413 76.7578 123.438C72.916 121.875 69.0098 120.508 65.0391 119.336C64.5184 119.336 63.9973 119.336 63.4766 119.336C61.8008 119.697 60.1078 119.957 58.3984 120.117C58.332 119.601 58.4621 119.145 58.7891 118.75C59.5703 118.62 60.3516 118.489 61.1328 118.359C61.35 118.21 61.4801 118.014 61.5234 117.773C62.5859 116.372 62.4555 115.005 61.1328 113.672C58.5637 113.05 57.7172 114.027 58.5938 116.602C58.8738 116.814 59.0691 117.075 59.1797 117.383C59.0168 117.627 58.7563 117.757 58.3984 117.773C52.0516 116.742 45.8016 115.83 39.6484 115.039C41.8508 112.008 44.8453 110.12 48.6328 109.375C77.7965 103.255 106.963 97.1359 136.133 91.0156C137.825 90.7551 139.518 90.7551 141.211 91.0156C144.847 91.3648 147.516 93.1227 149.219 96.2891C154.478 111.856 158.514 127.741 161.328 143.945C161.809 146.816 161.418 149.551 160.156 152.148C157.752 154.752 154.822 156.509 151.367 157.422C146.673 158.661 141.985 159.898 137.305 161.133Z" fill="#F33E3D"/>
<path fill-rule="evenodd" clip-rule="evenodd" d="M138.867 111.914C138.757 112.222 138.561 112.483 138.281 112.695C137.948 112.277 137.623 111.886 137.305 111.523C136.923 109.794 136.272 108.167 135.352 106.641C133.338 105.87 131.255 105.35 129.102 105.078C128.923 104.916 128.793 104.721 128.711 104.492C130.302 103.014 131.93 101.582 133.594 100.195C133.594 97.8516 133.594 95.5078 133.594 93.1641C135.514 94.2871 137.403 95.459 139.258 96.6797C141.341 95.7684 143.425 94.8566 145.508 93.9453C145.638 94.1406 145.768 94.3359 145.898 94.5312C145.134 96.4168 144.613 98.3699 144.336 100.391C145.688 102.33 147.12 104.218 148.633 106.055C146.254 106.287 143.91 106.678 141.602 107.227C140.686 108.8 139.774 110.363 138.867 111.914Z" fill="#FECA23"/>
<path fill-rule="evenodd" clip-rule="evenodd" d="M138.086 97.0703C139.867 97.2184 140.388 98.1301 139.648 99.8047C137.267 100.084 136.746 99.1723 138.086 97.0703Z" fill="#FFE9A1"/>
<path fill-rule="evenodd" clip-rule="evenodd" d="M24.8047 100.977C29.5371 101.078 31.0345 103.292 29.2969 107.617C26.9402 109.373 24.8568 109.113 23.0469 106.836C21.8999 104.32 22.4859 102.366 24.8047 100.977Z" fill="#4A474A"/>
<path fill-rule="evenodd" clip-rule="evenodd" d="M140.43 100.586C141.439 100.8 141.83 101.451 141.602 102.539C141.081 102.539 140.56 102.539 140.039 102.539C139.987 101.839 140.117 101.188 140.43 100.586Z" fill="#FFEAA3"/>
<path fill-rule="evenodd" clip-rule="evenodd" d="M137.695 102.148C139.116 101.85 139.702 102.371 139.453 103.711C138.02 104.3 137.434 103.78 137.695 102.148Z" fill="#FFE89C"/>
<path fill-rule="evenodd" clip-rule="evenodd" d="M158.789 111.133C159.678 111.233 160.134 111.754 160.156 112.695C162.636 122.409 165.175 132.109 167.773 141.797C167.575 142.711 167.12 142.907 166.406 142.383C163.615 132.261 160.946 122.104 158.398 111.914C158.54 111.647 158.67 111.387 158.789 111.133Z" fill="#524E51"/>
<path fill-rule="evenodd" clip-rule="evenodd" d="M137.305 111.523C137.623 111.886 137.948 112.277 138.281 112.695C138.561 112.483 138.757 112.222 138.867 111.914C147.73 114.144 152.288 119.873 152.539 129.102C152.165 129.279 151.839 129.539 151.562 129.883C151.315 131.076 151.38 132.248 151.758 133.398C150.563 137.788 147.958 141.109 143.945 143.359C136.267 145.66 128.454 147.418 120.508 148.633C111.425 150.708 102.311 152.661 93.1641 154.492C89.3062 149.901 85.2699 145.474 81.0547 141.211C81.0547 140.82 81.0547 140.43 81.0547 140.039C82.4527 134.382 83.8852 128.718 85.3516 123.047C85.1648 122.538 84.9043 122.082 84.5703 121.68C100.226 118.666 115.851 115.476 131.445 112.109C133.378 111.699 135.331 111.504 137.305 111.523Z" fill="#EB302F"/>
<path fill-rule="evenodd" clip-rule="evenodd" d="M61.5234 117.773C60.6949 117.842 59.9137 117.711 59.1797 117.383C59.0691 117.075 58.8738 116.814 58.5937 116.602C57.7172 114.027 58.5637 113.05 61.1328 113.672C62.4555 115.005 62.5859 116.372 61.5234 117.773Z" fill="#FAADAD"/>
<path fill-rule="evenodd" clip-rule="evenodd" d="M130.273 113.477C136.316 112.884 141.459 114.707 145.703 118.945C150.447 126.004 149.992 132.709 144.336 139.062C138.204 143.63 131.694 144.281 124.805 141.016C120.164 137.259 118.276 132.376 119.141 126.367C120.447 119.923 124.158 115.626 130.273 113.477Z" fill="#272122"/>
<path opacity="0.992" fill-rule="evenodd" clip-rule="evenodd" d="M38.4766 116.602C37.7376 119.286 37.5423 122.021 37.8906 124.805C39.2211 132.008 40.7184 139.17 42.3828 146.289C40.502 147.845 38.8091 149.603 37.3047 151.563C37.4059 152.055 37.6663 152.446 38.0859 152.734C40.1805 153.218 42.2637 153.674 44.3359 154.102C45.2633 159.293 46.6305 164.371 48.4375 169.336C51.8762 175.376 57.0195 177.394 63.8672 175.391C88.4363 172.502 112.655 167.88 136.523 161.523C137.365 161.473 138.146 161.669 138.867 162.109C143.237 165.27 147.664 168.329 152.148 171.289C117.533 181.363 82.2461 188.134 46.2891 191.602C41.7891 191.596 37.9478 190.033 34.7656 186.914C30.9223 181.38 28.4484 175.26 27.3438 168.555C23.6871 152.289 20.1064 136.013 16.6016 119.727C20.0881 118.823 23.6037 117.976 27.1484 117.188C30.9659 116.419 34.7419 116.224 38.4766 116.602Z" fill="#E8EAF4"/>
<path fill-rule="evenodd" clip-rule="evenodd" d="M39.6485 115.039C45.8016 115.83 52.0516 116.742 58.3985 117.773C58.7563 117.757 59.0168 117.627 59.1797 117.383C59.9137 117.711 60.6949 117.842 61.5235 117.773C61.4801 118.014 61.35 118.21 61.1328 118.359C60.3516 118.489 59.5703 118.62 58.7891 118.75C58.4621 119.145 58.3321 119.601 58.3985 120.117C60.1078 119.957 61.8008 119.697 63.4766 119.336C63.1637 119.938 63.0336 120.589 63.086 121.289C63.7371 121.289 64.3879 121.289 65.0391 121.289C65.0391 120.638 65.0391 119.987 65.0391 119.336C69.0098 120.508 72.916 121.875 76.7578 123.438C72.075 124.413 67.3875 125.389 62.6953 126.367C59.1348 124.307 55.6192 122.158 52.1485 119.922C50.5668 119.342 49.7856 119.863 49.8047 121.484C50.6106 127.391 51.066 133.315 51.1719 139.258C48.2836 141.694 45.3539 144.038 42.3828 146.289C40.7184 139.17 39.2211 132.008 37.8907 124.805C37.5423 122.021 37.7376 119.286 38.4766 116.602C38.8672 116.081 39.2578 115.56 39.6485 115.039Z" fill="#FB4A49"/>
<path fill-rule="evenodd" clip-rule="evenodd" d="M63.8672 116.211C65.2883 115.913 65.8743 116.434 65.625 117.773C63.834 118.521 63.2481 118 63.8672 116.211Z" fill="#FAA4A4"/>
<path fill-rule="evenodd" clip-rule="evenodd" d="M133.008 117.773C137.473 117.662 140.989 119.42 143.555 123.047C141.671 123.371 139.848 123.892 138.086 124.609C137.565 125.391 137.565 126.172 138.086 126.953C140.26 126.515 142.473 126.189 144.727 125.977C145.464 131.664 143.251 135.7 138.086 138.086C137.458 135.877 136.872 133.663 136.328 131.445C135.443 130.885 134.661 131.015 133.984 131.836C134.18 134.183 134.505 136.527 134.961 138.867C128.854 139.793 125.078 137.319 123.633 131.445C125.481 131.113 127.304 130.658 129.102 130.078C130.252 128.714 129.927 127.868 128.125 127.539C126.476 127.903 124.848 128.293 123.242 128.711C123.38 123.875 125.594 120.359 129.883 118.164C130.65 120.059 131.236 122.012 131.641 124.023C132.422 124.544 133.203 124.544 133.984 124.023C134.038 121.89 133.713 119.807 133.008 117.773Z" fill="#8A878E"/>
<path fill-rule="evenodd" clip-rule="evenodd" d="M63.4766 119.336C63.9973 119.336 64.5184 119.336 65.0391 119.336C65.0391 119.987 65.0391 120.638 65.0391 121.289C64.3879 121.289 63.7371 121.289 63.086 121.289C63.0336 120.589 63.1637 119.938 63.4766 119.336Z" fill="#FDB1B1"/>
<path fill-rule="evenodd" clip-rule="evenodd" d="M62.6953 126.367C64.3215 127.961 66.2746 128.677 68.5547 128.516C73.8152 126.014 79.1539 123.736 84.5703 121.68C84.9043 122.082 85.1648 122.538 85.3516 123.047C83.8852 128.718 82.4527 134.382 81.0547 140.039C77.5187 131.625 71.1383 128.045 61.9141 129.297C55.2434 131.948 51.7277 136.896 51.3672 144.141C51.9379 154.255 57.2762 159.073 67.3828 158.594C77.157 156.791 81.7141 150.996 81.0547 141.211C85.2699 145.474 89.3062 149.901 93.1641 154.492C93.2477 155.134 93.1172 155.72 92.7734 156.25C86.6516 156.747 80.5316 157.268 74.4141 157.812C71.2066 162.859 68.1469 168.002 65.2344 173.242C64.0004 174.352 63.0891 174.091 62.5 172.461C60.493 167.351 58.4098 162.273 56.25 157.227C55.8973 156.757 55.4418 156.432 54.8828 156.25C51.3695 155.49 47.8539 154.774 44.3359 154.102C42.2637 153.674 40.1805 153.218 38.0859 152.734C37.6663 152.446 37.4059 152.055 37.3047 151.562C38.8091 149.603 40.502 147.845 42.3828 146.289C45.3539 144.038 48.2836 141.694 51.1719 139.258C51.066 133.315 50.6105 127.391 49.8047 121.484C49.7855 119.863 50.5668 119.342 52.1484 119.922C55.6191 122.158 59.1348 124.307 62.6953 126.367Z" fill="#FDC921"/>
<path fill-rule="evenodd" clip-rule="evenodd" d="M170.117 122.461C171.006 122.561 171.462 123.082 171.484 124.023C172.282 127.38 172.868 130.766 173.242 134.18C172.852 134.18 172.461 134.18 172.07 134.18C171.564 130.539 170.782 126.958 169.727 123.438C169.821 123.085 169.952 122.76 170.117 122.461Z" fill="#504D50"/>
<path fill-rule="evenodd" clip-rule="evenodd" d="M23.6328 123.633C24.2671 123.578 24.7228 123.839 25 124.414C26.5621 130.467 28.3199 136.456 30.2734 142.383C29.7526 142.383 29.2318 142.383 28.7109 142.383C26.6518 136.229 24.9591 129.979 23.6328 123.633Z" fill="#726F74"/>
<path fill-rule="evenodd" clip-rule="evenodd" d="M27.1484 124.023C27.5391 124.023 27.9297 124.023 28.3203 124.023C28.835 126.545 29.5511 129.019 30.4688 131.445C31.6671 133.58 32.6436 135.793 33.3984 138.086C32.882 138.152 32.4263 138.022 32.0312 137.695C29.3541 133.505 27.7265 128.947 27.1484 124.023Z" fill="#726F75"/>
<path fill-rule="evenodd" clip-rule="evenodd" d="M107.227 145.117C102.839 139.547 101.407 133.297 102.93 126.367C105.966 125.182 109.091 124.986 112.305 125.781C115.355 130.504 116.982 135.646 117.187 141.211C116.862 141.536 116.536 141.862 116.211 142.187C113.263 143.347 110.268 144.323 107.227 145.117Z" fill="#252122"/>
<path fill-rule="evenodd" clip-rule="evenodd" d="M102.93 126.367C101.407 133.297 102.839 139.547 107.227 145.117C102.361 146.493 97.4133 147.534 92.3828 148.242C93.498 147.459 94.3441 146.417 94.9219 145.117C96.0762 140.989 96.2063 136.823 95.3125 132.617C94.6816 130.891 93.7051 129.459 92.3828 128.32C95.8625 127.458 99.3781 126.807 102.93 126.367Z" fill="#8C888E"/>
<path fill-rule="evenodd" clip-rule="evenodd" d="M33.7891 127.148C34.1781 127.115 34.5036 127.245 34.7656 127.539C35.5581 129.266 36.2743 131.023 36.9141 132.813C36.8697 133.313 36.6093 133.638 36.1328 133.789C34.8847 131.738 34.1035 129.524 33.7891 127.148Z" fill="#737176"/>
<path fill-rule="evenodd" clip-rule="evenodd" d="M92.3828 128.32C93.7051 129.459 94.6816 130.891 95.3125 132.617C96.2063 136.823 96.0762 140.989 94.9219 145.117C94.3441 146.417 93.498 147.459 92.3828 148.242C88.0023 148.486 85.5938 146.403 85.1563 141.992C85.091 140.43 85.0262 138.867 84.9609 137.305C84.3961 131.875 86.8703 128.88 92.3828 128.32Z" fill="#262122"/>
<path fill-rule="evenodd" clip-rule="evenodd" d="M81.0547 140.039C81.0547 140.43 81.0547 140.82 81.0547 141.211C81.7141 150.996 77.157 156.791 67.3828 158.594C57.2762 159.073 51.9379 154.255 51.3672 144.141C51.7277 136.896 55.2434 131.948 61.9141 129.297C71.1383 128.045 77.5187 131.625 81.0547 140.039Z" fill="#272222"/>
<path fill-rule="evenodd" clip-rule="evenodd" d="M152.539 129.102C154.488 129.03 155.725 129.942 156.25 131.836C157.411 136.073 158.062 140.37 158.203 144.727C157.888 146.335 157.042 147.572 155.664 148.437C153.311 149.144 151.879 148.298 151.367 145.898C152.58 143.628 153.361 141.219 153.711 138.672C153.63 136.67 152.98 134.912 151.758 133.398C151.38 132.248 151.315 131.076 151.562 129.883C151.839 129.539 152.165 129.279 152.539 129.102Z" fill="#FFF9F9"/>
<path fill-rule="evenodd" clip-rule="evenodd" d="M176.367 132.227C176.884 132.16 177.339 132.29 177.734 132.617C178.262 133.875 178.588 135.177 178.711 136.523C178.252 136.609 177.861 136.479 177.539 136.133C176.989 134.872 176.598 133.57 176.367 132.227Z" fill="#4D494D"/>
<path fill-rule="evenodd" clip-rule="evenodd" d="M65.4297 133.008C69.8422 133 73.2277 134.822 75.5859 138.477C73.5981 138.857 71.7098 139.508 69.9219 140.43C69.5996 141.289 69.7949 142.005 70.5078 142.578C72.1254 142.346 73.7527 142.021 75.3906 141.602C75.9516 141.625 76.4723 141.755 76.9531 141.992C77.6508 147.637 75.3719 151.413 70.1172 153.32C69.7039 151.233 69.2481 149.15 68.75 147.07C68.0758 146.65 67.3598 146.585 66.6016 146.875C66.3746 147.224 66.2442 147.614 66.2109 148.047C66.582 150.208 66.9727 152.357 67.3828 154.492C61.2957 155.359 57.3895 152.886 55.6641 147.07C57.7203 146.666 59.7383 146.146 61.7188 145.508C62.009 144.75 61.9438 144.034 61.5234 143.359C59.5207 143.304 57.5676 143.629 55.6641 144.336C55.6328 140.552 57.0652 137.362 59.9609 134.766C60.8008 134.214 61.7125 133.889 62.6953 133.789C62.9652 135.78 63.4211 137.734 64.0625 139.648C65.5262 140.371 66.3727 139.915 66.6016 138.281C66.0063 136.563 65.6156 134.805 65.4297 133.008Z" fill="#8A878E"/>
<path fill-rule="evenodd" clip-rule="evenodd" d="M120.508 148.633C126.107 152.8 131.706 156.966 137.305 161.133C136.917 161.066 136.657 161.196 136.523 161.523C112.655 167.88 88.4363 172.502 63.8672 175.391C57.0195 177.394 51.8762 175.376 48.4375 169.336C46.6305 164.371 45.2633 159.293 44.3359 154.102C47.8539 154.774 51.3695 155.49 54.8828 156.25C55.4418 156.432 55.8973 156.757 56.25 157.227C58.4098 162.273 60.493 167.351 62.5 172.461C63.0891 174.091 64.0004 174.352 65.2344 173.242C68.1469 168.002 71.2066 162.859 74.4141 157.812C80.5316 157.268 86.6516 156.747 92.7734 156.25C93.1172 155.72 93.2477 155.134 93.1641 154.492C102.311 152.661 111.425 150.708 120.508 148.633Z" fill="#FB4A49"/>
<path fill-rule="evenodd" clip-rule="evenodd" d="M172.852 149.805C176.948 149.409 178.706 151.232 178.125 155.273C177.097 157.317 175.469 158.033 173.242 157.422C170.332 155.006 170.202 152.467 172.852 149.805Z" fill="#494548"/>
<path fill-rule="evenodd" clip-rule="evenodd" d="M102.539 158.398C103.581 158.398 104.622 158.398 105.664 158.398C105.439 159.627 104.657 160.213 103.32 160.156C93.3047 162.237 83.2785 164.255 73.2422 166.211C73.2422 165.69 73.2422 165.169 73.2422 164.648C83.0996 162.756 92.8652 160.672 102.539 158.398Z" fill="#EE3131"/>
<path fill-rule="evenodd" clip-rule="evenodd" d="M93.9454 165.43C94.7266 165.43 95.5079 165.43 96.2891 165.43C96.3555 165.946 96.2254 166.402 95.8985 166.797C91.8083 167.315 87.902 168.421 84.1797 170.117C84.0731 169.355 84.3333 168.769 84.961 168.359C87.9122 167.11 90.9071 166.134 93.9454 165.43Z" fill="#EE3131"/>
<path fill-rule="evenodd" clip-rule="evenodd" d="M82.2265 165.43C82.6172 165.43 83.0078 165.43 83.3984 165.43C83.3984 165.95 83.3984 166.471 83.3984 166.992C79.1125 168.226 74.8156 169.398 70.5078 170.508C70.4414 169.991 70.5715 169.536 70.8984 169.141C74.7023 167.851 78.4785 166.614 82.2265 165.43Z" fill="#EE3131"/>
<path fill-rule="evenodd" clip-rule="evenodd" d="M39.6484 177.539C43.7453 177.143 45.5031 178.966 44.9219 183.008C43.8934 185.052 42.266 185.768 40.0391 185.156C37.9492 183.839 37.233 181.952 37.8906 179.492C38.5576 178.892 39.1434 178.241 39.6484 177.539Z" fill="#494548"/>
</svg>
