<svg width="12" height="12" viewBox="0 0 12 12" fill="none" xmlns="http://www.w3.org/2000/svg">
<path d="M11.2793 0.000128321C11.0921 0.00563305 10.916 0.0826993 10.7866 0.217565L6 5.00393L1.21341 0.217565C1.07991 0.0813232 0.898247 0.00425704 0.706948 0.00425704C0.420689 0.00425704 0.163331 0.179032 0.0559831 0.444635C-0.0527406 0.710239 0.0119433 1.01437 0.217005 1.21392L5.0036 6.00029L0.217005 10.7866C0.0325871 10.9628 -0.0417306 11.2257 0.0229532 11.4734C0.0876369 11.7197 0.280312 11.9124 0.52666 11.977C0.774385 12.0417 1.03725 11.9674 1.21341 11.783L6 6.99664L10.7866 11.783C10.9628 11.9674 11.2256 12.0417 11.4733 11.977C11.7197 11.9124 11.9124 11.7197 11.977 11.4734C12.0417 11.2257 11.9674 10.9628 11.783 10.7866L6.9964 6.00029L11.783 1.21392C11.9922 1.013 12.0582 0.703358 11.9454 0.435002C11.8339 0.166646 11.5697 -0.00537641 11.2793 0.000128321Z" fill="#F8F8F8"/>
</svg>
