<svg width="30" height="31" viewBox="0 0 30 31" fill="none" xmlns="http://www.w3.org/2000/svg">
<path fill-rule="evenodd" clip-rule="evenodd" d="M23.3839 7.58291C23.872 8.07107 23.872 8.86253 23.3839 9.35068L8.38388 24.3507C7.89573 24.8388 7.10427 24.8388 6.61612 24.3507C6.12796 23.8625 6.12796 23.0711 6.61612 22.5829L21.6161 7.58291C22.1043 7.09476 22.8957 7.09476 23.3839 7.58291Z" fill="#F8F8F8"/>
<path fill-rule="evenodd" clip-rule="evenodd" d="M6.61612 7.58291C7.10427 7.09476 7.89573 7.09476 8.38388 7.58291L23.3839 22.5829C23.872 23.0711 23.872 23.8625 23.3839 24.3507C22.8957 24.8388 22.1043 24.8388 21.6161 24.3507L6.61612 9.35068C6.12796 8.86253 6.12796 8.07107 6.61612 7.58291Z" fill="#F8F8F8"/>
</svg>
