<svg width="24" height="24" viewBox="0 0 24 24" fill="none" xmlns="http://www.w3.org/2000/svg">
<g opacity="0.73">
<path fill-rule="evenodd" clip-rule="evenodd" d="M4.951 2.481C5.72893 2.15798 6.56298 1.9917 7.40531 1.9917C8.24764 1.9917 9.08168 2.15798 9.85961 2.481C10.6375 2.80402 11.3441 3.27743 11.9386 3.87408L11.942 3.87742L12.0003 3.93653L12.0587 3.87743L12.062 3.87408C12.6566 3.27743 13.3631 2.80402 14.141 2.481C14.9189 2.15798 15.753 1.9917 16.5953 1.9917C17.4376 1.9917 18.2717 2.15798 19.0496 2.481C19.8273 2.80391 20.5336 3.2771 21.128 3.87346C23.6731 6.41916 23.7296 10.6283 20.7139 13.7005L20.7074 13.7071L12.7074 21.7071C12.5199 21.8946 12.2655 22 12.0003 22C11.7351 22 11.4807 21.8946 11.2932 21.7071L3.28664 13.7005C0.270943 10.6283 0.327563 6.41915 2.87259 3.87346C3.46705 3.2771 4.17334 2.80391 4.951 2.481ZM7.40531 3.9917C6.82621 3.9917 6.2528 4.10602 5.71797 4.32809C5.18314 4.55017 4.69742 4.87564 4.28864 5.28584L4.28741 5.28706C2.5938 6.98068 2.39006 9.92921 4.71082 12.2963L12.0003 19.5857L19.2898 12.2963C21.6106 9.92922 21.4068 6.98068 19.7132 5.28706L19.712 5.28584C19.3032 4.87564 18.8175 4.55017 18.2826 4.32809C17.7478 4.10602 17.1744 3.9917 16.5953 3.9917C16.0162 3.9917 15.4428 4.10602 14.908 4.32809C14.3738 4.54988 13.8887 4.87478 13.4803 5.28422C13.4797 5.28476 13.4792 5.2853 13.4786 5.28584L12.712 6.06249C12.5241 6.25282 12.2678 6.35996 12.0003 6.35996C11.7329 6.35996 11.4765 6.25282 11.2887 6.06249L10.522 5.28584C10.5214 5.2853 10.5209 5.28476 10.5204 5.28422C10.1119 4.87478 9.62677 4.54988 9.09264 4.32809C8.55781 4.10602 7.98441 3.9917 7.40531 3.9917Z" fill="#CDCDCD"/>
</g>
</svg>
