<svg width="22" height="22" viewBox="0 0 22 22" fill="none" xmlns="http://www.w3.org/2000/svg">
<path fill-rule="evenodd" clip-rule="evenodd" d="M1.83203 5.49967C1.83203 4.99341 2.24244 4.58301 2.7487 4.58301H19.2487C19.755 4.58301 20.1654 4.99341 20.1654 5.49967C20.1654 6.00594 19.755 6.41634 19.2487 6.41634H2.7487C2.24244 6.41634 1.83203 6.00594 1.83203 5.49967Z" fill="#B44646"/>
<path fill-rule="evenodd" clip-rule="evenodd" d="M9.16699 2.74935C8.92388 2.74935 8.69072 2.84593 8.51881 3.01783C8.3469 3.18974 8.25033 3.4229 8.25033 3.66602V4.58268H13.7503V3.66602C13.7503 3.4229 13.6537 3.18974 13.4818 3.01783C13.3099 2.84593 13.0768 2.74935 12.8337 2.74935H9.16699ZM15.5837 4.58268V3.66602C15.5837 2.93667 15.2939 2.2372 14.7782 1.72147C14.2625 1.20575 13.563 0.916016 12.8337 0.916016H9.16699C8.43765 0.916016 7.73817 1.20575 7.22245 1.72147C6.70672 2.2372 6.41699 2.93667 6.41699 3.66602V4.58268H4.58366C4.0774 4.58268 3.66699 4.99309 3.66699 5.49935V18.3327C3.66699 19.062 3.95672 19.7615 4.47245 20.2772C4.98817 20.7929 5.68765 21.0827 6.41699 21.0827H15.5837C16.313 21.0827 17.0125 20.7929 17.5282 20.2772C18.0439 19.7615 18.3337 19.062 18.3337 18.3327V5.49935C18.3337 4.99309 17.9233 4.58268 17.417 4.58268H15.5837ZM5.50033 6.41602V18.3327C5.50033 18.5758 5.5969 18.809 5.76881 18.9809C5.94072 19.1528 6.17388 19.2493 6.41699 19.2493H15.5837C15.8268 19.2493 16.0599 19.1528 16.2318 18.9809C16.4037 18.809 16.5003 18.5758 16.5003 18.3327V6.41602H5.50033Z" fill="#B44646"/>
<path fill-rule="evenodd" clip-rule="evenodd" d="M9.16667 9.16602C9.67293 9.16602 10.0833 9.57642 10.0833 10.0827V15.5827C10.0833 16.0889 9.67293 16.4993 9.16667 16.4993C8.66041 16.4993 8.25 16.0889 8.25 15.5827V10.0827C8.25 9.57642 8.66041 9.16602 9.16667 9.16602Z" fill="#B44646"/>
<path fill-rule="evenodd" clip-rule="evenodd" d="M12.8337 9.16602C13.3399 9.16602 13.7503 9.57642 13.7503 10.0827V15.5827C13.7503 16.0889 13.3399 16.4993 12.8337 16.4993C12.3274 16.4993 11.917 16.0889 11.917 15.5827V10.0827C11.917 9.57642 12.3274 9.16602 12.8337 9.16602Z" fill="#B44646"/>
</svg>
