<svg width="200" height="200" viewBox="0 0 200 200" fill="none" xmlns="http://www.w3.org/2000/svg">
<path opacity="0.99" fill-rule="evenodd" clip-rule="evenodd" d="M113.867 10.3516C122.32 14.9691 130.784 19.5915 139.258 24.2188C146.413 28.2474 152.337 33.651 157.031 40.4297C160.631 47.0176 162.78 54.0488 163.477 61.5234C162.298 61.3902 161.257 60.9348 160.352 60.1562C159.05 58.3332 157.747 56.5105 156.445 54.6875C153.486 53.3277 150.491 52.0254 147.461 50.7812C145.885 49.3359 144.452 47.7734 143.164 46.0938C142.025 45.4969 140.853 44.9762 139.648 44.5312C135.365 44.8785 131.329 44.0973 127.539 42.1875C125.346 41.1027 124.174 39.3449 124.023 36.9141C124.472 35.5047 124.667 34.0724 124.609 32.6172C119.833 31.5313 115.666 29.3178 112.109 25.9766C110.93 24.3989 109.954 22.7062 109.18 20.8984C107.274 22.1543 106.623 21.6986 107.227 19.5312C107.856 19.2499 108.442 19.315 108.984 19.7266C109.094 15.7285 110.722 12.6035 113.867 10.3516Z" fill="#DEE2E7"/>
<path fill-rule="evenodd" clip-rule="evenodd" d="M136.914 28.3203C138.016 28.2217 139.057 28.417 140.039 28.9062C142.674 32.0141 145.604 34.8135 148.828 37.3047C149.349 38.0859 149.87 38.8672 150.391 39.6484C151.077 41.5648 150.425 42.6066 148.438 42.7734C146.779 42.4 145.347 41.6187 144.141 40.4297C143.246 39.2265 142.4 37.9896 141.602 36.7187C139.502 35.7664 137.484 34.6596 135.547 33.3984C135.011 32.5408 134.88 31.6294 135.156 30.664C135.677 29.8203 136.263 29.039 136.914 28.3203Z" fill="#FEFEFE"/>
<path fill-rule="evenodd" clip-rule="evenodd" d="M113.867 10.3516C110.721 12.6035 109.094 15.7285 108.984 19.7266C108.442 19.315 107.856 19.2499 107.227 19.5312C106.623 21.6986 107.274 22.1543 109.18 20.8984C109.953 22.7062 110.93 24.3989 112.109 25.9766C115.666 29.3178 119.833 31.5313 124.609 32.6172C124.667 34.0724 124.472 35.5047 124.023 36.9141C124.174 39.3449 125.346 41.1027 127.539 42.1875C131.328 44.0973 135.365 44.8785 139.648 44.5312C140.853 44.9762 142.025 45.4969 143.164 46.0938C144.452 47.7734 145.885 49.3359 147.461 50.7812C150.491 52.0254 153.486 53.3277 156.445 54.6875C157.747 56.5105 159.05 58.3332 160.352 60.1562C161.257 60.9348 162.298 61.3902 163.477 61.5234C163.506 62.5805 163.636 63.6223 163.867 64.6484C162.825 63.8672 161.784 63.0859 160.742 62.3047C144.622 48.9973 126.262 44.4402 105.664 48.6328C106.739 47.2418 108.172 46.3953 109.961 46.0938C106.004 44.6105 103.205 41.941 101.562 38.0859C100.443 33.7448 101.811 30.5547 105.664 28.5156C100.606 24.6329 96.8949 19.7501 94.5312 13.8672C93.6418 9.00469 95.6597 6.40055 100.586 6.05469C105.311 6.59555 109.738 8.02785 113.867 10.3516Z" fill="#CCD1D8"/>
<path opacity="0.996" fill-rule="evenodd" clip-rule="evenodd" d="M39.2578 29.1016C48.9934 33.9692 58.4988 39.2426 67.7735 44.9219C73.6328 48.8914 78.3203 53.9043 81.836 59.9609C82.9652 62.8309 84.007 65.6953 84.961 68.5547C86.1285 73.9746 87.0399 79.4434 87.6953 84.9609C85.984 85.0109 84.291 84.8809 82.6172 84.5703C82.7063 82.5488 82.3809 80.5957 81.6406 78.7109C81.2457 78.384 80.7899 78.2539 80.2735 78.3203C80.9184 80.0937 81.1137 81.9168 80.8594 83.7891C78.5356 82.527 77.4289 80.5738 77.5391 77.9297C78.7113 78.4906 79.8184 78.3605 80.8594 77.5391C81.4469 76.1566 81.577 74.7246 81.25 73.2422C79.8727 70.5414 78.5703 67.807 77.3438 65.0391C76.5332 63.4457 75.4266 62.0785 74.0235 60.9375C71.0938 60.2215 69.9871 61.3281 70.7031 64.2578C71.968 66.1336 73.1399 68.0867 74.2188 70.1172C74.4723 72.6383 75.1883 74.982 76.3672 77.1484C70.6262 79.8563 64.6367 80.5723 58.3985 79.2969C54.8141 78.4484 52.7309 76.2348 52.1485 72.6562C52.0735 70.7117 52.9848 69.6699 54.8828 69.5312C55.2543 69.2508 55.3192 68.9254 55.0781 68.5547C51.5602 68.277 48.2399 67.3004 45.1172 65.625C42.4645 64.0164 40.7067 61.7379 39.8438 58.7891C39.4426 56.9078 39.8332 55.2148 41.0156 53.7109C41.5094 52.8879 42.2254 52.4973 43.1641 52.5391C47.3641 53.948 51.661 54.7941 56.0547 55.0781C56.5754 54.6875 56.5754 54.2969 56.0547 53.9062C52.6102 53.398 49.2246 52.6816 45.8985 51.7578C46.0617 51.4758 46.3219 51.2805 46.6797 51.1719C43.2438 49.5523 40.1836 47.4039 37.5 44.7266C34.5751 41.2996 33.7287 37.4584 34.961 33.2031C37.7405 34.0678 40.475 35.1745 43.1641 36.5234C43.5547 36.3932 43.8152 36.1328 43.9453 35.7422C41.468 34.1121 38.8637 32.6798 36.1328 31.4453C37.0314 30.475 38.073 29.6938 39.2578 29.1016Z" fill="#E7EAF4"/>
<path fill-rule="evenodd" clip-rule="evenodd" d="M55.6641 43.1641C60.4379 43.9285 64.7348 45.7516 68.5547 48.6328C68.4246 49.0234 68.1641 49.284 67.7734 49.4141C64.0344 47.0828 59.998 45.5203 55.6641 44.7266C55.6641 44.2059 55.6641 43.6848 55.6641 43.1641Z" fill="#CDD3DA"/>
<path fill-rule="evenodd" clip-rule="evenodd" d="M45.8985 51.7578C49.2247 52.6816 52.6102 53.398 56.0547 53.9062C56.5754 54.2969 56.5754 54.6875 56.0547 55.0781C51.661 54.7941 47.3641 53.948 43.1641 52.5391C38.8935 50.9918 34.7268 49.1035 30.6641 46.875C29.6567 46.2453 29.6567 45.6594 30.6641 45.1172C35.5104 47.866 40.5887 50.0797 45.8985 51.7578Z" fill="#CCD2D9"/>
<path opacity="0.999" fill-rule="evenodd" clip-rule="evenodd" d="M160.742 62.3047C157.142 64.1699 153.887 66.5137 150.977 69.3359C151.757 66.8488 150.846 65.2863 148.242 64.6484C147.68 64.734 147.16 64.9293 146.68 65.2344C145.977 66.55 145.522 67.9172 145.312 69.3359C146.141 70.7473 147.378 71.3984 149.023 71.2891C142.867 78.2938 136.486 85.1297 129.883 91.7969C128.841 92.5781 127.8 93.3594 126.758 94.1406C126.99 94.3219 127.25 94.3871 127.539 94.3359C126.888 94.7266 126.367 95.2473 125.977 95.8984C125.683 95.4793 125.293 95.4141 124.805 95.7031C113.922 103.684 102.008 105.702 89.0625 101.758C88.6602 101.627 88.4648 101.366 88.4766 100.977C91.0895 97.8094 91.9359 94.1637 91.0156 90.0391C90.1883 85.8566 89.2766 81.6898 88.2812 77.5391C87.5102 74.3746 86.4031 71.3797 84.9609 68.5547C84.007 65.6953 82.9652 62.8309 81.8359 59.9609C88.8313 54.3234 96.7738 50.5477 105.664 48.6328C126.262 44.4402 144.622 48.9973 160.742 62.3047Z" fill="#E052FC"/>
<path fill-rule="evenodd" clip-rule="evenodd" d="M100.977 52.5391C101.513 52.4778 102.034 52.543 102.539 52.7344C103.012 53.0832 103.012 53.4086 102.539 53.711C97.7188 55.2176 93.5524 57.7567 90.0391 61.3281C89.1926 61.5235 88.8672 61.1981 89.0625 60.3516C92.4508 56.8055 96.4223 54.2016 100.977 52.5391Z" fill="#C436E1"/>
<path fill-rule="evenodd" clip-rule="evenodd" d="M122.07 55.2734C133.884 54.6773 144.756 57.5418 154.688 63.8672C154.922 64.4394 154.727 64.8301 154.102 65.039C143.101 58.034 131.122 55.4949 118.164 57.4219C113.483 58.4402 108.926 59.8074 104.492 61.5234C104.407 61.0644 104.537 60.6738 104.883 60.3515C110.377 57.6937 116.106 56.0012 122.07 55.2734Z" fill="#C436E2"/>
<path fill-rule="evenodd" clip-rule="evenodd" d="M77.5391 77.9297C77.1485 77.6692 76.7578 77.409 76.3672 77.1485C75.1883 74.9821 74.4723 72.6383 74.2188 70.1172C73.1399 68.0867 71.968 66.1336 70.7031 64.2578C69.9871 61.3281 71.0938 60.2215 74.0235 60.9375C75.4266 62.0785 76.5332 63.4457 77.3438 65.0391C78.5703 67.8071 79.8727 70.5414 81.25 73.2422C81.577 74.7246 81.4469 76.1567 80.8594 77.5391C79.8184 78.3606 78.7113 78.4906 77.5391 77.9297Z" fill="#FEFEFE"/>
<path fill-rule="evenodd" clip-rule="evenodd" d="M160.742 62.3047C161.784 63.0859 162.825 63.8672 163.867 64.6484C170.741 70.7074 175.559 78.1293 178.32 86.9141C178.079 86.8707 177.884 86.7406 177.734 86.5234C173.248 90.9508 167.974 94.141 161.914 96.0938C153.07 98.6746 144.086 100.628 134.961 101.953C128.327 103.208 122.208 105.682 116.602 109.375C111.731 113.127 109.257 118.075 109.18 124.219C109.721 131.312 110.959 138.278 112.891 145.117C113.151 148.372 113.151 151.628 112.891 154.883C111.119 162.51 106.367 165.57 98.6328 164.062C91.0563 161.838 84.2855 158.192 78.3203 153.125C74.8434 149.455 71.4578 145.744 68.1641 141.992C62.8293 131.135 59.9648 119.612 59.5703 107.422C59.7434 106.709 59.8738 105.993 59.9609 105.273C69.1855 108.069 78.0398 107.223 86.5234 102.734C87.1238 102.068 87.775 101.482 88.4766 100.977C88.4648 101.366 88.6602 101.627 89.0625 101.758C102.008 105.702 113.922 103.684 124.805 95.7031C125.293 95.4141 125.683 95.4793 125.977 95.8984C125.818 99.9258 127.641 101.163 131.445 99.6094C133.112 95.5758 131.81 93.818 127.539 94.3359C127.25 94.3871 126.99 94.3219 126.758 94.1406C127.8 93.3594 128.841 92.5781 129.883 91.7969C136.486 85.1297 142.867 78.2937 149.023 71.2891C149.794 70.7789 150.445 70.1277 150.977 69.3359C153.887 66.5137 157.142 64.1699 160.742 62.3047Z" fill="#D042ED"/>
<path fill-rule="evenodd" clip-rule="evenodd" d="M122.852 63.4765C130.107 62.7316 136.878 64.164 143.164 67.7734C143.51 68.0957 143.64 68.4863 143.555 68.9453C139.889 67.4414 136.113 66.2043 132.227 65.2344C128.183 64.9719 124.146 65.0367 120.117 65.4297C120.032 64.9707 120.162 64.5801 120.508 64.2578C121.35 64.043 122.132 63.7824 122.852 63.4765Z" fill="#C436E2"/>
<path fill-rule="evenodd" clip-rule="evenodd" d="M39.2578 29.1016C38.073 29.6938 37.0314 30.475 36.1328 31.4453C38.8637 32.6798 41.468 34.1121 43.9453 35.7422C43.8152 36.1328 43.5547 36.3932 43.164 36.5234C40.475 35.1745 37.7405 34.0678 34.9609 33.2031C33.7287 37.4584 34.5751 41.2996 37.5 44.7266C40.1836 47.4039 43.2437 49.5523 46.6797 51.1719C46.3219 51.2805 46.0617 51.4758 45.8984 51.7578C40.5887 50.0797 35.5104 47.866 30.664 45.1172C29.6567 45.6594 29.6567 46.2453 30.664 46.875C34.7268 49.1035 38.8934 50.9918 43.164 52.5391C42.2254 52.4973 41.5094 52.8879 41.0156 53.7109C39.8332 55.2148 39.4426 56.9078 39.8437 58.7891C40.7066 61.7379 42.4644 64.0164 45.1172 65.625C48.2398 67.3004 51.5601 68.277 55.0781 68.5547C55.3191 68.9254 55.2543 69.2508 54.8828 69.5312C52.9848 69.6699 52.0734 70.7117 52.1484 72.6562C52.7308 76.2348 54.814 78.4484 58.3984 79.2969C64.6367 80.5723 70.6262 79.8563 76.3672 77.1484C76.7578 77.409 77.1484 77.6691 77.539 77.9297C77.4289 80.5738 78.5355 82.527 80.8594 83.7891C81.1137 81.9168 80.9183 80.0937 80.2734 78.3203C80.7898 78.2539 81.2457 78.384 81.6406 78.7109C82.3808 80.5957 82.7062 82.5488 82.6172 84.5703C84.291 84.8809 85.984 85.0109 87.6953 84.9609C88.9738 89.6289 88.6484 94.1863 86.7187 98.6328C84.866 101.118 82.3918 102.159 79.2969 101.758C72.9551 101.177 66.6402 100.396 60.3515 99.4141C56.1672 98.8246 52.0004 98.1086 47.8515 97.2656C44.5152 96.7375 41.716 95.2398 39.4531 92.7734C37.4237 89.5898 37.7492 86.7254 40.4297 84.1797C37.1631 83.3746 34.1683 82.0074 31.4453 80.0781C27.3748 76.5949 26.268 72.3629 28.125 67.3828C29.4826 65.3805 31.3706 64.1437 33.789 63.6719C28.708 61.7852 25.7131 58.2043 24.8047 52.9297C24.9055 49.7773 26.3378 47.4988 29.1015 46.0938C24.3294 42.202 20.7487 37.4494 18.3594 31.8359C16.9754 26.6396 18.9936 23.9052 24.414 23.6328C29.834 24.3095 34.7819 26.1324 39.2578 29.1016Z" fill="#DFE3E8"/>
<path fill-rule="evenodd" clip-rule="evenodd" d="M150.977 69.3359C150.445 70.1277 149.794 70.7789 149.023 71.2891C147.378 71.3984 146.141 70.7473 145.312 69.3359C145.522 67.9172 145.977 66.55 146.68 65.2344C147.16 64.9293 147.68 64.734 148.242 64.6484C150.846 65.2863 151.757 66.8488 150.977 69.3359Z" fill="#F4C2FE"/>
<path fill-rule="evenodd" clip-rule="evenodd" d="M152.539 70.8985C153.075 70.8371 153.597 70.9024 154.102 71.0938C154.473 71.3742 154.538 71.6996 154.297 72.0703C152.598 73.2649 152.013 72.8742 152.539 70.8985Z" fill="#EEBDF9"/>
<path fill-rule="evenodd" clip-rule="evenodd" d="M84.9609 68.5547C86.4031 71.3797 87.5101 74.3746 88.2812 77.5391C89.2765 81.6898 90.1883 85.8566 91.0156 90.0391C91.9359 94.1637 91.0894 97.8094 88.4765 100.977C87.775 101.482 87.1238 102.068 86.5234 102.734C78.0398 107.223 69.1855 108.069 59.9609 105.273C59.8519 103.283 59.9824 101.33 60.3515 99.4141C66.6402 100.396 72.9551 101.177 79.2969 101.758C82.3918 102.159 84.866 101.118 86.7187 98.6328C88.6484 94.1863 88.9738 89.6289 87.6953 84.9609C87.0398 79.4434 86.1285 73.9746 84.9609 68.5547Z" fill="#AE28CF"/>
<path fill-rule="evenodd" clip-rule="evenodd" d="M149.805 74.4141C151.226 74.116 151.812 74.6367 151.563 75.9766C150.129 76.566 149.543 76.0453 149.805 74.4141Z" fill="#EEBBF9"/>
<path fill-rule="evenodd" clip-rule="evenodd" d="M164.648 81.4453C166.542 81.1875 168.039 81.8387 169.141 83.3985C169.275 86.5184 167.778 87.8856 164.648 87.5C162.864 86.5075 162.278 85.0098 162.891 83.0078C163.436 82.3946 164.022 81.8735 164.648 81.4453Z" fill="#E6E6F3"/>
<path fill-rule="evenodd" clip-rule="evenodd" d="M65.0391 81.8359C66.0832 81.9078 66.3438 82.3637 65.8203 83.2031C57.7141 85.2273 49.5109 85.8133 41.2109 84.9609C41.2109 84.5703 41.2109 84.1797 41.2109 83.7891C49.309 84.2582 57.2516 83.6074 65.0391 81.8359Z" fill="#CCD2D9"/>
<path fill-rule="evenodd" clip-rule="evenodd" d="M90.8203 81.4453C91.4129 81.4496 91.8688 81.7098 92.1875 82.2266C94.9301 85.6789 95.8414 89.5852 94.9219 93.9453C94.8699 95.0836 94.4141 95.9949 93.5547 96.6797C93.4246 96.2891 93.2941 95.8984 93.1641 95.5078C94.6934 90.5875 93.7816 86.1602 90.4297 82.2266C90.5715 81.9598 90.7016 81.6992 90.8203 81.4453Z" fill="#C335E1"/>
<path fill-rule="evenodd" clip-rule="evenodd" d="M178.32 86.9141C179.1 88.4703 180.076 89.9027 181.25 91.2109C182.193 93.9836 181.477 96.2621 179.102 98.0469C177.005 99.6809 174.662 100.788 172.07 101.367C167.863 102.548 163.697 103.72 159.57 104.883C149.683 106.795 139.788 108.683 129.883 110.547C120.92 113.206 116.492 119.261 116.602 128.711C116.64 130.97 116.9 133.183 117.383 135.352C117.411 136.404 117.541 137.445 117.773 138.477C117.828 139.074 118.089 139.465 118.555 139.648C118.967 142.515 119.423 145.38 119.922 148.242C120.994 154.395 119.953 160.124 116.797 165.43C115.692 166.865 114.325 167.907 112.695 168.555C109.608 169.935 106.353 170.586 102.93 170.508C94.507 169.546 86.9551 166.486 80.2734 161.328C76.5625 158.138 73.1121 154.687 69.9219 150.977C68.848 148.083 68.2621 145.088 68.1641 141.992C71.4578 145.744 74.8434 149.455 78.3203 153.125C84.2855 158.192 91.0563 161.838 98.6328 164.062C106.367 165.57 111.119 162.51 112.891 154.883C113.151 151.628 113.151 148.372 112.891 145.117C110.959 138.278 109.721 131.312 109.18 124.219C109.257 118.075 111.731 113.127 116.602 109.375C122.208 105.682 128.327 103.208 134.961 101.953C144.086 100.628 153.07 98.6746 161.914 96.0937C167.974 94.141 173.248 90.9508 177.734 86.5234C177.884 86.7406 178.079 86.8707 178.32 86.9141Z" fill="#972BA9"/>
<path fill-rule="evenodd" clip-rule="evenodd" d="M147.461 87.6953C151.584 87.4496 152.886 89.2074 151.367 92.9688C147.76 94.7149 145.872 93.6082 145.703 89.6485C146.104 88.7942 146.689 88.143 147.461 87.6953Z" fill="#E5E4F2"/>
<path fill-rule="evenodd" clip-rule="evenodd" d="M179.102 90.4297C179.786 90.3977 180.177 90.7231 180.273 91.4063C179.882 92.3836 179.232 92.5789 178.32 91.9922C178.586 91.461 178.846 90.9403 179.102 90.4297Z" fill="#F0E0F2"/>
<path fill-rule="evenodd" clip-rule="evenodd" d="M125.977 95.8984C126.367 95.2472 126.888 94.7265 127.539 94.3359C131.81 93.8179 133.112 95.5758 131.445 99.6094C127.641 101.163 125.818 99.9258 125.977 95.8984Z" fill="#E6E5F3"/>
<path fill-rule="evenodd" clip-rule="evenodd" d="M171.68 96.6797C172.2 96.6797 172.722 96.6797 173.242 96.6797C173.218 97.4969 172.828 98.0828 172.07 98.4375C169.724 99.5668 167.315 100.543 164.844 101.367C163.929 101.169 163.734 100.713 164.258 100C166.964 99.2957 169.438 98.1891 171.68 96.6797Z" fill="#F7EFF8"/>
<path fill-rule="evenodd" clip-rule="evenodd" d="M172.07 101.367C171.836 105.096 171.575 108.807 171.289 112.5C171.468 112.662 171.598 112.857 171.68 113.086C171.419 114.66 171.159 116.223 170.898 117.773C167.39 117.211 163.875 116.689 160.352 116.211C160.602 112.282 160.341 108.506 159.57 104.883C163.697 103.72 167.863 102.548 172.07 101.367Z" fill="#8E14AB"/>
<path fill-rule="evenodd" clip-rule="evenodd" d="M155.273 101.758C155.794 101.758 156.315 101.758 156.836 101.758C156.836 102.279 156.836 102.8 156.836 103.32C154.788 103.879 152.705 104.269 150.586 104.492C150.52 103.976 150.65 103.52 150.977 103.125C152.465 102.719 153.897 102.263 155.273 101.758Z" fill="#F6ECF7"/>
<path fill-rule="evenodd" clip-rule="evenodd" d="M159.57 104.883C160.341 108.506 160.602 112.282 160.352 116.211C160.47 117.211 160.339 118.122 159.961 118.945C159.961 118.034 159.961 117.122 159.961 116.211C154.978 115.417 149.965 114.896 144.922 114.648C135.318 114.329 127.505 117.844 121.484 125.195C119.354 128.397 118.377 131.913 118.555 135.742C118.122 135.72 117.731 135.59 117.383 135.352C116.9 133.183 116.64 130.97 116.602 128.711C116.492 119.261 120.92 113.206 129.883 110.547C139.788 108.683 149.683 106.795 159.57 104.883Z" fill="#AD25CD"/>
<path fill-rule="evenodd" clip-rule="evenodd" d="M141.602 104.883C142.122 104.883 142.643 104.883 143.164 104.883C143.164 105.404 143.164 105.925 143.164 106.445C140.055 107.048 136.93 107.568 133.789 108.008C133.789 107.617 133.789 107.227 133.789 106.836C136.462 106.277 139.067 105.626 141.602 104.883Z" fill="#F7EFF8"/>
<path fill-rule="evenodd" clip-rule="evenodd" d="M124.805 108.398C125.325 108.398 125.846 108.398 126.367 108.398C126.434 108.915 126.304 109.371 125.977 109.766C123.154 110.525 120.68 111.892 118.555 113.867C118.164 113.737 117.904 113.477 117.773 113.086C119.752 110.929 122.095 109.366 124.805 108.398Z" fill="#F7F0F9"/>
<path fill-rule="evenodd" clip-rule="evenodd" d="M159.961 118.945C159.545 126.088 156.941 132.273 152.148 137.5C146.591 141.867 140.341 143.299 133.398 141.797C128.113 140.518 123.165 138.5 118.555 135.742C118.377 131.912 119.354 128.397 121.484 125.195C127.505 117.844 135.318 114.329 144.922 114.648C149.965 114.896 154.978 115.417 159.961 116.211C159.961 117.122 159.961 118.034 159.961 118.945Z" fill="#C133DF"/>
<path fill-rule="evenodd" clip-rule="evenodd" d="M160.352 116.211C163.875 116.689 167.39 117.211 170.898 117.773C170.546 124.708 169.309 131.479 167.188 138.086C165.237 142.831 162.047 146.346 157.617 148.633C154.141 149.302 150.625 149.563 147.07 149.414C141.864 148.731 136.786 147.494 131.836 145.703C127.354 143.787 122.927 141.769 118.555 139.648C118.089 139.465 117.828 139.074 117.773 138.477C117.541 137.445 117.411 136.404 117.383 135.352C117.731 135.59 118.121 135.72 118.555 135.742C123.165 138.5 128.113 140.518 133.398 141.797C140.341 143.299 146.591 141.867 152.148 137.5C156.941 132.273 159.545 126.088 159.961 118.945C160.339 118.122 160.47 117.211 160.352 116.211Z" fill="#9B19BA"/>
<path fill-rule="evenodd" clip-rule="evenodd" d="M113.086 119.336C113.67 119.303 114.061 119.563 114.258 120.117C113.051 122.993 112.53 125.988 112.695 129.102C112.305 129.102 111.914 129.102 111.523 129.102C111.157 125.675 111.678 122.42 113.086 119.336Z" fill="#F8F1F9"/>
<path fill-rule="evenodd" clip-rule="evenodd" d="M85.7422 129.102C89.6227 129.506 90.534 131.394 88.4766 134.766C86.5231 135.033 85.2859 134.186 84.7656 132.227C84.382 130.947 84.7074 129.906 85.7422 129.102Z" fill="#EFBEF9"/>
<path fill-rule="evenodd" clip-rule="evenodd" d="M91.2109 136.133C93.014 136.712 93.1441 137.493 91.6015 138.477C90.1824 137.914 90.0523 137.132 91.2109 136.133Z" fill="#EDB5F8"/>
<path fill-rule="evenodd" clip-rule="evenodd" d="M113.086 136.133C113.475 136.099 113.8 136.23 114.062 136.523C115.03 139.35 115.876 142.215 116.602 145.117C115.854 146.153 115.268 146.022 114.844 144.727C114.4 142.107 113.684 139.568 112.695 137.109C112.79 136.757 112.921 136.432 113.086 136.133Z" fill="#F5EAF6"/>
<path fill-rule="evenodd" clip-rule="evenodd" d="M87.6953 137.695C89.1992 137.774 89.5899 138.49 88.8672 139.844C87.3192 139.89 86.9285 139.173 87.6953 137.695Z" fill="#ECB3F8"/>
<path fill-rule="evenodd" clip-rule="evenodd" d="M89.2578 140.82C90.7617 140.899 91.1524 141.615 90.4297 142.969C88.8817 143.015 88.491 142.298 89.2578 140.82Z" fill="#EDB8F8"/>
<path fill-rule="evenodd" clip-rule="evenodd" d="M69.3359 146.68C71.0863 147.445 72.584 148.617 73.8281 150.195C74.4633 151.222 75.2445 152.133 76.1719 152.93C76.3606 153.3 76.4254 153.691 76.3672 154.102C74.6168 153.336 73.1191 152.164 71.875 150.586C71.2399 149.559 70.4586 148.648 69.5313 147.852C69.3426 147.481 69.2777 147.091 69.3359 146.68Z" fill="#F7EFF8"/>
<path fill-rule="evenodd" clip-rule="evenodd" d="M157.617 148.633C157.637 149.571 157.507 150.483 157.227 151.367C153.266 153.694 149.686 156.558 146.484 159.961C146.293 159.456 146.228 158.935 146.289 158.398C146.582 155.407 146.842 152.412 147.07 149.414C150.625 149.563 154.141 149.302 157.617 148.633Z" fill="#252122"/>
<path opacity="0.974" fill-rule="evenodd" clip-rule="evenodd" d="M157.227 151.367C156.973 162.023 154.173 171.918 148.828 181.055C143.411 188.614 136.054 192.781 126.758 193.555C114.529 192.393 106.846 185.882 103.711 174.023C106.513 177.281 109.638 180.211 113.086 182.812C119.84 186.916 126.741 187.177 133.789 183.594C136.852 181.643 138.935 178.974 140.039 175.586C143.287 170.267 145.371 164.537 146.289 158.398C146.228 158.935 146.293 159.456 146.484 159.961C149.686 156.558 153.266 153.694 157.227 151.367Z" fill="#464245"/>
<path fill-rule="evenodd" clip-rule="evenodd" d="M115.82 152.93C116.211 152.93 116.602 152.93 116.992 152.93C117.067 155.247 116.611 157.461 115.625 159.57C115.093 160.639 114.377 161.55 113.477 162.305C113.086 162.175 112.825 161.914 112.695 161.523C114.57 158.978 115.612 156.114 115.82 152.93Z" fill="#F6EDF7"/>
<path fill-rule="evenodd" clip-rule="evenodd" d="M81.8359 158.398C84.4969 159.935 87.2312 161.432 90.039 162.891C90.4976 163.996 90.107 164.386 88.8672 164.062C86.5355 162.896 84.3222 161.529 82.2265 159.961C81.8637 159.496 81.7336 158.976 81.8359 158.398Z" fill="#F6EDF8"/>
<path fill-rule="evenodd" clip-rule="evenodd" d="M149.023 163.086C151.038 162.629 152.21 163.411 152.539 165.43C151.625 167.886 150.388 168.017 148.828 165.82C148.013 164.827 148.078 163.915 149.023 163.086Z" fill="#BCBABB"/>
<path fill-rule="evenodd" clip-rule="evenodd" d="M97.4609 165.43C100.58 165.899 103.705 165.899 106.836 165.43C106.836 165.82 106.836 166.211 106.836 166.602C103.725 167.019 100.6 167.084 97.4609 166.797C96.9984 166.35 96.9984 165.894 97.4609 165.43Z" fill="#FBF8FC"/>
<path fill-rule="evenodd" clip-rule="evenodd" d="M112.695 168.555C113.65 175.427 117.296 180.179 123.633 182.812C128.263 183.701 132.429 182.659 136.133 179.688C137.525 178.361 138.827 176.994 140.039 175.586C138.935 178.974 136.852 181.643 133.789 183.594C126.741 187.177 119.84 186.916 113.086 182.812C109.638 180.211 106.513 177.281 103.711 174.023C103.259 172.94 102.998 171.768 102.93 170.508C106.353 170.586 109.608 169.935 112.695 168.555Z" fill="#252122"/>
<path fill-rule="evenodd" clip-rule="evenodd" d="M149.023 169.336C150.527 169.414 150.918 170.13 150.195 171.484C148.647 171.53 148.257 170.814 149.023 169.336Z" fill="#B4B2B3"/>
<path fill-rule="evenodd" clip-rule="evenodd" d="M147.07 173.633C148.574 173.711 148.965 174.427 148.242 175.781C146.694 175.827 146.304 175.111 147.07 173.633Z" fill="#B4B1B3"/>
</svg>
