<svg width="40" height="40" viewBox="0 0 40 40" fill="none" xmlns="http://www.w3.org/2000/svg">
<path fill-rule="evenodd" clip-rule="evenodd" d="M10 5.00008C9.07952 5.00008 8.33333 5.74627 8.33333 6.66675V33.3334C8.33333 34.2539 9.07952 35.0001 10 35.0001H30C30.9205 35.0001 31.6667 34.2539 31.6667 33.3334V6.66675C31.6667 5.74627 30.9205 5.00008 30 5.00008H10ZM5 6.66675C5 3.90532 7.23858 1.66675 10 1.66675H30C32.7614 1.66675 35 3.90532 35 6.66675V33.3334C35 36.0948 32.7614 38.3334 30 38.3334H10C7.23858 38.3334 5 36.0948 5 33.3334V6.66675Z" fill="#D032DD"/>
<path fill-rule="evenodd" clip-rule="evenodd" d="M19.9998 18.3333C17.2384 18.3333 14.9998 20.5719 14.9998 23.3333C14.9998 26.0948 17.2384 28.3333 19.9998 28.3333C22.7613 28.3333 24.9998 26.0948 24.9998 23.3333C24.9998 20.5719 22.7613 18.3333 19.9998 18.3333ZM11.6665 23.3333C11.6665 18.731 15.3975 15 19.9998 15C24.6022 15 28.3332 18.731 28.3332 23.3333C28.3332 27.9357 24.6022 31.6667 19.9998 31.6667C15.3975 31.6667 11.6665 27.9357 11.6665 23.3333Z" fill="#D032DD"/>
<path fill-rule="evenodd" clip-rule="evenodd" d="M18.3335 9.99992C18.3335 9.07944 19.0797 8.33325 20.0002 8.33325H20.0168C20.9373 8.33325 21.6835 9.07944 21.6835 9.99992C21.6835 10.9204 20.9373 11.6666 20.0168 11.6666H20.0002C19.0797 11.6666 18.3335 10.9204 18.3335 9.99992Z" fill="#D032DD"/>
</svg>
