<svg width="26" height="26" viewBox="0 0 26 26" fill="none" xmlns="http://www.w3.org/2000/svg">
<g id="li:music">
<path id="Vector (Stroke)" fill-rule="evenodd" clip-rule="evenodd" d="M23.0741 2.83036C23.3077 3.02828 23.4425 3.31897 23.4425 3.62517V17.1668C23.4425 17.7421 22.9761 18.2085 22.4008 18.2085C21.8255 18.2085 21.3591 17.7421 21.3591 17.1668V4.85482L10.9425 6.59093V19.2502C10.9425 19.8255 10.4761 20.2918 9.9008 20.2918C9.3255 20.2918 8.85913 19.8255 8.85913 19.2502V5.7085C8.85913 5.1993 9.22727 4.76472 9.72955 4.68101L22.2295 2.59768C22.5316 2.54734 22.8405 2.63244 23.0741 2.83036Z" fill="#38FC63"/>
<path id="Vector (Stroke)_2" fill-rule="evenodd" clip-rule="evenodd" d="M6.7758 17.1668C5.6252 17.1668 4.69246 18.0996 4.69246 19.2502C4.69246 20.4008 5.6252 21.3335 6.7758 21.3335C7.92639 21.3335 8.85913 20.4008 8.85913 19.2502C8.85913 18.0996 7.92639 17.1668 6.7758 17.1668ZM2.60913 19.2502C2.60913 16.949 4.47461 15.0835 6.7758 15.0835C9.07698 15.0835 10.9425 16.949 10.9425 19.2502C10.9425 21.5513 9.07698 23.4168 6.7758 23.4168C4.47461 23.4168 2.60913 21.5513 2.60913 19.2502Z" fill="#38FC63"/>
<path id="Vector (Stroke)_3" fill-rule="evenodd" clip-rule="evenodd" d="M19.2758 15.0833C18.1252 15.0833 17.1925 16.0161 17.1925 17.1667C17.1925 18.3173 18.1252 19.25 19.2758 19.25C20.4264 19.25 21.3591 18.3173 21.3591 17.1667C21.3591 16.0161 20.4264 15.0833 19.2758 15.0833ZM15.1091 17.1667C15.1091 14.8655 16.9746 13 19.2758 13C21.577 13 23.4425 14.8655 23.4425 17.1667C23.4425 19.4679 21.577 21.3333 19.2758 21.3333C16.9746 21.3333 15.1091 19.4679 15.1091 17.1667Z" fill="#38FC63"/>
</g>
</svg>
