<svg width="95" height="39" viewBox="0 0 95 39" fill="none" xmlns="http://www.w3.org/2000/svg">
<rect x="0.5" y="0.5" width="94" height="38" rx="19" fill="#2C0024"/>
<path d="M22.358 25.126C22.094 25.126 21.89 25.054 21.746 24.91C21.602 24.754 21.53 24.538 21.53 24.262V13.048C21.53 12.76 21.602 12.544 21.746 12.4C21.89 12.256 22.094 12.184 22.358 12.184C22.634 12.184 22.844 12.256 22.988 12.4C23.132 12.544 23.204 12.76 23.204 13.048V17.854H30.548V13.048C30.548 12.76 30.62 12.544 30.764 12.4C30.908 12.256 31.118 12.184 31.394 12.184C31.658 12.184 31.862 12.256 32.006 12.4C32.15 12.544 32.222 12.76 32.222 13.048V24.262C32.222 24.538 32.15 24.754 32.006 24.91C31.862 25.054 31.658 25.126 31.394 25.126C31.118 25.126 30.908 25.054 30.764 24.91C30.62 24.754 30.548 24.538 30.548 24.262V19.276H23.204V24.262C23.204 24.538 23.132 24.754 22.988 24.91C22.856 25.054 22.646 25.126 22.358 25.126ZM38.8761 25.162C38.0121 25.162 37.2621 24.976 36.6261 24.604C35.9901 24.232 35.4981 23.704 35.1501 23.02C34.8021 22.336 34.6281 21.532 34.6281 20.608C34.6281 19.912 34.7241 19.288 34.9161 18.736C35.1201 18.172 35.4081 17.692 35.7801 17.296C36.1521 16.9 36.5961 16.6 37.1121 16.396C37.6401 16.18 38.2281 16.072 38.8761 16.072C39.7401 16.072 40.4901 16.258 41.1261 16.63C41.7621 17.002 42.2541 17.53 42.6021 18.214C42.9501 18.886 43.1241 19.684 43.1241 20.608C43.1241 21.304 43.0221 21.934 42.8181 22.498C42.6261 23.062 42.3441 23.542 41.9721 23.938C41.6001 24.334 41.1501 24.64 40.6221 24.856C40.1061 25.06 39.5241 25.162 38.8761 25.162ZM38.8761 23.866C39.4041 23.866 39.8601 23.74 40.2441 23.488C40.6401 23.236 40.9401 22.87 41.1441 22.39C41.3601 21.91 41.4681 21.316 41.4681 20.608C41.4681 19.552 41.2341 18.748 40.7661 18.196C40.2981 17.644 39.6681 17.368 38.8761 17.368C38.3601 17.368 37.9041 17.494 37.5081 17.746C37.1241 17.986 36.8241 18.346 36.6081 18.826C36.3921 19.306 36.2841 19.9 36.2841 20.608C36.2841 21.664 36.5181 22.474 36.9861 23.038C37.4661 23.59 38.0961 23.866 38.8761 23.866ZM46.2793 25C46.0033 25 45.7933 24.928 45.6493 24.784C45.5053 24.64 45.4333 24.43 45.4333 24.154V17.08C45.4333 16.804 45.5053 16.594 45.6493 16.45C45.7933 16.306 46.0033 16.234 46.2793 16.234H49.8073C50.5153 16.234 51.0913 16.324 51.5353 16.504C51.9913 16.684 52.3273 16.942 52.5433 17.278C52.7593 17.614 52.8673 18.034 52.8673 18.538C52.8673 19.09 52.6753 19.558 52.2913 19.942C51.9073 20.326 51.4033 20.554 50.7793 20.626V20.392C51.5233 20.416 52.1053 20.632 52.5253 21.04C52.9453 21.436 53.1553 21.946 53.1553 22.57C53.1553 23.314 52.8793 23.908 52.3273 24.352C51.7753 24.784 50.9833 25 49.9513 25H46.2793ZM46.9813 23.92H49.8613C50.4373 23.92 50.8753 23.8 51.1753 23.56C51.4873 23.308 51.6433 22.954 51.6433 22.498C51.6433 22.03 51.4873 21.676 51.1753 21.436C50.8753 21.196 50.4373 21.076 49.8613 21.076H46.9813V23.92ZM46.9813 19.996H49.7173C50.2333 19.996 50.6293 19.876 50.9053 19.636C51.1933 19.396 51.3373 19.066 51.3373 18.646C51.3373 18.214 51.1933 17.884 50.9053 17.656C50.6293 17.428 50.2333 17.314 49.7173 17.314H46.9813V19.996ZM59.0909 25.162C58.2269 25.162 57.4769 24.976 56.8409 24.604C56.2049 24.232 55.7129 23.704 55.3649 23.02C55.0169 22.336 54.8429 21.532 54.8429 20.608C54.8429 19.912 54.9389 19.288 55.1309 18.736C55.3349 18.172 55.6229 17.692 55.9949 17.296C56.3669 16.9 56.8109 16.6 57.3269 16.396C57.8549 16.18 58.4429 16.072 59.0909 16.072C59.9549 16.072 60.7049 16.258 61.3409 16.63C61.9769 17.002 62.4689 17.53 62.8169 18.214C63.1649 18.886 63.3389 19.684 63.3389 20.608C63.3389 21.304 63.2369 21.934 63.0329 22.498C62.8409 23.062 62.5589 23.542 62.1869 23.938C61.8149 24.334 61.3649 24.64 60.8369 24.856C60.3209 25.06 59.7389 25.162 59.0909 25.162ZM59.0909 23.866C59.6189 23.866 60.0749 23.74 60.4589 23.488C60.8549 23.236 61.1549 22.87 61.3589 22.39C61.5749 21.91 61.6829 21.316 61.6829 20.608C61.6829 19.552 61.4489 18.748 60.9809 18.196C60.5129 17.644 59.8829 17.368 59.0909 17.368C58.5749 17.368 58.1189 17.494 57.7229 17.746C57.3389 17.986 57.0389 18.346 56.8229 18.826C56.6069 19.306 56.4989 19.9 56.4989 20.608C56.4989 21.664 56.7329 22.474 57.2009 23.038C57.6809 23.59 58.3109 23.866 59.0909 23.866ZM69.6981 25.162C68.7501 25.162 67.9341 24.982 67.2501 24.622C66.5781 24.25 66.0561 23.728 65.6841 23.056C65.3121 22.372 65.1261 21.568 65.1261 20.644C65.1261 19.732 65.3061 18.934 65.6661 18.25C66.0381 17.566 66.5421 17.032 67.1781 16.648C67.8261 16.264 68.5641 16.072 69.3921 16.072C69.9801 16.072 70.5081 16.174 70.9761 16.378C71.4561 16.57 71.8641 16.852 72.2001 17.224C72.5361 17.596 72.7881 18.052 72.9561 18.592C73.1361 19.12 73.2261 19.72 73.2261 20.392C73.2261 20.584 73.1661 20.734 73.0461 20.842C72.9381 20.938 72.7761 20.986 72.5601 20.986H66.4041V19.942H72.1461L71.8401 20.194C71.8401 19.57 71.7441 19.042 71.5521 18.61C71.3721 18.166 71.1021 17.83 70.7421 17.602C70.3941 17.374 69.9561 17.26 69.4281 17.26C68.8521 17.26 68.3601 17.398 67.9521 17.674C67.5441 17.938 67.2321 18.316 67.0161 18.808C66.8001 19.288 66.6921 19.846 66.6921 20.482V20.59C66.6921 21.67 66.9501 22.486 67.4661 23.038C67.9821 23.59 68.7261 23.866 69.6981 23.866C70.0821 23.866 70.4721 23.818 70.8681 23.722C71.2761 23.626 71.6661 23.452 72.0381 23.2C72.2181 23.092 72.3801 23.044 72.5241 23.056C72.6801 23.056 72.8061 23.104 72.9021 23.2C72.9981 23.284 73.0581 23.392 73.0821 23.524C73.1061 23.644 73.0881 23.776 73.0281 23.92C72.9681 24.064 72.8541 24.19 72.6861 24.298C72.2901 24.574 71.8161 24.79 71.2641 24.946C70.7241 25.09 70.2021 25.162 69.6981 25.162Z" fill="#D523B7"/>
<rect x="0.5" y="0.5" width="94" height="38" rx="19" stroke="#D523B7"/>
</svg>
