<svg width="26" height="26" viewBox="0 0 26 26" fill="none" xmlns="http://www.w3.org/2000/svg">
<g id="li:speaker">
<path id="Vector (Stroke)" fill-rule="evenodd" clip-rule="evenodd" d="M6.64355 3.65023C6.06826 3.65023 5.60189 4.1166 5.60189 4.69189V21.3586C5.60189 21.9339 6.06826 22.4002 6.64355 22.4002H19.1436C19.7189 22.4002 20.1852 21.9339 20.1852 21.3586V4.69189C20.1852 4.1166 19.7189 3.65023 19.1436 3.65023H6.64355ZM3.51855 4.69189C3.51855 2.966 4.91766 1.56689 6.64355 1.56689H19.1436C20.8694 1.56689 22.2686 2.966 22.2686 4.69189V21.3586C22.2686 23.0844 20.8694 24.4836 19.1436 24.4836H6.64355C4.91766 24.4836 3.51855 23.0844 3.51855 21.3586V4.69189Z" fill="#D032DD"/>
<path id="Vector (Stroke)_2" fill-rule="evenodd" clip-rule="evenodd" d="M12.8934 11.9842C11.1675 11.9842 9.76839 13.3833 9.76839 15.1092C9.76839 16.8351 11.1675 18.2342 12.8934 18.2342C14.6193 18.2342 16.0184 16.8351 16.0184 15.1092C16.0184 13.3833 14.6193 11.9842 12.8934 11.9842ZM7.68506 15.1092C7.68506 12.2327 10.0169 9.90088 12.8934 9.90088C15.7699 9.90088 18.1017 12.2327 18.1017 15.1092C18.1017 17.9857 15.7699 20.3175 12.8934 20.3175C10.0169 20.3175 7.68506 17.9857 7.68506 15.1092Z" fill="#D032DD"/>
<path id="Vector (Stroke)_3" fill-rule="evenodd" clip-rule="evenodd" d="M11.8516 6.77555C11.8516 6.20026 12.3179 5.73389 12.8932 5.73389H12.9036C13.4789 5.73389 13.9453 6.20026 13.9453 6.77555C13.9453 7.35085 13.4789 7.81722 12.9036 7.81722H12.8932C12.3179 7.81722 11.8516 7.35085 11.8516 6.77555Z" fill="#D032DD"/>
</g>
</svg>
