<svg width="40" height="40" viewBox="0 0 40 40" fill="none" xmlns="http://www.w3.org/2000/svg">
<path fill-rule="evenodd" clip-rule="evenodd" d="M28.333 26.6666C27.891 26.6666 27.4671 26.8422 27.1545 27.1547C26.8419 27.4673 26.6663 27.8912 26.6663 28.3333V34.9999C26.6663 35.9204 25.9201 36.6666 24.9997 36.6666C24.0792 36.6666 23.333 35.9204 23.333 34.9999V28.3333C23.333 27.0072 23.8598 25.7354 24.7975 24.7977C25.7352 23.86 27.0069 23.3333 28.333 23.3333H34.9997C35.9201 23.3333 36.6663 24.0794 36.6663 24.9999C36.6663 25.9204 35.9201 26.6666 34.9997 26.6666H28.333Z" fill="#4A39F2"/>
<path fill-rule="evenodd" clip-rule="evenodd" d="M11.6667 5C12.5871 5 13.3333 5.74619 13.3333 6.66667V9.68574C13.5887 10.2652 14.0047 10.7617 14.5345 11.1149C15.1357 11.5157 15.8509 11.7103 16.5723 11.6693L16.6667 13.3333V11.6667C17.9928 11.6667 19.2645 12.1935 20.2022 13.1311C21.1399 14.0688 21.6667 15.3406 21.6667 16.6667C21.6667 17.1087 21.8423 17.5326 22.1548 17.8452C22.4674 18.1577 22.8913 18.3333 23.3333 18.3333C23.7754 18.3333 24.1993 18.1577 24.5118 17.8452C24.8244 17.5326 25 17.1087 25 16.6667C25 15.3406 25.5268 14.0688 26.4645 13.1311C27.4021 12.1935 28.6739 11.6667 30 11.6667H35C35.9205 11.6667 36.6667 12.4129 36.6667 13.3333C36.6667 14.2538 35.9205 15 35 15H30C29.558 15 29.1341 15.1756 28.8215 15.4882C28.5089 15.8007 28.3333 16.2246 28.3333 16.6667C28.3333 17.9928 27.8065 19.2645 26.8689 20.2022C25.9312 21.1399 24.6594 21.6667 23.3333 21.6667C22.0073 21.6667 20.7355 21.1399 19.7978 20.2022C18.8601 19.2645 18.3333 17.9928 18.3333 16.6667C18.3333 16.2246 18.1577 15.8007 17.8452 15.4882C17.5411 15.1841 17.1316 15.0096 16.7025 15.0004C15.2796 15.0686 13.8717 14.6791 12.6855 13.8884C11.4831 13.0868 10.5738 11.9162 10.0944 10.5529C10.0319 10.3752 10 10.1883 10 10V6.66667C10 5.74619 10.7462 5 11.6667 5Z" fill="#4A39F2"/>
<path fill-rule="evenodd" clip-rule="evenodd" d="M3.33301 18.3334C3.33301 17.4129 4.0792 16.6667 4.99967 16.6667H8.33301C9.65909 16.6667 10.9309 17.1935 11.8685 18.1312C12.8062 19.0689 13.333 20.3407 13.333 21.6667V23.3334C13.333 23.7754 13.5086 24.1994 13.8212 24.5119C14.1337 24.8245 14.5576 25.0001 14.9997 25.0001C16.3258 25.0001 17.5975 25.5269 18.5352 26.4645C19.4729 27.4022 19.9997 28.674 19.9997 30.0001V36.6667C19.9997 37.5872 19.2535 38.3334 18.333 38.3334C17.4125 38.3334 16.6663 37.5872 16.6663 36.6667V30.0001C16.6663 29.5581 16.4907 29.1341 16.1782 28.8216C15.8656 28.509 15.4417 28.3334 14.9997 28.3334C13.6736 28.3334 12.4018 27.8066 11.4641 26.8689C10.5265 25.9313 9.99967 24.6595 9.99967 23.3334V21.6667C9.99967 21.2247 9.82408 20.8008 9.51152 20.4882C9.19896 20.1757 8.77503 20.0001 8.33301 20.0001H4.99967C4.0792 20.0001 3.33301 19.2539 3.33301 18.3334Z" fill="#4A39F2"/>
<path fill-rule="evenodd" clip-rule="evenodd" d="M20.0003 5.00008C11.7161 5.00008 5.00033 11.7158 5.00033 20.0001C5.00033 28.2844 11.7161 35.0001 20.0003 35.0001C28.2846 35.0001 35.0003 28.2844 35.0003 20.0001C35.0003 11.7158 28.2846 5.00008 20.0003 5.00008ZM1.66699 20.0001C1.66699 9.87486 9.8751 1.66675 20.0003 1.66675C30.1255 1.66675 38.3337 9.87486 38.3337 20.0001C38.3337 30.1253 30.1255 38.3334 20.0003 38.3334C9.8751 38.3334 1.66699 30.1253 1.66699 20.0001Z" fill="#4A39F2"/>
</svg>
