<svg width="40" height="40" viewBox="0 0 40 40" fill="none" xmlns="http://www.w3.org/2000/svg">
<path fill-rule="evenodd" clip-rule="evenodd" d="M36.0775 3.72823C36.4513 4.0449 36.6668 4.51001 36.6668 4.99993V26.6666C36.6668 27.5871 35.9206 28.3333 35.0002 28.3333C34.0797 28.3333 33.3335 27.5871 33.3335 26.6666V6.96737L16.6668 9.74514V29.9999C16.6668 30.9204 15.9206 31.6666 15.0002 31.6666C14.0797 31.6666 13.3335 30.9204 13.3335 29.9999V8.33326C13.3335 7.51853 13.9225 6.82322 14.7262 6.68927L34.7262 3.35594C35.2094 3.2754 35.7036 3.41156 36.0775 3.72823Z" fill="#00A542"/>
<path fill-rule="evenodd" clip-rule="evenodd" d="M10.0002 26.6666C8.15921 26.6666 6.66683 28.159 6.66683 29.9999C6.66683 31.8409 8.15921 33.3333 10.0002 33.3333C11.8411 33.3333 13.3335 31.8409 13.3335 29.9999C13.3335 28.159 11.8411 26.6666 10.0002 26.6666ZM3.3335 29.9999C3.3335 26.318 6.31826 23.3333 10.0002 23.3333C13.6821 23.3333 16.6668 26.318 16.6668 29.9999C16.6668 33.6818 13.6821 36.6666 10.0002 36.6666C6.31826 36.6666 3.3335 33.6818 3.3335 29.9999Z" fill="#00A542"/>
<path fill-rule="evenodd" clip-rule="evenodd" d="M30.0002 23.3333C28.1592 23.3333 26.6668 24.8257 26.6668 26.6667C26.6668 28.5076 28.1592 30 30.0002 30C31.8411 30 33.3335 28.5076 33.3335 26.6667C33.3335 24.8257 31.8411 23.3333 30.0002 23.3333ZM23.3335 26.6667C23.3335 22.9848 26.3183 20 30.0002 20C33.6821 20 36.6668 22.9848 36.6668 26.6667C36.6668 30.3486 33.6821 33.3333 30.0002 33.3333C26.3183 33.3333 23.3335 30.3486 23.3335 26.6667Z" fill="#00A542"/>
</svg>
