<svg width="26" height="26" viewBox="0 0 26 26" fill="none" xmlns="http://www.w3.org/2000/svg">
<g id="li:globe-2">
<path id="Vector (Stroke)" fill-rule="evenodd" clip-rule="evenodd" d="M17.9692 17.1922C17.693 17.1922 17.428 17.302 17.2327 17.4973C17.0373 17.6927 16.9276 17.9576 16.9276 18.2339V22.4006C16.9276 22.9758 16.4612 23.4422 15.8859 23.4422C15.3106 23.4422 14.8442 22.9758 14.8442 22.4006V18.2339C14.8442 17.4051 15.1735 16.6102 15.7595 16.0242C16.3456 15.4381 17.1404 15.1089 17.9692 15.1089H22.1359C22.7112 15.1089 23.1776 15.5753 23.1776 16.1506C23.1776 16.7258 22.7112 17.1922 22.1359 17.1922H17.9692Z" fill="#4A39F2"/>
<path id="Vector (Stroke)_2" fill-rule="evenodd" clip-rule="evenodd" d="M7.55241 3.65039C8.12771 3.65039 8.59408 4.11676 8.59408 4.69206V6.57898C8.75369 6.94112 9.0137 7.25142 9.34483 7.47218C9.72058 7.72268 10.1676 7.8443 10.6184 7.81873L10.6774 8.85872V7.81706C11.5062 7.81706 12.3011 8.1463 12.8871 8.73235C13.4732 9.3184 13.8024 10.1133 13.8024 10.9421C13.8024 11.2183 13.9122 11.4833 14.1075 11.6786C14.3029 11.874 14.5678 11.9837 14.8441 11.9837C15.1203 11.9837 15.3853 11.874 15.5806 11.6786C15.776 11.4833 15.8857 11.2183 15.8857 10.9421C15.8857 10.1133 16.215 9.3184 16.801 8.73235C17.3871 8.1463 18.1819 7.81706 19.0107 7.81706H22.1357C22.711 7.81706 23.1774 8.28343 23.1774 8.85872C23.1774 9.43402 22.711 9.90039 22.1357 9.90039H19.0107C18.7345 9.90039 18.4695 10.0101 18.2742 10.2055C18.0788 10.4008 17.9691 10.6658 17.9691 10.9421C17.9691 11.7709 17.6398 12.5657 17.0538 13.1518C16.4677 13.7378 15.6729 14.0671 14.8441 14.0671C14.0153 14.0671 13.2204 13.7378 12.6344 13.1518C12.0483 12.5657 11.7191 11.7709 11.7191 10.9421C11.7191 10.6658 11.6093 10.4008 11.414 10.2055C11.2239 10.0154 10.968 9.9064 10.6998 9.90063C9.81051 9.94324 8.93055 9.69984 8.1892 9.20561C7.4377 8.70461 6.86934 7.97299 6.56973 7.12094C6.53069 7.00992 6.51074 6.89308 6.51074 6.77539V4.69206C6.51074 4.11676 6.97711 3.65039 7.55241 3.65039Z" fill="#4A39F2"/>
<path id="Vector (Stroke)_3" fill-rule="evenodd" clip-rule="evenodd" d="M2.34424 11.984C2.34424 11.4088 2.81061 10.9424 3.38591 10.9424H5.46924C6.29804 10.9424 7.0929 11.2716 7.67895 11.8577C8.265 12.4437 8.59424 13.2386 8.59424 14.0674V15.109C8.59424 15.3853 8.70399 15.6503 8.89934 15.8456C9.09469 16.041 9.35964 16.1507 9.63591 16.1507C10.4647 16.1507 11.2596 16.48 11.8456 17.066C12.4317 17.6521 12.7609 18.4469 12.7609 19.2757V23.4424C12.7609 24.0177 12.2945 24.4841 11.7192 24.4841C11.1439 24.4841 10.6776 24.0177 10.6776 23.4424V19.2757C10.6776 18.9995 10.5678 18.7345 10.3725 18.5391C10.1771 18.3438 9.91217 18.234 9.63591 18.234C8.8071 18.234 8.01225 17.9048 7.4262 17.3188C6.84015 16.7327 6.51091 15.9379 6.51091 15.109V14.0674C6.51091 13.7911 6.40116 13.5262 6.20581 13.3308C6.01046 13.1355 5.74551 13.0257 5.46924 13.0257H3.38591C2.81061 13.0257 2.34424 12.5593 2.34424 11.984Z" fill="#4A39F2"/>
<path id="Vector (Stroke)_4" fill-rule="evenodd" clip-rule="evenodd" d="M12.7606 3.65023C7.58291 3.65023 3.38558 7.84756 3.38558 13.0252C3.38558 18.2029 7.58291 22.4002 12.7606 22.4002C17.9382 22.4002 22.1356 18.2029 22.1356 13.0252C22.1356 7.84756 17.9382 3.65023 12.7606 3.65023ZM1.30225 13.0252C1.30225 6.69696 6.43232 1.56689 12.7606 1.56689C19.0888 1.56689 24.2189 6.69696 24.2189 13.0252C24.2189 19.3535 19.0888 24.4836 12.7606 24.4836C6.43232 24.4836 1.30225 19.3535 1.30225 13.0252Z" fill="#4A39F2"/>
</g>
</svg>
