<svg width="22" height="22" viewBox="0 0 22 22" fill="none" xmlns="http://www.w3.org/2000/svg">
<path fill-rule="evenodd" clip-rule="evenodd" d="M8.19308 3.57742C8.3563 3.38156 8.59809 3.26831 8.85305 3.26831H13.1485C13.4035 3.26831 13.6453 3.38156 13.8085 3.57742L15.6986 5.84558H17.8735C18.557 5.84558 19.2126 6.11712 19.6959 6.60045C20.1792 7.08378 20.4508 7.73932 20.4508 8.42286V16.1547C20.4508 16.8382 20.1792 17.4937 19.6959 17.9771C19.2126 18.4604 18.557 18.7319 17.8735 18.7319H4.12805C3.44452 18.7319 2.78898 18.4604 2.30565 17.9771C1.82231 17.4937 1.55078 16.8382 1.55078 16.1547V8.42286C1.55078 7.73932 1.82231 7.08378 2.30565 6.60045C2.78898 6.11712 3.44452 5.84558 4.12805 5.84558H6.30295L8.19308 3.57742ZM9.25543 4.98649L7.3653 7.25465C7.20208 7.45052 6.96029 7.56377 6.70533 7.56377H4.12805C3.90021 7.56377 3.6817 7.65428 3.52058 7.81539C3.35947 7.9765 3.26896 8.19501 3.26896 8.42286V16.1547C3.26896 16.3825 3.35947 16.601 3.52058 16.7621C3.6817 16.9233 3.90021 17.0138 4.12805 17.0138H17.8735C18.1014 17.0138 18.3199 16.9233 18.481 16.7621C18.6421 16.601 18.7326 16.3825 18.7326 16.1547V8.42286C18.7326 8.19501 18.6421 7.9765 18.481 7.81539C18.3199 7.65428 18.1014 7.56377 17.8735 7.56377H15.2962C15.0413 7.56377 14.7995 7.45052 14.6363 7.25465L12.7461 4.98649H9.25543Z" fill="#F8F8F8"/>
<path fill-rule="evenodd" clip-rule="evenodd" d="M11.0008 10.141C10.0519 10.141 9.28263 10.9103 9.28263 11.8592C9.28263 12.8081 10.0519 13.5774 11.0008 13.5774C11.9497 13.5774 12.719 12.8081 12.719 11.8592C12.719 10.9103 11.9497 10.141 11.0008 10.141ZM7.56445 11.8592C7.56445 9.96136 9.10297 8.42285 11.0008 8.42285C12.8987 8.42285 14.4372 9.96136 14.4372 11.8592C14.4372 13.7571 12.8987 15.2956 11.0008 15.2956C9.10297 15.2956 7.56445 13.7571 7.56445 11.8592Z" fill="#F8F8F8"/>
</svg>
