<svg width="30" height="30" viewBox="0 0 30 30" fill="none" xmlns="http://www.w3.org/2000/svg">
<path fill-rule="evenodd" clip-rule="evenodd" d="M17.3484 8.59835C18.0516 7.89509 19.0054 7.5 20 7.5C20.9946 7.5 21.9484 7.89509 22.6516 8.59835C23.3549 9.30161 23.75 10.2554 23.75 11.25V14.375C23.75 15.0654 23.1904 15.625 22.5 15.625C21.8096 15.625 21.25 15.0654 21.25 14.375V11.25C21.25 10.9185 21.1183 10.6005 20.8839 10.3661C20.6495 10.1317 20.3315 10 20 10C19.6685 10 19.3505 10.1317 19.1161 10.3661C18.8817 10.6005 18.75 10.9185 18.75 11.25V13C18.75 13.6904 18.1904 14.25 17.5 14.25C16.8096 14.25 16.25 13.6904 16.25 13V11.25C16.25 10.2554 16.6451 9.30161 17.3484 8.59835Z" fill="#F8F8F8"/>
<path fill-rule="evenodd" clip-rule="evenodd" d="M12.3484 7.34835C13.0516 6.64509 14.0054 6.25 15 6.25C15.9946 6.25 16.9484 6.64509 17.6516 7.34835C18.3549 8.05161 18.75 9.00544 18.75 10V12.5C18.75 13.1904 18.1904 13.75 17.5 13.75C16.8096 13.75 16.25 13.1904 16.25 12.5V10C16.25 9.66848 16.1183 9.35054 15.8839 9.11612C15.6495 8.8817 15.3315 8.75 15 8.75C14.6685 8.75 14.3505 8.8817 14.1161 9.11612C13.8817 9.35054 13.75 9.66848 13.75 10V12.5C13.75 13.1904 13.1904 13.75 12.5 13.75C11.8096 13.75 11.25 13.1904 11.25 12.5V10C11.25 9.00544 11.6451 8.05161 12.3484 7.34835Z" fill="#F8F8F8"/>
<path fill-rule="evenodd" clip-rule="evenodd" d="M7.34835 8.59835C8.05161 7.89509 9.00544 7.5 10 7.5C10.9946 7.5 11.9484 7.89509 12.6516 8.59835C13.3549 9.30161 13.75 10.2554 13.75 11.25V12.375C13.75 13.0654 13.1904 13.625 12.5 13.625C11.8096 13.625 11.25 13.0654 11.25 12.375V11.25C11.25 10.9185 11.1183 10.6005 10.8839 10.3661C10.6495 10.1317 10.3315 10 10 10C9.66848 10 9.35054 10.1317 9.11612 10.3661C8.8817 10.6005 8.75 10.9185 8.75 11.25V17.5C8.75 18.1904 8.19036 18.75 7.5 18.75C6.80964 18.75 6.25 18.1904 6.25 17.5V11.25C6.25 10.2554 6.64509 9.30161 7.34835 8.59835Z" fill="#F8F8F8"/>
<path fill-rule="evenodd" clip-rule="evenodd" d="M2.34835 14.8484C3.05161 14.1451 4.00544 13.75 5 13.75C5.99456 13.75 6.94839 14.1451 7.65165 14.8484C8.35491 15.5516 8.75 16.5054 8.75 17.5C8.75 18.1904 8.19036 18.75 7.5 18.75C6.80964 18.75 6.25 18.1904 6.25 17.5C6.25 17.1685 6.1183 16.8505 5.88388 16.6161C5.64946 16.3817 5.33152 16.25 5 16.25C4.66848 16.25 4.35054 16.3817 4.11612 16.6161C3.8817 16.8505 3.75 17.1685 3.75 17.5H1.25C1.25 16.5054 1.64509 15.5516 2.34835 14.8484Z" fill="#F8F8F8"/>
<path fill-rule="evenodd" clip-rule="evenodd" d="M25 12.5C24.6685 12.5 24.3505 12.6317 24.1161 12.8661C23.8817 13.1005 23.75 13.4185 23.75 13.75C23.75 14.4404 23.1904 15 22.5 15C21.8096 15 21.25 14.4404 21.25 13.75C21.25 12.7554 21.6451 11.8016 22.3484 11.0984C23.0516 10.3951 24.0054 10 25 10C25.9946 10 26.9484 10.3951 27.6517 11.0984C28.3549 11.8016 28.75 12.7554 28.75 13.75V17.5C28.75 20.4837 27.5647 23.3452 25.455 25.455C23.3452 27.5647 20.4837 28.75 17.5 28.75H12.5C9.51631 28.75 6.65483 27.5647 4.54505 25.455C2.43526 23.3452 1.25 20.4837 1.25 17.5C1.25 16.5054 1.64509 15.5516 2.34835 14.8484C3.05161 14.1451 4.00544 13.75 5 13.75C5.99456 13.75 6.94839 14.1451 7.65165 14.8484C8.35491 15.5516 8.75 16.5054 8.75 17.5C8.75 18.1904 8.19036 18.75 7.5 18.75C6.80964 18.75 6.25 18.1904 6.25 17.5C6.25 17.1685 6.1183 16.8505 5.88388 16.6161C5.64946 16.3817 5.33152 16.25 5 16.25C4.66848 16.25 4.35054 16.3817 4.11612 16.6161C3.8817 16.8505 3.75 17.1685 3.75 17.5C3.75 19.8206 4.67187 22.0462 6.31282 23.6872C7.95376 25.3281 10.1794 26.25 12.5 26.25H17.5C19.8206 26.25 22.0462 25.3281 23.6872 23.6872C25.3281 22.0462 26.25 19.8206 26.25 17.5V13.75C26.25 13.4185 26.1183 13.1005 25.8839 12.8661C25.6495 12.6317 25.3315 12.5 25 12.5Z" fill="#F8F8F8"/>
</svg>
