<svg width="30" height="30" viewBox="0 0 30 30" fill="none" xmlns="http://www.w3.org/2000/svg">
<path fill-rule="evenodd" clip-rule="evenodd" d="M20.2589 13.4911C20.747 13.9793 20.747 14.7707 20.2589 15.2589L15.8839 19.6339C15.3957 20.122 14.6043 20.122 14.1161 19.6339C13.628 19.1457 13.628 18.3543 14.1161 17.8661L18.4911 13.4911C18.9793 13.003 19.7707 13.003 20.2589 13.4911Z" fill="#F8F8F8"/>
<path fill-rule="evenodd" clip-rule="evenodd" d="M2.5 18.25C2.5 11.5046 8.11596 6.25 15 6.25C21.884 6.25 27.5 11.5046 27.5 18.25C27.5 19.9469 27.0787 21.6064 26.5356 22.9642C26.2792 23.6052 25.5517 23.917 24.9108 23.6606C24.2698 23.4042 23.958 22.6767 24.2144 22.0358C24.6713 20.8936 25 19.5531 25 18.25C25 12.9954 20.616 8.75 15 8.75C9.38404 8.75 5 12.9954 5 18.25C5 19.5531 5.32872 20.8936 5.7856 22.0358C6.04199 22.6767 5.73022 23.4042 5.08924 23.6606C4.44826 23.917 3.7208 23.6052 3.4644 22.9642C2.92128 21.6064 2.5 19.9469 2.5 18.25Z" fill="#F8F8F8"/>
</svg>
