<svg width="30" height="30" viewBox="0 0 30 30" fill="none" xmlns="http://www.w3.org/2000/svg">
<path fill-rule="evenodd" clip-rule="evenodd" d="M17.3484 4.84835C18.0516 4.14509 19.0054 3.75 20 3.75C20.9946 3.75 21.9484 4.14509 22.6516 4.84835C23.3549 5.55161 23.75 6.50544 23.75 7.5V13.75C23.75 14.4404 23.1904 15 22.5 15C21.8096 15 21.25 14.4404 21.25 13.75V7.5C21.25 7.16848 21.1183 6.85054 20.8839 6.61612C20.6495 6.3817 20.3315 6.25 20 6.25C19.6685 6.25 19.3505 6.3817 19.1161 6.61612C18.8817 6.85054 18.75 7.16848 18.75 7.5H16.25C16.25 6.50544 16.6451 5.55161 17.3484 4.84835Z" fill="#F8F8F8"/>
<path fill-rule="evenodd" clip-rule="evenodd" d="M12.3484 2.34835C13.0516 1.64509 14.0054 1.25 15 1.25C15.9946 1.25 16.9484 1.64509 17.6516 2.34835C18.3549 3.05161 18.75 4.00544 18.75 5V12.5C18.75 13.1904 18.1904 13.75 17.5 13.75C16.8096 13.75 16.25 13.1904 16.25 12.5V5C16.25 4.66848 16.1183 4.35054 15.8839 4.11612C15.6495 3.8817 15.3315 3.75 15 3.75C14.6685 3.75 14.3505 3.8817 14.1161 4.11612C13.8817 4.35054 13.75 4.66848 13.75 5V7.5C13.75 8.19036 13.1904 8.75 12.5 8.75C11.8096 8.75 11.25 8.19036 11.25 7.5V5C11.25 4.00544 11.6451 3.05161 12.3484 2.34835Z" fill="#F8F8F8"/>
<path fill-rule="evenodd" clip-rule="evenodd" d="M7.34835 4.84835C8.05161 4.14509 9.00544 3.75 10 3.75C10.9946 3.75 11.9484 4.14509 12.6516 4.84835C13.3549 5.55161 13.75 6.50544 13.75 7.5V13.125C13.75 13.8154 13.1904 14.375 12.5 14.375C11.8096 14.375 11.25 13.8154 11.25 13.125V7.5C11.25 7.16848 11.1183 6.85054 10.8839 6.61612C10.6495 6.3817 10.3315 6.25 10 6.25C9.66848 6.25 9.35054 6.3817 9.11612 6.61612C8.8817 6.85054 8.75 7.16848 8.75 7.5V17.5C8.75 18.1904 8.19036 18.75 7.5 18.75C6.80964 18.75 6.25 18.1904 6.25 17.5V7.5C6.25 6.50544 6.64509 5.55161 7.34835 4.84835Z" fill="#F8F8F8"/>
<path fill-rule="evenodd" clip-rule="evenodd" d="M25.0001 8.75C24.6686 8.75 24.3507 8.8817 24.1162 9.11612C23.8818 9.35054 23.7501 9.66848 23.7501 10C23.7501 10.6904 23.1905 11.25 22.5001 11.25C21.8098 11.25 21.2501 10.6904 21.2501 10C21.2501 9.00544 21.6452 8.05161 22.3485 7.34835C23.0517 6.64509 24.0056 6.25 25.0001 6.25C25.9947 6.25 26.9485 6.64509 27.6518 7.34835C28.355 8.05161 28.7501 9.00544 28.7501 10V17.5C28.7501 20.4837 27.5649 23.3452 25.4551 25.455C23.3453 27.5647 20.4838 28.75 17.5001 28.75H15.0001C11.1641 28.75 8.72415 27.5402 6.63173 25.4619L6.62875 25.4589L2.12875 20.9589C2.11373 20.9439 2.09909 20.9285 2.08486 20.9127C1.43974 20.1982 1.09409 19.263 1.11947 18.3007C1.14485 17.3384 1.53932 16.4227 2.22121 15.7433C2.9031 15.0638 3.82018 14.6725 4.78256 14.6506C5.74494 14.6286 6.67892 14.9776 7.39111 15.6252C7.40573 15.6385 7.42004 15.6521 7.43401 15.6661L9.63401 17.8661C10.1222 18.3543 10.1222 19.1457 9.63401 19.6339C9.14586 20.122 8.3544 20.122 7.86625 19.6339L5.69081 17.4584C5.45584 17.2531 5.15223 17.1428 4.83963 17.1499C4.51883 17.1572 4.21314 17.2877 3.98585 17.5141C3.75855 17.7406 3.62706 18.0459 3.6186 18.3666C3.61037 18.6786 3.71912 18.982 3.92291 19.2175L8.39353 23.6881C8.39402 23.6886 8.39452 23.6891 8.39501 23.6896C10.0272 25.3103 11.8371 26.25 15.0001 26.25H17.5001C19.8208 26.25 22.0464 25.3281 23.6873 23.6872C25.3283 22.0462 26.2501 19.8206 26.2501 17.5V10C26.2501 9.66848 26.1184 9.35054 25.884 9.11612C25.6496 8.8817 25.3316 8.75 25.0001 8.75Z" fill="#F8F8F8"/>
</svg>
