<svg width="30" height="30" viewBox="0 0 30 30" fill="none" xmlns="http://www.w3.org/2000/svg">
<path fill-rule="evenodd" clip-rule="evenodd" d="M17.3484 9.84835C18.0516 9.14509 19.0054 8.75 20 8.75C20.9946 8.75 21.9484 9.14509 22.6516 9.84835C23.3549 10.5516 23.75 11.5054 23.75 12.5V15.625C23.75 16.3154 23.1904 16.875 22.5 16.875C21.8096 16.875 21.25 16.3154 21.25 15.625V12.5C21.25 12.1685 21.1183 11.8505 20.8839 11.6161C20.6495 11.3817 20.3315 11.25 20 11.25C19.6685 11.25 19.3505 11.3817 19.1161 11.6161C18.8817 11.8505 18.75 12.1685 18.75 12.5V14.25C18.75 14.9404 18.1904 15.5 17.5 15.5C16.8096 15.5 16.25 14.9404 16.25 14.25V12.5C16.25 11.5054 16.6451 10.5516 17.3484 9.84835Z" fill="#F8F8F8"/>
<path fill-rule="evenodd" clip-rule="evenodd" d="M12.3484 8.59835C13.0516 7.89509 14.0054 7.5 15 7.5C15.9946 7.5 16.9484 7.89509 17.6516 8.59835C18.3549 9.30161 18.75 10.2554 18.75 11.25V13.75C18.75 14.4404 18.1904 15 17.5 15C16.8096 15 16.25 14.4404 16.25 13.75V11.25C16.25 10.9185 16.1183 10.6005 15.8839 10.3661C15.6495 10.1317 15.3315 10 15 10C14.6685 10 14.3505 10.1317 14.1161 10.3661C13.8817 10.6005 13.75 10.9185 13.75 11.25V13.75C13.75 14.4404 13.1904 15 12.5 15C11.8096 15 11.25 14.4404 11.25 13.75V11.25C11.25 10.2554 11.6451 9.30161 12.3484 8.59835Z" fill="#F8F8F8"/>
<path fill-rule="evenodd" clip-rule="evenodd" d="M7.34835 3.59835C8.05161 2.89509 9.00544 2.5 10 2.5C10.9946 2.5 11.9484 2.89509 12.6516 3.59835C13.3549 4.30161 13.75 5.25544 13.75 6.25V13.125C13.75 13.8154 13.1904 14.375 12.5 14.375C11.8096 14.375 11.25 13.8154 11.25 13.125V6.25C11.25 5.91848 11.1183 5.60054 10.8839 5.36612C10.6495 5.1317 10.3315 5 10 5C9.66848 5 9.35054 5.1317 9.11612 5.36612C8.8817 5.60054 8.75 5.91848 8.75 6.25V17.5C8.75 18.1904 8.19036 18.75 7.5 18.75C6.80964 18.75 6.25 18.1904 6.25 17.5V6.25C6.25 5.25544 6.64509 4.30161 7.34835 3.59835Z" fill="#F8F8F8"/>
<path fill-rule="evenodd" clip-rule="evenodd" d="M22.3485 6.09835C23.0517 5.39509 24.0056 5 25.0001 5C25.9947 5 26.9485 5.39509 27.6518 6.09835C28.355 6.80161 28.7501 7.75544 28.7501 8.75V17.5C28.7501 20.4837 27.5649 23.3452 25.4551 25.455C23.3453 27.5647 20.4838 28.75 17.5001 28.75H15.0001C11.1641 28.75 8.72415 27.5402 6.63173 25.4619L6.62875 25.4589L2.12875 20.9589C2.11373 20.9439 2.09909 20.9285 2.08486 20.9127C1.43974 20.1982 1.09409 19.263 1.11947 18.3007C1.14485 17.3384 1.53932 16.4227 2.22121 15.7433C2.9031 15.0638 3.82018 14.6725 4.78256 14.6506C5.74494 14.6286 6.67892 14.9776 7.39111 15.6252C7.40573 15.6385 7.42004 15.6521 7.43401 15.6661L9.63401 17.8661C10.1222 18.3543 10.1222 19.1457 9.63401 19.6339C9.14586 20.122 8.3544 20.122 7.86625 19.6339L5.69081 17.4584C5.45584 17.2531 5.15223 17.1428 4.83963 17.1499C4.51883 17.1572 4.21314 17.2877 3.98585 17.5141C3.75855 17.7406 3.62706 18.0459 3.6186 18.3666C3.61037 18.6786 3.71912 18.982 3.92291 19.2175L8.39353 23.6881C8.39402 23.6886 8.39452 23.6891 8.39501 23.6896C10.0272 25.3103 11.8371 26.25 15.0001 26.25H17.5001C19.8208 26.25 22.0464 25.3281 23.6873 23.6872C25.3283 22.0462 26.2501 19.8206 26.2501 17.5V8.75C26.2501 8.41848 26.1184 8.10054 25.884 7.86612C25.6496 7.6317 25.3316 7.5 25.0001 7.5C24.6686 7.5 24.3507 7.6317 24.1162 7.86612C23.8818 8.10054 23.7501 8.41848 23.7501 8.75V15C23.7501 15.6904 23.1905 16.25 22.5001 16.25C21.8098 16.25 21.2501 15.6904 21.2501 15V8.75C21.2501 7.75544 21.6452 6.80161 22.3485 6.09835Z" fill="#F8F8F8"/>
</svg>
