<svg width="15" height="16" viewBox="0 0 15 16" fill="none" xmlns="http://www.w3.org/2000/svg">
<g clip-path="url(#clip0_848_1131)">
<path fill-rule="evenodd" clip-rule="evenodd" d="M5.73223 1.23223C6.20107 0.763392 6.83696 0.5 7.5 0.5C8.16304 0.5 8.79893 0.763392 9.26777 1.23223C9.73661 1.70107 10 2.33696 10 3V8C10 8.66304 9.73661 9.29893 9.26777 9.76777C8.79893 10.2366 8.16304 10.5 7.5 10.5C6.83696 10.5 6.20107 10.2366 5.73223 9.76777C5.26339 9.29893 5 8.66304 5 8V3C5 2.33696 5.26339 1.70107 5.73223 1.23223ZM7.5 1.75C7.16848 1.75 6.85054 1.8817 6.61612 2.11612C6.3817 2.35054 6.25 2.66848 6.25 3V8C6.25 8.33152 6.3817 8.64946 6.61612 8.88388C6.85054 9.1183 7.16848 9.25 7.5 9.25C7.83152 9.25 8.14946 9.1183 8.38388 8.88388C8.6183 8.64946 8.75 8.33152 8.75 8V3C8.75 2.66848 8.6183 2.35054 8.38388 2.11612C8.14946 1.8817 7.83152 1.75 7.5 1.75Z" fill="#F8F8F8"/>
<path fill-rule="evenodd" clip-rule="evenodd" d="M3.125 6.125C3.47018 6.125 3.75 6.40482 3.75 6.75V8C3.75 8.99456 4.14509 9.94839 4.84835 10.6517C5.55161 11.3549 6.50544 11.75 7.5 11.75C8.49456 11.75 9.44839 11.3549 10.1517 10.6517C10.8549 9.94839 11.25 8.99456 11.25 8V6.75C11.25 6.40482 11.5298 6.125 11.875 6.125C12.2202 6.125 12.5 6.40482 12.5 6.75V8C12.5 9.32608 11.9732 10.5979 11.0355 11.5355C10.0979 12.4732 8.82608 13 7.5 13C6.17392 13 4.90215 12.4732 3.96447 11.5355C3.02678 10.5979 2.5 9.32608 2.5 8V6.75C2.5 6.40482 2.77982 6.125 3.125 6.125Z" fill="#F8F8F8"/>
<path fill-rule="evenodd" clip-rule="evenodd" d="M7.5 11.75C7.84518 11.75 8.125 12.0298 8.125 12.375V14.875C8.125 15.2202 7.84518 15.5 7.5 15.5C7.15482 15.5 6.875 15.2202 6.875 14.875V12.375C6.875 12.0298 7.15482 11.75 7.5 11.75Z" fill="#F8F8F8"/>
<path fill-rule="evenodd" clip-rule="evenodd" d="M4.375 14.875C4.375 14.5298 4.65482 14.25 5 14.25H10C10.3452 14.25 10.625 14.5298 10.625 14.875C10.625 15.2202 10.3452 15.5 10 15.5H5C4.65482 15.5 4.375 15.2202 4.375 14.875Z" fill="#F8F8F8"/>
</g>
<defs>
<clipPath id="clip0_848_1131">
<rect width="15" height="15" fill="white" transform="translate(0 0.5)"/>
</clipPath>
</defs>
</svg>
