<svg width="18" height="19" viewBox="0 0 18 19" fill="none" xmlns="http://www.w3.org/2000/svg">
<path fill-rule="evenodd" clip-rule="evenodd" d="M4.5 15.5C4.5 15.0858 4.83579 14.75 5.25 14.75H12.75C13.1642 14.75 13.5 15.0858 13.5 15.5C13.5 15.9142 13.1642 16.25 12.75 16.25H5.25C4.83579 16.25 4.5 15.9142 4.5 15.5Z" fill="#F8F8F8"/>
<path fill-rule="evenodd" clip-rule="evenodd" d="M10.1411 7.36015C10.4945 7.57614 10.606 8.03775 10.39 8.3912C10.0805 8.89755 10.0023 9.42247 10.0315 10.0101C10.0464 10.3098 10.0888 10.6174 10.1413 10.9475C10.1539 11.0263 10.1672 11.1078 10.1809 11.191C10.2221 11.4426 10.266 11.7101 10.2976 11.9684C10.3824 12.6619 10.4057 13.4625 10.0373 14.2386C9.66207 15.0289 8.9435 15.6678 7.81035 16.1829C7.43327 16.3543 6.98863 16.1875 6.81723 15.8105C6.64582 15.4334 6.81256 14.9887 7.18965 14.8173C8.119 14.3949 8.50668 13.965 8.68224 13.5953C8.86461 13.2111 8.88324 12.7602 8.80867 12.1505C8.78112 11.9253 8.7445 11.7018 8.70472 11.4591C8.69012 11.37 8.6751 11.2784 8.65994 11.1831C8.60552 10.8409 8.55243 10.4681 8.53335 10.0846C8.49461 9.30587 8.59448 8.45266 9.11004 7.60902C9.32603 7.25558 9.78765 7.14415 10.1411 7.36015Z" fill="#F8F8F8"/>
<path fill-rule="evenodd" clip-rule="evenodd" d="M4.02499 7.57117C4.48106 8.61059 5.05274 9.16305 5.58541 9.42938C5.59219 9.43277 5.59891 9.43626 5.60558 9.43985C6.18293 9.75074 6.86265 9.84406 7.82074 9.73274C7.51233 9.03674 7.14161 8.48966 6.68387 8.15676C6.16467 7.77915 5.39682 7.4635 4.02499 7.57117ZM2.86816 6.21188C5.1185 5.81004 6.53862 6.19637 7.56613 6.94365C8.58918 7.68769 9.17548 8.92992 9.56151 10.088C9.62954 10.2921 9.60666 10.5156 9.49868 10.7017C9.39071 10.8877 9.20804 11.0185 8.99709 11.0606C7.44958 11.3701 6.1114 11.4117 4.90438 10.7659C3.77011 10.1945 2.84513 9.01724 2.2825 7.16858C2.22008 6.96348 2.24841 6.74147 2.36034 6.55862C2.47228 6.37578 2.65711 6.24957 2.86816 6.21188Z" fill="#F8F8F8"/>
<path fill-rule="evenodd" clip-rule="evenodd" d="M14.782 2.97138C14.9296 3.11992 15.0083 3.32339 14.9993 3.53258C14.9182 5.39676 14.4186 6.56703 13.5053 7.48033C13.4857 7.4999 13.4651 7.51837 13.4435 7.53565C12.5389 8.25931 11.3242 8.66819 9.78938 8.74896C9.58813 8.75956 9.39109 8.68871 9.24266 8.5524C9.09423 8.41608 9.0069 8.22577 9.00036 8.02435C8.96099 6.81248 9.28972 5.61711 9.94321 4.59578C9.96527 4.56131 9.99011 4.5287 10.0175 4.49828C10.4045 4.06824 10.895 3.64187 11.5884 3.31752C12.2779 2.99503 13.1302 2.79096 14.2222 2.75051C14.4314 2.74276 14.6344 2.82284 14.782 2.97138ZM11.174 5.45618C10.8497 5.9786 10.6373 6.5596 10.5469 7.16255C11.3952 7.0221 12.0177 6.74504 12.4741 6.38983C12.9284 5.92538 13.2671 5.33632 13.4204 4.32868C12.9244 4.40613 12.5361 4.53022 12.224 4.67623C11.7773 4.88516 11.4526 5.15462 11.174 5.45618Z" fill="#F8F8F8"/>
</svg>
