<svg width="25" height="25" viewBox="0 0 25 25" fill="none" xmlns="http://www.w3.org/2000/svg">
<path fill-rule="evenodd" clip-rule="evenodd" d="M7.5 8.70605C6.43913 8.70605 5.42172 9.12748 4.67157 9.87763C3.92143 10.6278 3.5 11.6452 3.5 12.7061C3.5 13.7669 3.92143 14.7843 4.67157 15.5345C5.42172 16.2846 6.43913 16.7061 7.5 16.7061H9.5C10.0523 16.7061 10.5 17.1538 10.5 17.7061C10.5 18.2583 10.0523 18.7061 9.5 18.7061H7.5C5.9087 18.7061 4.38258 18.0739 3.25736 16.9487C2.13214 15.8235 1.5 14.2974 1.5 12.7061C1.5 11.1148 2.13214 9.58863 3.25736 8.46341C4.38258 7.3382 5.9087 6.70605 7.5 6.70605H9.5C10.0523 6.70605 10.5 7.15377 10.5 7.70605C10.5 8.25834 10.0523 8.70605 9.5 8.70605H7.5ZM14.5 7.70605C14.5 7.15377 14.9477 6.70605 15.5 6.70605H17.5C19.0913 6.70605 20.6174 7.3382 21.7426 8.46341C22.8679 9.58863 23.5 11.1148 23.5 12.7061C23.5 14.2974 22.8679 15.8235 21.7426 16.9487C20.6174 18.0739 19.0913 18.7061 17.5 18.7061H15.5C14.9477 18.7061 14.5 18.2583 14.5 17.7061C14.5 17.1538 14.9477 16.7061 15.5 16.7061H17.5C18.5609 16.7061 19.5783 16.2846 20.3284 15.5345C21.0786 14.7843 21.5 13.7669 21.5 12.7061C21.5 11.6452 21.0786 10.6278 20.3284 9.87763C19.5783 9.12748 18.5609 8.70605 17.5 8.70605H15.5C14.9477 8.70605 14.5 8.25834 14.5 7.70605Z" fill="#CDCDCD"/>
<path fill-rule="evenodd" clip-rule="evenodd" d="M7.5 12.7061C7.5 12.1538 7.94772 11.7061 8.5 11.7061H16.5C17.0523 11.7061 17.5 12.1538 17.5 12.7061C17.5 13.2583 17.0523 13.7061 16.5 13.7061H8.5C7.94772 13.7061 7.5 13.2583 7.5 12.7061Z" fill="#CDCDCD"/>
</svg>
