<svg width="262" height="93" viewBox="0 0 262 93" fill="none" xmlns="http://www.w3.org/2000/svg">
    <path d="M81.2298 46.461C81.2298 72.1208 60.1468 92.9221 85.3156 92.9221C110.484 92.9221 130.888 72.1208 130.888 46.461C130.888 20.8013 110.484 0 85.3156 0C60.1468 0 81.2298 20.8013 81.2298 46.461Z"
          fill="#5347CC"/>
    <path d="M180.638 46.461C180.638 72.1208 201.721 92.9221 176.553 92.9221C151.384 92.9221 130.98 72.1208 130.98 46.461C130.98 20.8013 151.384 0 176.553 0C201.721 0 180.638 20.8013 180.638 46.461Z"
          fill="#5347CC"/>
    <path d="M4.34045 57.5507C3.83626 57.5507 3.44167 57.4082 3.15669 57.1233C2.89363 56.8383 2.76211 56.4437 2.76211 55.9395V35.5197C2.76211 34.9935 2.9046 34.599 3.18957 34.3359C3.47455 34.0509 3.85818 33.9084 4.34045 33.9084C4.8008 33.9084 5.15155 33.9961 5.39268 34.1715C5.65574 34.3249 5.89688 34.6099 6.11609 35.0264L14.7312 51.1058H13.7119L22.2941 35.0264C22.5134 34.6099 22.7435 34.3249 22.9847 34.1715C23.2258 33.9961 23.5765 33.9084 24.0369 33.9084C24.5192 33.9084 24.8918 34.0509 25.1549 34.3359C25.4179 34.599 25.5495 34.9935 25.5495 35.5197V55.9395C25.5495 56.4437 25.4179 56.8383 25.1549 57.1233C24.9138 57.4082 24.5411 57.5507 24.0369 57.5507C23.5327 57.5507 23.1491 57.4082 22.886 57.1233C22.623 56.8383 22.4914 56.4437 22.4914 55.9395V38.9723H23.2148L15.5862 53.0788C15.4108 53.4076 15.2245 53.6487 15.0272 53.8022C14.8299 53.9556 14.5559 54.0323 14.2051 54.0323C13.8544 54.0323 13.5694 53.9556 13.3502 53.8022C13.131 53.6268 12.9337 53.3857 12.7583 53.0788L5.06386 38.9394H5.85303V55.9395C5.85303 56.4437 5.7215 56.8383 5.45845 57.1233C5.21731 57.4082 4.84465 57.5507 4.34045 57.5507ZM36.3785 57.6165C35.0851 57.6165 34 57.3754 33.1232 56.8931C32.2682 56.4108 31.6216 55.6984 31.1831 54.7557C30.7666 53.7912 30.5584 52.5855 30.5584 51.1387V42.7209C30.5584 42.1509 30.7008 41.7344 30.9858 41.4713C31.2708 41.1864 31.6764 41.0439 32.2025 41.0439C32.7286 41.0439 33.1341 41.1864 33.4191 41.4713C33.726 41.7344 33.8795 42.1509 33.8795 42.7209V51.1716C33.8795 52.465 34.1425 53.4185 34.6686 54.0323C35.1947 54.6461 36.0278 54.953 37.1677 54.953C38.4172 54.953 39.4256 54.5365 40.1928 53.7035C40.982 52.8486 41.3766 51.7306 41.3766 50.3495V42.7209C41.3766 42.1509 41.5191 41.7344 41.8041 41.4713C42.0891 41.1864 42.5056 41.0439 43.0536 41.0439C43.5797 41.0439 43.9853 41.1864 44.2702 41.4713C44.5552 41.7344 44.6977 42.1509 44.6977 42.7209V55.8737C44.6977 56.9917 44.1606 57.5507 43.0865 57.5507C42.5823 57.5507 42.1877 57.4082 41.9027 57.1233C41.6177 56.8164 41.4753 56.3999 41.4753 55.8737V53.0788L41.9027 53.8022C41.4643 55.0298 40.7628 55.9724 39.7983 56.63C38.8337 57.2877 37.6938 57.6165 36.3785 57.6165ZM55.0009 57.6165C54.0363 57.6165 53.0389 57.5069 52.0086 57.2877C51.0002 57.0685 50.0686 56.6958 49.2136 56.1697C48.9286 55.9724 48.7313 55.7532 48.6217 55.512C48.5121 55.2709 48.4683 55.0298 48.4902 54.7886C48.534 54.5256 48.6327 54.3064 48.7861 54.131C48.9615 53.9337 49.1698 53.8131 49.4109 53.7693C49.674 53.7254 49.948 53.7802 50.233 53.9337C51.0879 54.416 51.91 54.7557 52.6991 54.953C53.4883 55.1284 54.2665 55.2161 55.0338 55.2161C56.1956 55.2161 57.0725 55.0078 57.6643 54.5913C58.2562 54.1748 58.5522 53.6158 58.5522 52.9143C58.5522 52.3444 58.3549 51.906 57.9603 51.5991C57.5657 51.2702 56.9738 51.0181 56.1846 50.8428L53.0608 50.218C51.7017 49.933 50.6714 49.4288 49.9699 48.7054C49.2684 47.982 48.9177 47.0613 48.9177 45.9433C48.9177 44.9349 49.1917 44.0581 49.7397 43.3127C50.2878 42.5674 51.055 41.9974 52.0415 41.6029C53.028 41.1864 54.1679 40.9781 55.4612 40.9781C56.4258 40.9781 57.3355 41.0987 58.1905 41.3398C59.0454 41.5809 59.8346 41.9426 60.558 42.4249C60.843 42.5784 61.0293 42.7866 61.117 43.0497C61.2047 43.2908 61.2156 43.532 61.1499 43.7731C61.106 44.0142 60.9964 44.2334 60.821 44.4307C60.6457 44.6061 60.4264 44.7157 60.1634 44.7596C59.9223 44.7815 59.6482 44.7157 59.3413 44.5623C58.6837 44.1458 58.026 43.8498 57.3684 43.6744C56.7327 43.4991 56.097 43.4114 55.4612 43.4114C54.2994 43.4114 53.4225 43.6306 52.8307 44.069C52.2607 44.4855 51.9757 45.0555 51.9757 45.7789C51.9757 46.3269 52.1511 46.7763 52.5018 47.1271C52.8526 47.4778 53.4006 47.7299 54.1459 47.8834L57.2698 48.5081C58.6947 48.7931 59.7688 49.2754 60.4922 49.9549C61.2375 50.6345 61.6102 51.5552 61.6102 52.717C61.6102 54.2296 61.0074 55.4243 59.8017 56.3012C58.596 57.1781 56.9957 57.6165 55.0009 57.6165ZM66.9495 57.5178C66.4233 57.5178 66.0178 57.3644 65.7328 57.0575C65.4478 56.7287 65.3053 56.2793 65.3053 55.7093V42.8853C65.3053 42.3153 65.4478 41.8769 65.7328 41.57C66.0178 41.2631 66.4233 41.1096 66.9495 41.1096C67.4756 41.1096 67.8811 41.2631 68.1661 41.57C68.473 41.8769 68.6265 42.3153 68.6265 42.8853V55.7093C68.6265 56.2793 68.484 56.7287 68.199 57.0575C67.914 57.3644 67.4975 57.5178 66.9495 57.5178ZM66.9495 37.6899C66.2918 37.6899 65.7767 37.5255 65.404 37.1966C65.0533 36.8678 64.8779 36.4075 64.8779 35.8156C64.8779 35.2018 65.0533 34.7414 65.404 34.4345C65.7767 34.1057 66.2918 33.9413 66.9495 33.9413C67.6071 33.9413 68.1113 34.1057 68.462 34.4345C68.8347 34.7414 69.021 35.2018 69.021 35.8156C69.021 36.4075 68.8347 36.8678 68.462 37.1966C68.1113 37.5255 67.6071 37.6899 66.9495 37.6899ZM80.3708 57.6165C78.7267 57.6165 77.3018 57.2767 76.0961 56.5971C74.9123 55.8957 73.9916 54.9202 73.334 53.6706C72.6764 52.3992 72.3475 50.9085 72.3475 49.1987C72.3475 47.9272 72.5339 46.7873 72.9065 45.7789C73.2792 44.7486 73.8053 43.8827 74.4849 43.1812C75.1864 42.4797 76.0303 41.9426 77.0168 41.57C78.0252 41.1754 79.1432 40.9781 80.3708 40.9781C81.138 40.9781 81.9382 41.0987 82.7712 41.3398C83.6261 41.559 84.4153 41.9317 85.1387 42.4578C85.4237 42.6332 85.5991 42.8524 85.6648 43.1154C85.7525 43.3566 85.7635 43.6087 85.6977 43.8717C85.6539 44.1348 85.5333 44.365 85.336 44.5623C85.1606 44.7376 84.9414 44.8472 84.6784 44.8911C84.4153 44.913 84.1303 44.8363 83.8234 44.6609C83.2973 44.2882 82.7602 44.0252 82.2122 43.8717C81.6642 43.6964 81.138 43.6087 80.6338 43.6087C79.8447 43.6087 79.1432 43.7402 78.5294 44.0033C77.9375 44.2444 77.4333 44.6061 77.0168 45.0884C76.6003 45.5487 76.2824 46.1296 76.0632 46.8311C75.8659 47.5326 75.7673 48.3328 75.7673 49.2315C75.7673 51.0291 76.1838 52.443 77.0168 53.4733C77.8717 54.4817 79.0774 54.9859 80.6338 54.9859C81.138 54.9859 81.6642 54.9092 82.2122 54.7557C82.7602 54.6023 83.2973 54.3392 83.8234 53.9666C84.1303 53.7912 84.4153 53.7254 84.6784 53.7693C84.9414 53.8131 85.1497 53.9337 85.3031 54.131C85.4785 54.3064 85.5881 54.5256 85.6319 54.7886C85.6977 55.0298 85.6867 55.2819 85.5991 55.5449C85.5114 55.808 85.325 56.0272 85.0401 56.2026C84.3386 56.7068 83.5713 57.0685 82.7383 57.2877C81.9272 57.5069 81.138 57.6165 80.3708 57.6165ZM93.6516 57.6165C92.5336 57.6165 91.5252 57.3973 90.6264 56.9589C89.7496 56.5204 89.0591 55.9285 88.5549 55.1832C88.0507 54.4379 87.7986 53.5939 87.7986 52.6513C87.7986 51.4675 88.0945 50.5359 88.6864 49.8563C89.3002 49.1548 90.2976 48.6616 91.6787 48.3766C93.0817 48.0697 94.9669 47.9162 97.3344 47.9162H98.8799V49.9549H97.3673C95.789 49.9549 94.5394 50.0317 93.6187 50.1851C92.698 50.3386 92.0404 50.6016 91.6458 50.9743C91.2731 51.325 91.0868 51.8183 91.0868 52.454C91.0868 53.287 91.3718 53.9666 91.9417 54.4927C92.5117 54.9969 93.3009 55.249 94.3093 55.249C95.1203 55.249 95.8328 55.0626 96.4466 54.69C97.0604 54.2954 97.5427 53.7693 97.8934 53.1116C98.2661 52.454 98.4524 51.6977 98.4524 50.8428V47.0613C98.4524 45.8118 98.1894 44.913 97.6632 44.365C97.1371 43.8169 96.2712 43.5429 95.0655 43.5429C94.3641 43.5429 93.6297 43.6306 92.8624 43.806C92.1171 43.9813 91.3389 44.2773 90.5278 44.6938C90.1551 44.8692 89.8373 44.924 89.5742 44.8582C89.3112 44.7924 89.1029 44.6499 88.9495 44.4307C88.796 44.1896 88.7083 43.9375 88.6864 43.6744C88.6864 43.3895 88.7522 43.1154 88.8837 42.8524C89.0371 42.5893 89.2892 42.392 89.64 42.2605C90.6045 41.8002 91.5581 41.4713 92.5007 41.274C93.4434 41.0767 94.3312 40.9781 95.1642 40.9781C96.6329 40.9781 97.8386 41.2083 98.7812 41.6686C99.7458 42.129 100.458 42.8305 100.919 43.7731C101.379 44.7157 101.609 45.9324 101.609 47.423V55.8737C101.609 56.3999 101.478 56.8164 101.215 57.1233C100.951 57.4082 100.568 57.5507 100.064 57.5507C99.5814 57.5507 99.1977 57.4082 98.9128 57.1233C98.6278 56.8164 98.4853 56.3999 98.4853 55.8737V53.7364H98.7812C98.6059 54.5475 98.277 55.249 97.7948 55.8409C97.3344 56.4108 96.7535 56.8492 96.052 57.1561C95.3505 57.463 94.5504 57.6165 93.6516 57.6165ZM111.346 57.6165C109.636 57.6165 108.343 57.1233 107.466 56.1368C106.611 55.1284 106.183 53.6816 106.183 51.7963V35.5854C106.183 35.0374 106.326 34.6209 106.611 34.3359C106.896 34.0509 107.301 33.9084 107.827 33.9084C108.354 33.9084 108.759 34.0509 109.044 34.3359C109.351 34.6209 109.504 35.0374 109.504 35.5854V51.5991C109.504 52.6951 109.724 53.5172 110.162 54.0652C110.622 54.5913 111.28 54.8544 112.135 54.8544C112.332 54.8544 112.508 54.8544 112.661 54.8544C112.815 54.8325 112.968 54.8105 113.121 54.7886C113.385 54.7667 113.571 54.8434 113.68 55.0188C113.79 55.1723 113.845 55.5011 113.845 56.0053C113.845 56.4656 113.746 56.8273 113.549 57.0904C113.352 57.3315 113.034 57.485 112.595 57.5507C112.398 57.5727 112.19 57.5836 111.971 57.5836C111.751 57.6055 111.543 57.6165 111.346 57.6165Z"
          fill="#F8F8F8"/>
    <path d="M127.107 57.3206C126.516 57.3206 126.055 57.1671 125.726 56.8602C125.42 56.5314 125.266 56.071 125.266 55.4792V35.98C125.266 35.3881 125.42 34.9387 125.726 34.6318C126.055 34.303 126.516 34.1386 127.107 34.1386H139.109C139.57 34.1386 139.921 34.2592 140.162 34.5003C140.403 34.7195 140.523 35.0483 140.523 35.4868C140.523 35.9471 140.403 36.2979 140.162 36.539C139.921 36.7801 139.57 36.9007 139.109 36.9007H128.554V44.1677H138.386C138.868 44.1677 139.219 44.2882 139.438 44.5294C139.679 44.7705 139.8 45.1103 139.8 45.5487C139.8 46.0091 139.679 46.3598 139.438 46.601C139.219 46.8202 138.868 46.9298 138.386 46.9298H128.554V54.5585H139.109C139.57 54.5585 139.921 54.679 140.162 54.9202C140.403 55.1613 140.523 55.5011 140.523 55.9395C140.523 56.3999 140.403 56.7506 140.162 56.9917C139.921 57.2109 139.57 57.3206 139.109 57.3206H127.107ZM144.827 57.5178C144.432 57.5178 144.103 57.4082 143.84 57.189C143.599 56.9479 143.467 56.652 143.446 56.3012C143.446 55.9505 143.599 55.5668 143.906 55.1503L149.463 48.2122V49.8563L144.268 43.3785C143.917 42.9839 143.752 42.6112 143.774 42.2605C143.796 41.8878 143.939 41.5919 144.202 41.3727C144.465 41.1535 144.783 41.0439 145.155 41.0439C145.572 41.0439 145.912 41.1206 146.175 41.274C146.46 41.4056 146.723 41.6357 146.964 41.9646L151.337 47.5217H150.154L154.56 41.9646C154.801 41.6357 155.053 41.4056 155.316 41.274C155.601 41.1206 155.941 41.0439 156.335 41.0439C156.73 41.0439 157.048 41.1644 157.289 41.4056C157.552 41.6248 157.684 41.9207 157.684 42.2934C157.705 42.6441 157.552 43.0168 157.223 43.4114L152.028 49.7905V48.3108L157.585 55.1503C157.914 55.5449 158.067 55.9285 158.045 56.3012C158.045 56.652 157.914 56.9479 157.651 57.189C157.388 57.4082 157.059 57.5178 156.664 57.5178C156.27 57.5178 155.93 57.4411 155.645 57.2877C155.382 57.1342 155.119 56.904 154.856 56.5971L150.154 50.6784H151.271L146.602 56.5971C146.361 56.8821 146.098 57.1123 145.813 57.2877C145.55 57.4411 145.221 57.5178 144.827 57.5178ZM168.517 57.6165C166.873 57.6165 165.448 57.2767 164.242 56.5971C163.058 55.8957 162.138 54.9202 161.48 53.6706C160.822 52.3992 160.494 50.9085 160.494 49.1987C160.494 47.9272 160.68 46.7873 161.053 45.7789C161.425 44.7486 161.951 43.8827 162.631 43.1812C163.333 42.4797 164.176 41.9426 165.163 41.57C166.171 41.1754 167.289 40.9781 168.517 40.9781C169.284 40.9781 170.084 41.0987 170.917 41.3398C171.772 41.559 172.561 41.9317 173.285 42.4578C173.57 42.6332 173.745 42.8524 173.811 43.1154C173.899 43.3566 173.91 43.6087 173.844 43.8717C173.8 44.1348 173.679 44.365 173.482 44.5623C173.307 44.7376 173.088 44.8472 172.825 44.8911C172.561 44.913 172.276 44.8363 171.97 44.6609C171.443 44.2882 170.906 44.0252 170.358 43.8717C169.81 43.6964 169.284 43.6087 168.78 43.6087C167.991 43.6087 167.289 43.7402 166.676 44.0033C166.084 44.2444 165.579 44.6061 165.163 45.0884C164.746 45.5487 164.429 46.1296 164.209 46.8311C164.012 47.5326 163.913 48.3328 163.913 49.2315C163.913 51.0291 164.33 52.443 165.163 53.4733C166.018 54.4817 167.224 54.9859 168.78 54.9859C169.284 54.9859 169.81 54.9092 170.358 54.7557C170.906 54.6023 171.443 54.3392 171.97 53.9666C172.276 53.7912 172.561 53.7254 172.825 53.7693C173.088 53.8131 173.296 53.9337 173.449 54.131C173.625 54.3064 173.734 54.5256 173.778 54.7886C173.844 55.0298 173.833 55.2819 173.745 55.5449C173.658 55.808 173.471 56.0272 173.186 56.2026C172.485 56.7068 171.717 57.0685 170.884 57.2877C170.073 57.5069 169.284 57.6165 168.517 57.6165ZM181.959 57.6165C180.249 57.6165 178.956 57.1233 178.079 56.1368C177.224 55.1284 176.797 53.6816 176.797 51.7963V35.5854C176.797 35.0374 176.939 34.6209 177.224 34.3359C177.509 34.0509 177.915 33.9084 178.441 33.9084C178.967 33.9084 179.372 34.0509 179.657 34.3359C179.964 34.6209 180.118 35.0374 180.118 35.5854V51.5991C180.118 52.6951 180.337 53.5172 180.775 54.0652C181.236 54.5913 181.893 54.8544 182.748 54.8544C182.946 54.8544 183.121 54.8544 183.274 54.8544C183.428 54.8325 183.581 54.8105 183.735 54.7886C183.998 54.7667 184.184 54.8434 184.294 55.0188C184.403 55.1723 184.458 55.5011 184.458 56.0053C184.458 56.4656 184.359 56.8273 184.162 57.0904C183.965 57.3315 183.647 57.485 183.209 57.5507C183.011 57.5727 182.803 57.5836 182.584 57.5836C182.365 57.6055 182.156 57.6165 181.959 57.6165ZM192.569 57.6165C191.276 57.6165 190.191 57.3754 189.314 56.8931C188.459 56.4108 187.812 55.6984 187.374 54.7557C186.957 53.7912 186.749 52.5855 186.749 51.1387V42.7209C186.749 42.1509 186.891 41.7344 187.176 41.4713C187.461 41.1864 187.867 41.0439 188.393 41.0439C188.919 41.0439 189.325 41.1864 189.61 41.4713C189.916 41.7344 190.07 42.1509 190.07 42.7209V51.1716C190.07 52.465 190.333 53.4185 190.859 54.0323C191.385 54.6461 192.218 54.953 193.358 54.953C194.608 54.953 195.616 54.5365 196.383 53.7035C197.172 52.8486 197.567 51.7306 197.567 50.3495V42.7209C197.567 42.1509 197.71 41.7344 197.995 41.4713C198.28 41.1864 198.696 41.0439 199.244 41.0439C199.77 41.0439 200.176 41.1864 200.461 41.4713C200.746 41.7344 200.888 42.1509 200.888 42.7209V55.8737C200.888 56.9917 200.351 57.5507 199.277 57.5507C198.773 57.5507 198.378 57.4082 198.093 57.1233C197.808 56.8164 197.666 56.3999 197.666 55.8737V53.0788L198.093 53.8022C197.655 55.0298 196.953 55.9724 195.989 56.63C195.024 57.2877 193.884 57.6165 192.569 57.6165ZM211.191 57.6165C210.227 57.6165 209.229 57.5069 208.199 57.2877C207.191 57.0685 206.259 56.6958 205.404 56.1697C205.119 55.9724 204.922 55.7532 204.812 55.512C204.703 55.2709 204.659 55.0298 204.681 54.7886C204.725 54.5256 204.823 54.3064 204.977 54.131C205.152 53.9337 205.36 53.8131 205.601 53.7693C205.864 53.7254 206.138 53.7802 206.423 53.9337C207.278 54.416 208.1 54.7557 208.89 54.953C209.679 55.1284 210.457 55.2161 211.224 55.2161C212.386 55.2161 213.263 55.0078 213.855 54.5913C214.447 54.1748 214.743 53.6158 214.743 52.9143C214.743 52.3444 214.545 51.906 214.151 51.5991C213.756 51.2702 213.164 51.0181 212.375 50.8428L209.251 50.218C207.892 49.933 206.862 49.4288 206.16 48.7054C205.459 47.982 205.108 47.0613 205.108 45.9433C205.108 44.9349 205.382 44.0581 205.93 43.3127C206.478 42.5674 207.246 41.9974 208.232 41.6029C209.218 41.1864 210.358 40.9781 211.652 40.9781C212.616 40.9781 213.526 41.0987 214.381 41.3398C215.236 41.5809 216.025 41.9426 216.748 42.4249C217.033 42.5784 217.22 42.7866 217.307 43.0497C217.395 43.2908 217.406 43.532 217.34 43.7731C217.296 44.0142 217.187 44.2334 217.012 44.4307C216.836 44.6061 216.617 44.7157 216.354 44.7596C216.113 44.7815 215.839 44.7157 215.532 44.5623C214.874 44.1458 214.217 43.8498 213.559 43.6744C212.923 43.4991 212.287 43.4114 211.652 43.4114C210.49 43.4114 209.613 43.6306 209.021 44.069C208.451 44.4855 208.166 45.0555 208.166 45.7789C208.166 46.3269 208.342 46.7763 208.692 47.1271C209.043 47.4778 209.591 47.7299 210.336 47.8834L213.46 48.5081C214.885 48.7931 215.959 49.2754 216.683 49.9549C217.428 50.6345 217.801 51.5552 217.801 52.717C217.801 54.2296 217.198 55.4243 215.992 56.3012C214.786 57.1781 213.186 57.6165 211.191 57.6165ZM223.14 57.5178C222.614 57.5178 222.208 57.3644 221.923 57.0575C221.638 56.7287 221.496 56.2793 221.496 55.7093V42.8853C221.496 42.3153 221.638 41.8769 221.923 41.57C222.208 41.2631 222.614 41.1096 223.14 41.1096C223.666 41.1096 224.072 41.2631 224.357 41.57C224.663 41.8769 224.817 42.3153 224.817 42.8853V55.7093C224.817 56.2793 224.674 56.7287 224.389 57.0575C224.104 57.3644 223.688 57.5178 223.14 57.5178ZM223.14 37.6899C222.482 37.6899 221.967 37.5255 221.594 37.1966C221.244 36.8678 221.068 36.4075 221.068 35.8156C221.068 35.2018 221.244 34.7414 221.594 34.4345C221.967 34.1057 222.482 33.9413 223.14 33.9413C223.798 33.9413 224.302 34.1057 224.653 34.4345C225.025 34.7414 225.212 35.2018 225.212 35.8156C225.212 36.4075 225.025 36.8678 224.653 37.1966C224.302 37.5255 223.798 37.6899 223.14 37.6899ZM235.706 57.5507C235.246 57.5507 234.84 57.4302 234.49 57.189C234.161 56.9479 233.887 56.5752 233.668 56.071L228.176 43.3127C228.001 42.9181 227.935 42.5455 227.979 42.1947C228.023 41.844 228.187 41.57 228.472 41.3727C228.757 41.1535 229.141 41.0439 229.623 41.0439C230.04 41.0439 230.368 41.1425 230.61 41.3398C230.851 41.5371 231.07 41.8769 231.267 42.3592L236.232 54.5913H235.312L240.376 42.3592C240.573 41.8769 240.792 41.5371 241.033 41.3398C241.296 41.1425 241.658 41.0439 242.118 41.0439C242.513 41.0439 242.82 41.1535 243.039 41.3727C243.28 41.57 243.423 41.844 243.467 42.1947C243.532 42.5236 243.477 42.8853 243.302 43.2799L237.745 56.071C237.548 56.5752 237.274 56.9479 236.923 57.189C236.572 57.4302 236.167 57.5507 235.706 57.5507ZM253.816 57.6165C252.062 57.6165 250.55 57.2877 249.278 56.63C248.029 55.9505 247.053 54.9969 246.352 53.7693C245.672 52.5198 245.332 51.0401 245.332 49.3302C245.332 47.6641 245.672 46.2064 246.352 44.9568C247.031 43.7073 247.963 42.7318 249.147 42.0303C250.33 41.3288 251.679 40.9781 253.191 40.9781C254.309 40.9781 255.307 41.1644 256.183 41.5371C257.06 41.8878 257.806 42.414 258.419 43.1154C259.055 43.795 259.526 44.628 259.833 45.6145C260.162 46.601 260.327 47.708 260.327 48.9356C260.327 49.3083 260.217 49.5932 259.998 49.7905C259.779 49.9659 259.45 50.0536 259.011 50.0536H247.963V48.0149H258.091L257.532 48.4752C257.532 47.3792 257.367 46.4475 257.038 45.6803C256.732 44.913 256.26 44.3321 255.624 43.9375C255.011 43.521 254.243 43.3127 253.323 43.3127C252.292 43.3127 251.416 43.5539 250.692 44.0361C249.991 44.5184 249.454 45.187 249.081 46.042C248.708 46.8969 248.522 47.8943 248.522 49.0342V49.2315C248.522 51.1606 248.971 52.6184 249.87 53.6049C250.791 54.5694 252.117 55.0517 253.849 55.0517C254.506 55.0517 255.197 54.964 255.92 54.7886C256.666 54.6133 257.367 54.3173 258.025 53.9008C258.398 53.6816 258.726 53.5829 259.011 53.6049C259.318 53.6268 259.559 53.7254 259.735 53.9008C259.932 54.0762 260.053 54.2954 260.096 54.5585C260.14 54.8215 260.096 55.0955 259.965 55.3805C259.833 55.6436 259.603 55.8847 259.274 56.1039C258.529 56.6081 257.663 56.9917 256.677 57.2548C255.69 57.4959 254.737 57.6165 253.816 57.6165Z"
          fill="url(#paint0_linear_432_622)"/>
    <defs>
        <linearGradient id="paint0_linear_432_622" x1="120.89" y1="24.1624" x2="279.318" y2="57.1731"
                        gradientUnits="userSpaceOnUse">
            <stop stop-color="white"/>
            <stop offset="0.499411" stop-color="#CC7DE8"/>
            <stop offset="1" stop-color="#DA138A"/>
        </linearGradient>
    </defs>
</svg>
