<svg width="24" height="24" viewBox="0 0 24 24" fill="none" xmlns="http://www.w3.org/2000/svg">
<path fill-rule="evenodd" clip-rule="evenodd" d="M13.8242 3.78908C13.8242 3.28533 14.2326 2.87695 14.7363 2.87695H20.2091C20.7129 2.87695 21.1213 3.28533 21.1213 3.78908V9.26186C21.1213 9.76562 20.7129 10.174 20.2091 10.174C19.7054 10.174 19.297 9.76562 19.297 9.26186V4.70121H14.7363C14.2326 4.70121 13.8242 4.29284 13.8242 3.78908Z" fill="#7E7E7E"/>
<path fill-rule="evenodd" clip-rule="evenodd" d="M3.79079 13.8228C4.29455 13.8228 4.70292 14.2311 4.70292 14.7349V19.2955H9.26357C9.76733 19.2955 10.1757 19.7039 10.1757 20.2077C10.1757 20.7114 9.76733 21.1198 9.26357 21.1198H3.79079C3.28704 21.1198 2.87866 20.7114 2.87866 20.2077V14.7349C2.87866 14.2311 3.28704 13.8228 3.79079 13.8228Z" fill="#7E7E7E"/>
<path fill-rule="evenodd" clip-rule="evenodd" d="M20.8541 3.14411C21.2103 3.50032 21.2103 4.07785 20.8541 4.43406L14.4692 10.819C14.113 11.1752 13.5355 11.1752 13.1793 10.819C12.8231 10.4628 12.8231 9.88523 13.1793 9.52902L19.5642 3.14411C19.9204 2.7879 20.4979 2.7879 20.8541 3.14411Z" fill="#7E7E7E"/>
<path fill-rule="evenodd" clip-rule="evenodd" d="M10.8207 13.1778C11.1769 13.534 11.1769 14.1115 10.8207 14.4677L4.43576 20.8527C4.07956 21.2089 3.50203 21.2089 3.14582 20.8527C2.78961 20.4964 2.78961 19.9189 3.14582 19.5627L9.53073 13.1778C9.88694 12.8216 10.4645 12.8216 10.8207 13.1778Z" fill="#7E7E7E"/>
<path d="M17 6.99805H16V5.99805C16 4.93718 15.5786 3.91977 14.8284 3.16962C14.0783 2.41947 13.0609 1.99805 12 1.99805C10.9391 1.99805 9.92172 2.41947 9.17157 3.16962C8.42143 3.91977 8 4.93718 8 5.99805V6.99805H7C6.20435 6.99805 5.44129 7.31412 4.87868 7.87673C4.31607 8.43934 4 9.2024 4 9.99805V17.998C4 18.7937 4.31607 19.5568 4.87868 20.1194C5.44129 20.682 6.20435 20.998 7 20.998H17C17.7956 20.998 18.5587 20.682 19.1213 20.1194C19.6839 19.5568 20 18.7937 20 17.998V9.99805C20 9.2024 19.6839 8.43934 19.1213 7.87673C18.5587 7.31412 17.7956 6.99805 17 6.99805ZM10 5.99805C10 5.46761 10.2107 4.95891 10.5858 4.58383C10.9609 4.20876 11.4696 3.99805 12 3.99805C12.5304 3.99805 13.0391 4.20876 13.4142 4.58383C13.7893 4.95891 14 5.46761 14 5.99805V6.99805H10V5.99805ZM18 17.998C18 18.2633 17.8946 18.5176 17.7071 18.7052C17.5196 18.8927 17.2652 18.998 17 18.998H7C6.73478 18.998 6.48043 18.8927 6.29289 18.7052C6.10536 18.5176 6 18.2633 6 17.998V9.99805C6 9.73283 6.10536 9.47848 6.29289 9.29094C6.48043 9.1034 6.73478 8.99805 7 8.99805H17C17.2652 8.99805 17.5196 9.1034 17.7071 9.29094C17.8946 9.47848 18 9.73283 18 9.99805V17.998ZM13.5 13.478C13.4993 13.7315 13.4348 13.9806 13.3124 14.2026C13.1901 14.4245 13.0139 14.6121 12.8 14.748V15.478C12.8 15.6902 12.7157 15.8937 12.5657 16.0437C12.4157 16.1938 12.2122 16.278 12 16.278C11.7878 16.278 11.5843 16.1938 11.4343 16.0437C11.2843 15.8937 11.2 15.6902 11.2 15.478V14.748C10.9861 14.6121 10.8099 14.4245 10.6876 14.2026C10.5652 13.9806 10.5007 13.7315 10.5 13.478C10.5 13.0802 10.658 12.6987 10.9393 12.4174C11.2206 12.1361 11.6022 11.978 12 11.978C12.3978 11.978 12.7794 12.1361 13.0607 12.4174C13.342 12.6987 13.5 13.0802 13.5 13.478V13.478Z" fill="#F8F8F8"/>
</svg>
