<svg width="335" height="88" viewBox="0 0 335 88" fill="none" xmlns="http://www.w3.org/2000/svg">
<path d="M58.3906 70H50.0078V33H49.7549L34.6875 69.5664H28.3281L13.2607 33H13.0078V70H4.58887V17.8604H15.3926L31.3633 57.209H31.6523L47.623 17.8604H58.3906V70ZM124.73 55.3301H133.764C134.053 57.7148 135.281 59.6419 137.449 61.1113C139.617 62.5566 142.303 63.2793 145.507 63.2793C148.638 63.2793 151.192 62.5807 153.167 61.1836C155.166 59.7865 156.166 58.0039 156.166 55.8359C156.166 53.957 155.443 52.4395 153.998 51.2832C152.553 50.1029 150.192 49.1273 146.916 48.3564L140.159 46.7666C135.366 45.6585 131.8 43.9362 129.464 41.5996C127.151 39.263 125.995 36.2279 125.995 32.4941C125.995 27.8932 127.802 24.1595 131.415 21.293C135.028 18.4264 139.689 16.9932 145.398 16.9932C151.132 16.9932 155.744 18.4144 159.237 21.2568C162.754 24.0752 164.573 27.7848 164.693 32.3857H155.805C155.588 29.9528 154.54 28.0498 152.661 26.6768C150.782 25.2796 148.337 24.5811 145.326 24.5811C142.387 24.5811 140.003 25.2435 138.172 26.5684C136.365 27.8932 135.462 29.6396 135.462 31.8076C135.462 33.542 136.16 34.9512 137.558 36.0352C138.979 37.1191 141.291 38.0465 144.495 38.8174L150.493 40.1904C155.769 41.3949 159.599 43.1533 161.983 45.4658C164.368 47.7783 165.561 50.8737 165.561 54.752C165.561 59.6901 163.706 63.6165 159.996 66.5312C156.311 69.4219 151.312 70.8672 145.001 70.8672C138.979 70.8672 134.137 69.4821 130.476 66.7119C126.838 63.9176 124.923 60.1237 124.73 55.3301ZM181.929 70H172.606V17.8604H181.929V70ZM284.438 70L279.993 56.5225H260.807L256.362 70H246.751L265.251 17.8604H275.766L294.266 70H284.438ZM270.273 27.0742L262.975 49.332H277.789L270.526 27.0742H270.273ZM332.855 62.123V70H299.866V17.8604H309.188V62.123H332.855Z" fill="url(#paint0_linear_942_957)"/>
<path d="M118.867 42.9365C118.867 50.404 116.458 56.3177 111.641 60.6777C106.823 65.0137 100.247 67.1816 91.9121 67.1816C83.6257 67.1816 77.0736 65.0016 72.2559 60.6416C67.4141 56.2575 64.9932 50.3558 64.9932 42.9365C64.9932 36.8662 66.7275 31.7474 70.1963 27.5801C73.641 23.4128 78.1576 21.04 83.7461 20.4619V29.6396C80.4701 30.2419 77.8444 31.7715 75.8691 34.2285C73.8939 36.6615 72.9062 39.5641 72.9062 42.9365C72.9062 47.417 74.6286 50.9941 78.0732 53.668C81.4938 56.3177 86.1068 57.6426 91.9121 57.6426C97.7656 57.6426 102.403 56.3177 105.823 53.668C109.244 51.0182 110.954 47.429 110.954 42.9004C110.954 39.4557 110.075 36.5651 108.316 34.2285C106.534 31.8678 104.077 30.3262 100.945 29.6035V20.4619C106.534 21.2809 110.918 23.6898 114.098 27.6885C117.277 31.6872 118.867 36.7699 118.867 42.9365Z" fill="url(#paint1_linear_942_957)"/>
<path d="M245.867 42.9365C245.867 50.404 243.458 56.3177 238.641 60.6777C233.823 65.0137 227.247 67.1816 218.912 67.1816C210.626 67.1816 204.074 65.0016 199.256 60.6416C194.414 56.2575 191.993 50.3558 191.993 42.9365C191.993 36.8662 193.728 31.7474 197.196 27.5801C200.641 23.4128 205.158 21.04 210.746 20.4619V29.6396C207.47 30.2419 204.844 31.7715 202.869 34.2285C200.894 36.6615 199.906 39.5641 199.906 42.9365C199.906 47.417 201.629 50.9941 205.073 53.668C208.494 56.3177 213.107 57.6426 218.912 57.6426C224.766 57.6426 229.403 56.3177 232.823 53.668C236.244 51.0182 237.954 47.429 237.954 42.9004C237.954 39.4557 237.075 36.5651 235.316 34.2285C233.534 31.8678 231.077 30.3262 227.945 29.6035V20.4619C233.534 21.2809 237.918 23.6898 241.098 27.6885C244.277 31.6872 245.867 36.7699 245.867 42.9365Z" fill="url(#paint2_linear_942_957)"/>
<defs>
<linearGradient id="paint0_linear_942_957" x1="167.5" y1="0" x2="167.5" y2="88" gradientUnits="userSpaceOnUse">
<stop stop-color="#F8F8F8"/>
<stop offset="1" stop-color="#280926" stop-opacity="0.68"/>
</linearGradient>
<linearGradient id="paint1_linear_942_957" x1="48" y1="43.5" x2="136" y2="43.5" gradientUnits="userSpaceOnUse">
<stop stop-color="#F8F8F8"/>
<stop offset="1" stop-color="#280926" stop-opacity="0.68"/>
</linearGradient>
<linearGradient id="paint2_linear_942_957" x1="175" y1="43.5" x2="263" y2="43.5" gradientUnits="userSpaceOnUse">
<stop stop-color="#F8F8F8"/>
<stop offset="1" stop-color="#280926" stop-opacity="0.68"/>
</linearGradient>
</defs>
</svg>
