<svg width="30" height="30" viewBox="0 0 30 30" fill="none" xmlns="http://www.w3.org/2000/svg">
    <circle cx="15" cy="15" r="14.5" stroke="#F8F8F8"/>
    <path d="M11 17.3917C11 18.0674 11.7619 18.4622 12.3139 18.0725L15.7022 15.6808C16.1725 15.3488 16.1725 14.6512 15.7022 14.3192L12.3139 11.9275C11.7619 11.5378 11 11.9326 11 12.6083V17.3917ZM18.3333 11C17.9651 11 17.6667 11.2985 17.6667 11.6667V18.3333C17.6667 18.7015 17.9651 19 18.3333 19V19C18.7015 19 19 18.7015 19 18.3333V11.6667C19 11.2985 18.7015 11 18.3333 11V11Z"
          fill="#F8F8F8"/>
</svg>
