<svg width="200" height="200" viewBox="0 0 200 200" fill="none" xmlns="http://www.w3.org/2000/svg">
<g clip-path="url(#clip0_2981_2759)">
<path opacity="0.967" fill-rule="evenodd" clip-rule="evenodd" d="M195.117 -0.195312C196.159 -0.195312 197.2 -0.195312 198.242 -0.195312C198.893 0.195312 199.414 0.716145 199.805 1.36719C199.805 2.40886 199.805 3.45052 199.805 4.49219C196.379 8.11391 192.863 11.6946 189.258 15.2344C192.087 15.7135 194.821 16.4947 197.461 17.5781C198.503 19.2708 198.503 20.9636 197.461 22.6562C186.003 29.1667 174.544 35.6771 163.086 42.1875C161.13 43.6039 159.047 43.8641 156.836 42.9688C155.882 41.3859 155.817 39.7582 156.64 38.0859C160.683 34.1091 164.654 30.0726 168.555 25.9766C166.169 24.7684 163.76 23.5966 161.328 22.4609C160.547 20.8984 160.547 19.3359 161.328 17.7734C172.646 11.8223 183.909 5.83273 195.117 -0.195312Z" fill="#F5843C"/>
<path opacity="0.994" fill-rule="evenodd" clip-rule="evenodd" d="M94.3359 49.4141C89.1016 48.7152 85.6512 45.8508 83.9844 40.8203C82.8953 28.4737 82.0488 16.1039 81.4453 3.71093C81.0547 3.71093 80.6641 3.71093 80.2734 3.71093C86.4465 1.55579 90.8086 3.50892 93.3594 9.57031C93.3703 22.8638 93.6957 36.145 94.3359 49.4141Z" fill="#E3CAF4"/>
<path fill-rule="evenodd" clip-rule="evenodd" d="M80.2735 3.71094C80.6642 3.71094 81.0548 3.71094 81.4454 3.71094C82.0489 16.1039 82.8954 28.4737 83.9845 40.8203C85.6513 45.8508 89.1017 48.7152 94.336 49.4141C94.7337 51.5563 94.9938 53.7699 95.1173 56.0547C91.3392 55.9898 87.563 56.0547 83.7892 56.25C81.8872 58.2176 79.9341 60.1055 77.9298 61.9141C77.7997 61.6535 77.6692 61.3934 77.5392 61.1328C76.6938 56.0598 75.8474 50.9816 75.0001 45.8984C74.7396 33.7891 74.7396 21.6797 75.0001 9.57031C75.8817 6.80211 77.6396 4.84898 80.2735 3.71094Z" fill="#CFB8DE"/>
<path opacity="0.999" fill-rule="evenodd" clip-rule="evenodd" d="M194.727 3.71094C195.015 3.65976 195.276 3.72487 195.508 3.90625C191.211 8.20313 186.914 12.5 182.617 16.7969C186.618 18.0257 190.655 19.1976 194.727 20.3125C183.516 26.8917 172.188 33.1417 160.742 39.0625C165.5 34.3695 170.188 29.6169 174.805 24.8047C171.243 23.3495 167.727 21.787 164.258 20.1172C174.438 14.6373 184.595 9.16852 194.727 3.71094Z" fill="#FE973B"/>
<path fill-rule="evenodd" clip-rule="evenodd" d="M112.304 37.3047C112.37 44.3371 112.304 51.3684 112.109 58.3984C109.443 56.2523 106.383 55.4711 102.929 56.0547C102.76 51.5977 102.956 47.1703 103.515 42.7734C105.244 39.0123 108.174 37.1894 112.304 37.3047Z" fill="#E4CBF5"/>
<path opacity="0.996" fill-rule="evenodd" clip-rule="evenodd" d="M47.0703 46.2891C47.5359 60.7082 45.7129 74.9008 41.6016 88.8672C41.341 88.8672 41.2109 88.9973 41.2109 89.2578C31.3738 90.6105 21.9988 89.1129 13.0859 84.7656C9.27512 82.4496 5.88973 79.65 2.92969 76.3672C3.24351 58.7477 11.9675 47.8754 29.1016 43.75C32.487 43.4895 35.8724 43.4895 39.2578 43.75C42.0426 44.1793 44.6465 45.0258 47.0703 46.2891Z" fill="#7C48DA"/>
<path opacity="0.998" fill-rule="evenodd" clip-rule="evenodd" d="M131.055 43.5547C130.989 55.6648 131.055 67.7742 131.25 79.8828C133.158 83.668 136.218 85.1 140.43 84.1797C140.43 75.9766 140.43 67.7734 140.43 59.5703C142.034 55.2348 145.159 53.0215 149.805 52.9297C149.739 65.0398 149.805 77.1492 150 89.2578C151.908 93.043 154.968 94.475 159.18 93.5547C158.531 99.1512 155.406 102.276 149.805 102.93C145.061 102.549 142.002 100.075 140.625 95.5078C140.077 102.7 136.235 106.15 129.102 105.859C122.93 103.539 120.391 99.0465 121.484 92.3828C119.13 98.9422 114.638 101.091 108.008 98.8281C105.482 97.3461 103.855 95.1977 103.125 92.3828C102.93 86.525 102.864 80.6656 102.93 74.8047C98.7609 74.7395 94.5941 74.8047 90.4297 75C87.3207 79.9805 84.2609 84.9934 81.25 90.0391C80.948 91.8953 81.0129 93.7184 81.4453 95.5078C80.9945 98.0418 80.9293 100.646 81.25 103.32C81.9016 104.821 82.8781 106.058 84.1797 107.031C95.8211 109.802 101.095 117.159 100 129.102C100.507 131.433 101.874 133.061 104.102 133.984C105.789 134.179 107.482 134.245 109.18 134.18C109.18 136.263 109.18 138.346 109.18 140.43C101.847 141.291 94.5555 142.333 87.3047 143.555C82.7914 140.545 78.4297 137.289 74.2188 133.789C68.0633 122.497 62.0086 111.169 56.0547 99.8047C62.023 100.663 66.1246 98.3195 68.3594 92.7734C68.4254 89.7703 68.6207 86.7754 68.9453 83.7891C75.1145 77.8156 81.234 71.7609 87.3047 65.625C93.2941 65.4949 99.284 65.3645 105.273 65.2344C108.675 64.4492 111.409 62.6914 113.477 59.9609C115.706 62.9809 116.031 66.2359 114.453 69.7266C111.807 72.7973 112.263 75.3363 115.82 77.3438C117.735 77.8613 119.688 78.0566 121.68 77.9297C121.68 68.6848 121.68 59.4402 121.68 50.1953C123.284 45.8598 126.409 43.6465 131.055 43.5547Z" fill="#E3CAF4"/>
<path opacity="0.997" fill-rule="evenodd" clip-rule="evenodd" d="M131.055 43.5547C135.692 43.5672 138.752 45.7805 140.234 50.1953C140.43 53.3176 140.495 56.4426 140.43 59.5703C140.43 67.7734 140.43 75.9766 140.43 84.1797C136.218 85.1 133.158 83.668 131.25 79.8828C131.055 67.7742 130.99 55.6648 131.055 43.5547Z" fill="#F3E5FE"/>
<path opacity="0.997" fill-rule="evenodd" clip-rule="evenodd" d="M47.0703 46.2891C52.1723 48.2703 56.2086 51.5254 59.1797 56.0547C63.2812 61.4578 65.3645 67.5777 65.4297 74.4141C62.8395 77.2 60.1703 79.9344 57.4219 82.6172C56.9945 83.2336 56.6688 83.8848 56.4453 84.5703C51.7938 86.9707 46.8461 88.4031 41.6016 88.8672C45.7129 74.9008 47.5359 60.7082 47.0703 46.2891Z" fill="#EF4B59"/>
<path fill-rule="evenodd" clip-rule="evenodd" d="M29.4922 46.6797C38.4857 44.9301 41.9363 48.4457 39.8438 57.2266C38.1557 61.6484 34.9656 64.1875 30.2734 64.8438C25.9422 65.9531 21.7755 65.5625 17.7734 63.6719C14.743 60.3309 14.6779 56.8805 17.5781 53.3203C20.9218 49.9246 24.8932 47.7109 29.4922 46.6797Z" fill="#A677FE"/>
<path opacity="0.997" fill-rule="evenodd" clip-rule="evenodd" d="M149.805 52.9297C154.442 52.9422 157.502 55.1555 158.984 59.5703C159.18 67.7723 159.245 75.9754 159.18 84.1797C159.18 87.3047 159.18 90.4297 159.18 93.5547C154.968 94.475 151.908 93.043 150 89.2578C149.805 77.1492 149.74 65.0398 149.805 52.9297Z" fill="#F3E5FE"/>
<path fill-rule="evenodd" clip-rule="evenodd" d="M112.305 37.3047C116.942 37.317 120.001 39.5305 121.484 43.9453C121.679 46.0246 121.744 48.1078 121.68 50.1953C121.68 59.4402 121.68 68.6848 121.68 77.9297C119.688 78.0566 117.735 77.8613 115.82 77.3438C112.263 75.3363 111.807 72.7973 114.453 69.7266C116.031 66.2359 115.706 62.9809 113.476 59.9609C111.409 62.6914 108.675 64.4492 105.273 65.2344C99.2838 65.3645 93.294 65.4949 87.3045 65.625C81.2338 71.7609 75.1143 77.8156 68.9452 83.7891C68.6206 86.7754 68.4252 89.7703 68.3592 92.7734C66.1245 98.3195 62.0229 100.663 56.0545 99.8047C56.0545 98.8934 56.0545 97.9816 56.0545 97.0703C55.9424 92.8836 56.0725 88.7168 56.4452 84.5703C56.6686 83.8848 56.9944 83.2336 57.4217 82.6172C60.1702 79.9344 62.8393 77.2 65.4295 74.4141C69.7264 70.3777 73.8932 66.2109 77.9295 61.9141C79.9338 60.1055 81.887 58.2176 83.7889 56.25C87.5627 56.0547 91.3389 55.9898 95.117 56.0547C97.7213 56.0547 100.325 56.0547 102.93 56.0547C106.383 55.4711 109.443 56.2523 112.109 58.3984C112.305 51.3684 112.37 44.3371 112.305 37.3047Z" fill="#F3E5FE"/>
<path opacity="0.986" fill-rule="evenodd" clip-rule="evenodd" d="M59.1797 56.0547C65.3547 57.5656 71.4746 59.2586 77.5391 61.1328C77.6691 61.3934 77.7996 61.6535 77.9297 61.9141C73.8934 66.2109 69.7266 70.3777 65.4297 74.4141C65.3645 67.5777 63.2812 61.4578 59.1797 56.0547Z" fill="#5163F6"/>
<path fill-rule="evenodd" clip-rule="evenodd" d="M159.18 93.5547C159.18 90.4297 159.18 87.3047 159.18 84.1797C171.567 87.6144 183.937 91.1301 196.289 94.7266C196.731 95.3414 196.796 95.9926 196.484 96.6797C195.506 100.333 194.53 103.979 193.555 107.617C185.866 105.923 178.184 104.165 170.508 102.344C162.28 100.865 157.723 104.316 156.836 112.695C157.008 113.179 157.269 113.57 157.617 113.867C139.249 111.305 120.89 108.701 102.539 106.055C97.451 101.6 91.4616 99.3211 84.5702 99.2187C83.0194 98.3863 81.9776 97.1492 81.4452 95.5078C81.0127 93.7184 80.9479 91.8953 81.2499 90.0391C84.2608 84.9934 87.3206 79.9805 90.4295 75C94.594 74.8047 98.7608 74.7394 102.93 74.8047C102.864 80.6656 102.93 86.525 103.125 92.3828C103.855 95.1977 105.482 97.3461 108.008 98.8281C114.638 101.091 119.13 98.9422 121.484 92.3828C120.391 99.0465 122.93 103.539 129.101 105.859C136.235 106.15 140.076 102.7 140.625 95.5078C142.001 100.075 145.061 102.549 149.805 102.93C155.406 102.276 158.531 99.1512 159.18 93.5547Z" fill="#463A9F"/>
<path opacity="0.999" fill-rule="evenodd" clip-rule="evenodd" d="M2.92969 76.3672C5.88973 79.65 9.27512 82.4496 13.0859 84.7656C21.9988 89.1129 31.3738 90.6105 41.2109 89.2578C39.051 95.5359 35.7958 101.135 31.4453 106.055C16.8852 104.061 7.57527 95.9879 3.51562 81.8359C3.12735 80.032 2.93204 78.209 2.92969 76.3672Z" fill="#4B4AD0"/>
<path fill-rule="evenodd" clip-rule="evenodd" d="M56.4453 84.5703C56.0727 88.7168 55.9426 92.8836 56.0547 97.0703C49.2176 103.674 41.0145 106.669 31.4453 106.055C35.7958 101.135 39.051 95.5359 41.2109 89.2578C41.2109 88.9973 41.341 88.8672 41.6016 88.8672C46.8461 88.4031 51.7938 86.9707 56.4453 84.5703Z" fill="#BC2F63"/>
<path fill-rule="evenodd" clip-rule="evenodd" d="M81.4455 95.5078C81.9779 97.1492 83.0197 98.3863 84.5705 99.2188C91.4619 99.3211 97.4514 101.6 102.539 106.055C105.558 108.964 107.576 112.479 108.594 116.602C109.147 122.441 109.342 128.301 109.18 134.18C107.482 134.245 105.79 134.179 104.102 133.984C101.874 133.061 100.507 131.433 100 129.102C101.095 117.159 95.8213 109.802 84.1799 107.031C82.8783 106.058 81.9018 104.821 81.2502 103.32C80.9295 100.646 80.9947 98.0418 81.4455 95.5078Z" fill="#F0DDFE"/>
<path opacity="0.989" fill-rule="evenodd" clip-rule="evenodd" d="M193.555 107.617C192.521 111.23 191.61 114.876 190.82 118.555C180.248 117.305 169.701 115.873 159.18 114.258C158.763 113.893 158.242 113.763 157.617 113.867C157.269 113.57 157.009 113.179 156.836 112.695C157.723 104.316 162.28 100.865 170.508 102.344C178.184 104.165 185.866 105.923 193.555 107.617Z" fill="#4F63F6"/>
<path fill-rule="evenodd" clip-rule="evenodd" d="M102.539 106.055C120.89 108.701 139.25 111.305 157.617 113.867C158.242 113.762 158.763 113.893 159.18 114.258C159.245 115.955 159.179 117.648 158.984 119.336C158.747 119.948 158.421 120.469 158.008 120.898C150.517 120.625 143.03 120.234 135.547 119.727C128.621 119.352 124.064 122.477 121.875 129.102C121.557 134.6 121.622 140.068 122.07 145.508C117.728 143.922 113.431 142.23 109.18 140.43C109.18 138.346 109.18 136.263 109.18 134.18C109.342 128.301 109.147 122.441 108.594 116.602C107.576 112.479 105.558 108.964 102.539 106.055Z" fill="#B6A2C4"/>
<path opacity="0.961" fill-rule="evenodd" clip-rule="evenodd" d="M4.49241 109.18C5.54214 109.116 6.58382 109.181 7.61741 109.375C22.8525 117.068 37.8915 125.076 52.7346 133.398C53.3182 135.362 52.8623 136.989 51.3674 138.281C47.9819 139.714 44.5967 141.146 41.2112 142.578C47.0053 148.372 52.7998 154.167 58.594 159.961C59.4178 161.633 59.3526 163.261 58.3987 164.844C56.1873 165.739 54.1041 165.479 52.1487 164.063C36.4933 155.291 20.9334 146.372 5.46898 137.305C4.64839 135.761 4.71351 134.264 5.66429 132.813C9.75257 131.4 13.9192 130.228 18.1643 129.297C13.2815 124.414 8.39866 119.531 3.51585 114.648C2.50984 112.513 2.83536 110.69 4.49241 109.18Z" fill="#F5843C"/>
<path opacity="0.999" fill-rule="evenodd" clip-rule="evenodd" d="M7.22656 113.477C7.70355 113.1 8.22437 113.165 8.78906 113.672C22.3307 120.833 35.8724 127.995 49.4141 135.156C44.743 137.343 40.0555 139.491 35.3516 141.602C41.6613 148.107 48.0414 154.552 54.4922 160.937C38.9723 152.73 23.6078 144.136 8.39844 135.156C13.9053 133.845 19.374 132.412 24.8047 130.859C18.9968 124.986 13.1375 119.192 7.22656 113.477Z" fill="#FE973B"/>
<path opacity="0.998" fill-rule="evenodd" clip-rule="evenodd" d="M158.008 120.898C155.97 125.365 153.822 129.792 151.562 134.18C150.424 137.198 149.838 140.323 149.804 143.555C146.148 145.38 142.242 146.357 138.086 146.484C132.683 146.948 127.345 146.622 122.07 145.508C121.622 140.068 121.557 134.6 121.875 129.102C124.063 122.477 128.62 119.352 135.547 119.727C143.03 120.234 150.517 120.625 158.008 120.898Z" fill="#CEB7DD"/>
<path fill-rule="evenodd" clip-rule="evenodd" d="M109.18 140.43C113.431 142.23 117.728 143.922 122.07 145.508C127.345 146.622 132.684 146.948 138.086 146.484C142.242 146.357 146.148 145.38 149.805 143.555C149.805 145.638 149.805 147.721 149.805 149.805C148.244 150.782 146.551 151.498 144.727 151.953C138.643 152.905 132.523 153.165 126.367 152.734C121.793 151.514 117.236 150.212 112.695 148.828C108.561 148.018 104.394 147.758 100.195 148.047C95.9023 148.688 91.6055 149.274 87.3047 149.805C87.3047 147.721 87.3047 145.638 87.3047 143.555C94.5555 142.333 101.847 141.291 109.18 140.43Z" fill="#9B8AA6"/>
<path fill-rule="evenodd" clip-rule="evenodd" d="M149.805 149.805C149.805 152.93 149.805 156.055 149.805 159.18C148.763 159.18 147.721 159.18 146.68 159.18C127.93 159.18 109.18 159.18 90.4297 159.18C89.3879 159.18 88.3465 159.18 87.3047 159.18C87.3047 156.055 87.3047 152.93 87.3047 149.805C91.6055 149.274 95.9023 148.688 100.195 148.047C104.394 147.758 108.561 148.018 112.695 148.828C117.236 150.212 121.793 151.514 126.367 152.734C132.523 153.165 138.643 152.905 144.727 151.953C146.551 151.498 148.244 150.782 149.805 149.805Z" fill="#B6A2C3"/>
<path fill-rule="evenodd" clip-rule="evenodd" d="M87.3045 159.18C88.3463 159.18 89.3877 159.18 90.4295 159.18C90.4295 162.305 90.4295 165.43 90.4295 168.555C87.5139 170.47 84.519 172.293 81.4451 174.023C81.06 172.277 80.9299 170.454 81.0545 168.555C81.0545 165.43 81.0545 162.305 81.0545 159.18C83.1377 159.18 85.2213 159.18 87.3045 159.18Z" fill="#4B3EA8"/>
<path fill-rule="evenodd" clip-rule="evenodd" d="M90.4297 159.18C109.18 159.18 127.93 159.18 146.68 159.18C146.68 162.305 146.68 165.43 146.68 168.555C139.477 169.676 136.482 173.843 137.695 181.055C137.2 183.002 137.2 184.955 137.695 186.914C134.323 187.257 130.937 187.387 127.539 187.305C128.009 185.213 128.009 183.129 127.539 181.055C128.754 173.846 125.759 169.68 118.555 168.555C111.35 169.68 108.355 173.846 109.57 181.055C109.1 183.129 109.1 185.213 109.57 187.305C106.164 187.412 102.779 187.282 99.4141 186.914C99.9098 184.955 99.9098 183.002 99.4141 181.055C100.628 173.843 97.6328 169.676 90.4297 168.555C90.4297 165.43 90.4297 162.305 90.4297 159.18Z" fill="#5064F6"/>
<path fill-rule="evenodd" clip-rule="evenodd" d="M146.68 159.18C147.721 159.18 148.763 159.18 149.805 159.18C151.888 159.18 153.971 159.18 156.055 159.18C156.055 162.305 156.055 165.43 156.055 168.555C156.179 170.454 156.049 172.277 155.664 174.023C152.59 172.293 149.595 170.47 146.68 168.555C146.68 165.43 146.68 162.305 146.68 159.18Z" fill="#4B3EA8"/>
<path opacity="0.962" fill-rule="evenodd" clip-rule="evenodd" d="M81.0547 168.555C80.9301 170.454 81.0602 172.277 81.4453 174.023C79.2543 175.121 77.1711 176.423 75.1953 177.93C77.1711 179.437 79.2543 180.739 81.4453 181.836C81.0602 183.582 80.9301 185.405 81.0547 187.305C72.6313 184.41 64.298 181.285 56.0547 177.93C64.298 174.574 72.6313 171.449 81.0547 168.555Z" fill="#C3B7DE"/>
<path opacity="0.966" fill-rule="evenodd" clip-rule="evenodd" d="M156.055 168.555C164.478 171.449 172.811 174.574 181.055 177.93C172.811 181.285 164.478 184.41 156.055 187.305C156.179 185.405 156.049 183.582 155.664 181.836C157.855 180.739 159.938 179.437 161.914 177.93C159.938 176.423 157.855 175.121 155.664 174.023C156.049 172.277 156.179 170.454 156.055 168.555Z" fill="#C4B7DD"/>
<path fill-rule="evenodd" clip-rule="evenodd" d="M90.4297 168.555C97.6328 169.676 100.628 173.843 99.4141 181.055C97.8043 184.676 95.0051 186.76 91.0156 187.305C87.7895 185.529 84.5992 183.706 81.4453 181.836C79.2543 180.739 77.1711 179.437 75.1953 177.93C77.1711 176.423 79.2543 175.121 81.4453 174.023C84.5191 172.293 87.5141 170.47 90.4297 168.555Z" fill="#E0D2FE"/>
<path fill-rule="evenodd" clip-rule="evenodd" d="M127.539 181.055C124.193 187.198 119.375 188.696 113.086 185.547C111.52 184.312 110.348 182.815 109.57 181.055C108.355 173.846 111.35 169.68 118.555 168.555C125.759 169.68 128.754 173.846 127.539 181.055Z" fill="#DFD1FE"/>
<path fill-rule="evenodd" clip-rule="evenodd" d="M146.679 168.555C149.595 170.47 152.59 172.293 155.664 174.023C157.855 175.121 159.938 176.423 161.914 177.93C159.938 179.437 157.855 180.739 155.664 181.836C152.468 183.76 149.213 185.582 145.898 187.305C142.018 186.675 139.284 184.591 137.695 181.055C136.481 173.843 139.476 169.676 146.679 168.555Z" fill="#E0D2FE"/>
<path fill-rule="evenodd" clip-rule="evenodd" d="M99.4139 181.055C99.9096 183.002 99.9096 184.955 99.4139 186.914C97.9651 190.766 95.1654 192.979 91.0154 193.555C87.6471 191.813 84.3268 189.99 81.0545 188.086C81.0545 187.825 81.0545 187.565 81.0545 187.305C80.9299 185.405 81.06 183.582 81.4451 181.836C84.599 183.706 87.7893 185.529 91.0154 187.305C95.0049 186.76 97.8041 184.676 99.4139 181.055Z" fill="#291242"/>
<path fill-rule="evenodd" clip-rule="evenodd" d="M109.571 181.055C110.348 182.815 111.52 184.312 113.086 185.547C119.376 188.696 124.193 187.198 127.539 181.055C128.01 183.129 128.01 185.213 127.539 187.305C123.924 193.955 118.846 195.322 112.305 191.406C111.153 190.191 110.242 188.824 109.571 187.305C109.1 185.213 109.1 183.129 109.571 181.055Z" fill="#291342"/>
<path fill-rule="evenodd" clip-rule="evenodd" d="M137.696 181.055C139.284 184.591 142.019 186.675 145.899 187.305C149.213 185.582 152.468 183.76 155.664 181.836C156.049 183.582 156.179 185.405 156.055 187.305C156.055 187.565 156.055 187.825 156.055 188.086C152.942 189.642 149.947 191.4 147.071 193.359C142.424 193.444 139.299 191.295 137.696 186.914C137.2 184.955 137.2 183.002 137.696 181.055Z" fill="#291242"/>
<path fill-rule="evenodd" clip-rule="evenodd" d="M99.4141 186.914C102.779 187.282 106.164 187.412 109.57 187.305C110.242 188.824 111.153 190.191 112.305 191.406C118.846 195.322 123.924 193.955 127.539 187.305C130.937 187.387 134.323 187.257 137.695 186.914C139.299 191.295 142.424 193.444 147.07 193.359C149.947 191.4 152.942 189.642 156.055 188.086C156.055 190.95 156.055 193.815 156.055 196.68C131.055 196.68 106.055 196.68 81.0547 196.68C81.0547 193.815 81.0547 190.95 81.0547 188.086C84.327 189.99 87.6473 191.813 91.0156 193.555C95.1656 192.979 97.9652 190.766 99.4141 186.914Z" fill="#4A3DA7"/>
</g>
<defs>
<clipPath id="clip0_2981_2759">
<rect width="200" height="200" fill="white"/>
</clipPath>
</defs>
</svg>
