<svg width="200" height="200" viewBox="0 0 200 200" fill="none" xmlns="http://www.w3.org/2000/svg">
<path opacity="0.953" fill-rule="evenodd" clip-rule="evenodd" d="M168.555 24.8046C167.836 24.153 167.055 23.5671 166.211 23.0468C163.337 23.0948 160.473 23.225 157.617 23.4374C157.259 23.2912 156.934 23.0959 156.641 22.8514C155.885 20.4033 154.258 18.9059 151.758 18.3593C148.044 18.1445 144.333 18.2096 140.625 18.5546C135.527 18.4032 130.644 17.2964 125.977 15.2343C123.043 13.5721 120.048 12.0096 116.992 10.5468C115.107 9.80664 113.154 9.48113 111.133 9.57019C112.521 8.99035 114.019 8.72992 115.625 8.78894C117.527 8.84632 119.415 9.04164 121.289 9.37488C127.703 11.2146 134.083 13.1677 140.43 15.2343C144.86 15.3332 149.287 15.3332 153.711 15.2343C155.776 16.3876 157.469 17.9501 158.789 19.9218C161.054 20.8182 163.398 21.4692 165.82 21.8749C167.351 22.2979 168.263 23.2745 168.555 24.8046Z" fill="#242021"/>
<path fill-rule="evenodd" clip-rule="evenodd" d="M111.132 9.57024C113.154 9.48118 115.107 9.80669 116.992 10.5468C120.048 12.0097 123.043 13.5722 125.976 15.2343C130.644 17.2965 135.527 18.4032 140.625 18.5546C144.332 18.2097 148.043 18.1445 151.757 18.3593C154.257 18.9059 155.885 20.4033 156.64 22.8515C156.933 23.0959 157.259 23.2913 157.617 23.4374C160.472 23.2251 163.337 23.0948 166.211 23.0468C167.054 23.5671 167.836 24.1531 168.554 24.8046C169.89 26.9124 170.931 29.126 171.679 31.4452C171.486 34.8864 170.965 38.2718 170.117 41.6015C169.728 41.5679 169.402 41.6984 169.14 41.9921C168.638 43.7874 168.313 45.6105 168.164 47.4609C168.199 50.8722 167.939 54.2577 167.382 57.6171C166.992 57.6171 166.601 57.6171 166.211 57.6171C166.11 59.596 165.849 61.5491 165.429 63.4765C165.608 63.7882 165.868 63.9183 166.211 63.8671C166.211 63.9972 166.211 64.1277 166.211 64.2577C165.579 64.6831 165.254 65.3343 165.234 66.2109C164.98 68.6823 164.784 71.1562 164.648 73.6327C165.039 73.6327 165.429 73.6327 165.82 73.6327C165.82 73.7628 165.82 73.8933 165.82 74.0234C165.429 74.0234 165.039 74.0234 164.648 74.0234C164.766 75.9491 164.636 77.837 164.257 79.6874C164.741 79.7781 165.131 79.9734 165.429 80.2734C165.039 80.2734 164.648 80.2734 164.257 80.2734C164.193 83.5312 164.257 86.7863 164.453 90.039C164.535 89.4304 164.73 88.9097 165.039 88.4765C165.039 88.9972 165.039 89.5183 165.039 90.039C164.553 91.2378 164.293 92.5398 164.257 93.9452C164.345 95.9038 164.475 97.857 164.648 99.8046C165.152 99.712 165.543 99.8421 165.82 100.195C165.944 101.966 165.814 103.659 165.429 105.273C165.557 103.561 165.426 101.868 165.039 100.195C164.909 101.237 164.778 102.278 164.648 103.32C164.568 104.871 164.828 106.303 165.429 107.617C165.175 108.373 165.045 109.154 165.039 109.961C165.092 111.153 164.961 112.325 164.648 113.476C164.821 113.96 165.081 114.351 165.429 114.648C165.554 116.419 165.424 118.112 165.039 119.726C165.315 113.157 164.794 113.026 163.476 119.336C161.656 122.63 159.313 125.56 156.445 128.125C142.819 138.886 128.757 149.043 114.257 158.594C107.304 162.318 99.8817 164.401 91.9919 164.844C79.1512 166.316 66.5208 165.274 54.1012 161.719C48.2122 159.712 42.3528 157.629 36.5231 155.469C32.7915 153.885 30.1873 151.216 28.7106 147.461C27.0153 139.979 29.2289 133.924 35.3512 129.297C37.4108 128.025 39.6243 127.178 41.9919 126.758C42.4509 126.672 42.8415 126.802 43.1637 127.148C44.8591 134.905 49.4165 140.178 56.8356 142.969C72.3727 147.547 87.3466 146.115 101.757 138.672C106.06 136.257 109.836 133.197 113.086 129.492C115.764 131.057 118.498 132.554 121.289 133.984C123.386 134.645 124.949 134.059 125.976 132.226C128.372 134.738 131.366 135.714 134.961 135.156C136.847 135.368 138.67 135.823 140.429 136.523C141.177 130.138 139.615 124.409 135.742 119.336C136.289 118.017 136.224 116.715 135.547 115.43C133.188 113.264 130.779 111.181 128.32 109.18C127.263 108.264 126.221 107.353 125.195 106.445C126.075 103.738 126.856 101.004 127.539 98.2421C130.275 99.871 133.14 101.303 136.132 102.539C137.858 102.27 139.03 101.359 139.648 99.8046C140.357 100.444 141.139 101.03 141.992 101.562C145.441 101.594 148.827 102.05 152.148 102.93C152.174 98.3886 151.197 94.0917 149.218 90.039C148.922 89.4284 148.466 89.0378 147.851 88.8671C148.503 88.1484 149.089 87.3671 149.609 86.5234C149.87 85.8722 149.87 85.2214 149.609 84.5702C148.672 83.046 147.435 81.8741 145.898 81.0546C143.207 78.1695 140.213 75.6304 136.914 73.4374C134.648 72.8792 132.956 73.5952 131.836 75.5859C131.725 75.0866 131.465 74.696 131.054 74.414C131.7 71.5054 132.091 68.5109 132.226 65.4296C133.791 67.0523 135.224 68.8101 136.523 70.703C139.907 71.0937 141.274 69.5964 140.625 66.2109C139.894 65.2273 138.918 64.7062 137.695 64.6484C136.568 64.8972 135.526 65.2226 134.57 65.6249C132.526 63.6159 130.573 61.5327 128.711 59.3749C131.146 58.7499 133.555 58.0335 135.937 57.2265C136.639 57.7952 137.356 58.3812 138.086 58.9843C141.276 59.4402 142.643 58.073 142.187 54.8827C141.318 53.1792 139.95 52.5933 138.086 53.1249C136.993 53.6792 136.212 54.5253 135.742 55.664C134.103 56.3667 132.41 56.8874 130.664 57.2265C130.275 57.2601 129.949 57.1296 129.687 56.8359C129.143 55.357 128.492 53.9249 127.734 52.539C125.12 48.6101 122.711 44.5738 120.507 40.4296C121.686 40.4941 122.858 40.4288 124.023 40.2343C124.544 39.8437 124.544 39.4531 124.023 39.0624C121.609 38.9951 119.265 38.7998 116.992 38.4765C117.69 38.5879 118.341 38.4577 118.945 38.0859C118.258 36.5805 117.477 35.1482 116.601 33.789C120.389 33.2598 124.165 32.8041 127.929 32.4218C131.484 35.1941 134.804 38.254 137.89 41.6015C138.994 45.4304 141.077 46.0816 144.14 43.5546C144.824 41.0124 143.913 39.4499 141.406 38.8671C140.264 38.9824 139.352 39.5034 138.672 40.4296C136.022 37.2549 133.092 34.3904 129.882 31.8359C132.98 30.912 136.04 29.8703 139.062 28.7109C139.756 29.0118 140.341 29.4675 140.82 30.0781C144.534 30.662 145.902 29.1646 144.922 25.5859C143.785 24.4554 142.418 24.1299 140.82 24.6093C139.878 25.4182 139.097 26.3297 138.476 27.3437C135.096 28.6875 131.646 29.7942 128.125 30.664C122.294 26.8697 116.109 23.7447 109.57 21.289C108.485 19.147 107.508 16.9335 106.64 14.6484C106.383 13.3249 106.448 12.0228 106.836 10.7421C108.057 9.74407 109.49 9.35344 111.132 9.57024Z" fill="#6A676C"/>
<path opacity="0.966" fill-rule="evenodd" clip-rule="evenodd" d="M106.836 10.7422C106.448 12.0229 106.383 13.325 106.641 14.6484C107.509 16.9336 108.485 19.1471 109.57 21.2891C107.036 20.283 104.432 19.5018 101.758 18.9453C102.561 15.6439 104.254 12.9095 106.836 10.7422Z" fill="#8E8B92"/>
<path fill-rule="evenodd" clip-rule="evenodd" d="M109.18 13.8673C114.791 13.8256 120.129 14.9974 125.196 17.3829C125.542 17.7052 125.672 18.0958 125.586 18.5548C123.311 18.0699 121.097 17.3538 118.946 16.4063C115.59 15.759 112.204 15.4334 108.789 15.4298C108.763 14.86 108.893 14.3391 109.18 13.8673Z" fill="#494649"/>
<path opacity="0.999" fill-rule="evenodd" clip-rule="evenodd" d="M101.758 18.9453C104.432 19.5018 107.036 20.283 109.57 21.2891C116.109 23.7447 122.294 26.8697 128.125 30.6641C131.646 29.7943 135.096 28.6875 138.476 27.3438C139.097 26.3297 139.878 25.4183 140.82 24.6094C142.418 24.13 143.785 24.4555 144.922 25.5859C145.902 29.1646 144.535 30.662 140.82 30.0781C140.342 29.4676 139.756 29.0118 139.062 28.7109C136.04 29.8704 132.98 30.9121 129.883 31.8359C133.092 34.3904 136.022 37.255 138.672 40.4297C139.353 39.5035 140.264 38.9825 141.406 38.8672C143.913 39.45 144.825 41.0125 144.141 43.5547C141.078 46.0816 138.994 45.4305 137.891 41.6016C134.805 38.2541 131.484 35.1942 127.93 32.4219C124.166 32.8041 120.389 33.2599 116.601 33.7891C111.358 33.8213 106.15 33.4307 100.976 32.6172C100.121 32.1298 99.9909 31.4788 100.586 30.6641C105.562 31.9752 110.64 32.496 115.82 32.2266C119.124 32.0983 122.379 31.6425 125.586 30.8594C121.086 27.8284 116.269 25.4195 111.133 23.6328C107.892 22.3346 104.637 21.0325 101.367 19.7266C101.497 19.4661 101.628 19.2057 101.758 18.9453Z" fill="#DFE2EB"/>
<path opacity="0.987" fill-rule="evenodd" clip-rule="evenodd" d="M101.367 19.7266C104.637 21.0325 107.892 22.3346 111.133 23.6328C112.695 26.4974 114.258 29.362 115.82 32.2266C110.64 32.496 105.562 31.9752 100.586 30.6641C100.496 26.989 100.756 23.3432 101.367 19.7266Z" fill="#8D8A91"/>
<path fill-rule="evenodd" clip-rule="evenodd" d="M149.414 20.8984C152.508 20.8809 154.721 22.2481 156.055 24.9999C156.011 25.4998 155.75 25.8254 155.273 25.9765C153.948 23.74 151.995 22.4379 149.414 22.0702C149.414 21.6796 149.414 21.289 149.414 20.8984Z" fill="#4A4649"/>
<path fill-rule="evenodd" clip-rule="evenodd" d="M111.133 23.6328C116.269 25.4195 121.086 27.8284 125.586 30.8594C122.379 31.6425 119.124 32.0983 115.82 32.2266C114.258 29.362 112.695 26.4974 111.133 23.6328Z" fill="#6C696E"/>
<path fill-rule="evenodd" clip-rule="evenodd" d="M141.601 25.5859C144.001 25.7915 144.522 26.8982 143.164 28.9062C141.212 29.1657 140.496 28.3194 141.015 26.3672C141.295 26.1546 141.491 25.8942 141.601 25.5859Z" fill="#706E73"/>
<path fill-rule="evenodd" clip-rule="evenodd" d="M163.867 25.5859C167.004 26.2531 168.566 28.2063 168.555 31.4453C168.164 31.4453 167.773 31.4453 167.383 31.4453C167.202 29.1826 166.03 27.7503 163.867 27.1484C163.867 26.6276 163.867 26.1068 163.867 25.5859Z" fill="#494548"/>
<path fill-rule="evenodd" clip-rule="evenodd" d="M145.117 29.4921C147.461 29.4751 148.308 30.647 147.656 33.0078C146.423 34.1401 145.382 34.0099 144.531 32.6171C144.251 31.4815 144.446 30.4399 145.117 29.4921Z" fill="#CAC9CA"/>
<path opacity="0.997" fill-rule="evenodd" clip-rule="evenodd" d="M100.977 32.6172C106.15 33.4307 111.358 33.8213 116.602 33.7891C117.477 35.1482 118.259 36.5805 118.945 38.0859C118.342 38.4578 117.691 38.588 116.992 38.4766C112.498 38.0462 108.07 37.265 103.711 36.1328C103.625 36.5918 103.755 36.9824 104.102 37.3047C109.473 38.9 114.942 39.9418 120.508 40.4297C122.711 44.5738 125.12 48.6102 127.734 52.5391C128.493 53.925 129.143 55.357 129.688 56.8359C129.95 57.1297 130.275 57.2602 130.664 57.2266C129.427 57.6547 128.125 57.85 126.758 57.8125C119.043 50.5051 110.449 44.4504 100.977 39.6484C101.482 37.3167 101.482 34.9729 100.977 32.6172Z" fill="#8C8990"/>
<path fill-rule="evenodd" clip-rule="evenodd" d="M159.961 42.7734C159.677 41.8148 159.286 40.9035 158.789 40.039C158.789 37.4349 158.789 34.8307 158.789 32.2265C159.305 32.1601 159.761 32.2904 160.156 32.6172C160.478 36.0716 160.413 39.457 159.961 42.7734Z" fill="#4A4649"/>
<path fill-rule="evenodd" clip-rule="evenodd" d="M147.851 35.7422C147.538 35.1399 147.408 34.4889 147.46 33.7891C148.112 33.7891 148.762 33.7891 149.414 33.7891C149.704 35.1366 149.183 35.7876 147.851 35.7422Z" fill="#C5C4C6"/>
<path opacity="0.905" fill-rule="evenodd" clip-rule="evenodd" d="M171.68 31.4453C172.461 32.0219 173.112 32.738 173.633 33.5938C176.585 35.0038 179.449 36.5013 182.227 38.0859C179.094 38.9711 175.904 39.6223 172.656 40.0391C171.867 40.6289 171.021 41.1496 170.117 41.6016C170.965 38.2719 171.486 34.8864 171.68 31.4453Z" fill="#D7DBDE"/>
<path fill-rule="evenodd" clip-rule="evenodd" d="M147.852 35.7422C148.542 37.2699 148.021 37.9209 146.289 37.6953C146.289 37.0443 146.289 36.3932 146.289 35.7422C146.81 35.7422 147.331 35.7422 147.852 35.7422Z" fill="#C7C6C7"/>
<path fill-rule="evenodd" clip-rule="evenodd" d="M116.992 38.4766C119.265 38.7998 121.609 38.9952 124.023 39.0625C124.544 39.4531 124.544 39.8438 124.023 40.2344C122.859 40.4289 121.687 40.4941 120.508 40.4297C114.942 39.9418 109.473 38.9 104.102 37.3047C103.756 36.9824 103.625 36.5918 103.711 36.1328C108.07 37.265 112.498 38.0462 116.992 38.4766Z" fill="#4A464A"/>
<path fill-rule="evenodd" clip-rule="evenodd" d="M154.102 56.0547C153.711 56.0547 153.32 56.0547 152.93 56.0547C153.237 49.8562 152.717 43.7363 151.367 37.6953C151.884 37.6289 152.339 37.7591 152.734 38.0859C154.409 43.9879 154.865 49.9773 154.102 56.0547Z" fill="#494548"/>
<path fill-rule="evenodd" clip-rule="evenodd" d="M158.789 40.039C159.287 40.9035 159.677 41.8148 159.961 42.7734C160.464 43.6081 160.79 44.5195 160.938 45.5077C161.341 50.63 161.081 55.7081 160.156 60.7421C159.148 63.3156 157.39 64.032 154.883 62.8906C153.106 60.7992 152.846 58.5206 154.102 56.0546C155.012 54.755 155.728 53.323 156.25 51.7577C156.051 47.1898 155.79 42.6327 155.469 38.0859C155.879 37.6886 156.335 37.6235 156.836 37.8906C157.579 38.5662 158.23 39.2824 158.789 40.039Z" fill="#CCCBCC"/>
<path opacity="0.998" fill-rule="evenodd" clip-rule="evenodd" d="M100.977 39.6484C110.449 44.4504 119.043 50.5051 126.758 57.8125C128.126 57.85 129.428 57.6547 130.664 57.2266C132.41 56.8875 134.103 56.3668 135.742 55.6641C136.213 54.5254 136.994 53.6793 138.086 53.125C139.951 52.5934 141.318 53.1793 142.188 54.8828C142.644 58.073 141.276 59.4402 138.086 58.9844C137.356 58.3813 136.64 57.7953 135.938 57.2266C133.556 58.0336 131.147 58.75 128.711 59.375C130.574 61.5328 132.527 63.616 134.571 65.625C135.526 65.2227 136.568 64.8973 137.696 64.6484C138.918 64.7062 139.895 65.2273 140.625 66.2109C141.275 69.5965 139.908 71.0938 136.524 70.7031C135.224 68.8102 133.792 67.0523 132.227 65.4297C130.483 63.4902 128.66 61.6023 126.758 59.7656C117.983 60.343 109.259 59.8871 100.586 58.3984C100.233 58.1215 100.103 57.7309 100.196 57.2266C100.494 57.0613 100.82 56.9309 101.172 56.8359C109.115 58.2895 117.123 58.7453 125.196 58.2031C117.786 51.3746 109.583 45.7105 100.586 41.2109C99.5244 40.4598 99.6549 39.9391 100.977 39.6484Z" fill="#DFE2EB"/>
<path fill-rule="evenodd" clip-rule="evenodd" d="M140.43 40.4297C142.532 40.411 143.183 41.3875 142.383 43.3594C139.744 43.6547 139.093 42.6781 140.43 40.4297Z" fill="#6D6A6F"/>
<path opacity="0.994" fill-rule="evenodd" clip-rule="evenodd" d="M100.586 41.2109C109.582 45.7105 117.786 51.3746 125.195 58.2031C117.123 58.7453 109.115 58.2895 101.172 56.8359C100.82 56.9309 100.494 57.0613 100.195 57.2266C99.427 54.7246 98.7758 52.1855 98.2422 49.6094C98.6691 46.7027 99.4504 43.9031 100.586 41.2109Z" fill="#8D8A91"/>
<path fill-rule="evenodd" clip-rule="evenodd" d="M113.086 41.6016C115.303 41.5368 117.517 41.602 119.727 41.797C120.162 42.9274 119.707 43.3833 118.36 43.1641C116.735 42.9403 115.108 42.745 113.477 42.5782C113.183 42.3161 113.053 41.9907 113.086 41.6016Z" fill="#4A4649"/>
<path fill-rule="evenodd" clip-rule="evenodd" d="M164.258 41.6016C164.648 41.6016 165.039 41.6016 165.43 41.6016C165.455 45.9078 165.26 50.2047 164.844 54.4922C164.453 55.0129 164.062 55.0129 163.672 54.4922C163.698 50.1926 163.893 45.8957 164.258 41.6016Z" fill="#494549"/>
<path fill-rule="evenodd" clip-rule="evenodd" d="M101.758 48.6328C104.423 49.673 107.158 50.5195 109.961 51.1719C110.536 51.4492 110.797 51.9047 110.742 52.5391C107.482 52.2988 104.422 51.3871 101.563 49.8047C101.379 49.384 101.444 48.9934 101.758 48.6328Z" fill="#4C484B"/>
<path opacity="0.946" fill-rule="evenodd" clip-rule="evenodd" d="M168.164 47.4609C169.124 47.873 169.775 48.5891 170.117 49.6094C173.039 50.9414 176.034 52.048 179.102 52.9297C179.102 53.3203 179.102 53.7109 179.102 54.1016C175.716 54.7918 172.331 55.5078 168.945 56.25C168.6 56.9219 168.079 57.3773 167.383 57.6172C167.939 54.2578 168.2 50.8723 168.164 47.4609Z" fill="#D6DADE"/>
<path fill-rule="evenodd" clip-rule="evenodd" d="M138.086 54.4922C140.835 54.1419 141.486 55.1184 140.039 57.4219C137.807 57.5786 137.156 56.602 138.086 54.4922Z" fill="#6D6A6F"/>
<path opacity="0.996" fill-rule="evenodd" clip-rule="evenodd" d="M100.586 58.3984C109.259 59.8871 117.982 60.343 126.758 59.7656C128.66 61.6023 130.483 63.4902 132.227 65.4297C132.091 68.5109 131.7 71.5055 131.055 74.4141C121.518 69.607 111.492 66.4172 100.977 64.8438C99.7047 65.2797 98.6633 65.9957 97.8516 66.9922C97.591 67.1223 97.3309 67.2527 97.0703 67.3828C97.9461 65.5242 98.9227 63.7012 100 61.9141C100.449 60.784 100.644 59.6121 100.586 58.3984Z" fill="#8C8990"/>
<path fill-rule="evenodd" clip-rule="evenodd" d="M108.398 63.0859C112.278 63.7336 116.184 64.1242 120.117 64.2578C120.117 64.6484 120.117 65.0391 120.117 65.4297C116.063 65.6594 112.092 65.2687 108.203 64.2578C108.02 63.8371 108.085 63.4465 108.398 63.0859Z" fill="#4C484B"/>
<path fill-rule="evenodd" clip-rule="evenodd" d="M158.399 71.2891C158.873 70.2328 158.873 69.191 158.399 68.1641C158.399 66.6016 158.399 65.0391 158.399 63.4766C158.789 63.4766 159.18 63.4766 159.571 63.4766C160.347 72.8555 159.957 82.1656 158.399 91.4062C157.534 91.5844 157.144 91.1938 157.227 90.2344C158.206 83.9641 158.597 77.6488 158.399 71.2891Z" fill="#494548"/>
<path fill-rule="evenodd" clip-rule="evenodd" d="M166.211 64.2578C166.272 67.3941 166.142 70.5191 165.82 73.6328C165.43 73.6328 165.039 73.6328 164.648 73.6328C164.785 71.1562 164.98 68.6824 165.234 66.2109C165.254 65.3344 165.579 64.6832 166.211 64.2578Z" fill="#4A464A"/>
<path fill-rule="evenodd" clip-rule="evenodd" d="M131.055 74.4141C131.465 74.6961 131.726 75.0867 131.836 75.5859C131.63 76.2617 131.24 76.7828 130.664 77.1484C129.193 79.4453 127.63 81.6586 125.977 83.7891C118.167 85.5949 111.136 84.0977 104.883 79.2969C104.148 79.2195 103.497 79.0242 102.93 78.7109C104.486 78.6605 105.007 77.9441 104.492 76.5625C103.803 76.3125 103.152 76.3777 102.539 76.7578C101.99 76.573 101.729 76.1824 101.758 75.5859C102.859 74.773 103.119 73.7312 102.539 72.4609C101.327 71.8187 100.416 72.0793 99.8047 73.2422C99.0258 71.159 98.3746 69.0754 97.8516 66.9922C98.6633 65.9957 99.7047 65.2797 100.977 64.8438C111.492 66.4172 121.518 69.607 131.055 74.4141Z" fill="#474346"/>
<path fill-rule="evenodd" clip-rule="evenodd" d="M130.664 77.1484C121.827 72.8352 112.582 69.6449 102.93 67.5781C102.603 67.1832 102.473 66.7273 102.539 66.2109C112.106 67.9027 121.221 70.9625 129.883 75.3906C130.483 75.8242 130.744 76.4102 130.664 77.1484Z" fill="#262223"/>
<path fill-rule="evenodd" clip-rule="evenodd" d="M136.524 66.211C139.272 65.8606 139.924 66.8372 138.477 69.1407C136.246 69.3098 135.595 68.3333 136.524 66.211Z" fill="#6D6A6F"/>
<path opacity="0.93" fill-rule="evenodd" clip-rule="evenodd" d="M166.211 63.8672C167.117 64.4371 167.898 65.1531 168.555 66.0156C171.638 66.9344 174.632 68.041 177.539 69.3359C174.253 70.6797 170.868 71.7867 167.383 72.6562C167.147 73.4652 166.627 73.9211 165.82 74.0234C165.82 73.8934 165.82 73.7629 165.82 73.6328C166.142 70.5191 166.272 67.3941 166.211 64.2578C166.211 64.1277 166.211 63.9973 166.211 63.8672Z" fill="#D6DADD"/>
<path fill-rule="evenodd" clip-rule="evenodd" d="M158.399 68.164C158.873 69.191 158.873 70.2328 158.399 71.289C156.901 72.6828 155.273 72.8132 153.516 71.6796C152.46 69.6015 152.916 67.9738 154.883 66.7968C156.302 66.5941 157.474 67.0496 158.399 68.164Z" fill="#CBCACB"/>
<path fill-rule="evenodd" clip-rule="evenodd" d="M97.8516 66.9922C98.3746 69.0754 99.0258 71.159 99.8047 73.2422C99.6168 74.7457 100.268 75.527 101.758 75.5859C101.729 76.1824 101.99 76.573 102.539 76.7578C101.944 77.5727 102.074 78.2234 102.93 78.7109C103.497 79.0242 104.148 79.2195 104.883 79.2969C111.136 84.0977 118.167 85.5949 125.977 83.7891C125.575 84.577 125.184 85.3582 124.805 86.1328C122.869 87.8937 121.827 90.1074 121.68 92.7734C113.456 92.2484 105.773 89.9695 98.6328 85.9375C97.3516 84.8535 96.3102 83.6164 95.5078 82.2266C93.6164 76.9863 94.1371 72.0383 97.0703 67.3828C97.3309 67.2527 97.591 67.1223 97.8516 66.9922Z" fill="#252122"/>
<path fill-rule="evenodd" clip-rule="evenodd" d="M101.758 75.5858C100.268 75.5268 99.6171 74.7456 99.805 73.2421C100.416 72.0792 101.327 71.8186 102.539 72.4608C103.119 73.7311 102.859 74.7729 101.758 75.5858Z" fill="#B9B7B8"/>
<path fill-rule="evenodd" clip-rule="evenodd" d="M145.898 81.0547C145.545 82.7739 144.894 84.3364 143.945 85.7422C141.539 83.0086 138.74 80.795 135.547 79.1016C133.657 80.0032 132.289 81.4352 131.445 83.3985C129.858 85.1356 128.555 87.0887 127.539 89.2579C126.348 88.4575 125.436 87.4157 124.805 86.1329C125.184 85.3583 125.575 84.577 125.977 83.7891C127.63 81.6586 129.193 79.4454 130.664 77.1485C131.24 76.7829 131.63 76.2618 131.836 75.586C132.956 73.5954 134.648 72.8793 136.914 73.4375C140.213 75.6305 143.208 78.1696 145.898 81.0547Z" fill="#E4E7F1"/>
<path fill-rule="evenodd" clip-rule="evenodd" d="M107.226 73.6328C111.216 74.2398 115.122 75.2164 118.945 76.5625C119.272 76.9574 119.402 77.4133 119.336 77.9297C115.448 76.9164 111.541 75.9398 107.617 75C106.747 74.725 106.617 74.2691 107.226 73.6328Z" fill="#262223"/>
<path fill-rule="evenodd" clip-rule="evenodd" d="M102.93 78.711C102.074 78.2235 101.944 77.5727 102.539 76.7579C103.151 76.3778 103.803 76.3125 104.492 76.5625C105.007 77.9442 104.486 78.6606 102.93 78.711Z" fill="#B7B6B7"/>
<path fill-rule="evenodd" clip-rule="evenodd" d="M100.195 77.9297C100.585 77.9297 100.976 77.9297 101.367 77.9297C101.657 79.2773 101.136 79.9281 99.8042 79.8828C99.7519 79.1828 99.882 78.532 100.195 77.9297Z" fill="#A9A7A7"/>
<path fill-rule="evenodd" clip-rule="evenodd" d="M107.227 77.9297C110.64 78.718 114.025 79.6293 117.383 80.6641C117.491 81.3852 117.231 81.9062 116.602 82.2266C113.564 80.9969 110.439 80.0852 107.227 79.4922C107.227 78.9715 107.227 78.4504 107.227 77.9297Z" fill="#272324"/>
<path fill-rule="evenodd" clip-rule="evenodd" d="M143.945 85.7422C143.945 85.8723 143.945 86.0027 143.945 86.1328C141.954 84.8539 139.871 84.3332 137.695 84.5703C136.128 82.8211 134.305 82.5605 132.227 83.7891C132.093 83.4617 131.833 83.3313 131.445 83.3984C132.289 81.4352 133.657 80.0031 135.547 79.1016C138.74 80.7949 141.539 83.0086 143.945 85.7422Z" fill="#4B474A"/>
<path fill-rule="evenodd" clip-rule="evenodd" d="M165.43 80.2734C165.399 83.0137 165.269 85.748 165.039 88.4766C164.73 88.9098 164.535 89.4305 164.453 90.0391C164.258 86.7863 164.193 83.5312 164.258 80.2734C164.648 80.2734 165.039 80.2734 165.43 80.2734Z" fill="#4A4649"/>
<path fill-rule="evenodd" clip-rule="evenodd" d="M145.898 81.0547C147.435 81.8742 148.672 83.0461 149.609 84.5703C149.87 85.2215 149.87 85.8723 149.609 86.5234C149.089 87.3672 148.503 88.1484 147.852 88.8672C144.552 92.0789 141.817 95.7246 139.648 99.8047C139.03 101.359 137.858 102.27 136.133 102.539C133.141 101.304 130.276 99.8711 127.539 98.2422C125.165 96.8617 123.212 95.0387 121.68 92.7734C121.827 90.1074 122.869 87.8938 124.805 86.1328C125.436 87.4156 126.348 88.4574 127.539 89.2578C127.468 90.0746 127.598 90.8559 127.93 91.6016C130.259 93.7332 132.928 95.2957 135.938 96.2891C136.778 96.2332 137.429 95.8426 137.891 95.1172C139.393 92.1816 141.346 89.5773 143.75 87.3047C143.939 86.9344 144.004 86.5437 143.945 86.1328C143.945 86.0027 143.945 85.8723 143.945 85.7422C144.894 84.3363 145.545 82.7738 145.898 81.0547Z" fill="#DADBDE"/>
<path opacity="0.932" fill-rule="evenodd" clip-rule="evenodd" d="M165.43 80.2734C166.307 80.7047 167.023 81.3559 167.578 82.2266C170.479 83.259 173.409 84.1703 176.367 84.9609C176.367 85.3516 176.367 85.7422 176.367 86.1328C173.216 86.8559 170.091 87.702 166.992 88.6719C166.451 89.316 165.8 89.7719 165.039 90.0391C165.039 89.5184 165.039 88.9973 165.039 88.4766C165.269 85.748 165.399 83.0137 165.43 80.2734Z" fill="#D7DADE"/>
<path opacity="0.995" fill-rule="evenodd" clip-rule="evenodd" d="M95.5078 82.2266C96.3102 83.6164 97.3516 84.8535 98.6328 85.9375C105.773 89.9695 113.456 92.2484 121.68 92.7734C123.212 95.0387 125.165 96.8617 127.539 98.2422C126.857 101.004 126.075 103.738 125.195 106.445C124.202 105.788 123.095 105.398 121.875 105.273C121.024 105.232 120.308 105.493 119.727 106.055C119.76 105.666 119.63 105.34 119.336 105.078C110.275 100.278 100.769 96.6324 90.8203 94.1406C90.6031 93.991 90.4731 93.7957 90.4297 93.5547C90.4129 92.2227 90.6082 90.9207 91.0156 89.6484C92.4461 87.1164 93.9434 84.6426 95.5078 82.2266Z" fill="#8B888F"/>
<path fill-rule="evenodd" clip-rule="evenodd" d="M137.696 84.5703C138.135 88.1945 136.572 89.5617 133.008 88.6718C131.306 87.2593 131.046 85.6316 132.227 83.789C134.305 82.5605 136.128 82.821 137.696 84.5703Z" fill="#D9DCE5"/>
<path fill-rule="evenodd" clip-rule="evenodd" d="M131.446 83.3985C131.833 83.3313 132.093 83.4618 132.227 83.7891C131.046 85.6317 131.306 87.2594 133.008 88.6719C136.572 89.5618 138.135 88.1946 137.696 84.5704C139.871 84.3332 141.954 84.8539 143.946 86.1329C144.004 86.5438 143.939 86.9344 143.75 87.3047C141.346 89.5774 139.393 92.1817 137.891 95.1172C137.429 95.8426 136.778 96.2332 135.938 96.2891C132.928 95.2957 130.259 93.7332 127.93 91.6016C127.599 90.8559 127.468 90.0747 127.539 89.2579C128.556 87.0887 129.858 85.1356 131.446 83.3985Z" fill="#262224"/>
<path fill-rule="evenodd" clip-rule="evenodd" d="M134.18 84.1797C137.089 85.0879 137.219 86.2598 134.57 87.6953C132.687 86.7293 132.556 85.5574 134.18 84.1797Z" fill="#302C2E"/>
<path fill-rule="evenodd" clip-rule="evenodd" d="M95.1173 86.9141C98.5693 88.723 102.085 90.4809 105.664 92.1875C108.847 93.2605 112.102 94.0418 115.43 94.5312C115.902 95.5645 115.511 96.0203 114.258 95.8984C107.325 94.7414 101.01 92.1371 95.3126 88.0859C95.124 87.7156 95.0591 87.325 95.1173 86.9141Z" fill="#4C484B"/>
<path fill-rule="evenodd" clip-rule="evenodd" d="M147.852 88.8672C148.466 89.0379 148.922 89.4285 149.219 90.0391C151.197 94.0918 152.174 98.3887 152.148 102.93C148.827 102.05 145.442 101.595 141.992 101.562C141.139 101.03 140.358 100.444 139.648 99.8047C141.817 95.7246 144.552 92.0789 147.852 88.8672Z" fill="#262223"/>
<path fill-rule="evenodd" clip-rule="evenodd" d="M96.6797 91.6016C97.216 91.5403 97.7371 91.6055 98.2422 91.797C100.291 92.8868 102.374 93.8634 104.492 94.7266C104.341 95.2032 104.016 95.4637 103.516 95.5079C101.385 94.9309 99.3668 94.0845 97.4609 92.9688C96.9441 92.6501 96.684 92.1942 96.6797 91.6016Z" fill="#4B474A"/>
<path opacity="0.996" fill-rule="evenodd" clip-rule="evenodd" d="M90.4297 93.5546C90.473 93.7956 90.6031 93.991 90.8203 94.1406C100.769 96.6324 110.275 100.278 119.336 105.078C119.63 105.34 119.76 105.666 119.727 106.055C117.631 108.798 115.548 111.533 113.477 114.258C109.479 114.913 105.442 115.174 101.367 115.039C101.531 114.416 101.791 113.83 102.148 113.281C101.327 112.019 100.481 112.085 99.6094 113.477C99.418 113.982 99.3527 114.503 99.4141 115.039C91.4605 114.093 85.2758 110.317 80.8594 103.711C79.9707 101.849 79.3848 99.8956 79.1016 97.8515C81.4855 92.9745 85.2613 91.5421 90.4297 93.5546Z" fill="#464245"/>
<path fill-rule="evenodd" clip-rule="evenodd" d="M160.742 95.8985C161.131 95.8649 161.457 95.9953 161.719 96.2891C161.914 99.4114 161.979 102.536 161.914 105.664C161.393 105.664 160.872 105.664 160.352 105.664C160.234 102.376 160.364 99.1203 160.742 95.8985Z" fill="#494548"/>
<path fill-rule="evenodd" clip-rule="evenodd" d="M84.1799 96.6797C94.4986 97.5352 103.678 101.181 111.719 107.617C111.908 107.988 111.972 108.378 111.914 108.789C111.378 108.85 110.857 108.785 110.352 108.594C102.757 102.391 94.033 98.8754 84.1799 98.0469C83.7174 97.5996 83.7174 97.1437 84.1799 96.6797Z" fill="#262223"/>
<path fill-rule="evenodd" clip-rule="evenodd" d="M79.1014 97.8516C79.3846 99.8957 79.9705 101.849 80.8592 103.711C85.2756 110.317 91.4603 114.093 99.4139 115.039C100.065 115.56 100.716 115.56 101.367 115.039C105.442 115.174 109.479 114.913 113.476 114.258C112.206 116.146 111.034 118.099 109.961 120.117C108.488 121.701 108.097 123.524 108.789 125.586C101.393 124.432 94.1014 122.805 86.9139 120.703C82.49 119.213 78.8439 116.674 75.9764 113.086C74.1146 107.421 75.1564 102.343 79.1014 97.8516Z" fill="#252122"/>
<path fill-rule="evenodd" clip-rule="evenodd" d="M165.429 105.273C165.429 106.055 165.429 106.836 165.429 107.617C164.828 106.303 164.568 104.871 164.648 103.32C164.778 102.279 164.909 101.237 165.039 100.195C165.426 101.868 165.557 103.561 165.429 105.273Z" fill="#474346"/>
<path fill-rule="evenodd" clip-rule="evenodd" d="M87.6956 101.367C90.5819 101.828 93.4468 102.414 96.2893 103.125C96.8761 103.353 97.3968 103.678 97.8518 104.102C97.6565 104.641 97.2659 104.901 96.68 104.883C93.9347 104.206 91.2003 103.49 88.4768 102.734C87.9015 102.457 87.6409 102.002 87.6956 101.367Z" fill="#262224"/>
<path opacity="0.929" fill-rule="evenodd" clip-rule="evenodd" d="M165.82 100.195C166.673 100.508 167.324 101.094 167.773 101.953C170.599 103.047 173.463 104.023 176.367 104.883C176.713 105.205 176.843 105.596 176.758 106.055C172.569 106.67 168.662 107.972 165.039 109.961C165.046 109.154 165.176 108.373 165.43 107.617C165.43 106.836 165.43 106.055 165.43 105.273C165.814 103.659 165.945 101.966 165.82 100.195Z" fill="#D7DADE"/>
<path fill-rule="evenodd" clip-rule="evenodd" d="M125.195 106.445C126.221 107.353 127.263 108.264 128.32 109.18C128.034 110.819 127.513 112.382 126.758 113.867C125.539 113.106 124.367 112.26 123.242 111.328C122.461 111.068 121.68 111.068 120.898 111.328C118.88 114.128 116.862 116.927 114.844 119.727C114.177 120.668 113.852 121.709 113.867 122.852C113.791 123.69 113.4 123.755 112.695 123.047C111.704 122.121 110.792 121.145 109.961 120.117C111.034 118.099 112.206 116.146 113.477 114.258C115.548 111.533 117.631 108.798 119.727 106.055C120.308 105.493 121.024 105.232 121.875 105.273C123.095 105.398 124.202 105.788 125.195 106.445Z" fill="#E4E7F0"/>
<path fill-rule="evenodd" clip-rule="evenodd" d="M96.289 108.789C95.8983 109.05 95.5077 109.31 95.1171 109.57C93.4347 108.729 91.7421 107.883 90.039 107.031C89.5183 106.641 89.5183 106.25 90.039 105.859C92.255 106.511 94.3382 107.487 96.289 108.789Z" fill="#262223"/>
<path fill-rule="evenodd" clip-rule="evenodd" d="M96.2892 108.789C98.4467 108.813 99.1627 109.855 98.4377 111.914C97.2353 113.223 95.9334 113.354 94.5314 112.305C94.2971 111.291 94.4924 110.379 95.1174 109.57C95.508 109.31 95.8986 109.05 96.2892 108.789Z" fill="#BCBABB"/>
<path fill-rule="evenodd" clip-rule="evenodd" d="M128.32 109.18C130.779 111.181 133.187 113.264 135.546 115.43C136.224 116.715 136.289 118.017 135.742 119.336C131.823 123.139 128.568 127.436 125.976 132.227C124.948 134.059 123.386 134.645 121.289 133.984C118.498 132.554 115.764 131.057 113.086 129.492C111.419 128.479 109.987 127.177 108.789 125.586C108.097 123.524 108.487 121.701 109.961 120.117C110.792 121.145 111.703 122.121 112.695 123.047C113.4 123.755 113.79 123.69 113.867 122.852C116.093 125.079 118.697 126.837 121.679 128.125C122.357 128.379 123.008 128.314 123.632 127.93C125.409 124.915 127.557 122.181 130.078 119.727C130.338 118.945 130.338 118.164 130.078 117.383C128.891 116.262 127.784 115.09 126.757 113.867C127.513 112.382 128.034 110.819 128.32 109.18Z" fill="#DBDBDF"/>
<path fill-rule="evenodd" clip-rule="evenodd" d="M126.757 113.867C127.784 115.09 128.891 116.262 130.078 117.383C130.338 118.164 130.338 118.945 130.078 119.727C127.557 122.181 125.409 124.915 123.632 127.93C123.008 128.315 122.357 128.379 121.679 128.125C118.697 126.837 116.093 125.079 113.867 122.852C113.851 121.709 114.177 120.668 114.843 119.727C116.862 116.927 118.88 114.128 120.898 111.328C121.679 111.068 122.46 111.068 123.242 111.328C124.366 112.26 125.538 113.106 126.757 113.867Z" fill="#272324"/>
<path fill-rule="evenodd" clip-rule="evenodd" d="M155.664 112.305C156.055 112.305 156.445 112.305 156.836 112.305C156.017 117.46 153.673 121.757 149.805 125.195C149.414 125.065 149.154 124.805 149.023 124.414C152.357 121.003 154.571 116.966 155.664 112.305Z" fill="#494548"/>
<path fill-rule="evenodd" clip-rule="evenodd" d="M101.367 115.039C100.716 115.56 100.065 115.56 99.4139 115.039C99.3526 114.503 99.4178 113.982 99.6092 113.476C100.481 112.085 101.327 112.019 102.148 113.281C101.791 113.83 101.531 114.416 101.367 115.039Z" fill="#B9B7B8"/>
<path opacity="0.998" fill-rule="evenodd" clip-rule="evenodd" d="M75.9766 113.086C78.8441 116.674 82.4902 119.213 86.9141 120.703C94.1016 122.805 101.393 124.432 108.789 125.586C109.988 127.177 111.42 128.479 113.086 129.492C109.836 133.197 106.06 136.257 101.758 138.672C87.3469 146.115 72.373 147.547 56.8359 142.969C49.4168 140.178 44.8594 134.905 43.1641 127.148C42.8418 126.802 42.4512 126.672 41.9922 126.758C46.7117 125.76 51.5297 125.043 56.4453 124.609C58.5043 124.323 60.4574 123.737 62.3047 122.852C62.2535 123.194 62.3836 123.454 62.6953 123.633C70.107 127.428 77.9195 129.837 86.1328 130.859C86.5863 129.796 86.3258 128.885 85.3516 128.125C84.5039 127.505 83.5922 126.984 82.6172 126.562C77.1398 125.778 72.5824 123.37 68.9453 119.336C71.2176 117.741 73.4309 116.049 75.5859 114.258C75.932 113.936 76.0621 113.545 75.9766 113.086Z" fill="#8C8990"/>
<path fill-rule="evenodd" clip-rule="evenodd" d="M165.039 119.726C165.154 120.6 165.024 121.381 164.648 122.07C164.114 121.214 163.723 120.303 163.477 119.336C164.795 113.026 165.315 113.157 165.039 119.726Z" fill="#484447"/>
<path fill-rule="evenodd" clip-rule="evenodd" d="M119.336 115.82C122.804 115.7 124.171 117.263 123.438 120.508C121.421 122.681 119.598 122.55 117.969 120.117C117.446 118.344 117.902 116.911 119.336 115.82Z" fill="#D9DBE5"/>
<path fill-rule="evenodd" clip-rule="evenodd" d="M97.4609 115.82C98.8559 115.784 99.3117 116.435 98.8281 117.773C97.9273 118.196 97.3414 117.87 97.0703 116.797C97.1652 116.444 97.2957 116.119 97.4609 115.82Z" fill="#A7A6A6"/>
<path opacity="0.914" fill-rule="evenodd" clip-rule="evenodd" d="M165.43 114.648C166.166 114.993 166.686 115.579 166.992 116.406C170.165 117.399 173.29 118.505 176.367 119.727C176.286 119.955 176.155 120.151 175.977 120.312C172.999 121.22 170.004 122.066 166.992 122.852C166.342 123.368 165.691 123.889 165.039 124.414C164.711 123.68 164.58 122.899 164.648 122.07C165.024 121.381 165.154 120.6 165.039 119.727C165.424 118.112 165.554 116.419 165.43 114.648Z" fill="#D7DADE"/>
<path fill-rule="evenodd" clip-rule="evenodd" d="M119.726 117.383C122.267 117.241 122.918 118.218 121.679 120.312C119.372 120.604 118.721 119.627 119.726 117.383Z" fill="#292627"/>
<path fill-rule="evenodd" clip-rule="evenodd" d="M159.18 117.773C159.57 117.773 159.961 117.773 160.352 117.773C160.234 121.002 158.802 123.475 156.055 125.195C155.664 125.065 155.404 124.805 155.273 124.414C157.287 122.597 158.589 120.384 159.18 117.773Z" fill="#494548"/>
<path fill-rule="evenodd" clip-rule="evenodd" d="M135.742 119.336C139.615 124.409 141.178 130.138 140.43 136.523C138.67 135.823 136.847 135.368 134.961 135.156C131.366 135.714 128.372 134.738 125.977 132.227C128.569 127.436 131.824 123.139 135.742 119.336Z" fill="#252122"/>
<path fill-rule="evenodd" clip-rule="evenodd" d="M163.477 119.336C163.723 120.303 164.114 121.214 164.649 122.07C164.58 122.899 164.711 123.68 165.039 124.414C165.482 125.535 165.742 126.707 165.82 127.93C165.887 128.446 165.757 128.902 165.43 129.297C160.222 132.422 155.013 135.547 149.805 138.672C141.695 145.48 133.362 151.991 124.805 158.203C112.232 165.586 98.6251 169.166 83.9845 168.945C66.1767 168.434 49.1845 164.463 33.0079 157.031C30.3138 155.362 27.7097 153.604 25.1954 151.758C25.1818 149.293 26.3537 147.861 28.7111 147.461C30.1878 151.216 32.792 153.886 36.5236 155.469C42.3532 157.629 48.2126 159.713 54.1017 161.719C66.5212 165.274 79.1517 166.316 91.9923 164.844C99.8821 164.402 107.304 162.318 114.258 158.594C128.757 149.043 142.82 138.886 156.445 128.125C159.313 125.56 161.657 122.63 163.477 119.336Z" fill="#242021"/>
<path fill-rule="evenodd" clip-rule="evenodd" d="M68.9454 119.336C72.5825 123.37 77.1399 125.778 82.6173 126.562C83.5923 126.984 84.504 127.505 85.3517 128.125C86.3259 128.885 86.5864 129.796 86.1329 130.859C77.9196 129.837 70.1071 127.428 62.6954 123.633C62.3837 123.454 62.2536 123.194 62.3048 122.852C64.6935 121.983 66.9067 120.811 68.9454 119.336Z" fill="#6B686D"/>
<path fill-rule="evenodd" clip-rule="evenodd" d="M66.6012 121.68C69.616 123.186 72.741 124.487 75.9762 125.586C76.3223 125.908 76.4523 126.299 76.3668 126.758C72.9984 126.246 69.8734 125.074 66.9918 123.242C66.6289 122.778 66.4988 122.257 66.6012 121.68Z" fill="#494548"/>
<path opacity="0.992" fill-rule="evenodd" clip-rule="evenodd" d="M165.82 127.93C166.709 131.341 167.295 134.857 167.578 138.477C168.012 144.465 168.273 150.455 168.359 156.445C168.229 156.836 168.099 157.227 167.969 157.617C166.893 158.253 165.786 158.839 164.648 159.375C162.836 162.809 159.972 164.567 156.055 164.648C154.338 161.602 153.166 158.347 152.539 154.883C153.272 154.43 153.468 153.779 153.125 152.93C152.129 152.352 151.413 152.612 150.977 153.711C151.245 154.24 151.636 154.631 152.148 154.883C152.429 158.614 152.95 162.26 153.711 165.82C150.266 169.045 146.229 170.607 141.602 170.508C139.965 164.491 138.207 158.501 136.328 152.539C136.176 157.229 135.981 161.916 135.742 166.602C135.743 167.846 135.873 169.018 136.133 170.117C133.012 170.476 130.017 171.388 127.148 172.852C124.795 171.141 123.558 168.797 123.438 165.82C123.006 167.469 122.811 169.161 122.852 170.898C122.852 172.402 122.982 173.834 123.242 175.195C122.241 176.714 121.656 178.407 121.484 180.273C119.723 182.493 117.445 183.99 114.648 184.766C113.225 185.154 111.792 185.48 110.352 185.742C109.159 184.613 108.182 183.311 107.422 181.836C106.587 179.408 105.936 176.934 105.469 174.414C105.05 175.603 104.855 176.84 104.883 178.125C105.316 181.46 105.316 184.78 104.883 188.086C101.407 189.476 97.7614 190.387 93.9454 190.82C91.5606 188.792 90.0629 186.188 89.4532 183.008C89.3231 181.315 89.1926 179.622 89.0626 177.93C88.6544 180.518 88.3942 183.122 88.2813 185.742C87.9633 187.225 87.3774 188.592 86.5235 189.844C86.8938 190.032 87.2844 190.097 87.6954 190.039C82.9473 190.428 78.1293 190.558 73.2422 190.43C72.5508 189.8 72.0954 189.018 71.8751 188.086C71.745 183.919 71.6145 179.753 71.4844 175.586C70.4407 180.04 69.334 184.467 68.1641 188.867C67.2223 189.789 66.0504 190.18 64.6485 190.039C58.4254 189.595 52.3055 188.813 46.2891 187.695C46.3266 185.691 46.3915 183.607 46.4844 181.445C47.0079 179.099 47.3985 176.755 47.6563 174.414C46.3403 178.475 44.7126 182.381 42.7735 186.133C37.8376 186.929 33.2803 185.953 29.1016 183.203C27.7651 182.347 26.7234 181.24 25.9766 179.883C26.3524 176.034 26.5477 172.128 26.5626 168.164C25.4036 171.368 24.427 174.623 23.6329 177.93C22.6605 178.009 21.7491 177.813 20.8985 177.344C18.1713 174.425 17.0645 170.974 17.5782 166.992C18.3806 165.539 19.5524 164.497 21.0938 163.867C20.3422 160.483 21.3188 157.684 24.0235 155.469C24.6192 155.075 25.2702 154.879 25.9766 154.883C25.7958 153.82 25.5354 152.778 25.1954 151.758C27.7096 153.604 30.3138 155.362 33.0079 157.031C49.1844 164.463 66.1766 168.434 83.9844 168.945C98.6251 169.166 112.232 165.586 124.805 158.203C133.362 151.991 141.695 145.48 149.805 138.672C155.013 135.547 160.222 132.422 165.43 129.297C165.757 128.902 165.887 128.446 165.82 127.93Z" fill="#464245"/>
<path fill-rule="evenodd" clip-rule="evenodd" d="M115.43 133.789C116.884 133.734 117.209 134.254 116.406 135.352C109.923 142.632 101.85 146.148 92.1873 145.899C91.9463 145.528 92.0111 145.202 92.3826 144.922C99.6908 144.743 106.201 142.4 111.914 137.891C113.323 136.681 114.495 135.313 115.43 133.789Z" fill="#494548"/>
<path fill-rule="evenodd" clip-rule="evenodd" d="M35.7422 134.57C36.9561 134.512 38.1279 134.707 39.2579 135.156C40.3817 136.089 41.4235 137.13 42.3829 138.281C44.495 139.239 46.5133 140.346 48.4376 141.602C48.8145 143.274 48.554 144.837 47.6563 146.289C42.5137 152.226 37.6959 151.965 33.2032 145.508C31.9553 143.037 31.5647 140.433 32.0313 137.695C32.9538 136.232 34.1908 135.191 35.7422 134.57Z" fill="#8C8990"/>
<path fill-rule="evenodd" clip-rule="evenodd" d="M159.57 136.524C160.818 136.397 161.209 136.852 160.742 137.891C157.357 139.974 153.971 142.058 150.586 144.141C150.081 144.332 149.56 144.397 149.023 144.336C149.047 143.519 149.438 142.933 150.195 142.578C153.494 140.767 156.619 138.749 159.57 136.524Z" fill="#262223"/>
<path fill-rule="evenodd" clip-rule="evenodd" d="M163.867 136.523C164.898 136.813 165.418 137.529 165.43 138.672C165.897 140.562 165.897 142.451 165.43 144.336C165.201 144.254 165.005 144.124 164.844 143.945C164.798 141.644 164.343 139.43 163.477 137.305C163.618 137.038 163.748 136.777 163.867 136.523Z" fill="#252122"/>
<path fill-rule="evenodd" clip-rule="evenodd" d="M35.742 137.695C36.2785 137.634 36.7994 137.699 37.3045 137.891C38.5276 139.505 39.8948 141.002 41.4061 142.383C41.7233 144.922 40.6167 145.769 38.0858 144.922C35.3161 143.106 34.5349 140.697 35.742 137.695Z" fill="#D8D7D9"/>
<path fill-rule="evenodd" clip-rule="evenodd" d="M159.961 141.602C160.482 141.602 161.003 141.602 161.524 141.602C161.609 142.061 161.479 142.451 161.133 142.773C159.701 143.815 158.269 144.857 156.836 145.898C156.211 145.689 156.016 145.299 156.25 144.727C157.562 143.738 158.799 142.696 159.961 141.602Z" fill="#262223"/>
<path fill-rule="evenodd" clip-rule="evenodd" d="M114.258 145.508C114.648 145.508 115.039 145.508 115.43 145.508C115.509 146.246 115.249 146.832 114.648 147.266C111.247 149.094 107.666 150.461 103.906 151.367C102.992 151.169 102.797 150.713 103.32 150C105.812 149.3 108.286 148.518 110.742 147.656C112.07 147.126 113.241 146.41 114.258 145.508Z" fill="#494548"/>
<path fill-rule="evenodd" clip-rule="evenodd" d="M147.852 145.117C148.242 145.117 148.633 145.117 149.024 145.117C149.024 145.638 149.024 146.159 149.024 146.68C147.565 146.993 146.133 147.383 144.727 147.852C144.66 147.335 144.79 146.879 145.117 146.484C146.065 146.011 146.976 145.555 147.852 145.117Z" fill="#262223"/>
<path fill-rule="evenodd" clip-rule="evenodd" d="M153.711 146.68C155.921 146.823 156.637 147.995 155.86 150.195C154.813 151.239 153.902 151.109 153.125 149.805C152.777 148.634 152.972 147.592 153.711 146.68Z" fill="#BFBDBE"/>
<path fill-rule="evenodd" clip-rule="evenodd" d="M124.805 148.633C125.195 148.633 125.586 148.633 125.977 148.633C126.056 149.371 125.796 149.957 125.195 150.391C119.515 154.828 113.134 157.887 106.055 159.57C105.277 159.194 105.147 158.673 105.664 158.008C112.852 156.432 119.232 153.307 124.805 148.633Z" fill="#494548"/>
<path fill-rule="evenodd" clip-rule="evenodd" d="M62.6953 151.367C69.0723 151.678 75.4523 152.004 81.8359 152.344C82.2715 153.474 81.8156 153.93 80.4688 153.711C74.5508 153.325 68.6262 153.065 62.6953 152.93C62.6953 152.409 62.6953 151.888 62.6953 151.367Z" fill="#494548"/>
<path fill-rule="evenodd" clip-rule="evenodd" d="M156.445 152.539C158.433 152.455 158.823 153.171 157.617 154.688C156.069 154.734 155.679 154.017 156.445 152.539Z" fill="#BDBBBC"/>
<path fill-rule="evenodd" clip-rule="evenodd" d="M152.539 154.883C152.409 154.883 152.279 154.883 152.148 154.883C151.636 154.631 151.245 154.24 150.977 153.711C151.413 152.612 152.129 152.352 153.125 152.93C153.468 153.779 153.272 154.43 152.539 154.883Z" fill="#B1AFB0"/>
<path fill-rule="evenodd" clip-rule="evenodd" d="M141.602 170.508C139.779 170.378 137.956 170.247 136.133 170.117C135.873 169.018 135.743 167.846 135.742 166.602C135.981 161.916 136.176 157.229 136.328 152.539C138.207 158.501 139.965 164.491 141.602 170.508Z" fill="#252122"/>
<path fill-rule="evenodd" clip-rule="evenodd" d="M50.5859 152.148C53.3703 152.229 54.021 153.466 52.539 155.859C51.6792 156.182 50.9632 155.986 50.3906 155.273C50.1085 154.195 50.1738 153.154 50.5859 152.148Z" fill="#C8C7C8"/>
<path fill-rule="evenodd" clip-rule="evenodd" d="M56.8364 154.102C56.8364 154.492 56.8364 154.883 56.8364 155.273C55.1145 156.068 54.4633 155.612 54.8832 153.906C55.5727 153.656 56.2239 153.722 56.8364 154.102Z" fill="#BBB9BA"/>
<path fill-rule="evenodd" clip-rule="evenodd" d="M56.8359 154.102C68.9949 157.275 81.3648 158.642 93.9453 158.203C94.466 158.594 94.466 158.984 93.9453 159.375C81.2668 160.28 68.8973 158.912 56.8359 155.273C56.8359 154.883 56.8359 154.492 56.8359 154.102Z" fill="#4A4649"/>
<path fill-rule="evenodd" clip-rule="evenodd" d="M130.273 155.664C130.664 155.664 131.055 155.664 131.445 155.664C130.768 158.483 128.945 159.786 125.977 159.57C125.977 159.18 125.977 158.789 125.977 158.398C127.929 158.263 129.362 157.351 130.273 155.664Z" fill="#262223"/>
<path fill-rule="evenodd" clip-rule="evenodd" d="M29.1015 155.664C35.6501 160.433 42.9418 163.623 50.9765 165.234C51.5043 166.064 51.2441 166.52 50.1953 166.602C42.2254 165.188 35.1291 161.932 28.9062 156.836C28.7228 156.415 28.7879 156.025 29.1015 155.664Z" fill="#262223"/>
<path fill-rule="evenodd" clip-rule="evenodd" d="M54.4923 156.445C55.9962 156.524 56.3869 157.24 55.6642 158.594C54.1162 158.64 53.7255 157.923 54.4923 156.445Z" fill="#C8C7C8"/>
<path fill-rule="evenodd" clip-rule="evenodd" d="M152.148 154.883C152.279 154.883 152.409 154.883 152.539 154.883C153.166 158.347 154.338 161.602 156.055 164.648C155.099 164.693 154.318 165.084 153.711 165.82C152.95 162.26 152.429 158.614 152.148 154.883Z" fill="#282426"/>
<path fill-rule="evenodd" clip-rule="evenodd" d="M133.399 158.398C134.483 158.529 134.743 159.05 134.18 159.961C132.258 160.858 130.305 161.639 128.321 162.305C128.254 161.788 128.384 161.332 128.711 160.938C130.372 160.174 131.935 159.327 133.399 158.398Z" fill="#262223"/>
<path fill-rule="evenodd" clip-rule="evenodd" d="M28.3202 161.914C30.1193 163.338 32.0724 164.575 34.1796 165.625C35.2018 165.946 36.2435 166.141 37.3046 166.211C37.3046 166.602 37.3046 166.992 37.3046 167.383C33.7697 167.211 30.7098 165.909 28.1249 163.477C27.8987 162.919 27.9638 162.398 28.3202 161.914Z" fill="#262223"/>
<path fill-rule="evenodd" clip-rule="evenodd" d="M127.149 172.852C125.745 173.477 124.442 174.259 123.243 175.195C122.983 173.834 122.852 172.402 122.852 170.898C122.811 169.161 123.007 167.469 123.438 165.82C123.558 168.797 124.795 171.141 127.149 172.852Z" fill="#272324"/>
<path fill-rule="evenodd" clip-rule="evenodd" d="M101.758 167.773C102.669 167.773 103.581 167.773 104.492 167.773C104.559 168.29 104.429 168.746 104.102 169.141C101.761 169.479 99.4168 169.609 97.0703 169.531C96.8918 169.37 96.7613 169.174 96.6797 168.945C98.3867 168.414 100.079 168.023 101.758 167.773Z" fill="#262223"/>
<path fill-rule="evenodd" clip-rule="evenodd" d="M61.1331 168.555C64.6597 169.079 68.1753 169.664 71.68 170.312C72.1518 171.346 71.7612 171.802 70.5081 171.68C67.46 171.145 64.4651 170.429 61.5237 169.531C61.23 169.269 61.0995 168.944 61.1331 168.555Z" fill="#262224"/>
<path fill-rule="evenodd" clip-rule="evenodd" d="M109.57 169.336C110.107 169.275 110.628 169.34 111.133 169.531C111.654 169.922 111.654 170.313 111.133 170.703C109.279 171.305 107.391 171.761 105.469 172.07C104.554 171.872 104.359 171.416 104.883 170.703C106.56 170.452 108.122 169.996 109.57 169.336Z" fill="#282425"/>
<path fill-rule="evenodd" clip-rule="evenodd" d="M25.9766 179.883C25.4355 178.952 24.6543 178.301 23.6328 177.93C24.427 174.623 25.4035 171.368 26.5625 168.164C26.5477 172.128 26.3523 176.034 25.9766 179.883Z" fill="#292526"/>
<path fill-rule="evenodd" clip-rule="evenodd" d="M80.6643 171.289C82.6377 171.269 84.5909 171.465 86.5237 171.875C87.0475 172.588 86.8522 173.044 85.9377 173.242C84.3256 172.953 82.6979 172.758 81.0549 172.656C80.728 172.261 80.5979 171.805 80.6643 171.289Z" fill="#272324"/>
<path fill-rule="evenodd" clip-rule="evenodd" d="M59.5705 173.242C62.2135 173.623 64.8174 174.209 67.383 175C67.9069 175.713 67.7116 176.169 66.7971 176.367C64.5248 175.75 62.2463 175.164 59.9612 174.609C59.6342 174.214 59.5041 173.759 59.5705 173.242Z" fill="#272324"/>
<path fill-rule="evenodd" clip-rule="evenodd" d="M110.351 185.742C109.162 185.804 108.055 185.543 107.031 184.961C106.976 186.517 106.259 187.559 104.883 188.086C105.316 184.78 105.316 181.46 104.883 178.125C104.854 176.84 105.05 175.603 105.468 174.414C105.936 176.934 106.587 179.408 107.422 181.836C108.182 183.311 109.159 184.613 110.351 185.742Z" fill="#282425"/>
<path fill-rule="evenodd" clip-rule="evenodd" d="M73.2422 190.43C71.5766 190.248 70.2742 189.467 69.3359 188.086C69.0371 188.52 68.6465 188.781 68.1641 188.867C69.334 184.467 70.4406 180.04 71.4844 175.586C71.6145 179.753 71.7449 183.919 71.875 188.086C72.0953 189.018 72.5508 189.8 73.2422 190.43Z" fill="#282425"/>
<path fill-rule="evenodd" clip-rule="evenodd" d="M46.2891 187.695C45.4113 187.264 44.6953 186.613 44.1406 185.742C43.6961 185.933 43.2402 186.063 42.7734 186.133C44.7125 182.381 46.3402 178.475 47.6562 174.414C47.3984 176.755 47.0078 179.099 46.4844 181.445C46.3914 183.607 46.3266 185.691 46.2891 187.695Z" fill="#272324"/>
<path fill-rule="evenodd" clip-rule="evenodd" d="M93.9453 190.82C92.3219 190.79 91.0199 190.139 90.0391 188.867C89.4723 189.671 88.691 190.062 87.6953 190.039C87.2844 190.097 86.8938 190.032 86.5234 189.844C87.3773 188.592 87.9633 187.225 88.2812 185.742C88.3941 183.122 88.6543 180.518 89.0625 177.93C89.1926 179.622 89.323 181.315 89.4531 183.008C90.0629 186.188 91.5605 188.792 93.9453 190.82Z" fill="#282425"/>
</svg>
