<svg width="200" height="200" viewBox="0 0 200 200" fill="none" xmlns="http://www.w3.org/2000/svg">
<g clip-path="url(#clip0_2981_2832)">
<path opacity="0.968" fill-rule="evenodd" clip-rule="evenodd" d="M0.976562 -0.195312C2.14844 -0.195312 3.32031 -0.195312 4.49219 -0.195312C5.32223 0.78632 5.97328 1.89309 6.44531 3.125C9.82504 5.20441 13.4709 6.63668 17.3828 7.42188C28.992 9.72867 40.7105 11.161 52.5391 11.7188C84.0496 13.5417 115.56 13.5417 147.07 11.7188C158.9 11.1609 170.618 9.72859 182.227 7.42188C186.155 6.6773 189.801 5.245 193.164 3.125C193.636 1.89309 194.287 0.78632 195.117 -0.195312C196.289 -0.195312 197.461 -0.195312 198.633 -0.195312C198.893 0.325521 199.284 0.716145 199.805 0.976562C199.805 2.27864 199.805 3.58073 199.805 4.88281C197.198 8.47344 193.682 10.8172 189.258 11.9141C186.583 12.4525 183.979 13.1036 181.445 13.8672C175.208 14.8513 168.958 15.7627 162.695 16.6016C159.74 17.095 156.745 17.3555 153.711 17.3828C149.511 17.446 145.344 17.7064 141.211 18.1641C135.664 18.0506 130.195 18.311 124.805 18.9453C121.94 18.9453 119.075 18.9453 116.211 18.9453C113.477 18.9453 110.742 18.9453 108.008 18.9453C99.8047 18.9453 91.6016 18.9453 83.3984 18.9453C80.534 18.9453 77.6691 18.9453 74.8047 18.9453C72.5352 18.5587 70.1914 18.4286 67.7734 18.5547C60.5426 18.1652 53.2508 17.7745 45.8984 17.3828C42.8641 17.3555 39.8695 17.095 36.9141 16.6016C34.2202 16.1109 31.4858 15.8505 28.7109 15.8203C22.5598 14.8827 16.4401 13.5806 10.3516 11.9141C5.92738 10.8172 2.41176 8.47344 -0.195312 4.88281C-0.195312 3.58073 -0.195312 2.27864 -0.195312 0.976562C0.325521 0.716145 0.716145 0.325521 0.976562 -0.195312Z" fill="#98654C"/>
<path opacity="0.992" fill-rule="evenodd" clip-rule="evenodd" d="M10.3517 11.9141C16.4402 13.5806 22.56 14.8827 28.7111 15.8203C28.7111 25.7161 28.7111 35.612 28.7111 45.5078C26.5096 42.9777 24.3612 40.3734 22.2658 37.6953C19.8288 39.5977 17.2898 41.3555 14.6486 42.9688C13.1168 43.3434 11.8798 42.8875 10.9376 41.6016C10.3664 31.7259 10.1711 21.83 10.3517 11.9141Z" fill="#FEBA4B"/>
<path fill-rule="evenodd" clip-rule="evenodd" d="M189.258 11.9141C189.438 21.83 189.243 31.7259 188.672 41.6016C187.107 43.4242 185.349 43.6195 183.398 42.1875C182.776 41.8168 182.255 41.3613 181.836 40.8203C181.965 31.7685 181.835 22.7841 181.445 13.8672C183.979 13.1036 186.583 12.4525 189.258 11.9141Z" fill="#FA973E"/>
<path opacity="0.981" fill-rule="evenodd" clip-rule="evenodd" d="M181.446 13.8672C181.835 22.7841 181.965 31.7685 181.836 40.8203C180.184 40.0168 178.687 38.9752 177.344 37.6953C174.154 41.6668 170.964 45.6379 167.774 49.6094C166.128 50.4957 164.63 50.3004 163.281 49.0234C162.702 38.2507 162.507 27.4434 162.696 16.6016C168.958 15.7627 175.208 14.8513 181.446 13.8672Z" fill="#FEB94B"/>
<path fill-rule="evenodd" clip-rule="evenodd" d="M28.7109 15.8203C31.4858 15.8505 34.2202 16.1109 36.9141 16.6016C36.9791 27.1493 36.9141 37.6961 36.7188 48.2422C34.9557 50.6824 33.0025 50.8125 30.8594 48.6328C30.057 47.6379 29.3409 46.5961 28.7109 45.5078C28.7109 35.612 28.7109 25.7161 28.7109 15.8203Z" fill="#FA963F"/>
<path opacity="0.984" fill-rule="evenodd" clip-rule="evenodd" d="M45.8984 17.3828C53.2508 17.7745 60.5426 18.1652 67.7734 18.5547C65.9504 18.5547 64.1277 18.5547 62.3047 18.5547C61.7086 31.8368 61.0574 45.118 60.3516 58.3984C58.9598 58.3496 57.9832 57.6984 57.4219 56.4453C53.4574 43.45 49.616 30.4292 45.8984 17.3828Z" fill="#A5DEF3"/>
<path fill-rule="evenodd" clip-rule="evenodd" d="M153.711 17.3828C149.993 30.4292 146.152 43.45 142.188 56.4453C141.626 57.6984 140.65 58.3496 139.258 58.3984C140.039 44.9937 140.69 31.5823 141.211 18.1641C145.344 17.7064 149.511 17.446 153.711 17.3828Z" fill="#57C9EA"/>
<path opacity="0.984" fill-rule="evenodd" clip-rule="evenodd" d="M141.211 18.1641C140.69 31.5823 140.039 44.9937 139.258 58.3984C137.795 58.2211 136.819 57.4398 136.328 56.0547C132.545 43.6531 128.704 31.2832 124.805 18.9453C130.195 18.311 135.664 18.0506 141.211 18.1641Z" fill="#A5DEF4"/>
<path fill-rule="evenodd" clip-rule="evenodd" d="M67.7734 18.5547C70.1914 18.4286 72.5352 18.5588 74.8047 18.9453C70.9055 31.2832 67.0645 43.6531 63.2812 56.0547C62.7906 57.4398 61.8141 58.2211 60.3516 58.3984C61.0574 45.118 61.7086 31.8368 62.3047 18.5547C64.1277 18.5547 65.9504 18.5547 67.7734 18.5547Z" fill="#57C9EB"/>
<path opacity="0.99" fill-rule="evenodd" clip-rule="evenodd" d="M83.3984 18.9453C91.6015 18.9453 99.8047 18.9453 108.008 18.9453C108.008 28.8411 108.008 38.737 108.008 48.6328C105.231 47.1785 102.497 45.616 99.8047 43.9453C95.7019 46.4527 91.5351 48.8617 87.3047 51.1719C86.0383 51.4008 84.9316 51.0754 83.9844 50.1953C83.4054 39.8133 83.2101 29.3967 83.3984 18.9453Z" fill="#F77949"/>
<path fill-rule="evenodd" clip-rule="evenodd" d="M108.008 18.9453C110.742 18.9453 113.477 18.9453 116.211 18.9453C116.276 29.1024 116.211 39.2586 116.016 49.4141C115.463 50.666 114.486 51.3172 113.086 51.3672C111.196 50.7492 109.504 49.8379 108.008 48.6328C108.008 38.737 108.008 28.8411 108.008 18.9453Z" fill="#DE5042"/>
<path opacity="0.95" fill-rule="evenodd" clip-rule="evenodd" d="M14.6484 50.1953C18.0976 49.6727 19.4648 51.1051 18.75 54.4922C16.6667 57.8777 14.5833 61.2629 12.5 64.6484C10.367 66.3266 8.54403 66.066 7.03126 63.8672C6.77083 63.0859 6.77083 62.3047 7.03126 61.5234C9.22376 57.4559 11.7628 53.6801 14.6484 50.1953Z" fill="#FFC54B"/>
<path opacity="0.948" fill-rule="evenodd" clip-rule="evenodd" d="M174.023 54.4922C175.363 54.3387 176.6 54.5988 177.734 55.2734C179.892 59.2629 181.78 63.3645 183.398 67.5781C182.586 70.5242 180.764 71.3055 177.93 69.9219C175.826 65.9527 173.873 61.9164 172.07 57.8125C172.282 56.4062 172.934 55.2992 174.023 54.4922Z" fill="#A6DFF5"/>
<path opacity="0.918" fill-rule="evenodd" clip-rule="evenodd" d="M41.9921 59.9609C43.4597 59.7934 44.8269 60.0535 46.0937 60.7422C47.416 63.5246 46.6347 65.3473 43.75 66.2109C40.1281 64.9602 39.5421 62.877 41.9921 59.9609Z" fill="#F77949"/>
<path opacity="0.954" fill-rule="evenodd" clip-rule="evenodd" d="M97.0702 63.8672C98.1198 63.8031 99.1616 63.8684 100.195 64.0625C103.387 65.9844 106.642 67.8074 109.961 69.5313C111.567 70.902 111.893 72.5297 110.937 74.4141C109.873 75.3766 108.635 75.702 107.226 75.3906C103.841 73.4375 100.456 71.4844 97.0702 69.5313C95.0124 67.6449 95.0124 65.7566 97.0702 63.8672Z" fill="#FFC54A"/>
<path opacity="0.906" fill-rule="evenodd" clip-rule="evenodd" d="M144.727 65.8203C148.239 65.2316 149.736 66.6641 149.219 70.1172C147.569 72.4812 145.747 72.6113 143.75 70.5078C142.85 68.6934 143.176 67.1309 144.727 65.8203Z" fill="#F77949"/>
<path opacity="0.942" fill-rule="evenodd" clip-rule="evenodd" d="M78.3201 80.2734C81.772 80.4 83.0088 82.0926 82.031 85.3516C80.1431 87.7605 78.2548 90.1691 76.367 92.5781C72.6162 93.777 70.9888 92.4098 71.4841 88.4766C73.5881 85.5547 75.8666 82.8203 78.3201 80.2734Z" fill="#A6DFF5"/>
<path opacity="0.998" fill-rule="evenodd" clip-rule="evenodd" d="M42.3828 83.0078C46.1742 83.7367 48.7133 85.9504 50 89.6484C50.1953 119.075 50.2605 148.502 50.1953 177.93C33.3984 177.93 16.6016 177.93 -0.195312 177.93C-0.195312 148.372 -0.195312 118.815 -0.195312 89.2578C1.19814 86.368 3.41168 84.35 6.44531 83.2031C18.4238 83.0078 30.4029 82.9426 42.3828 83.0078Z" fill="#6E7E8E"/>
<path opacity="0.99" fill-rule="evenodd" clip-rule="evenodd" d="M184.18 83.0078C188.04 83.8727 190.579 86.2164 191.797 90.0391C191.992 119.336 192.057 148.632 191.992 177.93C175.065 177.93 158.138 177.93 141.211 177.93C141.146 148.893 141.211 119.857 141.406 90.8203C142.036 86.8047 144.315 84.2656 148.242 83.2031C160.221 83.0078 172.2 82.9426 184.18 83.0078Z" fill="#6E7E8E"/>
<path fill-rule="evenodd" clip-rule="evenodd" d="M42.3828 83.0078C45.8008 82.8477 49.1859 83.043 52.5391 83.5937C55.7805 84.9297 57.6684 87.3383 58.2031 90.8203C58.3984 119.857 58.4637 148.893 58.3984 177.93C55.6641 177.93 52.9297 177.93 50.1953 177.93C50.2605 148.502 50.1953 119.075 50 89.6484C48.7133 85.9504 46.1742 83.7367 42.3828 83.0078Z" fill="#57616D"/>
<path fill-rule="evenodd" clip-rule="evenodd" d="M184.18 83.0078C187.598 82.8477 190.983 83.043 194.336 83.5937C196.94 84.9578 198.763 86.9762 199.805 89.6484C199.805 119.075 199.805 148.503 199.805 177.93C197.2 177.93 194.596 177.93 191.992 177.93C192.057 148.632 191.992 119.336 191.797 90.0391C190.579 86.2164 188.04 83.8727 184.18 83.0078Z" fill="#57616C"/>
<path opacity="0.907" fill-rule="evenodd" clip-rule="evenodd" d="M98.2419 88.4766C100.972 87.8273 102.535 88.8691 102.929 91.6016C102.805 93.5488 101.763 94.5906 99.8044 94.7266C97.2783 94.3641 96.3017 92.9316 96.8748 90.4297C97.2642 89.7176 97.7201 89.0664 98.2419 88.4766Z" fill="#F77948"/>
<path fill-rule="evenodd" clip-rule="evenodd" d="M25.9766 129.102C28.2545 127.957 30.468 126.589 32.6172 125C40.6203 115.901 40.3602 107.047 31.8359 98.4375C29.7782 97.2141 27.6948 96.1074 25.5859 95.1172C34.4458 93.9156 40.891 97.3008 44.9219 105.273C47.9707 115.142 45.041 122.629 36.1328 127.734C32.8625 128.958 29.4771 129.414 25.9766 129.102Z" fill="#253236"/>
<path fill-rule="evenodd" clip-rule="evenodd" d="M167.773 129.102C171.055 127.46 173.984 125.246 176.562 122.461C181.114 115.196 180.984 108.035 176.172 100.977C173.707 98.2824 170.777 96.3293 167.383 95.1172C177.518 94.034 184.224 98.3309 187.5 108.008C188.823 118.585 184.461 125.551 174.414 128.906C172.204 129.101 169.991 129.166 167.773 129.102Z" fill="#253236"/>
<path fill-rule="evenodd" clip-rule="evenodd" d="M25.5857 95.1172C27.6946 96.1074 29.7779 97.2141 31.8357 98.4375C40.3599 107.047 40.6201 115.901 32.617 125C30.4677 126.589 28.2542 127.957 25.9763 129.102C14.4038 125.361 10.0418 117.548 12.8904 105.664C15.3296 99.9855 19.5614 96.4699 25.5857 95.1172Z" fill="#3A4B55"/>
<path fill-rule="evenodd" clip-rule="evenodd" d="M167.383 95.1172C170.777 96.3293 173.707 98.2824 176.172 100.977C180.984 108.035 181.114 115.196 176.562 122.461C173.984 125.246 171.055 127.46 167.773 129.102C156.38 125.705 151.887 118.153 154.297 106.445C156.684 100.345 161.046 96.5688 167.383 95.1172Z" fill="#3A4B56"/>
<path fill-rule="evenodd" clip-rule="evenodd" d="M115.82 176.367C121.2 174.568 124.651 170.921 126.172 165.43C126.367 160.614 126.432 155.796 126.367 150.977C126.367 139.128 126.367 127.279 126.367 115.43C126.432 109.699 126.367 103.97 126.172 98.2422C126.063 97.8844 125.868 97.6242 125.586 97.4609C127.139 96.5859 128.832 96.2606 130.664 96.4844C131.568 96.9176 132.154 97.634 132.422 98.6328C132.682 120.508 132.682 142.383 132.422 164.258C130.509 173.195 124.975 177.231 115.82 176.367Z" fill="#6B58A1"/>
<path opacity="0.974" fill-rule="evenodd" clip-rule="evenodd" d="M125.586 97.4609C125.868 97.6242 126.063 97.8844 126.172 98.2422C126.367 103.97 126.432 109.699 126.367 115.43C115.586 118.568 104.844 121.823 94.1406 125.195C94.0105 142.122 93.8801 159.05 93.75 175.977C91.734 185.094 86.0699 189.065 76.7578 187.891C68.3352 185.045 65.0148 179.25 66.7969 170.508C70.0359 162.348 75.9605 159.288 84.5703 161.328C85.4816 161.784 86.3934 162.239 87.3047 162.695C87.6301 144.988 87.8254 127.28 87.8906 109.57C89.0137 108.413 90.3809 107.697 91.9922 107.422C103.162 103.98 114.361 100.66 125.586 97.4609Z" fill="#9979B7"/>
<path fill-rule="evenodd" clip-rule="evenodd" d="M27.5392 109.18C30.5318 108.853 31.899 110.155 31.6408 113.086C30.2559 115.316 28.5632 115.576 26.5627 113.867C25.6626 112.053 25.9881 110.49 27.5392 109.18Z" fill="#253236"/>
<path fill-rule="evenodd" clip-rule="evenodd" d="M169.336 109.18C172.33 108.854 173.697 110.156 173.438 113.086C171.615 115.69 169.792 115.69 167.969 113.086C167.708 112.305 167.708 111.523 167.969 110.742C168.506 110.271 168.962 109.751 169.336 109.18Z" fill="#253236"/>
<path fill-rule="evenodd" clip-rule="evenodd" d="M25.5858 135.352C36.2146 139.813 40.0557 147.625 37.1092 158.789C34.7402 163.967 30.8991 167.483 25.5858 169.336C14.8034 165.746 10.4415 158.324 12.4998 147.07C14.7333 140.779 19.0953 136.873 25.5858 135.352Z" fill="#3A4B56"/>
<path fill-rule="evenodd" clip-rule="evenodd" d="M25.5859 169.336C30.8993 167.483 34.7404 163.967 37.1094 158.789C40.0559 147.625 36.2148 139.812 25.5859 135.352C37.728 134.471 44.6289 140.071 46.2891 152.148C44.7887 164.418 37.8878 170.147 25.5859 169.336Z" fill="#263336"/>
<path fill-rule="evenodd" clip-rule="evenodd" d="M167.773 169.336C177.386 164.957 181.227 157.535 179.297 147.07C177.171 141.233 173.2 137.327 167.383 135.352C177.545 134.279 184.251 138.576 187.5 148.242C188.966 158.142 185.125 164.978 175.977 168.75C173.271 169.273 170.537 169.468 167.773 169.336Z" fill="#253336"/>
<path fill-rule="evenodd" clip-rule="evenodd" d="M167.383 135.352C173.2 137.327 177.171 141.233 179.297 147.07C181.227 157.535 177.386 164.957 167.773 169.336C158.745 167.174 153.928 161.445 153.32 152.148C154.065 143.231 158.753 137.632 167.383 135.352Z" fill="#3A4B56"/>
<path opacity="0.984" fill-rule="evenodd" clip-rule="evenodd" d="M126.367 150.977C126.432 155.796 126.367 160.614 126.172 165.43C124.651 170.921 121.2 174.568 115.82 176.367C106.647 173.257 103.327 167.007 105.859 157.617C109.037 150.933 114.311 148.134 121.68 149.219C123.289 149.699 124.852 150.285 126.367 150.977Z" fill="#9979B7"/>
<path fill-rule="evenodd" clip-rule="evenodd" d="M27.9297 149.414C30.7445 149.298 31.9815 150.6 31.6406 153.32C29.8177 155.925 27.9948 155.925 26.1719 153.32C25.8113 151.569 26.3972 150.267 27.9297 149.414Z" fill="#253236"/>
<path fill-rule="evenodd" clip-rule="evenodd" d="M169.336 149.414C171.73 149.045 173.163 150.021 173.633 152.344C173.411 154.193 172.37 155.17 170.508 155.273C168.272 154.713 167.426 153.28 167.969 150.977C168.506 150.506 168.962 149.985 169.336 149.414Z" fill="#253236"/>
<path opacity="0.999" fill-rule="evenodd" clip-rule="evenodd" d="M-0.195312 177.93C16.6016 177.93 33.3984 177.93 50.1953 177.93C50.2605 184.702 50.1953 191.473 50 198.242C49.4543 198.855 48.8684 199.377 48.2422 199.805C32.487 199.805 16.7318 199.805 0.976562 199.805C0.716145 199.284 0.325521 198.893 -0.195312 198.633C-0.195312 191.732 -0.195312 184.831 -0.195312 177.93Z" fill="#A5DEF4"/>
<path fill-rule="evenodd" clip-rule="evenodd" d="M50.1953 177.93C52.9297 177.93 55.6641 177.93 58.3984 177.93C58.4637 184.571 58.3984 191.212 58.2031 197.852C57.8137 198.564 57.3578 199.215 56.8359 199.805C53.9715 199.805 51.1066 199.805 48.2422 199.805C48.8684 199.377 49.4543 198.855 50 198.242C50.1953 191.473 50.2605 184.702 50.1953 177.93Z" fill="#57C9EA"/>
<path opacity="0.995" fill-rule="evenodd" clip-rule="evenodd" d="M141.211 177.93C158.138 177.93 175.065 177.93 191.992 177.93C192.057 184.441 191.992 190.952 191.797 197.461C191.53 198.703 190.814 199.484 189.648 199.805C174.023 199.805 158.398 199.805 142.773 199.805C142.252 199.215 141.796 198.564 141.406 197.852C141.211 191.212 141.146 184.571 141.211 177.93Z" fill="#A5DEF4"/>
<path fill-rule="evenodd" clip-rule="evenodd" d="M191.992 177.93C194.596 177.93 197.2 177.93 199.805 177.93C199.805 184.831 199.805 191.732 199.805 198.633C199.284 198.893 198.893 199.284 198.633 199.805C195.638 199.805 192.643 199.805 189.648 199.805C190.814 199.484 191.53 198.703 191.797 197.461C191.992 190.952 192.057 184.441 191.992 177.93Z" fill="#55C8EA"/>
<path opacity="0.919" fill-rule="evenodd" clip-rule="evenodd" d="M125.195 185.742C128.379 185.219 129.876 186.521 129.688 189.648C127.879 192.611 125.926 192.741 123.828 190.039C123.306 188.231 123.762 186.799 125.195 185.742Z" fill="#F77948"/>
</g>
<defs>
<clipPath id="clip0_2981_2832">
<rect width="200" height="200" fill="white"/>
</clipPath>
</defs>
</svg>
