<svg width="30" height="30" viewBox="0 0 30 30" fill="none" xmlns="http://www.w3.org/2000/svg">
    <circle cx="15" cy="15" r="14.5" transform="rotate(180 15 15)" stroke="#F8F8F8"/>
    <path d="M19 12.6083C19 11.9326 18.2381 11.5378 17.6861 11.9275L14.2978 14.3192C13.8275 14.6512 13.8275 15.3488 14.2978 15.6808L17.6861 18.0725C18.2381 18.4622 19 18.0674 19 17.3917V12.6083ZM11.6667 19C12.0349 19 12.3333 18.7015 12.3333 18.3333V11.6667C12.3333 11.2985 12.0349 11 11.6667 11V11C11.2985 11 11 11.2985 11 11.6667V18.3333C11 18.7015 11.2985 19 11.6667 19V19Z"
          fill="#F8F8F8"/>
</svg>
