<svg width="147" height="52" viewBox="0 0 147 52" fill="none" xmlns="http://www.w3.org/2000/svg">
<path d="M25.6222 31H21.9437V14.7642H21.8327L15.2211 30.8097H12.4306L5.81889 14.7642H5.70791V31H2.01362V8.12081H6.75436L13.7624 25.3872H13.8892L20.8973 8.12081H25.6222V31ZM54.7325 24.5628H58.6963C58.8231 25.6092 59.3622 26.4548 60.3135 27.0996C61.2649 27.7338 62.4434 28.0509 63.8493 28.0509C65.2234 28.0509 66.3438 27.7444 67.2106 27.1313C68.0879 26.5182 68.5266 25.736 68.5266 24.7847C68.5266 23.9602 68.2095 23.2943 67.5753 22.787C66.941 22.269 65.9052 21.8409 64.4676 21.5027L61.5027 20.805C59.3992 20.3188 57.8348 19.563 56.8095 18.5377C55.7948 17.5124 55.2874 16.1806 55.2874 14.5422C55.2874 12.5233 56.0802 10.8849 57.6657 9.62706C59.2512 8.36921 61.2966 7.74028 63.8017 7.74028C66.3174 7.74028 68.3416 8.36393 69.8743 9.61121C71.4175 10.8479 72.2156 12.4757 72.2684 14.4946H68.368C68.2729 13.427 67.8131 12.592 66.9886 11.9895C66.1641 11.3764 65.0913 11.0699 63.77 11.0699C62.4804 11.0699 61.434 11.3606 60.6306 11.9419C59.8379 12.5233 59.4415 13.2896 59.4415 14.241C59.4415 15.002 59.748 15.6204 60.3611 16.096C60.9847 16.5717 61.9995 16.9786 63.4053 17.3169L66.0373 17.9194C68.3522 18.4479 70.0328 19.2195 71.0793 20.2343C72.1257 21.249 72.649 22.6073 72.649 24.3091C72.649 26.476 71.835 28.1989 70.2072 29.4779C68.59 30.7463 66.3967 31.3805 63.6273 31.3805C60.9847 31.3805 58.8601 30.7727 57.2535 29.5572C55.6574 28.331 54.817 26.6662 54.7325 24.5628ZM79.8314 31H75.7407V8.12081H79.8314V31ZM124.813 31L122.863 25.086H114.444L112.493 31H108.276L116.394 8.12081H121.008L129.126 31H124.813ZM118.598 12.1639L115.395 21.9308H121.895L118.709 12.1639H118.598ZM146.059 27.5435V31H131.583V8.12081H135.674V27.5435H146.059Z" fill="#F8F8F8"/>
<path d="M52.443 18.8412C52.443 22.1179 51.386 24.7129 49.272 26.6261C47.1579 28.5288 44.2723 29.4801 40.615 29.4801C36.9788 29.4801 34.1037 28.5235 31.9897 26.6103C29.8651 24.6865 28.8028 22.0968 28.8028 18.8412C28.8028 16.1775 29.5638 13.9313 31.0859 12.1027C32.5975 10.274 34.5794 9.23287 37.0317 8.97919V13.0064C35.5941 13.2707 34.442 13.9419 33.5752 15.0201C32.7085 16.0876 32.2751 17.3614 32.2751 18.8412C32.2751 20.8072 33.0309 22.3769 34.5424 23.5502C36.0434 24.7129 38.0676 25.2943 40.615 25.2943C43.1835 25.2943 45.2183 24.7129 46.7193 23.5502C48.2202 22.3875 48.9707 20.8125 48.9707 18.8253C48.9707 17.3138 48.5849 16.0454 47.8133 15.0201C47.0311 13.9842 45.9529 13.3077 44.5788 12.9906V8.97919C47.0311 9.33858 48.9549 10.3956 50.3501 12.1502C51.7454 13.9049 52.443 16.1352 52.443 18.8412Z" fill="#F8F8F8"/>
<path d="M108.172 18.8412C108.172 22.1179 107.115 24.7129 105 26.6261C102.886 28.5288 100.001 29.4801 96.3435 29.4801C92.7073 29.4801 89.8323 28.5235 87.7182 26.6103C85.5936 24.6865 84.5313 22.0968 84.5313 18.8412C84.5313 16.1775 85.2924 13.9313 86.8145 12.1027C88.326 10.274 90.3079 9.23287 92.7602 8.97919V13.0064C91.3227 13.2707 90.1705 13.9419 89.3037 15.0201C88.437 16.0876 88.0036 17.3614 88.0036 18.8412C88.0036 20.8072 88.7594 22.3769 90.2709 23.5502C91.7719 24.7129 93.7961 25.2943 96.3435 25.2943C98.9121 25.2943 100.947 24.7129 102.448 23.5502C103.949 22.3875 104.699 20.8125 104.699 18.8253C104.699 17.3138 104.313 16.0454 103.542 15.0201C102.76 13.9842 101.681 13.3077 100.307 12.9906V8.97919C102.76 9.33858 104.683 10.3956 106.079 12.1502C107.474 13.9049 108.172 16.1352 108.172 18.8412Z" fill="#F8F8F8"/>
<path d="M102.499 38.8594V48H101.049V46.5146H101.014C100.445 47.6104 99.4785 48.1582 98.1133 48.1582C97.123 48.1582 96.3467 47.8594 95.7842 47.2617C95.2275 46.6582 94.9492 45.835 94.9492 44.792V38.8594H96.4785V44.5195C96.4785 46.043 97.1816 46.8047 98.5879 46.8047C99.3262 46.8047 99.9062 46.5732 100.328 46.1104C100.756 45.6416 100.97 45.0146 100.97 44.2295V38.8594H102.499ZM108.924 38.7012C110.096 38.7012 111.039 39.1318 111.754 39.9932C112.475 40.8545 112.835 42 112.835 43.4297C112.835 44.8535 112.478 45.999 111.763 46.8662C111.048 47.7275 110.113 48.1582 108.959 48.1582C108.314 48.1582 107.737 48.0117 107.228 47.7188C106.718 47.4258 106.325 47.0244 106.05 46.5146H106.015V51.0498H104.485V38.8594H105.936V40.4062H105.971C106.258 39.8789 106.659 39.4629 107.175 39.1582C107.69 38.8535 108.273 38.7012 108.924 38.7012ZM108.625 46.8135C109.439 46.8135 110.084 46.5088 110.559 45.8994C111.033 45.29 111.271 44.4668 111.271 43.4297C111.271 42.3926 111.033 41.5693 110.559 40.96C110.084 40.3506 109.439 40.0459 108.625 40.0459C107.84 40.0459 107.207 40.3564 106.727 40.9775C106.246 41.5986 106.006 42.416 106.006 43.4297C106.006 44.4492 106.246 45.2695 106.727 45.8906C107.207 46.5059 107.84 46.8135 108.625 46.8135ZM117.845 48.1582C116.673 48.1582 115.727 47.7275 115.006 46.8662C114.291 46.0049 113.934 44.8594 113.934 43.4297C113.934 42.0059 114.291 40.8633 115.006 40.002C115.721 39.1348 116.655 38.7012 117.81 38.7012C118.454 38.7012 119.031 38.8477 119.541 39.1406C120.051 39.4336 120.443 39.835 120.719 40.3447H120.754V35.3174H122.283V48H120.824V46.4531H120.798C120.499 46.9863 120.095 47.4053 119.585 47.71C119.075 48.0088 118.495 48.1582 117.845 48.1582ZM118.135 40.0459C117.326 40.0459 116.685 40.3535 116.21 40.9688C115.735 41.5781 115.498 42.3984 115.498 43.4297C115.498 44.4668 115.735 45.29 116.21 45.8994C116.685 46.5088 117.326 46.8135 118.135 46.8135C118.926 46.8135 119.562 46.5059 120.042 45.8906C120.522 45.2695 120.763 44.4492 120.763 43.4297C120.763 42.4102 120.52 41.5928 120.033 40.9775C119.553 40.3564 118.92 40.0459 118.135 40.0459ZM127.363 46.8574C128.084 46.8574 128.688 46.6348 129.174 46.1895C129.666 45.7383 129.912 45.1846 129.912 44.5283V43.7812L127.469 43.9307C126.854 43.9717 126.376 44.1211 126.036 44.3789C125.702 44.6367 125.535 44.9824 125.535 45.416C125.535 45.8496 125.702 46.1982 126.036 46.4619C126.37 46.7256 126.812 46.8574 127.363 46.8574ZM127.021 48.1582C126.112 48.1582 125.377 47.9062 124.814 47.4023C124.258 46.8984 123.979 46.2363 123.979 45.416C123.979 44.6309 124.267 44.0039 124.841 43.5352C125.421 43.0664 126.238 42.8027 127.293 42.7441L129.912 42.5947V41.8301C129.912 41.2734 129.736 40.8369 129.385 40.5205C129.033 40.2041 128.541 40.0459 127.908 40.0459C127.328 40.0459 126.856 40.1748 126.493 40.4326C126.13 40.6846 125.898 41.0391 125.799 41.4961H124.322C124.375 40.6816 124.727 40.0137 125.377 39.4922C126.033 38.9648 126.889 38.7012 127.943 38.7012C129.016 38.7012 129.865 38.9707 130.492 39.5098C131.125 40.0488 131.441 40.7725 131.441 41.6807V48H129.991V46.4268H129.956C129.681 46.9482 129.276 47.3672 128.743 47.6836C128.21 48 127.636 48.1582 127.021 48.1582ZM133.876 36.6533H135.405V38.8594H137.181V40.1162H135.405V45.5479C135.405 45.9639 135.496 46.2715 135.678 46.4707C135.859 46.6641 136.146 46.7607 136.539 46.7607C136.785 46.7607 136.996 46.7461 137.172 46.7168V48C136.973 48.0469 136.65 48.0703 136.205 48.0703C135.367 48.0703 134.77 47.8828 134.412 47.5078C134.055 47.1328 133.876 46.5059 133.876 45.627V40.1162H132.514V38.8594H133.876V36.6533ZM142.217 40.0283C141.508 40.0283 140.919 40.2744 140.45 40.7666C139.987 41.2529 139.732 41.8799 139.686 42.6475H144.651C144.634 41.874 144.402 41.2441 143.957 40.7578C143.512 40.2715 142.932 40.0283 142.217 40.0283ZM144.616 45.3809H146.119C145.984 46.1895 145.562 46.8545 144.854 47.376C144.15 47.8975 143.304 48.1582 142.313 48.1582C141.007 48.1582 139.979 47.7363 139.229 46.8926C138.479 46.0488 138.104 44.9062 138.104 43.4648C138.104 42.0352 138.479 40.8838 139.229 40.0107C139.984 39.1377 140.989 38.7012 142.243 38.7012C143.474 38.7012 144.446 39.1143 145.161 39.9404C145.876 40.7666 146.233 41.874 146.233 43.2627V43.8428H139.677V43.9307C139.677 44.8096 139.917 45.5127 140.397 46.04C140.878 46.5674 141.528 46.8311 142.349 46.8311C142.923 46.8311 143.412 46.6992 143.816 46.4355C144.221 46.1719 144.487 45.8203 144.616 45.3809Z" fill="#CDCDCD"/>
</svg>
