<svg width="54" height="54" viewBox="0 0 54 54" fill="none" xmlns="http://www.w3.org/2000/svg">
    <path fill-rule="evenodd" clip-rule="evenodd"
          d="M26.529 13.261C19.2315 13.261 13.2607 19.2317 13.2607 26.5293C13.2607 33.8268 19.2315 39.7976 26.529 39.7976C33.8266 39.7976 39.7973 33.8268 39.7973 26.5293C39.7973 19.2317 33.8929 13.261 26.529 13.261ZM32.6324 32.4337C32.3671 32.8317 31.9027 32.9644 31.5046 32.699C28.3866 30.7751 24.4724 30.3771 19.8285 31.4385C19.3642 31.5712 18.9661 31.2395 18.8334 30.8415C18.7007 30.3771 19.0324 29.979 19.4305 29.8463C24.4724 28.7185 28.851 29.1829 32.3007 31.3059C32.7651 31.5049 32.8315 32.0356 32.6324 32.4337ZM34.2246 28.7849C33.8929 29.2493 33.2959 29.4483 32.8315 29.1166C29.249 26.9273 23.809 26.2639 19.6295 27.5907C19.0988 27.7234 18.5017 27.4581 18.369 26.9273C18.2363 26.3966 18.5017 25.7995 19.0324 25.6668C23.8754 24.2073 29.8461 24.9371 33.9593 27.4581C34.3573 27.6571 34.5563 28.3205 34.2246 28.7849ZM34.3573 25.0698C30.1115 22.5488 23.0129 22.2834 18.9661 23.5439C18.3027 23.7429 17.6393 23.3449 17.4403 22.7478C17.2412 22.0844 17.6393 21.421 18.2363 21.222C22.9466 19.8288 30.7085 20.0942 35.6178 23.0132C36.2149 23.3449 36.4139 24.141 36.0822 24.7381C35.7505 25.2024 34.9544 25.4015 34.3573 25.0698Z"
          fill="#F8F8F8"/>
</svg>
