<svg width="50" height="50" viewBox="0 0 50 50" fill="none" xmlns="http://www.w3.org/2000/svg">
    <path fill-rule="evenodd" clip-rule="evenodd"
          d="M10.3139 5.16879C11.9346 4.49583 13.6722 4.14941 15.4271 4.14941C17.1819 4.14941 18.9195 4.49583 20.5402 5.16879C22.1609 5.84175 23.6328 6.82802 24.8715 8.07104L24.8785 8.078L25 8.20115L25.1215 8.07801L25.1285 8.07104C26.3672 6.82802 27.8391 5.84175 29.4598 5.16879C31.0805 4.49583 32.8181 4.14941 34.5729 4.14941C36.3278 4.14941 38.0654 4.49583 39.686 5.16879C41.3062 5.84152 42.7776 6.82734 44.0161 8.06976C49.3182 13.3733 49.4361 22.1423 43.1534 28.5427L43.1399 28.5565L26.4731 45.2231C26.0824 45.6138 25.5525 45.8333 25 45.8333C24.4475 45.8333 23.9176 45.6138 23.5269 45.2231L6.84652 28.5428C0.563813 22.1424 0.681772 13.3733 5.98392 8.06975C7.22236 6.82733 8.69381 5.84151 10.3139 5.16879ZM15.4271 8.31608C14.2206 8.31608 13.026 8.55424 11.9118 9.0169C10.7976 9.47956 9.78563 10.1576 8.93402 11.0122L8.93146 11.0148C5.4031 14.5431 4.97865 20.6859 9.81356 25.6173L25 40.8037L40.1864 25.6173C45.0213 20.6859 44.5969 14.5431 41.0685 11.0148L41.066 11.0122C40.2143 10.1576 39.2024 9.47956 38.0882 9.0169C36.974 8.55424 35.7794 8.31608 34.5729 8.31608C33.3664 8.31608 32.1719 8.55424 31.0576 9.0169C29.9449 9.47895 28.9341 10.1558 28.0832 11.0088C28.0821 11.01 28.081 11.0111 28.0799 11.0122L26.4826 12.6302C26.0912 13.0268 25.5572 13.25 25 13.25C24.4428 13.25 23.9088 13.0268 23.5174 12.6302L21.9201 11.0122C21.919 11.0111 21.9179 11.01 21.9168 11.0088C21.0659 10.1558 20.0551 9.47895 18.9424 9.0169C17.8281 8.55424 16.6335 8.31608 15.4271 8.31608Z"
          fill="#F8F8F8"/>
</svg>
