<svg width="50" height="45" viewBox="0 0 50 45" fill="none" xmlns="http://www.w3.org/2000/svg">
    <path d="M25.9065 15.695L41.3635 0.244311C41.4997 0.107758 41.6906 0.029159 41.8958 0.0251088L49.6556 5.70384e-05C49.7005 -0.00077579 49.7452 0.00751898 49.7869 0.0244565C49.8287 0.0413941 49.8667 0.066635 49.8988 0.0987045C49.9308 0.130774 49.9563 0.169029 49.9737 0.211235C49.9911 0.25344 50.0001 0.298751 50.0001 0.344519V4.59079C50.0001 4.70042 49.9565 4.80556 49.879 4.88308C49.8015 4.9606 49.6963 5.00415 49.5867 5.00415H44.1317C43.731 5.00406 43.3458 5.164 43.0607 5.44881L27.8981 20.6114C27.8127 20.696 27.7091 20.76 27.5952 20.7984C27.4814 20.8367 27.3604 20.8485 27.2417 20.8328C27.123 20.817 27.0098 20.7742 26.9107 20.7075C26.8117 20.6409 26.7295 20.5523 26.6706 20.4486C25.8982 19.1208 25.5621 17.7179 25.6623 16.2399C25.6783 16.0334 25.7647 15.8406 25.9065 15.695Z"
          fill="black"/>
    <path d="M2.09478 25.509C4.41207 22.5947 7.38488 21.031 11.0132 20.8181C11.9359 20.7638 12.6437 20.4507 13.1363 19.8786C13.4244 19.5446 13.6332 18.8724 13.7626 17.862C14.0883 15.3693 15.2115 13.3673 17.1321 11.8558C18.1091 11.0876 19.0381 10.6867 19.9191 10.6533C20.9713 10.6116 21.7082 11.1043 22.1299 12.1314C22.3262 12.6032 22.4347 13.4028 22.4556 14.5301C22.4932 16.7096 22.6456 18.3881 22.9128 19.5655C23.894 23.8953 26.4931 26.0852 30.7102 26.1353C32.4095 26.1562 32.8771 26.9244 32.1131 28.4401C31.1569 30.3524 29.6037 31.4129 27.4534 31.6217C26.4305 31.7219 25.6748 32.0726 25.1862 32.6738C24.9065 33.0204 24.7061 33.7448 24.585 34.8471C24.0673 39.5777 21.7917 42.7112 17.7584 44.2477C15.5246 45.0953 13.3034 45.2164 11.0946 44.611C8.86084 44.0014 6.85044 42.8031 5.06341 41.0161C3.19706 39.1497 1.8046 37.1581 0.886031 35.0412C-0.6129 31.5799 -0.209984 28.4025 2.09478 25.509ZM17.832 22.8562C17.7869 22.8106 17.7333 22.7744 17.6741 22.7495C17.615 22.7246 17.5515 22.7117 17.4874 22.7113C17.4232 22.711 17.3596 22.7233 17.3002 22.7475C17.2408 22.7718 17.1868 22.8075 17.1412 22.8526L15.2625 24.7116C15.217 24.7568 15.1807 24.8104 15.1558 24.8696C15.131 24.9287 15.118 24.9922 15.1177 25.0563C15.1173 25.1205 15.1297 25.1841 15.1539 25.2435C15.1781 25.3029 15.2139 25.3569 15.259 25.4025L19.5762 29.7651C19.6213 29.8107 19.6749 29.847 19.7341 29.8719C19.7932 29.8967 19.8567 29.9097 19.9208 29.91C19.985 29.9104 20.0486 29.8981 20.108 29.8738C20.1674 29.8496 20.2214 29.8139 20.267 29.7688L22.1456 27.9097C22.1912 27.8646 22.2275 27.8109 22.2524 27.7518C22.2772 27.6927 22.2902 27.6292 22.2905 27.565C22.2908 27.5009 22.2785 27.4373 22.2543 27.3779C22.2301 27.3185 22.1943 27.2645 22.1492 27.2189L17.832 22.8562ZM12.8317 27.8767C12.7344 27.779 12.6023 27.724 12.4644 27.7238C12.3266 27.7236 12.1943 27.7781 12.0966 27.8754L10.26 29.7056C10.2116 29.7538 10.1732 29.8111 10.147 29.8741C10.1208 29.9371 10.1072 30.0047 10.1071 30.0729C10.107 30.1412 10.1203 30.2088 10.1463 30.2719C10.1723 30.3351 10.2105 30.3924 10.2587 30.4408L14.5558 34.7529C14.6531 34.8505 14.7852 34.9055 14.9231 34.9057C15.0609 34.906 15.1932 34.8514 15.2909 34.7541L17.1275 32.9239C17.1759 32.8757 17.2143 32.8185 17.2405 32.7555C17.2667 32.6924 17.2803 32.6249 17.2804 32.5566C17.2805 32.4883 17.2672 32.4207 17.2412 32.3576C17.2152 32.2945 17.177 32.2371 17.1288 32.1888L12.8317 27.8767Z"
          fill="black"/>
</svg>
