<svg width="50" height="50" viewBox="0 0 50 50" fill="none" xmlns="http://www.w3.org/2000/svg">
    <path fill-rule="evenodd" clip-rule="evenodd"
          d="M37.4998 18.75C38.6504 18.75 39.5832 19.6827 39.5832 20.8333V41.6667C39.5832 42.8173 38.6504 43.75 37.4998 43.75C36.3492 43.75 35.4165 42.8173 35.4165 41.6667V20.8333C35.4165 19.6827 36.3492 18.75 37.4998 18.75Z"
          fill="#F8F8F8"/>
    <path fill-rule="evenodd" clip-rule="evenodd"
          d="M24.9998 6.25C26.1504 6.25 27.0832 7.18274 27.0832 8.33333V41.6667C27.0832 42.8173 26.1504 43.75 24.9998 43.75C23.8492 43.75 22.9165 42.8173 22.9165 41.6667V8.33333C22.9165 7.18274 23.8492 6.25 24.9998 6.25Z"
          fill="#F8F8F8"/>
    <path fill-rule="evenodd" clip-rule="evenodd"
          d="M12.4998 27.0833C13.6504 27.0833 14.5832 28.016 14.5832 29.1666V41.6666C14.5832 42.8172 13.6504 43.7499 12.4998 43.7499C11.3492 43.7499 10.4165 42.8172 10.4165 41.6666V29.1666C10.4165 28.016 11.3492 27.0833 12.4998 27.0833Z"
          fill="#F8F8F8"/>
</svg>
