<svg width="61" height="60" viewBox="0 0 61 60" fill="none" xmlns="http://www.w3.org/2000/svg">
    <rect x="0.859074" y="0.568058" width="58.6193" height="58.6193" rx="10.7931" fill="#F8F8F8"/>
    <path fill-rule="evenodd" clip-rule="evenodd"
          d="M19.0103 32.3577C19.695 32.3577 20.2501 32.9127 20.2501 33.5975V38.5567C20.2501 38.8855 20.3807 39.2009 20.6133 39.4334C20.8458 39.6659 21.1611 39.7965 21.4899 39.7965H38.8473C39.1761 39.7965 39.4914 39.6659 39.7239 39.4334C39.9565 39.2009 40.0871 38.8855 40.0871 38.5567V33.5975C40.0871 32.9127 40.6422 32.3577 41.3269 32.3577C42.0116 32.3577 42.5667 32.9127 42.5667 33.5975V38.5567C42.5667 39.5432 42.1748 40.4892 41.4773 41.1867C40.7798 41.8843 39.8337 42.2761 38.8473 42.2761H21.4899C20.5035 42.2761 19.5574 41.8843 18.8599 41.1867C18.1624 40.4892 17.7705 39.5432 17.7705 38.5567V33.5975C17.7705 32.9127 18.3256 32.3577 19.0103 32.3577Z"
          fill="#0C0C0C"/>
    <path fill-rule="evenodd" clip-rule="evenodd"
          d="M23.0926 26.5213C23.5768 26.0372 24.3618 26.0372 24.846 26.5213L30.1683 31.8437L35.4907 26.5213C35.9749 26.0372 36.7599 26.0372 37.2441 26.5213C37.7282 27.0055 37.7282 27.7905 37.2441 28.2747L31.045 34.4737C30.5608 34.9579 29.7758 34.9579 29.2917 34.4737L23.0926 28.2747C22.6084 27.7905 22.6084 27.0055 23.0926 26.5213Z"
          fill="#0C0C0C"/>
    <path fill-rule="evenodd" clip-rule="evenodd"
          d="M30.1685 17.4797C30.8532 17.4797 31.4083 18.0348 31.4083 18.7195V33.5973C31.4083 34.282 30.8532 34.8371 30.1685 34.8371C29.4838 34.8371 28.9287 34.282 28.9287 33.5973V18.7195C28.9287 18.0348 29.4838 17.4797 30.1685 17.4797Z"
          fill="#0C0C0C"/>
    <rect x="0.859074" y="0.568058" width="58.6193" height="58.6193" rx="10.7931" stroke="url(#paint0_linear_432_754)"
          stroke-width="1.13612"/>
    <defs>
        <linearGradient id="paint0_linear_432_754" x1="27.863" y1="-0.209993" x2="65.5168" y2="1.13755"
                        gradientUnits="userSpaceOnUse">
            <stop stop-color="#4A3AF2"/>
            <stop offset="0.499411" stop-color="#CD3FFF"/>
            <stop offset="1" stop-color="#DA138A"/>
        </linearGradient>
    </defs>
</svg>
