<svg width="59" height="59" viewBox="0 0 59 59" fill="none" xmlns="http://www.w3.org/2000/svg">
    <rect x="1.154" y="1.44574" width="56.8639" height="56.8639" rx="10.7931" fill="#F8F8F8"/>
    <path d="M12.2352 36.0037C11.9352 36.0037 11.7012 35.9197 11.5332 35.7517C11.3772 35.5837 11.2992 35.3497 11.2992 35.0497V24.0157C11.2992 23.7037 11.3772 23.4697 11.5332 23.3137C11.7012 23.1457 11.9352 23.0617 12.2352 23.0617C12.5352 23.0617 12.7632 23.1457 12.9192 23.3137C13.0872 23.4697 13.1712 23.7037 13.1712 24.0157V28.6597H20.2812V24.0157C20.2812 23.7037 20.3592 23.4697 20.5152 23.3137C20.6832 23.1457 20.9172 23.0617 21.2172 23.0617C21.5172 23.0617 21.7452 23.1457 21.9012 23.3137C22.0572 23.4697 22.1352 23.7037 22.1352 24.0157V35.0497C22.1352 35.3497 22.0572 35.5837 21.9012 35.7517C21.7452 35.9197 21.5172 36.0037 21.2172 36.0037C20.9172 36.0037 20.6832 35.9197 20.5152 35.7517C20.3592 35.5837 20.2812 35.3497 20.2812 35.0497V30.2257H13.1712V35.0497C13.1712 35.3497 13.0932 35.5837 12.9372 35.7517C12.7812 35.9197 12.5472 36.0037 12.2352 36.0037ZM35.1961 38.1097C35.3401 38.3257 35.4001 38.5237 35.3761 38.7037C35.3521 38.8837 35.2741 39.0337 35.1421 39.1537C35.0221 39.2857 34.8661 39.3637 34.6741 39.3877C34.4941 39.4237 34.3081 39.4057 34.1161 39.3337C33.9361 39.2617 33.7801 39.1177 33.6481 38.9017L32.4601 36.9757C32.2801 36.6757 32.0341 36.4417 31.7221 36.2737C31.4101 36.1177 31.0321 36.0397 30.5881 36.0397L32.0641 35.4457C32.6281 35.4457 33.0721 35.5477 33.3961 35.7517C33.7321 35.9437 34.0621 36.2977 34.3861 36.8137L35.1961 38.1097ZM30.6061 36.0397C29.4061 36.0397 28.3561 35.7757 27.4561 35.2477C26.5681 34.7077 25.8781 33.9517 25.3861 32.9797C24.9061 31.9957 24.6661 30.8437 24.6661 29.5237C24.6661 28.5277 24.8041 27.6337 25.0801 26.8417C25.3561 26.0377 25.7521 25.3537 26.2681 24.7897C26.7841 24.2137 27.4081 23.7757 28.1401 23.4757C28.8721 23.1757 29.6941 23.0257 30.6061 23.0257C31.8181 23.0257 32.8681 23.2897 33.7561 23.8177C34.6441 24.3457 35.3281 25.0957 35.8081 26.0677C36.3001 27.0397 36.5461 28.1857 36.5461 29.5057C36.5461 30.5017 36.4081 31.4017 36.1321 32.2057C35.8561 33.0097 35.4541 33.6997 34.9261 34.2757C34.4101 34.8517 33.7861 35.2897 33.0541 35.5897C32.3221 35.8897 31.5061 36.0397 30.6061 36.0397ZM30.6061 34.4197C31.4461 34.4197 32.1601 34.2277 32.7481 33.8437C33.3481 33.4597 33.8041 32.9017 34.1161 32.1697C34.4401 31.4377 34.6021 30.5557 34.6021 29.5237C34.6021 27.9757 34.2541 26.7757 33.5581 25.9237C32.8621 25.0717 31.8781 24.6457 30.6061 24.6457C29.7661 24.6457 29.0461 24.8377 28.4461 25.2217C27.8581 25.5937 27.4021 26.1457 27.0781 26.8777C26.7661 27.6097 26.6101 28.4917 26.6101 29.5237C26.6101 31.0597 26.9581 32.2597 27.6541 33.1237C28.3621 33.9877 29.3461 34.4197 30.6061 34.4197ZM42.9791 35.2837C42.7511 35.2837 42.5771 35.2237 42.4571 35.1037C42.3491 34.9717 42.2951 34.7977 42.2951 34.5817V31.3777H39.1451C38.9291 31.3777 38.7611 31.3237 38.6411 31.2157C38.5211 31.0957 38.4611 30.9277 38.4611 30.7117C38.4611 30.4957 38.5211 30.3337 38.6411 30.2257C38.7611 30.1057 38.9291 30.0457 39.1451 30.0457H42.2951V26.9317C42.2951 26.7157 42.3491 26.5477 42.4571 26.4277C42.5771 26.3077 42.7571 26.2477 42.9971 26.2477C43.2131 26.2477 43.3751 26.3077 43.4831 26.4277C43.6031 26.5477 43.6631 26.7157 43.6631 26.9317V30.0457H46.8131C47.0411 30.0457 47.2091 30.1057 47.3171 30.2257C47.4371 30.3337 47.4971 30.4957 47.4971 30.7117C47.4971 30.9277 47.4371 31.0957 47.3171 31.2157C47.2091 31.3237 47.0411 31.3777 46.8131 31.3777H43.6631V34.5817C43.6631 34.7977 43.6031 34.9717 43.4831 35.1037C43.3751 35.2237 43.2071 35.2837 42.9791 35.2837Z"
          fill="url(#paint0_linear_432_759)"/>
    <rect x="1.154" y="1.44574" width="56.8639" height="56.8639" rx="10.7931" stroke="url(#paint1_linear_432_759)"
          stroke-width="1.13612"/>
    <defs>
        <linearGradient id="paint0_linear_432_759" x1="27.5928" y1="17.7898" x2="52.123" y2="19.1593"
                        gradientUnits="userSpaceOnUse">
            <stop stop-color="#4A3AF2"/>
            <stop offset="0.499411" stop-color="#CD3FFF"/>
            <stop offset="1" stop-color="#DA138A"/>
        </linearGradient>
        <linearGradient id="paint1_linear_432_759" x1="27.3479" y1="0.673861" x2="63.8956" y2="1.98182"
                        gradientUnits="userSpaceOnUse">
            <stop stop-color="#4A3AF2"/>
            <stop offset="0.499411" stop-color="#CD3FFF"/>
            <stop offset="1" stop-color="#DA138A"/>
        </linearGradient>
    </defs>
</svg>
