<svg width="60" height="60" viewBox="0 0 60 60" fill="none" xmlns="http://www.w3.org/2000/svg">
    <rect x="0.614933" y="0.676212" width="58.4029" height="58.4029" rx="10.7931" fill="#F8F8F8"/>
    <path fill-rule="evenodd" clip-rule="evenodd"
          d="M19.9701 28.6467C20.6498 28.6467 21.2008 29.1978 21.2008 29.8775V40.9547H38.4319V29.8775C38.4319 29.1978 38.983 28.6467 39.6627 28.6467C40.3425 28.6467 40.8935 29.1978 40.8935 29.8775V42.1854C40.8935 42.8652 40.3425 43.4162 39.6627 43.4162H19.9701C19.2903 43.4162 18.7393 42.8652 18.7393 42.1854V29.8775C18.7393 29.1978 19.2903 28.6467 19.9701 28.6467Z"
          fill="#0C0C0C"/>
    <path fill-rule="evenodd" clip-rule="evenodd"
          d="M16.2783 23.7237C16.2783 23.044 16.8294 22.4929 17.5091 22.4929H42.125C42.8047 22.4929 43.3558 23.044 43.3558 23.7237V29.8777C43.3558 30.5574 42.8047 31.1085 42.125 31.1085H17.5091C16.8294 31.1085 16.2783 30.5574 16.2783 29.8777V23.7237ZM18.7399 24.9545V28.6469H40.8942V24.9545H18.7399Z"
          fill="#0C0C0C"/>
    <path fill-rule="evenodd" clip-rule="evenodd"
          d="M29.8158 22.4929C30.4955 22.4929 31.0465 23.044 31.0465 23.7237V42.1856C31.0465 42.8653 30.4955 43.4164 29.8158 43.4164C29.136 43.4164 28.585 42.8653 28.585 42.1856V23.7237C28.585 23.044 29.136 22.4929 29.8158 22.4929Z"
          fill="#0C0C0C"/>
    <path fill-rule="evenodd" clip-rule="evenodd"
          d="M24.2785 18.8007C23.7888 18.8007 23.3193 18.9952 22.973 19.3414C22.6268 19.6877 22.4323 20.1572 22.4323 20.6469C22.4323 21.1365 22.6268 21.6061 22.973 21.9523C23.3193 22.2986 23.7888 22.4931 24.2785 22.4931H28.1604C28.0102 22.1 27.82 21.6677 27.5847 21.24C26.8106 19.8325 25.7479 18.8007 24.2785 18.8007ZM29.817 23.7239C31.0239 23.4825 31.0239 23.4821 31.0238 23.4816L31.0236 23.4806L31.0231 23.4782L31.0217 23.4716L31.0176 23.4518C31.0142 23.4357 31.0095 23.4138 31.0034 23.3865C30.9912 23.3319 30.9735 23.2557 30.9498 23.1609C30.9024 22.9716 30.8308 22.7065 30.7308 22.3907C30.5322 21.7636 30.215 20.9144 29.7416 20.0537C28.8234 18.3843 27.1168 16.3391 24.2785 16.3391C23.136 16.3391 22.0403 16.793 21.2324 17.6008C20.4246 18.4087 19.9707 19.5044 19.9707 20.6469C19.9707 21.7894 20.4246 22.8851 21.2324 23.6929C22.0403 24.5008 23.136 24.9547 24.2785 24.9547H29.817C30.1858 24.9547 30.5351 24.7893 30.7689 24.5042C31.0026 24.219 31.0962 23.8441 31.0239 23.4825L29.817 23.7239Z"
          fill="#0C0C0C"/>
    <path fill-rule="evenodd" clip-rule="evenodd"
          d="M29.8912 20.0537C30.8094 18.3843 32.516 16.3391 35.3543 16.3391C36.4968 16.3391 37.5925 16.793 38.4004 17.6008C39.2082 18.4087 39.6621 19.5044 39.6621 20.6469C39.6621 21.7894 39.2082 22.8851 38.4004 23.6929C37.5925 24.5008 36.4968 24.9547 35.3543 24.9547H29.8158C29.447 24.9547 29.0977 24.7893 28.8639 24.5042C28.6302 24.219 28.5366 23.8441 28.6089 23.4825L29.8158 23.7239C28.6089 23.4825 28.609 23.4821 28.609 23.4816L28.6092 23.4806L28.6097 23.4782L28.6111 23.4716L28.6152 23.4518C28.6186 23.4357 28.6233 23.4138 28.6294 23.3865C28.6416 23.3319 28.6593 23.2557 28.683 23.1609C28.7304 22.9716 28.802 22.7065 28.902 22.3907C29.1006 21.7636 29.4178 20.9144 29.8912 20.0537ZM31.4724 22.4931H35.3543C35.844 22.4931 36.3136 22.2986 36.6598 21.9523C37.006 21.6061 37.2005 21.1365 37.2005 20.6469C37.2005 20.1572 37.006 19.6877 36.6598 19.3414C36.3136 18.9952 35.844 18.8007 35.3543 18.8007C33.8849 18.8007 32.8222 19.8325 32.0481 21.24C31.8128 21.6677 31.6226 22.1 31.4724 22.4931ZM31.0222 23.9673C31.0222 23.9676 31.0222 23.9676 31.0223 23.9672L31.0222 23.9673Z"
          fill="#0C0C0C"/>
    <rect x="0.614933" y="0.676212" width="58.4029" height="58.4029" rx="10.7931" stroke="url(#paint0_linear_432_756)"
          stroke-width="1.13612"/>
    <defs>
        <linearGradient id="paint0_linear_432_756" x1="27.519" y1="-0.101079" x2="65.0365" y2="1.24158"
                        gradientUnits="userSpaceOnUse">
            <stop stop-color="#4A3AF2"/>
            <stop offset="0.499411" stop-color="#CD3FFF"/>
            <stop offset="1" stop-color="#DA138A"/>
        </linearGradient>
    </defs>
</svg>
