<svg width="59" height="59" viewBox="0 0 59 59" fill="none" xmlns="http://www.w3.org/2000/svg">
    <g clip-path="url(#clip0_432_800)">
        <rect x="0.291016" y="0.877686" width="58" height="58" rx="11.3612" fill="#F8F8F8"/>
        <path fill-rule="evenodd" clip-rule="evenodd"
              d="M19.9005 11.9604H40.0139V7.0111H19.9005V11.9604ZM29.5972 -9.33252C19.4318 -9.33252 11.1816 -1.08236 11.1816 9.08302C11.1816 19.2484 19.4318 27.4986 29.5972 27.4986C39.7626 27.4986 48.0127 19.2484 48.0127 9.08302C48.0127 -1.08236 39.7626 -9.33252 29.5972 -9.33252Z"
              fill="#D22929"/>
        <path d="M17.9292 47.0049C17.6868 47.0049 17.4929 46.9504 17.3475 46.8413C17.202 46.7323 17.1172 46.5868 17.093 46.4051C17.0687 46.2233 17.1051 46.0173 17.202 45.787L22.1282 34.7349C22.2494 34.444 22.4009 34.238 22.5827 34.1168C22.7766 33.9956 22.9887 33.9351 23.2189 33.9351C23.4371 33.9351 23.637 33.9956 23.8188 34.1168C24.0127 34.238 24.1702 34.444 24.2914 34.7349L29.2176 45.787C29.3267 46.0173 29.3691 46.2293 29.3449 46.4232C29.3206 46.605 29.2419 46.7504 29.1085 46.8595C28.9752 46.9565 28.7874 47.0049 28.545 47.0049C28.2784 47.0049 28.0663 46.9383 27.9088 46.805C27.7513 46.6717 27.6119 46.4657 27.4907 46.1869L26.2183 43.2421L27.0726 43.7511H19.3289L20.165 43.2421L18.9108 46.1869C18.7896 46.4778 18.6563 46.6898 18.5109 46.8232C18.3654 46.9443 18.1715 47.0049 17.9292 47.0049ZM23.1826 36.1527L20.4377 42.6604L19.9833 42.2242H26.4L25.982 42.6604L23.2189 36.1527H23.1826ZM32.4047 46.8777C32.0775 46.8777 31.823 46.7929 31.6412 46.6232C31.4716 46.4414 31.3867 46.1869 31.3867 45.8597V35.0803C31.3867 34.7531 31.4716 34.5046 31.6412 34.335C31.823 34.1532 32.0775 34.0623 32.4047 34.0623H35.913C38.0217 34.0623 39.6455 34.6137 40.7847 35.7165C41.936 36.8072 42.5116 38.3886 42.5116 40.4609C42.5116 41.491 42.3662 42.4059 42.0753 43.2058C41.7845 44.0056 41.3543 44.6782 40.7847 45.2235C40.2272 45.7567 39.5425 46.1687 38.7306 46.4596C37.9187 46.7383 36.9795 46.8777 35.913 46.8777H32.4047ZM33.2772 45.2962H35.804C36.6038 45.2962 37.2945 45.1993 37.8762 45.0054C38.47 44.7994 38.9669 44.4964 39.3668 44.0965C39.7667 43.6966 40.0636 43.1936 40.2575 42.5877C40.4514 41.9818 40.5484 41.2728 40.5484 40.4609C40.5484 38.8491 40.1485 37.6433 39.3486 36.8435C38.5609 36.0437 37.3794 35.6438 35.804 35.6438H33.2772V45.2962Z"
              fill="#0C0C0C"/>
    </g>
    <rect x="0.859074" y="1.44574" width="56.8639" height="56.8639" rx="10.7931" stroke="url(#paint0_linear_432_800)"
          stroke-width="1.13612"/>
    <defs>
        <linearGradient id="paint0_linear_432_800" x1="27.053" y1="0.673861" x2="63.6007" y2="1.98182"
                        gradientUnits="userSpaceOnUse">
            <stop stop-color="#4A3AF2"/>
            <stop offset="0.499411" stop-color="#CD3FFF"/>
            <stop offset="1" stop-color="#DA138A"/>
        </linearGradient>
        <clipPath id="clip0_432_800">
            <rect x="0.291016" y="0.877686" width="58" height="58" rx="11.3612" fill="white"/>
        </clipPath>
    </defs>
</svg>
