<svg width="200" height="201" viewBox="0 0 200 201" fill="none" xmlns="http://www.w3.org/2000/svg">
<path opacity="0.977" fill-rule="evenodd" clip-rule="evenodd" d="M126.758 10.8752C125.076 12.297 123.513 13.8595 122.07 15.5627C121.5 15.0996 120.979 15.0996 120.508 15.5627C120.247 15.4325 119.987 15.3023 119.727 15.1721C119.392 13.9951 118.676 13.7347 117.578 14.3909C116.933 16.2384 117.519 17.2801 119.336 17.5159C106.524 24.0446 94.2848 23.0681 82.6172 14.5862C81.3152 13.2841 80.0129 11.982 78.7109 10.6799C77.7289 10.1907 76.6875 9.99536 75.5859 10.094C76.1934 9.65153 76.9098 9.3911 77.7344 9.31274C84.2957 11.4577 91.0016 12.955 97.8516 13.8049C106.316 14.7719 114.52 13.7302 122.461 10.6799C123.907 10.4539 125.339 10.519 126.758 10.8752Z" fill="#ED2F2F"/>
<path opacity="0.998" fill-rule="evenodd" clip-rule="evenodd" d="M75.5859 10.094C76.6875 9.99534 77.7289 10.1907 78.7109 10.6799C80.0129 11.982 81.3152 13.2841 82.6172 14.5862C94.2848 23.068 106.524 24.0446 119.336 17.5158C119.59 16.7599 119.72 15.9787 119.727 15.1721C119.987 15.3023 120.247 15.4325 120.508 15.5627C119.854 16.5946 120.05 17.3759 121.094 17.9065C121.888 17.3423 122.214 16.5611 122.07 15.5627C123.513 13.8594 125.076 12.2969 126.758 10.8752C127.564 10.9483 128.345 11.1436 129.102 11.4612C131.828 13.7356 134.692 15.819 137.695 17.7112C143.425 20.706 149.154 23.7007 154.883 26.6955C165.396 32.6083 170.865 41.6576 171.289 53.844C170.468 55.7967 170.012 57.8799 169.922 60.094C169.421 58.3311 168.771 56.6385 167.969 55.0158C168.33 57.2842 168.786 59.5631 169.336 61.8518C168.54 66.2229 167.693 70.585 166.797 74.9377C166.728 73.3018 166.533 71.7393 166.211 70.2502C165.979 59.6092 164.026 49.3225 160.352 39.3908C160.221 39.5209 160.091 39.6514 159.961 39.7815C161.756 45.0076 163.123 50.3463 164.062 55.7971C164.948 63.0615 165.664 70.2229 166.211 77.2815C165.605 82.9686 163.977 88.3072 161.328 93.2971C160.391 94.1678 159.544 95.0795 158.789 96.0315C157.418 96.0971 156.051 96.2272 154.688 96.4221C153.914 96.3717 153.263 96.1112 152.734 95.6408C149.531 83.8225 147.252 71.8432 145.898 59.7033C145.32 58.6069 144.409 57.9561 143.164 57.7502C141.734 58.2049 140.432 58.8557 139.258 59.7033C138.224 60.9971 137.052 62.169 135.742 63.219C133.927 64.2459 133.145 65.8084 133.398 67.9065C133.098 67.6084 132.903 67.2178 132.812 66.7346C128.992 72.4201 125.672 78.41 122.852 84.7033C118.404 79.2268 112.675 75.8412 105.664 74.5471C105.299 73.0342 104.713 71.6022 103.906 70.2502C102.474 68.6877 101.042 68.6877 99.6094 70.2502C99.0352 71.5174 98.5793 72.8194 98.2422 74.1565C85.7965 75.7951 77.5934 82.5662 73.6328 94.469C73.1898 95.5901 72.9297 96.7619 72.8516 97.9846C71.4785 97.6959 70.1766 97.6959 68.9453 97.9846C67.2875 99.0654 66.9617 100.498 67.9688 102.281C68.2309 102.575 68.5563 102.706 68.9453 102.672C70.0074 103.224 71.1793 103.485 72.4609 103.453C73.0086 109.657 75.0922 115.256 78.7109 120.25C77.1254 122.766 75.6281 125.37 74.2188 128.063C73.4637 131.475 74.7008 132.712 77.9297 131.774C79.5094 129.462 80.9418 127.053 82.2266 124.547C82.4051 124.235 82.6656 124.105 83.0078 124.156C83.2684 124.287 83.5285 124.417 83.7891 124.547C90.1004 129.478 97.2621 131.301 105.273 130.016C102.424 139.41 98.843 148.524 94.5312 157.36C88.2094 168.401 79.0297 171.722 66.9922 167.321C59.6875 163.726 53.9586 158.452 49.8047 151.5C50.3047 138.471 50.1746 125.45 49.4141 112.438C50.6492 108.145 52.0164 103.848 53.5156 99.5471C53.243 85.7674 51.2898 72.2256 47.6562 58.9221C47.591 59.8334 47.5262 60.7451 47.4609 61.6565C48.9914 76.1205 48.9914 90.5737 47.4609 105.016C48.1121 105.016 48.7629 105.016 49.4141 105.016C49.4141 105.927 49.4141 106.839 49.4141 107.75C48.452 106.984 47.5402 106.138 46.6797 105.211C38.8084 104.187 31.1262 102.364 23.6328 99.7424C22.7084 98.992 22.1875 98.0154 22.0703 96.8127C23.1755 87.7143 24.152 78.5998 25 69.469C25.774 60.2666 27.597 51.2823 30.4688 42.5158C33.1675 35.6501 37.7898 30.5069 44.3359 27.0862C52.3969 22.8602 60.6 18.9539 68.9453 15.3674C70.1914 14.4438 71.3633 13.4673 72.4609 12.4377C73.3059 14.1383 74.4129 15.7008 75.7812 17.1252C75.9309 16.908 76.1262 16.7778 76.3672 16.7346C76.2434 18.1688 76.8941 18.8199 78.3203 18.6877C77.8066 19.2325 77.9371 19.6231 78.7109 19.8596C77.5781 20.4173 77.3176 21.2637 77.9297 22.3987C78.3203 22.6591 78.7109 22.6591 79.1016 22.3987C79.4469 21.7269 79.9676 21.2711 80.6641 21.0315C80.6684 21.6242 80.9285 22.08 81.4453 22.3987C91.9504 29.4828 103.148 30.7849 115.039 26.3049C118.954 24.61 122.47 22.3314 125.586 19.469C125.586 20.2502 125.586 21.0315 125.586 21.8127C126.528 19.9191 127.439 18.0311 128.32 16.1487C128.036 14.8367 127.254 14.3158 125.977 14.5862C124.334 16.1626 122.772 17.7901 121.289 19.469C120.201 19.2409 119.55 19.6316 119.336 20.6408C109.931 26.286 100.035 27.2626 89.6484 23.5705C83.4301 20.6694 78.352 16.4376 74.4141 10.8752C74.5988 10.3259 74.9895 10.0655 75.5859 10.094Z" fill="#FC615C"/>
<path fill-rule="evenodd" clip-rule="evenodd" d="M119.727 15.1721C119.72 15.9787 119.59 16.7599 119.336 17.5159C117.519 17.2801 116.933 16.2384 117.578 14.3909C118.676 13.7347 119.392 13.9951 119.727 15.1721Z" fill="#F8B8B8"/>
<path fill-rule="evenodd" clip-rule="evenodd" d="M74.4141 10.8752C78.352 16.4376 83.4301 20.6694 89.6484 23.5706C100.035 27.2626 109.931 26.286 119.336 20.6409C119.789 21.374 120.44 21.5693 121.289 21.2268C121.769 20.6447 121.769 20.0588 121.289 19.469C122.772 17.7902 124.334 16.1626 125.977 14.5862C127.254 14.3159 128.036 14.8367 128.32 16.1487C127.439 18.0311 126.528 19.9192 125.586 21.8127C125.586 21.0315 125.586 20.2502 125.586 19.469C122.47 22.3314 118.954 24.61 115.039 26.3049C103.148 30.7849 91.9504 29.4829 81.4453 22.3987C80.9285 22.08 80.6684 21.6242 80.6641 21.0315C81.4309 19.5533 81.0402 18.8371 79.4922 18.8831C79.148 19.1597 78.8879 19.4852 78.7109 19.8596C77.9371 19.6231 77.8066 19.2325 78.3203 18.6877C78.9957 17.4577 78.6699 16.5462 77.3438 15.9534C76.8355 16.0075 76.5102 16.268 76.3672 16.7346C76.1262 16.7779 75.9309 16.9081 75.7812 17.1252C74.4129 15.7008 73.3059 14.1383 72.4609 12.4377C72.7617 11.4864 73.4129 10.9656 74.4141 10.8752Z" fill="#F44543"/>
<path fill-rule="evenodd" clip-rule="evenodd" d="M78.3203 18.6877C76.8941 18.8199 76.2433 18.1688 76.3671 16.7346C76.5101 16.268 76.8355 16.0075 77.3437 15.9534C78.6699 16.5462 78.9957 17.4577 78.3203 18.6877Z" fill="#FBC0BF"/>
<path fill-rule="evenodd" clip-rule="evenodd" d="M122.07 15.5628C122.214 16.5611 121.888 17.3424 121.094 17.9065C120.05 17.3759 119.854 16.5947 120.508 15.5628C120.979 15.0996 121.5 15.0996 122.07 15.5628Z" fill="#FCBEBD"/>
<path fill-rule="evenodd" clip-rule="evenodd" d="M121.289 19.469C121.769 20.0588 121.769 20.6447 121.289 21.2268C120.44 21.5693 119.789 21.374 119.336 20.6409C119.55 19.6316 120.201 19.2409 121.289 19.469Z" fill="#FCBCBB"/>
<path fill-rule="evenodd" clip-rule="evenodd" d="M80.6641 21.0315C79.9676 21.2711 79.4469 21.7269 79.1016 22.3987C78.7109 22.6591 78.3203 22.6591 77.9297 22.3987C77.3176 21.2637 77.5781 20.4173 78.7109 19.8596C78.8879 19.4852 79.1481 19.1597 79.4922 18.8831C81.0402 18.8371 81.4309 19.5533 80.6641 21.0315Z" fill="#FDC2C1"/>
<path fill-rule="evenodd" clip-rule="evenodd" d="M68.1641 20.2502C68.4051 20.2935 68.6004 20.4237 68.75 20.6409C68.7485 23.8913 69.9203 26.6256 72.2656 28.844C72.5344 29.1689 72.4692 29.4293 72.0703 29.6252C69.2703 27.1476 67.9684 24.0226 68.1641 20.2502Z" fill="#EF3837"/>
<path fill-rule="evenodd" clip-rule="evenodd" d="M66.6016 18.2971C67.0125 18.2387 67.4031 18.3039 67.7734 18.4924C58.7773 22.8565 50.4441 28.195 42.7734 34.5081C42.4484 34.7767 42.1883 34.7116 41.9922 34.3128C49.4863 27.8957 57.6895 22.5571 66.6016 18.2971Z" fill="#EE3534"/>
<path fill-rule="evenodd" clip-rule="evenodd" d="M79.4922 25.3284C80.1559 25.2658 80.8071 25.3309 81.4453 25.5237C87.9106 31.6673 95.593 34.0111 104.492 32.5549C107.82 31.8363 111.01 30.7295 114.063 29.2346C114.954 29.3565 115.409 29.8773 115.43 30.7971C115.3 31.1877 115.169 31.5784 115.039 31.969C108.724 35.5884 101.954 36.8254 94.7266 35.6799C88.5254 34.5658 83.252 31.7664 78.9063 27.2815C78.6668 26.5021 78.8621 25.8511 79.4922 25.3284Z" fill="#F44644"/>
<path fill-rule="evenodd" clip-rule="evenodd" d="M60.7422 26.8909C61.3195 26.7886 61.8402 26.9188 62.3047 27.2815C58.2887 28.4463 54.5125 30.139 50.9766 32.3596C50.8465 32.2295 50.716 32.0992 50.5859 31.969C53.7656 29.8266 57.1508 28.1339 60.7422 26.8909Z" fill="#EE3534"/>
<path fill-rule="evenodd" clip-rule="evenodd" d="M134.18 21.4221C140.729 23.7855 146.849 26.9756 152.539 30.9924C151.84 31.1958 151.189 31.0655 150.586 30.6018C145.593 27.1932 140.254 24.3937 134.57 22.2034C134.259 22.0249 134.128 21.7645 134.18 21.4221Z" fill="#EF3635"/>
<path fill-rule="evenodd" clip-rule="evenodd" d="M137.695 28.0627C141.178 29.4133 144.563 30.9758 147.852 32.7502C147.514 33.1732 147.123 33.2383 146.68 32.9456C143.862 31.4718 140.998 30.1046 138.086 28.844C137.774 28.6655 137.644 28.4051 137.695 28.0627Z" fill="#EF3634"/>
<path fill-rule="evenodd" clip-rule="evenodd" d="M66.2109 34.3128C68.9465 33.9896 69.923 35.1615 69.1406 37.8284C67.7676 39.4104 66.2051 39.671 64.4531 38.6096C63.8254 36.6324 64.4113 35.2001 66.2109 34.3128Z" fill="#FECAC9"/>
<path fill-rule="evenodd" clip-rule="evenodd" d="M150.195 35.8752C153.384 36.1159 154.296 37.6133 152.93 40.3674C150.58 41.3405 149.148 40.5592 148.633 38.0237C148.831 37.0294 149.352 36.3133 150.195 35.8752Z" fill="#FEC6C5"/>
<path fill-rule="evenodd" clip-rule="evenodd" d="M139.258 59.7034C137.159 60.9534 135.402 60.5628 133.984 58.5315C133.618 57.2565 133.422 55.9546 133.398 54.6253C133.98 51.7835 134.176 48.9186 133.984 46.0315C132.866 44.121 132.02 42.1026 131.445 39.9768C132.616 36.2903 134.244 36.095 136.328 39.3909C139.534 44.7085 141.227 50.4378 141.406 56.5784C140.909 57.7882 140.193 58.8299 139.258 59.7034Z" fill="#FFFBFB"/>
<path fill-rule="evenodd" clip-rule="evenodd" d="M64.6485 40.5627C66.1524 40.6413 66.543 41.3573 65.8204 42.7112C63.7848 42.9245 63.3942 42.2084 64.6485 40.5627Z" fill="#FEBCB9"/>
<path fill-rule="evenodd" clip-rule="evenodd" d="M84.5703 37.4378C84.7254 37.0374 84.9855 36.9723 85.3516 37.2425C89.2684 41.3757 90.9609 46.2585 90.4297 51.8909C90.2215 46.3085 88.2684 41.4905 84.5703 37.4378Z" fill="#EF3534"/>
<path fill-rule="evenodd" clip-rule="evenodd" d="M152.93 42.5159C155.169 42.6952 155.95 43.867 155.273 46.0315C153.398 46.9104 152.226 46.3897 151.758 44.469C151.989 43.7178 152.38 43.067 152.93 42.5159Z" fill="#FEC5C4"/>
<path fill-rule="evenodd" clip-rule="evenodd" d="M148.633 42.9065C150.264 42.6452 150.785 43.2311 150.195 44.6643C149.69 44.8557 149.169 44.921 148.633 44.8596C148.633 44.2085 148.633 43.5577 148.633 42.9065Z" fill="#FEC9C8"/>
<path fill-rule="evenodd" clip-rule="evenodd" d="M68.5547 43.2971C70.0586 43.3756 70.4493 44.0917 69.7266 45.4456C67.8602 45.4741 67.4696 44.7581 68.5547 43.2971Z" fill="#FEC2C0"/>
<path fill-rule="evenodd" clip-rule="evenodd" d="M110.352 36.6565C110.866 37.6669 111.126 38.8388 111.133 40.1721C111.094 43.2377 110.768 46.2327 110.156 49.1565C110.122 44.992 110.187 40.8252 110.352 36.6565Z" fill="#EF3837"/>
<path fill-rule="evenodd" clip-rule="evenodd" d="M114.648 39.7815C114.903 40.1522 115.034 40.6077 115.039 41.1487C114.697 44.0038 114.241 46.8034 113.672 49.5471C113.517 46.2338 113.842 42.9784 114.648 39.7815Z" fill="#EF3736"/>
<path fill-rule="evenodd" clip-rule="evenodd" d="M66.2109 47.9846C67.5894 47.746 68.3055 48.2671 68.3594 49.5471C66.2687 50.8663 65.5527 50.3456 66.2109 47.9846Z" fill="#FEC5C3"/>
<path fill-rule="evenodd" clip-rule="evenodd" d="M151.758 48.7659C153.314 48.8163 153.835 49.5327 153.32 50.9143C151.456 51.2307 150.936 50.5147 151.758 48.7659Z" fill="#FEC1C0"/>
<path fill-rule="evenodd" clip-rule="evenodd" d="M166.211 70.2502C166.211 72.594 166.211 74.9377 166.211 77.2815C165.664 70.2229 164.948 63.0616 164.062 55.7971C163.123 50.3463 161.756 45.0077 159.961 39.7815C160.091 39.6514 160.221 39.5209 160.352 39.3909C164.026 49.3225 165.979 59.6092 166.211 70.2502Z" fill="#F03937"/>
<path fill-rule="evenodd" clip-rule="evenodd" d="M37.3047 40.1721C37.5595 40.5428 37.6897 40.9983 37.6953 41.5393C36.2955 48.3073 35.319 55.1432 34.7656 62.0471C34.6452 71.4319 34.58 80.8069 34.5703 90.1721C34.2486 88.8889 34.0533 87.587 33.9844 86.2659C33.5716 75.5694 33.832 64.8924 34.7656 54.2346C35.3197 49.4764 36.1661 44.7889 37.3047 40.1721Z" fill="#EF3736"/>
<path fill-rule="evenodd" clip-rule="evenodd" d="M84.9609 47.2034C85.4492 47.2334 85.7746 47.494 85.9375 47.9846C87.2023 51.8186 87.5277 55.7249 86.9141 59.7034C86.7617 55.451 86.1105 51.2842 84.9609 47.2034Z" fill="#EF3635"/>
<path fill-rule="evenodd" clip-rule="evenodd" d="M83.3984 49.1565C84.002 49.4417 84.3273 49.9624 84.375 50.719C84.5117 52.5487 84.707 54.3717 84.9609 56.1877C84.8309 56.5784 84.7004 56.969 84.5703 57.3596C83.9488 54.6612 83.5582 51.9268 83.3984 49.1565Z" fill="#EF3736"/>
<path fill-rule="evenodd" clip-rule="evenodd" d="M171.289 53.844C174.807 68.1139 176.695 82.567 176.953 97.2034C176.52 98.1077 175.804 98.6936 174.805 98.9612C166.639 100.951 158.436 101.537 150.195 100.719C151.523 100.844 152.825 100.714 154.102 100.328C153.494 99.3741 153.234 98.3323 153.32 97.2034C160.509 96.9768 167.411 95.4791 174.023 92.7112C174.566 92.3639 174.501 92.1686 173.828 92.1252C168.96 94.0096 163.947 95.3116 158.789 96.0315C159.544 95.0795 160.391 94.1678 161.328 93.2971C163.977 88.3073 165.605 82.9686 166.211 77.2815C166.211 74.9377 166.211 72.594 166.211 70.2502C166.533 71.7393 166.728 73.3018 166.797 74.9377C167.693 70.585 168.54 66.2229 169.336 61.8518C168.786 59.5631 168.33 57.2842 167.969 55.0159C168.771 56.6385 169.421 58.3311 169.922 60.094C170.012 57.8799 170.468 55.7967 171.289 53.844Z" fill="#FB4848"/>
<path fill-rule="evenodd" clip-rule="evenodd" d="M145.898 59.7034C145.378 61.1737 145.053 62.7362 144.922 64.3909C144.661 69.8596 144.661 75.3284 144.922 80.7971C145.834 87.5034 147.07 94.144 148.633 100.719C149.058 115.404 150.164 130.117 151.953 144.86C153.615 156.192 155.893 167.39 158.789 178.453C148.669 181.958 138.252 183.195 127.539 182.164C121.283 181.717 115.033 181.196 108.789 180.602C102.018 180.341 95.2473 180.341 88.4766 180.602C82.3043 181.487 76.1844 182.659 70.1172 184.117C64.7801 184.889 59.4414 184.889 54.1016 184.117C50.7086 183.009 47.323 181.903 43.9453 180.797C46.3469 171.071 48.3 161.305 49.8047 151.5C53.9586 158.452 59.6875 163.726 66.9922 167.321C79.0297 171.722 88.2094 168.401 94.5312 157.36C98.843 148.524 102.424 139.41 105.273 130.016C111.59 128.877 116.929 126.013 121.289 121.422C123.44 124.203 125.654 127.003 127.93 129.821C130.921 130.603 132.159 129.496 131.641 126.5C129.191 123.291 127.043 119.906 125.195 116.344C127.729 111.866 128.901 107.048 128.711 101.891C129.971 101.822 131.143 101.562 132.227 101.11C135.069 101.346 137.543 100.565 139.648 98.7659C138.998 123.129 141.668 147.087 147.656 170.641C147.917 169.73 147.917 168.818 147.656 167.906C142.232 144.785 139.823 121.348 140.43 97.594C140.379 95.9151 139.533 94.8733 137.891 94.469C135.728 94.9608 133.579 95.4819 131.445 96.0315C130.465 96.1983 129.554 96.4584 128.711 96.8127C127.499 92.4354 125.546 88.3991 122.852 84.7034C125.672 78.41 128.992 72.4202 132.812 66.7346C132.903 67.2178 133.098 67.6084 133.398 67.9065C134.359 70.1358 136.051 70.8522 138.477 70.0549C140.472 68.7401 140.928 66.9823 139.844 64.7815C138.79 63.4651 137.423 62.944 135.742 63.219C137.052 62.169 138.224 60.9971 139.258 59.7034C140.432 58.8557 141.734 58.2049 143.164 57.7502C144.409 57.9561 145.32 58.6069 145.898 59.7034Z" fill="#FB4948"/>
<path fill-rule="evenodd" clip-rule="evenodd" d="M152.148 55.4065C153.136 56.1917 153.852 57.2334 154.297 58.5315C154.699 59.6604 155.154 60.7674 155.664 61.8518C155.534 62.0471 155.404 62.2424 155.273 62.4377C154.019 60.1897 152.977 57.8459 152.148 55.4065Z" fill="#EF3635"/>
<path fill-rule="evenodd" clip-rule="evenodd" d="M145.898 59.7034C147.252 71.8432 149.531 83.8225 152.734 95.6409C153.263 96.1112 153.914 96.3717 154.687 96.4221C156.051 96.2272 157.418 96.0971 158.789 96.0315C163.947 95.3116 168.96 94.0096 173.828 92.1252C174.501 92.1686 174.566 92.3639 174.023 92.7112C167.411 95.4792 160.509 96.9768 153.32 97.2034C153.234 98.3323 153.494 99.3741 154.102 100.328C152.825 100.714 151.523 100.844 150.195 100.719C149.675 100.719 149.153 100.719 148.633 100.719C147.07 94.144 145.834 87.5034 144.922 80.7971C144.661 75.3284 144.661 69.8596 144.922 64.3909C145.053 62.7362 145.378 61.1737 145.898 59.7034Z" fill="#F43A3A"/>
<path fill-rule="evenodd" clip-rule="evenodd" d="M49.4141 112.438C49.4141 110.875 49.4141 109.313 49.4141 107.75C49.4141 106.839 49.4141 105.927 49.4141 105.016C48.7629 105.016 48.1121 105.016 47.4609 105.016C48.9914 90.5737 48.9914 76.1206 47.4609 61.6565C47.5262 60.7452 47.591 59.8334 47.6562 58.9221C51.2898 72.2256 53.243 85.7674 53.5156 99.5471C52.0164 103.848 50.6492 108.145 49.4141 112.438Z" fill="#F44644"/>
<path fill-rule="evenodd" clip-rule="evenodd" d="M39.2578 55.7971C39.7043 57.1549 39.7695 58.587 39.4531 60.094C38.7793 65.3131 38.0632 70.5217 37.3047 75.719C37.3619 69.0268 38.0129 62.3862 39.2578 55.7971Z" fill="#F03937"/>
<path fill-rule="evenodd" clip-rule="evenodd" d="M135.742 63.219C137.423 62.944 138.79 63.4651 139.844 64.7815C140.928 66.9823 140.472 68.7401 138.477 70.055C136.051 70.8522 134.359 70.1358 133.398 67.9065C133.145 65.8085 133.927 64.246 135.742 63.219Z" fill="#FFFBFB"/>
<path fill-rule="evenodd" clip-rule="evenodd" d="M159.18 59.3127C160.227 60.9487 160.943 62.7713 161.328 64.7815C161.579 66.4889 161.904 68.1815 162.305 69.8596C162.175 70.1202 162.044 70.3803 161.914 70.6409C160.952 66.8686 160.04 63.0928 159.18 59.3127Z" fill="#EF3635"/>
<path fill-rule="evenodd" clip-rule="evenodd" d="M27.5391 68.6877C28.1892 69.2538 28.5147 70.035 28.5156 71.0315C29.0359 75.0596 29.2963 79.0959 29.2969 83.1409C28.3694 78.401 27.7834 73.5831 27.5391 68.6877Z" fill="#EF3836"/>
<path fill-rule="evenodd" clip-rule="evenodd" d="M105.664 74.5471C103.207 74.2065 100.734 74.0764 98.2422 74.1565C98.5793 72.8194 99.0352 71.5174 99.6094 70.2502C101.042 68.6877 102.474 68.6877 103.906 70.2502C104.713 71.6022 105.299 73.0342 105.664 74.5471Z" fill="#F6B51F"/>
<path fill-rule="evenodd" clip-rule="evenodd" d="M98.2422 74.1565C100.734 74.0764 103.207 74.2065 105.664 74.5471C112.675 75.8413 118.404 79.2268 122.852 84.7034C125.546 88.3991 127.499 92.4354 128.711 96.8127C128.711 98.5053 128.711 100.198 128.711 101.891C128.901 107.048 127.729 111.866 125.195 116.344C123.992 118.092 122.69 119.785 121.289 121.422C116.929 126.013 111.59 128.877 105.273 130.016C97.2621 131.301 90.1004 129.478 83.7891 124.547C84.1711 124.426 84.4316 124.165 84.5703 123.766C82.2852 121.537 80.5922 118.933 79.4922 115.953C79.5758 115.311 79.4453 114.725 79.1016 114.196C79.7699 113.753 79.9652 113.167 79.6875 112.438C78.9895 112.108 78.2734 112.043 77.5391 112.242C78.768 110.713 78.5074 109.606 76.7578 108.922C76.1508 106.216 75.9555 103.482 76.1719 100.719C77.3023 101.155 77.7582 100.699 77.5391 99.3518C76.841 97.9998 76.7109 96.6327 77.1484 95.2502C78.8391 94.603 79.3602 93.4311 78.7109 91.7346C78.7332 91.3014 78.8633 90.9108 79.1016 90.5627C79.9949 90.1256 80.7113 89.4748 81.25 88.6096C82.018 86.6233 82.9945 84.8002 84.1797 83.1409C82.4414 83.001 81.0742 83.6518 80.0781 85.094C79.3793 86.36 78.7934 87.662 78.3203 89.0002C76.4875 91.8264 75.3809 94.9514 75 98.3752C74.7395 101.37 74.7395 104.365 75 107.36C75.082 107.968 75.2773 108.489 75.5859 108.922C74.4926 110.024 74.5578 111.065 75.7812 112.047C75.9742 112.685 76.0391 113.337 75.9766 114C76.7871 113.923 77.5684 113.858 78.3203 113.805C77.6738 114.369 77.4133 115.085 77.5391 115.953C78.0598 115.953 78.5809 115.953 79.1016 115.953C78.7977 116.21 78.5375 116.535 78.3203 116.93C79.059 118.602 79.8402 120.23 80.6641 121.813C80.0129 121.292 79.3621 120.771 78.7109 120.25C75.0922 115.256 73.0086 109.657 72.4609 103.453C72.4609 103.063 72.4609 102.672 72.4609 102.281C72.925 102.744 73.3809 102.744 73.8281 102.281C73.8621 99.7909 74.318 97.3819 75.1953 95.0549C74.9383 94.0784 74.4176 93.8831 73.6328 94.469C77.5934 82.5663 85.7965 75.7952 98.2422 74.1565Z" fill="#FFD35E"/>
<path fill-rule="evenodd" clip-rule="evenodd" d="M98.6329 75.719C103.872 75.6119 108.625 77.044 112.891 80.0158C113.025 80.924 112.635 81.5752 111.719 81.969C103.802 78.6389 95.7942 78.3787 87.6954 81.1877C87.6098 80.7287 87.7399 80.3381 88.086 80.0158C91.4844 78.4186 95.0653 77.6373 98.8282 77.6721C100.852 77.8451 102.871 77.91 104.883 77.8674C102.825 77.4354 100.741 77.1748 98.6329 77.0861C98.1704 76.6389 98.1704 76.183 98.6329 75.719Z" fill="#FFCC28"/>
<path fill-rule="evenodd" clip-rule="evenodd" d="M37.6953 79.6252C41.316 79.6624 42.0973 81.1596 40.0391 84.1174C38.0037 84.5987 36.8318 83.8174 36.5234 81.7737C36.6651 80.9174 37.0557 80.201 37.6953 79.6252Z" fill="#FEC8C6"/>
<path fill-rule="evenodd" clip-rule="evenodd" d="M101.367 81.1877C100.655 83.0705 99.8738 84.8936 99.0234 86.6565C97.3934 86.3213 95.7004 86.0612 93.9453 85.8752C94.3359 84.5733 94.7266 83.2709 95.1172 81.969C97.1125 81.253 99.1961 80.9928 101.367 81.1877Z" fill="#F4B41B"/>
<path fill-rule="evenodd" clip-rule="evenodd" d="M101.367 81.1877C101.758 81.1877 102.148 81.1877 102.539 81.1877C105.036 87.3526 107.64 93.4725 110.352 99.5471C107.882 99.7479 105.408 99.878 102.93 99.9377C99.9234 100.067 96.9289 99.9366 93.9453 99.5471C95.7512 95.2858 97.4441 90.9889 99.0234 86.6565C99.8738 84.8936 100.655 83.0706 101.367 81.1877Z" fill="#FC635C"/>
<path fill-rule="evenodd" clip-rule="evenodd" d="M95.1172 81.969C94.7266 83.2709 94.3359 84.5733 93.9453 85.8752C91.9922 90.5627 90.0391 95.2502 88.0859 99.9377C85.7484 99.7135 83.4047 99.5834 81.0547 99.5471C80.6641 99.2866 80.2734 99.0264 79.8828 98.7659C81.5473 90.0702 86.6254 84.4713 95.1172 81.969Z" fill="#FD635C"/>
<path fill-rule="evenodd" clip-rule="evenodd" d="M120.508 84.7034C119.876 84.4932 119.225 84.3631 118.555 84.3127C117.571 83.7686 116.92 82.9874 116.602 81.969C118.313 82.2409 119.615 83.1522 120.508 84.7034Z" fill="#FFCC27"/>
<path fill-rule="evenodd" clip-rule="evenodd" d="M79.1016 90.5627C78.475 90.2553 78.2144 89.7346 78.3203 89.0002C78.7933 87.662 79.3793 86.36 80.0781 85.094C81.0742 83.6518 82.4414 83.001 84.1797 83.1409C82.9945 84.8002 82.018 86.6233 81.25 88.6096C80.7113 89.4748 79.9949 90.1256 79.1016 90.5627Z" fill="#FFFCF7"/>
<path fill-rule="evenodd" clip-rule="evenodd" d="M109.18 82.7502C113.968 84.8182 117.484 88.2034 119.727 92.9065C119.238 92.9366 118.913 93.1971 118.75 93.6877C117.938 95.31 117.352 97.0026 116.992 98.7659C116.23 98.8725 115.644 98.6124 115.234 97.9846C112.992 92.9819 110.974 87.9038 109.18 82.7502Z" fill="#FD645C"/>
<path fill-rule="evenodd" clip-rule="evenodd" d="M102.539 81.1877C104.833 81.4034 107.046 81.9241 109.18 82.7502C110.974 87.9038 112.992 92.9819 115.234 97.9846C115.644 98.6124 116.23 98.8725 116.992 98.7659C114.831 99.06 112.618 99.3206 110.352 99.5471C107.64 93.4725 105.036 87.3526 102.539 81.1877Z" fill="#F8BC1D"/>
<path fill-rule="evenodd" clip-rule="evenodd" d="M93.9453 85.8752C95.7004 86.0612 97.3934 86.3213 99.0234 86.6565C97.4441 90.9889 95.7512 95.2858 93.9453 99.5471C96.9289 99.9366 99.9234 100.067 102.93 99.9377C98.0461 100.312 93.0984 100.312 88.0859 99.9377C90.0391 95.2502 91.9922 90.5627 93.9453 85.8752Z" fill="#FABD20"/>
<path fill-rule="evenodd" clip-rule="evenodd" d="M36.9141 85.8752C38.7338 85.6858 39.2547 86.4018 38.4766 88.0237C36.6126 88.3401 36.0918 87.6241 36.9141 85.8752Z" fill="#FEBBB8"/>
<path fill-rule="evenodd" clip-rule="evenodd" d="M55.6641 79.6252C56.1625 80.4307 56.4883 81.3424 56.6406 82.3596C57.9418 91.2983 58.3324 100.283 57.8125 109.313C57.7816 110.82 57.5211 112.252 57.0312 113.61C56.6625 113.312 56.4672 112.921 56.4453 112.438C56.6949 111.276 56.8902 110.104 57.0312 108.922C57.2918 103.323 57.2918 97.7241 57.0312 92.1252C56.7738 88.2303 56.1879 84.3889 55.2734 80.6018C55.3684 80.2495 55.4988 79.9241 55.6641 79.6252Z" fill="#EF3836"/>
<path fill-rule="evenodd" clip-rule="evenodd" d="M61.5234 87.0471C62.0289 87.6518 62.2895 88.4331 62.3047 89.3909C62.6965 91.7428 62.6965 94.0866 62.3047 96.4221C61.8254 93.3151 61.5648 90.1901 61.5234 87.0471Z" fill="#EF3837"/>
<path fill-rule="evenodd" clip-rule="evenodd" d="M39.6485 87.8284C41.4684 87.6389 41.9891 88.3549 41.211 89.9768C40.7094 90.244 40.2536 90.1788 39.8438 89.7815C39.6508 89.1432 39.586 88.492 39.6485 87.8284Z" fill="#FEC2C0"/>
<path fill-rule="evenodd" clip-rule="evenodd" d="M118.555 84.3127C119.225 84.3631 119.876 84.4932 120.508 84.7034C120.672 85.326 120.932 85.912 121.289 86.4612C121.232 86.7627 121.102 87.0233 120.898 87.2424C121.571 87.4467 122.092 87.8374 122.461 88.4143C122.153 89.2342 122.023 90.0807 122.07 90.9534C121.428 91.037 120.842 90.9065 120.312 90.5627C120.622 89.6463 120.557 88.735 120.117 87.8284C119.475 87.912 118.889 87.7815 118.359 87.4377C118.077 86.3592 118.143 85.3178 118.555 84.3127Z" fill="#FFECB6"/>
<path fill-rule="evenodd" clip-rule="evenodd" d="M122.852 90.5627C123.368 90.4963 123.824 90.6264 124.219 90.9534C125.821 93.6729 127.123 96.5377 128.125 99.5471C128.386 101.761 128.386 103.974 128.125 106.188C127.412 106.712 126.956 106.516 126.758 105.602C127.278 103.571 127.213 101.552 126.562 99.5471C125.318 96.5397 124.081 93.5452 122.852 90.5627Z" fill="#FFCC25"/>
<path fill-rule="evenodd" clip-rule="evenodd" d="M78.711 91.7346C79.3602 93.4311 78.8391 94.603 77.1485 95.2502C76.7434 94.376 76.6786 93.4647 76.9532 92.5158C77.3868 91.9155 77.9727 91.6553 78.711 91.7346Z" fill="#FFFBF0"/>
<path fill-rule="evenodd" clip-rule="evenodd" d="M37.6954 92.1252C39.1993 92.2038 39.5899 92.9198 38.8672 94.2737C37.3192 94.3198 36.9285 93.6034 37.6954 92.1252Z" fill="#FEBEBC"/>
<path fill-rule="evenodd" clip-rule="evenodd" d="M119.727 92.9065C120.482 94.392 121.003 95.9545 121.289 97.594C120.175 98.162 119.003 98.5526 117.773 98.7659C117.513 98.7659 117.253 98.7659 116.992 98.7659C117.352 97.0026 117.938 95.31 118.75 93.6877C118.913 93.1971 119.238 92.9366 119.727 92.9065Z" fill="#FC4E49"/>
<path fill-rule="evenodd" clip-rule="evenodd" d="M78.3203 89.0002C78.2144 89.7346 78.475 90.2553 79.1015 90.5627C78.8633 90.9108 78.7332 91.3014 78.7109 91.7346C77.9726 91.6553 77.3867 91.9155 76.9531 92.5159C76.6785 93.4647 76.7433 94.376 77.1484 95.2502C76.7109 96.6327 76.841 97.9999 77.539 99.3518C77.7582 100.699 77.3023 101.155 76.1719 100.719C75.9554 103.482 76.1508 106.216 76.7578 108.922C76.3672 108.922 75.9765 108.922 75.5859 108.922C75.2773 108.489 75.082 107.968 75 107.36C74.7394 104.365 74.7394 101.37 75 98.3752C75.3808 94.9514 76.4875 91.8264 78.3203 89.0002Z" fill="#FFCD29"/>
<path fill-rule="evenodd" clip-rule="evenodd" d="M72.4609 102.281C72.3609 100.809 72.491 99.3768 72.8516 97.9846C72.9297 96.762 73.1898 95.5901 73.6328 94.469C74.4176 93.8831 74.9383 94.0784 75.1953 95.0549C74.318 97.3819 73.8621 99.7909 73.8281 102.281C73.3809 102.744 72.925 102.744 72.4609 102.281Z" fill="#FECA2B"/>
<path fill-rule="evenodd" clip-rule="evenodd" d="M140.43 97.594C140.078 97.9026 139.817 98.2932 139.648 98.7659C137.543 100.565 135.069 101.346 132.227 101.11C131.856 99.4858 131.595 97.7932 131.445 96.0315C133.579 95.4819 135.728 94.9608 137.891 94.469C139.533 94.8733 140.379 95.9151 140.43 97.594Z" fill="#FFC822"/>
<path fill-rule="evenodd" clip-rule="evenodd" d="M31.8359 95.6409C34.5426 95.3666 37.277 95.6272 40.0391 96.4221C37.2709 96.6342 34.5365 96.3737 31.8359 95.6409Z" fill="#EF3735"/>
<path fill-rule="evenodd" clip-rule="evenodd" d="M131.445 96.0315C131.595 97.7932 131.856 99.4858 132.227 101.11C131.143 101.562 129.971 101.822 128.711 101.891C128.711 100.198 128.711 98.5053 128.711 96.8127C129.554 96.4584 130.465 96.1983 131.445 96.0315Z" fill="#FCA92A"/>
<path fill-rule="evenodd" clip-rule="evenodd" d="M24.0234 96.0315C30.5829 97.9706 37.2235 99.5331 43.9453 100.719C37.3485 100.402 30.9032 99.1002 24.6094 96.8127C24.2071 96.6815 24.0118 96.4209 24.0234 96.0315Z" fill="#EF3736"/>
<path fill-rule="evenodd" clip-rule="evenodd" d="M68.9453 97.9847C69.4043 97.8991 69.7949 98.0292 70.1172 98.3753C70.0106 99.9749 69.6199 101.407 68.9453 102.672C68.5563 102.706 68.2309 102.575 67.9688 102.282C66.9617 100.498 67.2875 99.0655 68.9453 97.9847Z" fill="#FEC922"/>
<path fill-rule="evenodd" clip-rule="evenodd" d="M68.9453 97.9846C70.1766 97.6959 71.4785 97.6959 72.8516 97.9846C72.491 99.3768 72.3609 100.809 72.4609 102.281C72.4609 102.672 72.4609 103.063 72.4609 103.453C71.1793 103.485 70.0074 103.224 68.9453 102.672C69.6199 101.407 70.0105 99.9748 70.1172 98.3752C69.7949 98.0291 69.4043 97.899 68.9453 97.9846Z" fill="#FCA72B"/>
<path fill-rule="evenodd" clip-rule="evenodd" d="M121.289 97.594C121.675 99.4709 121.805 101.424 121.68 103.453C120.779 103.646 119.868 103.776 118.945 103.844C119.662 102.276 119.922 100.583 119.727 98.7659C119.075 98.7659 118.425 98.7659 117.773 98.7659C119.003 98.5526 120.175 98.162 121.289 97.594Z" fill="#FCA62B"/>
<path fill-rule="evenodd" clip-rule="evenodd" d="M116.992 98.7659C117.253 98.7659 117.513 98.7659 117.773 98.7659C118.425 98.7659 119.075 98.7659 119.727 98.7659C119.922 100.583 119.662 102.276 118.945 103.844C118.685 103.844 118.425 103.844 118.164 103.844C116.382 104.285 114.559 104.545 112.695 104.625C105.544 105.133 98.3828 105.393 91.211 105.406C88.6981 105.429 86.2243 105.168 83.7891 104.625C83.0078 104.625 82.2266 104.625 81.4453 104.625C81.1348 102.951 81.0047 101.258 81.0547 99.5471C83.4047 99.5834 85.7485 99.7135 88.086 99.9377C93.0985 100.312 98.0461 100.312 102.93 99.9377C105.408 99.878 107.882 99.7479 110.352 99.5471C112.618 99.3206 114.831 99.06 116.992 98.7659Z" fill="#FECA23"/>
<path fill-rule="evenodd" clip-rule="evenodd" d="M79.8828 98.7659C80.2735 99.0264 80.6641 99.2866 81.0547 99.5471C81.0047 101.258 81.1348 102.951 81.4453 104.625C80.6707 104.491 80.1496 104.752 79.8828 105.406C79.3621 103.193 79.3621 100.98 79.8828 98.7659Z" fill="#FCAD2D"/>
<path fill-rule="evenodd" clip-rule="evenodd" d="M27.9297 99.1565C31.5557 99.7245 35.0714 100.636 38.4766 101.891C37.9988 102.326 37.478 102.391 36.9141 102.086C34.2028 101.311 31.4684 100.594 28.7109 99.9377C28.237 99.8413 27.9766 99.5807 27.9297 99.1565Z" fill="#EF3836"/>
<path fill-rule="evenodd" clip-rule="evenodd" d="M106.055 100.719C107.387 100.674 107.908 101.324 107.617 102.672C107.227 102.672 106.836 102.672 106.445 102.672C106.124 104.398 105.277 104.659 103.906 103.453C102.504 104.648 101.398 104.452 100.586 102.867C101.667 100.602 102.904 100.537 104.297 102.672C104.692 102.345 105.148 102.215 105.664 102.282C105.638 101.712 105.768 101.191 106.055 100.719Z" fill="#FFE99E"/>
<path fill-rule="evenodd" clip-rule="evenodd" d="M98.2421 101.891C98.8933 101.891 99.5441 101.891 100.195 101.891C100.457 103.522 99.8707 104.043 98.4375 103.453C98.246 102.948 98.1808 102.427 98.2421 101.891Z" fill="#FFE89D"/>
<path fill-rule="evenodd" clip-rule="evenodd" d="M124.805 102.281C125.195 102.281 125.586 102.281 125.977 102.281C126.04 105.034 125.845 107.769 125.391 110.485C124.854 111.903 124.268 111.969 123.633 110.68C124.359 107.929 124.75 105.129 124.805 102.281Z" fill="#FFCC26"/>
<path fill-rule="evenodd" clip-rule="evenodd" d="M121.68 103.453C121.858 105.444 121.467 107.267 120.508 108.922C119.832 107.181 119.051 105.488 118.164 103.844C118.425 103.844 118.685 103.844 118.945 103.844C119.868 103.776 120.779 103.646 121.68 103.453Z" fill="#FC4F48"/>
<path fill-rule="evenodd" clip-rule="evenodd" d="M81.4453 104.625C82.2266 104.625 83.0078 104.625 83.7891 104.625C84.3914 104.884 85.0426 105.145 85.7422 105.406C84.7102 107.873 83.5383 110.217 82.2266 112.438C81.066 110.258 80.2848 107.915 79.8828 105.406C80.1496 104.752 80.6707 104.491 81.4453 104.625Z" fill="#FD645B"/>
<path fill-rule="evenodd" clip-rule="evenodd" d="M112.695 104.625C113.086 105.406 113.477 106.188 113.867 106.969C111.917 111.448 110.224 116.07 108.789 120.836C108.816 121.135 108.946 121.33 109.18 121.422C100.647 125.05 92.9652 123.748 86.1328 117.516C87.9016 113.511 89.5945 109.475 91.2109 105.406C98.3828 105.393 105.544 105.133 112.695 104.625Z" fill="#FD625C"/>
<path fill-rule="evenodd" clip-rule="evenodd" d="M83.7891 104.625C86.2242 105.168 88.698 105.429 91.2109 105.406C89.5945 109.475 87.9016 113.511 86.1328 117.516C84.5438 116.055 83.2418 114.363 82.2266 112.438C83.5383 110.217 84.7102 107.873 85.7422 105.406C85.0426 105.145 84.3914 104.884 83.7891 104.625Z" fill="#F8BB1E"/>
<path fill-rule="evenodd" clip-rule="evenodd" d="M118.164 103.844C119.051 105.488 119.832 107.181 120.508 108.922C120.209 111.083 119.297 112.906 117.773 114.391C116.378 111.992 115.076 109.518 113.867 106.969C113.477 106.188 113.086 105.406 112.695 104.625C114.559 104.545 116.382 104.285 118.164 103.844Z" fill="#F6B81C"/>
<path fill-rule="evenodd" clip-rule="evenodd" d="M113.867 106.969C115.076 109.518 116.378 111.992 117.773 114.391C115.732 117.733 112.868 120.077 109.18 121.422C108.946 121.33 108.816 121.135 108.789 120.836C110.224 116.07 111.917 111.448 113.867 106.969Z" fill="#FC4B49"/>
<path fill-rule="evenodd" clip-rule="evenodd" d="M75.5859 108.922C75.9765 108.922 76.3672 108.922 76.7578 108.922C78.5074 109.606 78.7679 110.713 77.539 112.242C78.2734 112.043 78.9894 112.108 79.6875 112.438C79.9652 113.167 79.7699 113.753 79.1015 114.196C79.4453 114.725 79.5757 115.311 79.4922 115.953C79.3621 115.953 79.2316 115.953 79.1015 115.953C78.5808 115.953 78.0597 115.953 77.539 115.953C77.4132 115.085 77.6738 114.369 78.3203 113.805C77.5683 113.858 76.7871 113.923 75.9765 114C76.039 113.337 75.9742 112.685 75.7812 112.047C74.5578 111.065 74.4925 110.024 75.5859 108.922Z" fill="#FFEDBB"/>
<path fill-rule="evenodd" clip-rule="evenodd" d="M79.1016 115.953C79.2316 115.953 79.3621 115.953 79.4922 115.953C80.5922 118.933 82.2852 121.537 84.5703 123.766C84.4316 124.165 84.1711 124.426 83.7891 124.547C83.5285 124.417 83.2684 124.287 83.0078 124.156C82.107 123.516 81.3258 122.735 80.6641 121.813C79.8402 120.23 79.059 118.602 78.3203 116.93C78.5375 116.535 78.7977 116.21 79.1016 115.953Z" fill="#FECC28"/>
<path fill-rule="evenodd" clip-rule="evenodd" d="M81.4453 117.907C81.8563 117.848 82.2469 117.913 82.6172 118.102C83.8543 119.86 85.3516 121.357 87.1094 122.594C87.3441 123.166 87.1488 123.557 86.5234 123.766C84.1031 122.391 82.4102 120.438 81.4453 117.907Z" fill="#FFCC27"/>
<path fill-rule="evenodd" clip-rule="evenodd" d="M125.195 116.344C127.043 119.906 129.191 123.291 131.641 126.5C132.159 129.496 130.921 130.603 127.93 129.821C125.654 127.003 123.44 124.203 121.289 121.422C122.69 119.785 123.992 118.092 125.195 116.344Z" fill="#F7BA1C"/>
<path fill-rule="evenodd" clip-rule="evenodd" d="M78.711 120.25C79.3622 120.771 80.0129 121.292 80.6641 121.813C81.3258 122.735 82.1071 123.516 83.0079 124.156C82.6657 124.105 82.4051 124.235 82.2266 124.547C80.9418 127.053 79.5094 129.462 77.9297 131.774C74.7008 132.712 73.4637 131.475 74.2188 128.063C75.6282 125.37 77.1254 122.766 78.711 120.25Z" fill="#F7B91E"/>
<path fill-rule="evenodd" clip-rule="evenodd" d="M106.445 128.063C106.504 126.633 105.918 126.242 104.688 126.891C104.389 127.503 104.454 128.023 104.883 128.453C104.53 129.281 104.009 129.412 103.32 128.844C103.552 127.818 103.682 126.776 103.711 125.719C106.111 125.44 108.454 124.919 110.742 124.156C110.843 125.321 110.323 126.037 109.18 126.305C109.7 126.696 109.7 127.086 109.18 127.477C108.354 127.694 107.572 128.02 106.836 128.453C106.599 128.405 106.469 128.275 106.445 128.063Z" fill="#FFCD2B"/>
<path fill-rule="evenodd" clip-rule="evenodd" d="M92.3828 125.328C94.8566 125.589 97.3309 125.849 99.8047 126.11C99.8047 126.63 99.8047 127.151 99.8047 127.672C97.5449 127.676 95.3316 127.351 93.1641 126.696C92.6473 126.377 92.3871 125.921 92.3828 125.328Z" fill="#FFCC28"/>
<path fill-rule="evenodd" clip-rule="evenodd" d="M103.711 125.719C103.682 126.776 103.552 127.818 103.32 128.844C103.32 129.235 103.32 129.625 103.32 130.016C102.784 130.077 102.263 130.012 101.758 129.821C100.982 129.046 100.461 128.135 100.195 127.086C100.578 124.805 101.75 124.349 103.711 125.719Z" fill="#FFEBAD"/>
<path fill-rule="evenodd" clip-rule="evenodd" d="M106.445 128.063C105.973 128.35 105.453 128.48 104.883 128.453C104.454 128.023 104.389 127.503 104.688 126.891C105.918 126.242 106.504 126.633 106.445 128.063Z" fill="#FFEAA3"/>
<path fill-rule="evenodd" clip-rule="evenodd" d="M140.43 97.594C139.823 121.348 142.232 144.785 147.656 167.906C147.917 168.818 147.917 169.73 147.656 170.641C141.668 147.087 138.998 123.129 139.648 98.7659C139.817 98.2932 140.078 97.9026 140.43 97.594Z" fill="#EF3333"/>
<path fill-rule="evenodd" clip-rule="evenodd" d="M136.133 121.422C136.12 127.208 136.186 133.067 136.328 139C136.72 141.94 137.175 144.869 137.695 147.789C137.565 148.115 137.435 148.44 137.305 148.766C135.288 139.698 134.898 130.583 136.133 121.422Z" fill="#EE3131"/>
<path fill-rule="evenodd" clip-rule="evenodd" d="M53.7109 116.344C54.4098 118.261 54.7352 120.344 54.6875 122.594C55.1539 128.976 55.2191 135.356 54.8828 141.735C54.1492 133.289 53.7586 124.825 53.7109 116.344Z" fill="#F03938"/>
<path fill-rule="evenodd" clip-rule="evenodd" d="M63.8672 127.672C64.3797 128.548 64.6399 129.59 64.6484 130.797C64.4231 136.799 64.0324 142.789 63.4766 148.766C63.2215 141.734 63.352 134.703 63.8672 127.672Z" fill="#EF3635"/>
<path fill-rule="evenodd" clip-rule="evenodd" d="M68.5546 138.61C69.071 142.194 69.071 145.839 68.5546 149.547C68.0453 145.878 68.0453 142.232 68.5546 138.61Z" fill="#EF3736"/>
<path fill-rule="evenodd" clip-rule="evenodd" d="M80.664 145.25C83.4398 145.096 84.6765 146.398 84.3749 149.157C83.1503 151.578 81.7183 151.709 80.0781 149.547C79.7312 148.023 79.9265 146.591 80.664 145.25Z" fill="#FEC9C7"/>
<path fill-rule="evenodd" clip-rule="evenodd" d="M84.1797 154.235C86.3965 154.375 86.6571 155.156 84.961 156.578C83.8321 156.056 83.5715 155.275 84.1797 154.235Z" fill="#FEC0BE"/>
<path fill-rule="evenodd" clip-rule="evenodd" d="M81.0547 155.406C82.4848 155.348 82.8755 155.934 82.2266 157.164C80.745 157.355 80.3544 156.769 81.0547 155.406Z" fill="#FECAC9"/>
<path fill-rule="evenodd" clip-rule="evenodd" d="M82.2266 161.266C84.4434 161.406 84.7039 162.188 83.0078 163.61C81.8789 163.087 81.6184 162.306 82.2266 161.266Z" fill="#FEC0BE"/>
<path fill-rule="evenodd" clip-rule="evenodd" d="M158.789 178.453C159.818 181.82 159.036 184.75 156.445 187.242C155.825 187.579 155.174 187.84 154.492 188.024C131.19 187.301 107.883 186.78 84.5704 186.461C74.5079 187.574 64.4817 188.941 54.4922 190.563C51.0664 190.575 47.8114 189.859 44.7266 188.414C42.3934 186.122 42.1332 183.583 43.9454 180.797C47.3231 181.903 50.7086 183.009 54.1016 184.117C59.4414 184.889 64.7801 184.889 70.1172 184.117C76.1844 182.659 82.3043 181.487 88.4766 180.602C95.2473 180.341 102.018 180.341 108.789 180.602C115.033 181.196 121.283 181.717 127.539 182.164C138.252 183.195 148.669 181.958 158.789 178.453Z" fill="#F43B3A"/>
<path fill-rule="evenodd" clip-rule="evenodd" d="M154.492 176.5C155.21 176.555 155.34 176.815 154.883 177.281C145.39 181.52 135.495 182.757 125.195 180.992C115.483 179.422 105.717 178.315 95.8984 177.672C92.6219 177.791 89.3668 178.117 86.1328 178.649C80.1598 180.162 74.1703 181.595 68.1641 182.946C63.2078 183.687 58.2598 183.687 53.3203 182.946C50.4188 182.081 47.8145 180.714 45.5078 178.844C45.6379 178.714 45.7684 178.583 45.8984 178.453C50.1633 181.698 54.9809 183.13 60.3516 182.75C63.0996 182.735 65.834 182.539 68.5547 182.164C75.1539 180.417 81.7945 178.854 88.4766 177.477C93.4246 177.216 98.3723 177.216 103.32 177.477C111.663 178.433 119.996 179.475 128.32 180.602C135.612 181.308 142.773 180.657 149.805 178.649C151.49 178.113 153.052 177.397 154.492 176.5Z" fill="#EE3232"/>
</svg>
