<svg width="54" height="54" viewBox="0 0 54 54" fill="none" xmlns="http://www.w3.org/2000/svg">
    <path d="M27.4842 42.8852C35.4874 42.8852 41.9753 36.3973 41.9753 28.3941C41.9753 20.391 35.4874 13.9031 27.4842 13.9031C19.481 13.9031 12.9932 20.391 12.9932 28.3941C12.9932 36.3973 19.481 42.8852 27.4842 42.8852Z"
          fill="#F8F8F8"/>
    <path d="M19.206 28.077C19.206 28.077 26.3841 25.0232 28.8736 23.9479C29.828 23.5178 33.0643 22.1414 33.0643 22.1414C33.0643 22.1414 34.5581 21.5392 34.4336 23.0016C34.392 23.6038 34.0601 25.7113 33.7282 27.991C33.2303 31.2169 32.6909 34.7439 32.6909 34.7439C32.6909 34.7439 32.6079 35.7332 31.9026 35.9052C31.1972 36.0772 30.0354 35.3031 29.828 35.131C29.6619 35.002 26.716 33.0664 25.6372 32.1201C25.3468 31.8621 25.0149 31.346 25.6787 30.7438C27.1724 29.3244 28.9566 27.5609 30.0354 26.4426C30.5333 25.9264 31.0312 24.7221 28.9566 26.1845C26.0107 28.2921 23.1062 30.2706 23.1062 30.2706C23.1062 30.2706 22.4423 30.7007 21.1976 30.3136C19.9528 29.9266 18.5006 29.4104 18.5006 29.4104C18.5006 29.4104 17.5048 28.7652 19.206 28.077Z"
          fill="#0B0B0B"/>
</svg>
