<svg width="29" height="28" viewBox="0 0 29 28" fill="none" xmlns="http://www.w3.org/2000/svg">
<path d="M27.4784 16.6139C28.7889 15.1188 28.7889 12.8813 27.4784 11.3862V11.3862C26.7628 10.5698 26.4134 9.49452 26.5133 8.41344V8.41344C26.6959 6.43596 25.3836 4.62923 23.4468 4.19029V4.19029C22.3853 3.94973 21.4681 3.28058 20.9136 2.344V2.344C19.9005 0.632455 17.7724 -0.0661516 15.9442 0.717126V0.717126C14.9484 1.14379 13.819 1.14287 12.8232 0.716207V0.716207C10.9981 -0.0657382 8.87027 0.626408 7.85647 2.33365V2.33365C7.30142 3.26836 6.38477 3.93398 5.32394 4.17147V4.17147C3.3871 4.60506 2.0743 6.41944 2.25633 8.39585V8.39585C2.35584 9.47633 2.00513 10.5594 1.29135 11.3766V11.3766C-0.016459 12.874 -0.0216549 15.1162 1.28881 16.6112V16.6112C2.00631 17.4298 2.3559 18.5092 2.25607 19.5931V19.5931C2.07376 21.5726 3.38808 23.3853 5.32681 23.8247V23.8247C6.38556 24.0647 7.30003 24.7294 7.85432 25.6629V25.6629C8.86953 27.3725 10.9969 28.0624 12.8226 27.2748V27.2748C13.8197 26.8447 14.9504 26.8433 15.9486 27.2709V27.2709C17.7746 28.0532 19.8992 27.3599 20.9135 25.6518V25.6518C21.4686 24.7171 22.3851 24.0504 23.4454 23.8101V23.8101C25.3822 23.3712 26.6959 21.5642 26.5133 19.5867V19.5867C26.4134 18.5056 26.7628 17.4303 27.4784 16.6139V16.6139ZM12.0992 20.2006C11.8861 20.4137 11.5407 20.4137 11.3276 20.2006L6.78467 15.656C6.57155 15.4428 6.57178 15.0972 6.78517 14.8843L8.08254 13.5899C8.29577 13.3771 8.6411 13.3775 8.85388 13.5907L11.3275 16.0693C11.5405 16.2828 11.8864 16.2829 12.0995 16.0695L19.5101 8.65048C19.7229 8.43743 20.0681 8.43714 20.2812 8.64982L21.5788 9.94443C21.7922 10.1573 21.7924 10.503 21.5793 10.7162L12.0992 20.2006Z" fill="#5347CC"/>
</svg>
