<svg width="53" height="54" viewBox="0 0 53 54" fill="none" xmlns="http://www.w3.org/2000/svg">
    <path fill-rule="evenodd" clip-rule="evenodd"
          d="M41.8371 18.511C42.0602 17.8104 41.8371 17.2957 40.7754 17.2957H37.2647C36.372 17.2957 35.9605 17.7403 35.7373 18.2307C35.7373 18.2307 33.952 22.3288 31.4229 24.9908C30.6046 25.7614 30.2326 26.0066 29.7863 26.0066C29.5632 26.0066 29.2401 25.7614 29.2401 25.0609V18.511C29.2401 17.6703 28.9811 17.2957 28.2371 17.2957H22.7203C22.1625 17.2957 21.827 17.6858 21.827 18.0556C21.827 18.8525 23.0915 19.0363 23.2218 21.278V26.1467C23.2218 27.2142 23.0171 27.4077 22.5708 27.4077C21.3806 27.4077 18.4856 23.2913 16.7686 18.581C16.4321 17.6655 16.0946 17.2957 15.1973 17.2957H11.6866C10.6835 17.2957 10.4829 17.7403 10.4829 18.2307C10.4829 19.1064 11.6731 23.4497 16.0247 29.194C18.9258 33.1169 23.0132 35.2435 26.7325 35.2435C28.9641 35.2435 29.2402 34.7711 29.2402 33.9576V30.9927C29.2402 30.048 29.4516 29.8595 30.1583 29.8595C30.679 29.8595 31.5716 30.1047 33.6545 31.9961C36.0349 34.2378 36.4273 35.2435 37.7662 35.2435H41.277C42.28 35.2435 42.7815 34.7711 42.4922 33.8391C42.1756 32.9101 41.0391 31.5623 39.5311 29.9646C38.7128 29.0539 37.4854 28.0732 37.1135 27.5827C36.5928 26.9523 36.7415 26.6721 37.1135 26.1117C37.1135 26.1117 41.3908 20.4374 41.8371 18.511Z"
          fill="#F8F8F8"/>
</svg>
