<svg width="54" height="54" viewBox="0 0 54 54" fill="none" xmlns="http://www.w3.org/2000/svg">
    <path d="M42.1426 19.225C41.7963 17.9231 40.7718 16.896 39.4684 16.544C37.1116 15.9124 27.6558 15.9124 27.6558 15.9124C27.6558 15.9124 18.2048 15.9124 15.8433 16.544C14.5447 16.8912 13.5202 17.9183 13.1691 19.225C12.5391 21.5878 12.5391 26.5206 12.5391 26.5206C12.5391 26.5206 12.5391 31.4535 13.1691 33.8162C13.5154 35.1181 14.5399 36.1452 15.8433 36.4972C18.2048 37.1289 27.6558 37.1289 27.6558 37.1289C27.6558 37.1289 37.1116 37.1289 39.4684 36.4972C40.767 36.15 41.7914 35.123 42.1426 33.8162C42.7726 31.4535 42.7726 26.5206 42.7726 26.5206C42.7726 26.5206 42.7726 21.5878 42.1426 19.225Z"
          fill="#F8F8F8"/>
    <path d="M24.6354 31.0677L32.4896 26.5206L24.6354 21.9735V31.0677Z" fill="#0B0B0B"/>
</svg>
