<svg width="1252" height="545" viewBox="0 0 1252 545" fill="none" xmlns="http://www.w3.org/2000/svg">
<g clip-path="url(#clip0_2863_2406)">
<rect width="1251.7" height="545" fill="#1A1A1A"/>
<path d="M424.212 282.77C422.632 282.77 421.182 282.57 419.862 282.17C418.562 281.77 417.472 281.21 416.592 280.49C416.352 280.31 416.192 280.11 416.112 279.89C416.052 279.67 416.042 279.45 416.082 279.23C416.142 279.01 416.252 278.83 416.412 278.69C416.572 278.55 416.762 278.47 416.982 278.45C417.222 278.43 417.472 278.51 417.732 278.69C418.312 279.11 418.922 279.46 419.562 279.74C420.222 280.02 420.922 280.23 421.662 280.37C422.422 280.51 423.222 280.58 424.062 280.58C425.362 280.58 426.422 280.43 427.242 280.13C428.082 279.83 428.702 279.39 429.102 278.81C429.502 278.21 429.702 277.47 429.702 276.59C429.702 275.29 429.302 274.34 428.502 273.74C427.722 273.12 426.522 272.81 424.902 272.81H420.642C420.302 272.81 420.032 272.72 419.832 272.54C419.632 272.36 419.532 272.11 419.532 271.79C419.532 271.45 419.632 271.2 419.832 271.04C420.032 270.86 420.302 270.77 420.642 270.77H424.422C426.002 270.77 427.192 270.46 427.992 269.84C428.792 269.22 429.192 268.31 429.192 267.11C429.192 266.31 429.002 265.62 428.622 265.04C428.242 264.46 427.672 264.02 426.912 263.72C426.172 263.42 425.232 263.27 424.092 263.27C423.032 263.27 422.002 263.41 421.002 263.69C420.022 263.97 419.112 264.42 418.272 265.04C418.012 265.2 417.762 265.28 417.522 265.28C417.302 265.26 417.112 265.18 416.952 265.04C416.792 264.88 416.682 264.69 416.622 264.47C416.582 264.25 416.602 264.03 416.682 263.81C416.762 263.59 416.922 263.4 417.162 263.24C418.122 262.5 419.222 261.96 420.462 261.62C421.722 261.26 422.992 261.08 424.272 261.08C425.932 261.08 427.302 261.32 428.382 261.8C429.482 262.28 430.302 262.95 430.842 263.81C431.402 264.67 431.682 265.69 431.682 266.87C431.682 268.19 431.292 269.29 430.512 270.17C429.752 271.05 428.712 271.63 427.392 271.91V271.49C428.872 271.67 430.042 272.21 430.902 273.11C431.762 274.01 432.192 275.2 432.192 276.68C432.192 277.94 431.902 279.03 431.322 279.95C430.742 280.85 429.862 281.55 428.682 282.05C427.522 282.53 426.032 282.77 424.212 282.77ZM441.061 282.77C440.061 282.77 439.161 282.58 438.361 282.2C437.581 281.8 436.961 281.26 436.501 280.58C436.041 279.9 435.811 279.14 435.811 278.3C435.811 277.22 436.081 276.37 436.621 275.75C437.181 275.13 438.091 274.69 439.351 274.43C440.631 274.17 442.371 274.04 444.571 274.04H445.921V275.63H444.601C442.981 275.63 441.701 275.71 440.761 275.87C439.841 276.01 439.191 276.26 438.811 276.62C438.451 276.98 438.271 277.49 438.271 278.15C438.271 278.97 438.551 279.64 439.111 280.16C439.691 280.68 440.471 280.94 441.451 280.94C442.251 280.94 442.951 280.75 443.551 280.37C444.171 279.99 444.651 279.47 444.991 278.81C445.351 278.15 445.531 277.39 445.531 276.53V273.11C445.531 271.87 445.281 270.98 444.781 270.44C444.281 269.88 443.461 269.6 442.321 269.6C441.621 269.6 440.921 269.69 440.221 269.87C439.521 270.05 438.781 270.34 438.001 270.74C437.721 270.88 437.481 270.93 437.281 270.89C437.081 270.83 436.921 270.72 436.801 270.56C436.681 270.4 436.611 270.22 436.591 270.02C436.571 269.8 436.611 269.59 436.711 269.39C436.831 269.19 437.011 269.03 437.251 268.91C438.131 268.47 439.001 268.15 439.861 267.95C440.721 267.75 441.541 267.65 442.321 267.65C443.581 267.65 444.621 267.86 445.441 268.28C446.261 268.68 446.871 269.3 447.271 270.14C447.671 270.96 447.871 272.02 447.871 273.32V281.45C447.871 281.85 447.771 282.16 447.571 282.38C447.391 282.6 447.121 282.71 446.761 282.71C446.381 282.71 446.091 282.6 445.891 282.38C445.691 282.16 445.591 281.85 445.591 281.45V279.11H445.861C445.701 279.87 445.391 280.52 444.931 281.06C444.491 281.6 443.941 282.02 443.281 282.32C442.621 282.62 441.881 282.77 441.061 282.77ZM453.843 282.71C453.443 282.71 453.133 282.6 452.913 282.38C452.713 282.14 452.613 281.81 452.613 281.39V269.3C452.613 268.84 452.733 268.5 452.973 268.28C453.213 268.04 453.553 267.92 453.993 267.92H461.943C462.323 267.92 462.603 268 462.783 268.16C462.963 268.32 463.053 268.56 463.053 268.88C463.053 269.2 462.963 269.45 462.783 269.63C462.603 269.79 462.323 269.87 461.943 269.87H455.043V281.39C455.043 282.27 454.643 282.71 453.843 282.71ZM466.88 288.11C466.48 288.11 466.18 288 465.98 287.78C465.78 287.58 465.68 287.28 465.68 286.88V268.94C465.68 268.54 465.78 268.24 465.98 268.04C466.18 267.82 466.47 267.71 466.85 267.71C467.25 267.71 467.55 267.82 467.75 268.04C467.97 268.24 468.08 268.54 468.08 268.94V271.79L467.75 271.37C468.07 270.23 468.7 269.33 469.64 268.67C470.6 267.99 471.74 267.65 473.06 267.65C474.36 267.65 475.49 267.96 476.45 268.58C477.43 269.18 478.18 270.05 478.7 271.19C479.24 272.31 479.51 273.65 479.51 275.21C479.51 276.75 479.24 278.09 478.7 279.23C478.18 280.35 477.44 281.22 476.48 281.84C475.52 282.46 474.38 282.77 473.06 282.77C471.74 282.77 470.61 282.44 469.67 281.78C468.73 281.1 468.09 280.2 467.75 279.08H468.11V286.88C468.11 287.28 468 287.58 467.78 287.78C467.56 288 467.26 288.11 466.88 288.11ZM472.55 280.82C473.47 280.82 474.26 280.6 474.92 280.16C475.6 279.72 476.12 279.08 476.48 278.24C476.86 277.4 477.05 276.39 477.05 275.21C477.05 273.39 476.64 272 475.82 271.04C475.02 270.08 473.93 269.6 472.55 269.6C471.65 269.6 470.86 269.82 470.18 270.26C469.5 270.68 468.97 271.31 468.59 272.15C468.23 272.97 468.05 273.99 468.05 275.21C468.05 277.01 468.46 278.4 469.28 279.38C470.1 280.34 471.19 280.82 472.55 280.82ZM486.527 288.11C486.227 288.11 485.987 288.03 485.807 287.87C485.627 287.71 485.517 287.49 485.477 287.21C485.457 286.95 485.507 286.68 485.627 286.4L487.697 281.75V282.8L481.937 269.42C481.817 269.12 481.777 268.84 481.817 268.58C481.857 268.32 481.977 268.11 482.177 267.95C482.377 267.79 482.657 267.71 483.017 267.71C483.337 267.71 483.587 267.78 483.767 267.92C483.947 268.06 484.107 268.31 484.247 268.67L489.167 280.73H488.357L493.337 268.67C493.497 268.31 493.667 268.06 493.847 267.92C494.027 267.78 494.287 267.71 494.627 267.71C494.947 267.71 495.187 267.79 495.347 267.95C495.527 268.11 495.627 268.32 495.647 268.58C495.687 268.82 495.647 269.09 495.527 269.39L487.847 287.15C487.687 287.51 487.507 287.76 487.307 287.9C487.127 288.04 486.867 288.11 486.527 288.11ZM503.761 282.77C502.721 282.77 501.711 282.65 500.731 282.41C499.751 282.17 498.911 281.82 498.211 281.36C497.971 281.2 497.801 281.02 497.701 280.82C497.621 280.62 497.591 280.42 497.611 280.22C497.631 280.02 497.701 279.85 497.821 279.71C497.961 279.57 498.141 279.49 498.361 279.47C498.601 279.43 498.851 279.5 499.111 279.68C499.751 280.08 500.471 280.38 501.271 280.58C502.091 280.78 502.901 280.88 503.701 280.88C505.161 280.88 506.201 280.67 506.821 280.25C507.441 279.81 507.751 279.19 507.751 278.39C507.751 277.61 507.481 277.02 506.941 276.62C506.421 276.22 505.681 276.02 504.721 276.02H502.111C501.791 276.02 501.531 275.94 501.331 275.78C501.151 275.6 501.061 275.37 501.061 275.09C501.061 274.81 501.151 274.59 501.331 274.43C501.531 274.27 501.791 274.19 502.111 274.19H504.421C505.281 274.19 505.961 273.99 506.461 273.59C506.981 273.19 507.241 272.64 507.241 271.94C507.241 271.2 506.971 270.62 506.431 270.2C505.891 269.76 504.981 269.54 503.701 269.54C502.921 269.54 502.171 269.63 501.451 269.81C500.731 269.97 500.041 270.24 499.381 270.62C499.021 270.8 498.721 270.86 498.481 270.8C498.241 270.72 498.061 270.57 497.941 270.35C497.821 270.13 497.801 269.89 497.881 269.63C497.961 269.37 498.151 269.16 498.451 269C499.231 268.54 500.091 268.2 501.031 267.98C501.971 267.76 502.961 267.65 504.001 267.65C505.841 267.65 507.221 268.01 508.141 268.73C509.081 269.45 509.551 270.46 509.551 271.76C509.551 272.68 509.231 273.46 508.591 274.1C507.951 274.74 507.101 275.12 506.041 275.24V274.85C507.261 274.89 508.231 275.24 508.951 275.9C509.691 276.54 510.061 277.4 510.061 278.48C510.061 279.78 509.531 280.82 508.471 281.6C507.411 282.38 505.841 282.77 503.761 282.77ZM514.953 282.71C514.733 282.71 514.533 282.66 514.353 282.56C514.193 282.48 514.063 282.34 513.963 282.14C513.883 281.94 513.843 281.69 513.843 281.39V268.91C513.843 268.51 513.943 268.21 514.143 268.01C514.343 267.81 514.613 267.71 514.953 267.71C515.313 267.71 515.583 267.81 515.763 268.01C515.963 268.21 516.063 268.51 516.063 268.91V280.19H515.313L524.043 268.49C524.203 268.27 524.393 268.09 524.613 267.95C524.833 267.79 525.113 267.71 525.453 267.71C525.693 267.71 525.893 267.75 526.053 267.83C526.213 267.91 526.333 268.05 526.413 268.25C526.513 268.43 526.563 268.68 526.563 269V281.51C526.563 281.89 526.463 282.19 526.263 282.41C526.083 282.61 525.813 282.71 525.453 282.71C525.093 282.71 524.813 282.61 524.613 282.41C524.433 282.19 524.343 281.89 524.343 281.51V270.2H525.093L516.333 281.93C516.193 282.13 516.013 282.31 515.793 282.47C515.593 282.63 515.313 282.71 514.953 282.71ZM535.623 282.71C535.243 282.71 534.943 282.6 534.723 282.38C534.503 282.16 534.393 281.85 534.393 281.45V269.87H530.013C529.253 269.87 528.873 269.54 528.873 268.88C528.873 268.58 528.973 268.35 529.173 268.19C529.373 268.01 529.653 267.92 530.013 267.92H541.233C541.973 267.92 542.343 268.24 542.343 268.88C542.343 269.2 542.243 269.45 542.043 269.63C541.863 269.79 541.593 269.87 541.233 269.87H536.823V281.45C536.823 281.85 536.723 282.16 536.523 282.38C536.343 282.6 536.043 282.71 535.623 282.71ZM551.234 282.77C549.694 282.77 548.364 282.47 547.244 281.87C546.144 281.25 545.284 280.38 544.664 279.26C544.064 278.14 543.764 276.8 543.764 275.24C543.764 273.72 544.064 272.4 544.664 271.28C545.264 270.14 546.084 269.25 547.124 268.61C548.184 267.97 549.404 267.65 550.784 267.65C551.764 267.65 552.644 267.82 553.424 268.16C554.204 268.48 554.864 268.95 555.404 269.57C555.964 270.19 556.384 270.94 556.664 271.82C556.964 272.7 557.114 273.69 557.114 274.79C557.114 275.11 557.024 275.35 556.844 275.51C556.664 275.65 556.404 275.72 556.064 275.72H545.624V274.13H555.494L555.014 274.52C555.014 273.44 554.854 272.53 554.534 271.79C554.214 271.03 553.744 270.45 553.124 270.05C552.524 269.65 551.764 269.45 550.844 269.45C549.824 269.45 548.954 269.69 548.234 270.17C547.534 270.63 547.004 271.28 546.644 272.12C546.284 272.94 546.104 273.9 546.104 275V275.18C546.104 277.02 546.544 278.42 547.424 279.38C548.324 280.34 549.594 280.82 551.234 280.82C551.914 280.82 552.584 280.73 553.244 280.55C553.924 280.37 554.584 280.07 555.224 279.65C555.504 279.47 555.754 279.39 555.974 279.41C556.214 279.41 556.404 279.48 556.544 279.62C556.684 279.74 556.774 279.9 556.814 280.1C556.874 280.28 556.854 280.48 556.754 280.7C556.674 280.92 556.504 281.11 556.244 281.27C555.584 281.75 554.804 282.12 553.904 282.38C553.004 282.64 552.114 282.77 551.234 282.77ZM574.719 282.77C573.299 282.77 572.069 282.46 571.029 281.84C569.989 281.22 569.179 280.35 568.599 279.23C568.039 278.09 567.759 276.75 567.759 275.21C567.759 274.05 567.919 273.01 568.239 272.09C568.559 271.15 569.029 270.35 569.649 269.69C570.269 269.03 570.999 268.53 571.839 268.19C572.699 267.83 573.659 267.65 574.719 267.65C576.139 267.65 577.369 267.96 578.409 268.58C579.449 269.2 580.249 270.08 580.809 271.22C581.389 272.34 581.679 273.67 581.679 275.21C581.679 276.37 581.519 277.41 581.199 278.33C580.879 279.25 580.409 280.05 579.789 280.73C579.169 281.39 578.429 281.9 577.569 282.26C576.729 282.6 575.779 282.77 574.719 282.77ZM574.719 280.82C575.619 280.82 576.409 280.6 577.089 280.16C577.769 279.72 578.289 279.08 578.649 278.24C579.029 277.4 579.219 276.39 579.219 275.21C579.219 273.39 578.809 272 577.989 271.04C577.189 270.08 576.099 269.6 574.719 269.6C573.799 269.6 572.999 269.82 572.319 270.26C571.659 270.68 571.139 271.31 570.759 272.15C570.399 272.97 570.219 273.99 570.219 275.21C570.219 277.01 570.629 278.4 571.449 279.38C572.269 280.34 573.359 280.82 574.719 280.82ZM591.771 282.77C590.331 282.77 589.081 282.46 588.021 281.84C586.981 281.2 586.171 280.26 585.591 279.02C585.031 277.78 584.751 276.26 584.751 274.46V272.21C584.751 270.27 585.001 268.65 585.501 267.35C586.021 266.05 586.801 265 587.841 264.2C588.901 263.4 590.211 262.79 591.771 262.37L596.151 261.14C596.511 261.04 596.811 261.05 597.051 261.17C597.311 261.29 597.471 261.51 597.531 261.83C597.611 262.17 597.561 262.46 597.381 262.7C597.221 262.94 596.961 263.11 596.601 263.21L591.951 264.47C590.871 264.77 589.971 265.22 589.251 265.82C588.531 266.42 587.991 267.16 587.631 268.04C587.271 268.9 587.091 269.88 587.091 270.98V272.15H586.671C586.911 271.27 587.291 270.51 587.811 269.87C588.331 269.23 588.971 268.74 589.731 268.4C590.511 268.04 591.371 267.86 592.311 267.86C593.571 267.86 594.681 268.16 595.641 268.76C596.601 269.36 597.341 270.21 597.861 271.31C598.401 272.41 598.671 273.72 598.671 275.24C598.671 276.76 598.381 278.09 597.801 279.23C597.241 280.35 596.441 281.22 595.401 281.84C594.381 282.46 593.171 282.77 591.771 282.77ZM591.681 280.82C592.641 280.82 593.451 280.61 594.111 280.19C594.791 279.75 595.311 279.12 595.671 278.3C596.031 277.48 596.211 276.48 596.211 275.3C596.211 273.56 595.811 272.21 595.011 271.25C594.211 270.29 593.111 269.81 591.711 269.81C590.771 269.81 589.961 270.02 589.281 270.44C588.621 270.86 588.111 271.47 587.751 272.27C587.391 273.05 587.211 273.99 587.211 275.09C587.211 276.97 587.601 278.4 588.381 279.38C589.181 280.34 590.281 280.82 591.681 280.82ZM613.51 282.71C613.13 282.71 612.83 282.6 612.61 282.38C612.41 282.16 612.31 281.85 612.31 281.45V269.87H606.43V271.73C606.43 273.29 606.35 274.67 606.19 275.87C606.05 277.05 605.82 278.07 605.5 278.93C605.18 279.79 604.75 280.51 604.21 281.09C603.69 281.67 603.04 282.16 602.26 282.56C602 282.68 601.75 282.71 601.51 282.65C601.27 282.61 601.07 282.52 600.91 282.38C600.77 282.22 600.67 282.03 600.61 281.81C600.57 281.59 600.6 281.37 600.7 281.15C600.8 280.93 600.98 280.75 601.24 280.61C601.82 280.29 602.29 279.89 602.65 279.41C603.03 278.93 603.33 278.33 603.55 277.61C603.77 276.89 603.92 276.05 604 275.09C604.1 274.11 604.15 272.96 604.15 271.64V269.3C604.15 268.84 604.27 268.5 604.51 268.28C604.75 268.04 605.09 267.92 605.53 267.92H613.36C613.8 267.92 614.14 268.04 614.38 268.28C614.62 268.5 614.74 268.84 614.74 269.3V281.45C614.74 281.85 614.63 282.16 614.41 282.38C614.21 282.6 613.91 282.71 613.51 282.71ZM625.636 282.77C624.216 282.77 622.986 282.46 621.946 281.84C620.906 281.22 620.096 280.35 619.516 279.23C618.956 278.09 618.676 276.75 618.676 275.21C618.676 274.05 618.836 273.01 619.156 272.09C619.476 271.15 619.946 270.35 620.566 269.69C621.186 269.03 621.916 268.53 622.756 268.19C623.616 267.83 624.576 267.65 625.636 267.65C627.056 267.65 628.286 267.96 629.326 268.58C630.366 269.2 631.166 270.08 631.726 271.22C632.306 272.34 632.596 273.67 632.596 275.21C632.596 276.37 632.436 277.41 632.116 278.33C631.796 279.25 631.326 280.05 630.706 280.73C630.086 281.39 629.346 281.9 628.486 282.26C627.646 282.6 626.696 282.77 625.636 282.77ZM625.636 280.82C626.536 280.82 627.326 280.6 628.006 280.16C628.686 279.72 629.206 279.08 629.566 278.24C629.946 277.4 630.136 276.39 630.136 275.21C630.136 273.39 629.726 272 628.906 271.04C628.106 270.08 627.016 269.6 625.636 269.6C624.716 269.6 623.916 269.82 623.236 270.26C622.576 270.68 622.056 271.31 621.676 272.15C621.316 272.97 621.136 273.99 621.136 275.21C621.136 277.01 621.546 278.4 622.366 279.38C623.186 280.34 624.276 280.82 625.636 280.82ZM645.899 282.71C645.519 282.71 645.219 282.6 644.999 282.38C644.799 282.16 644.699 281.85 644.699 281.45V275.96H642.809C642.269 275.96 641.809 276.02 641.429 276.14C641.049 276.26 640.699 276.48 640.379 276.8C640.079 277.1 639.759 277.53 639.419 278.09L637.049 282.05C636.889 282.31 636.689 282.49 636.449 282.59C636.209 282.69 635.979 282.71 635.759 282.65C635.539 282.61 635.339 282.51 635.159 282.35C634.979 282.19 634.869 282 634.829 281.78C634.789 281.56 634.849 281.31 635.009 281.03L637.169 277.46C637.609 276.7 638.019 276.1 638.399 275.66C638.799 275.2 639.199 274.86 639.599 274.64C640.019 274.42 640.509 274.28 641.069 274.22L640.439 275L636.179 269.57C635.999 269.31 635.899 269.07 635.879 268.85C635.879 268.61 635.949 268.4 636.089 268.22C636.229 268.04 636.399 267.92 636.599 267.86C636.819 267.78 637.039 267.78 637.259 267.86C637.499 267.92 637.709 268.07 637.889 268.31L642.389 274.01H644.699V269.03C644.699 268.61 644.799 268.3 644.999 268.1C645.219 267.88 645.519 267.77 645.899 267.77C646.299 267.77 646.599 267.88 646.799 268.1C647.019 268.3 647.129 268.61 647.129 269.03V274.01H649.469L653.909 268.31C654.109 268.07 654.329 267.92 654.569 267.86C654.809 267.78 655.029 267.78 655.229 267.86C655.429 267.92 655.599 268.04 655.739 268.22C655.879 268.38 655.939 268.58 655.919 268.82C655.919 269.06 655.829 269.31 655.649 269.57L651.389 275L650.759 274.22C651.319 274.28 651.799 274.42 652.199 274.64C652.619 274.86 653.019 275.19 653.399 275.63C653.799 276.07 654.219 276.68 654.659 277.46L656.819 281.03C656.959 281.31 657.009 281.56 656.969 281.78C656.949 282 656.849 282.19 656.669 282.35C656.489 282.51 656.279 282.61 656.039 282.65C655.819 282.71 655.599 282.69 655.379 282.59C655.159 282.49 654.959 282.31 654.779 282.05L652.409 278.09C652.069 277.53 651.749 277.1 651.449 276.8C651.149 276.48 650.809 276.26 650.429 276.14C650.049 276.02 649.579 275.96 649.019 275.96H647.129V281.45C647.129 281.85 647.019 282.16 646.799 282.38C646.599 282.6 646.299 282.71 645.899 282.71ZM661.323 282.71C660.923 282.71 660.613 282.6 660.393 282.38C660.193 282.16 660.093 281.85 660.093 281.45V269.03C660.093 268.61 660.193 268.3 660.393 268.1C660.613 267.88 660.923 267.77 661.323 267.77C661.703 267.77 661.993 267.88 662.193 268.1C662.413 268.3 662.523 268.61 662.523 269.03V274.01H665.253L669.693 268.31C669.893 268.07 670.113 267.92 670.353 267.86C670.593 267.78 670.813 267.78 671.013 267.86C671.233 267.92 671.403 268.04 671.523 268.22C671.663 268.38 671.733 268.58 671.733 268.82C671.733 269.06 671.643 269.31 671.463 269.57L667.233 275L666.543 274.22C667.103 274.28 667.593 274.42 668.013 274.64C668.433 274.86 668.833 275.19 669.213 275.63C669.593 276.07 670.003 276.68 670.443 277.46L672.603 281.03C672.743 281.31 672.793 281.56 672.753 281.78C672.733 282 672.633 282.2 672.453 282.38C672.273 282.54 672.063 282.64 671.823 282.68C671.603 282.72 671.383 282.69 671.163 282.59C670.943 282.49 670.743 282.31 670.563 282.05L668.193 278.09C667.853 277.53 667.533 277.1 667.233 276.8C666.933 276.48 666.593 276.26 666.213 276.14C665.833 276.02 665.363 275.96 664.803 275.96H662.523V281.45C662.523 281.85 662.413 282.16 662.193 282.38C661.993 282.6 661.703 282.71 661.323 282.71ZM679.154 288.11C678.854 288.11 678.614 288.03 678.434 287.87C678.254 287.71 678.144 287.49 678.104 287.21C678.084 286.95 678.134 286.68 678.254 286.4L680.324 281.75V282.8L674.564 269.42C674.444 269.12 674.404 268.84 674.444 268.58C674.484 268.32 674.604 268.11 674.804 267.95C675.004 267.79 675.284 267.71 675.644 267.71C675.964 267.71 676.214 267.78 676.394 267.92C676.574 268.06 676.734 268.31 676.874 268.67L681.794 280.73H680.984L685.964 268.67C686.124 268.31 686.294 268.06 686.474 267.92C686.654 267.78 686.914 267.71 687.254 267.71C687.574 267.71 687.814 267.79 687.974 267.95C688.154 268.11 688.254 268.32 688.274 268.58C688.314 268.82 688.274 269.09 688.154 269.39L680.474 287.15C680.314 287.51 680.134 287.76 679.934 287.9C679.754 288.04 679.494 288.11 679.154 288.11ZM700.581 282.71C700.181 282.71 699.871 282.6 699.651 282.38C699.451 282.16 699.351 281.85 699.351 281.45V269.3C699.351 268.84 699.471 268.5 699.711 268.28C699.951 268.04 700.291 267.92 700.731 267.92H710.691C711.131 267.92 711.471 268.04 711.711 268.28C711.951 268.5 712.071 268.84 712.071 269.3V281.45C712.071 281.85 711.961 282.16 711.741 282.38C711.521 282.6 711.221 282.71 710.841 282.71C710.461 282.71 710.161 282.6 709.941 282.38C709.741 282.16 709.641 281.85 709.641 281.45V269.87H701.781V281.45C701.781 281.85 701.681 282.16 701.481 282.38C701.281 282.6 700.981 282.71 700.581 282.71ZM728.061 282.71C727.681 282.71 727.381 282.6 727.161 282.38C726.961 282.16 726.861 281.85 726.861 281.45V269.87H720.981V271.73C720.981 273.29 720.901 274.67 720.741 275.87C720.601 277.05 720.371 278.07 720.051 278.93C719.731 279.79 719.301 280.51 718.761 281.09C718.241 281.67 717.591 282.16 716.811 282.56C716.551 282.68 716.301 282.71 716.061 282.65C715.821 282.61 715.621 282.52 715.461 282.38C715.321 282.22 715.221 282.03 715.161 281.81C715.121 281.59 715.151 281.37 715.251 281.15C715.351 280.93 715.531 280.75 715.791 280.61C716.371 280.29 716.841 279.89 717.201 279.41C717.581 278.93 717.881 278.33 718.101 277.61C718.321 276.89 718.471 276.05 718.551 275.09C718.651 274.11 718.701 272.96 718.701 271.64V269.3C718.701 268.84 718.821 268.5 719.061 268.28C719.301 268.04 719.641 267.92 720.081 267.92H727.911C728.351 267.92 728.691 268.04 728.931 268.28C729.171 268.5 729.291 268.84 729.291 269.3V281.45C729.291 281.85 729.181 282.16 728.961 282.38C728.761 282.6 728.461 282.71 728.061 282.71ZM740.697 282.77C739.157 282.77 737.827 282.47 736.707 281.87C735.607 281.25 734.747 280.38 734.127 279.26C733.527 278.14 733.227 276.8 733.227 275.24C733.227 273.72 733.527 272.4 734.127 271.28C734.727 270.14 735.547 269.25 736.587 268.61C737.647 267.97 738.867 267.65 740.247 267.65C741.227 267.65 742.107 267.82 742.887 268.16C743.667 268.48 744.327 268.95 744.867 269.57C745.427 270.19 745.847 270.94 746.127 271.82C746.427 272.7 746.577 273.69 746.577 274.79C746.577 275.11 746.487 275.35 746.307 275.51C746.127 275.65 745.867 275.72 745.527 275.72H735.087V274.13H744.957L744.477 274.52C744.477 273.44 744.317 272.53 743.997 271.79C743.677 271.03 743.207 270.45 742.587 270.05C741.987 269.65 741.227 269.45 740.307 269.45C739.287 269.45 738.417 269.69 737.697 270.17C736.997 270.63 736.467 271.28 736.107 272.12C735.747 272.94 735.567 273.9 735.567 275V275.18C735.567 277.02 736.007 278.42 736.887 279.38C737.787 280.34 739.057 280.82 740.697 280.82C741.377 280.82 742.047 280.73 742.707 280.55C743.387 280.37 744.047 280.07 744.687 279.65C744.967 279.47 745.217 279.39 745.437 279.41C745.677 279.41 745.867 279.48 746.007 279.62C746.147 279.74 746.237 279.9 746.277 280.1C746.337 280.28 746.317 280.48 746.217 280.7C746.137 280.92 745.967 281.11 745.707 281.27C745.047 281.75 744.267 282.12 743.367 282.38C742.467 282.64 741.577 282.77 740.697 282.77ZM751.467 282.71C751.247 282.71 751.047 282.66 750.867 282.56C750.707 282.48 750.577 282.34 750.477 282.14C750.397 281.94 750.357 281.69 750.357 281.39V268.91C750.357 268.51 750.457 268.21 750.657 268.01C750.857 267.81 751.127 267.71 751.467 267.71C751.827 267.71 752.097 267.81 752.277 268.01C752.477 268.21 752.577 268.51 752.577 268.91V280.19H751.827L760.557 268.49C760.717 268.27 760.907 268.09 761.127 267.95C761.347 267.79 761.627 267.71 761.967 267.71C762.207 267.71 762.407 267.75 762.567 267.83C762.727 267.91 762.847 268.05 762.927 268.25C763.027 268.43 763.077 268.68 763.077 269V281.51C763.077 281.89 762.977 282.19 762.777 282.41C762.597 282.61 762.327 282.71 761.967 282.71C761.607 282.71 761.327 282.61 761.127 282.41C760.947 282.19 760.857 281.89 760.857 281.51V270.2H761.607L752.847 281.93C752.707 282.13 752.527 282.31 752.307 282.47C752.107 282.63 751.827 282.71 751.467 282.71ZM756.717 266.03C755.657 266.03 754.677 265.76 753.777 265.22C752.897 264.68 752.237 263.86 751.797 262.76C751.697 262.46 751.687 262.22 751.767 262.04C751.847 261.84 751.997 261.7 752.217 261.62C752.437 261.54 752.637 261.55 752.817 261.65C752.997 261.73 753.147 261.91 753.267 262.19C753.627 262.95 754.087 263.53 754.647 263.93C755.227 264.31 755.917 264.5 756.717 264.5C757.537 264.5 758.227 264.31 758.787 263.93C759.347 263.53 759.807 262.95 760.167 262.19C760.307 261.91 760.467 261.73 760.647 261.65C760.827 261.55 761.017 261.54 761.217 261.62C761.457 261.7 761.607 261.84 761.667 262.04C761.747 262.22 761.727 262.46 761.607 262.76C761.147 263.86 760.477 264.68 759.597 265.22C758.737 265.76 757.777 266.03 756.717 266.03ZM779.067 282.71C778.687 282.71 778.387 282.6 778.167 282.38C777.967 282.16 777.867 281.85 777.867 281.45V269.87H771.987V271.73C771.987 273.29 771.907 274.67 771.747 275.87C771.607 277.05 771.377 278.07 771.057 278.93C770.737 279.79 770.307 280.51 769.767 281.09C769.247 281.67 768.597 282.16 767.817 282.56C767.557 282.68 767.307 282.71 767.067 282.65C766.827 282.61 766.627 282.52 766.467 282.38C766.327 282.22 766.227 282.03 766.167 281.81C766.127 281.59 766.157 281.37 766.257 281.15C766.357 280.93 766.537 280.75 766.797 280.61C767.377 280.29 767.847 279.89 768.207 279.41C768.587 278.93 768.887 278.33 769.107 277.61C769.327 276.89 769.477 276.05 769.557 275.09C769.657 274.11 769.707 272.96 769.707 271.64V269.3C769.707 268.84 769.827 268.5 770.067 268.28C770.307 268.04 770.647 267.92 771.087 267.92H778.917C779.357 267.92 779.697 268.04 779.937 268.28C780.177 268.5 780.297 268.84 780.297 269.3V281.45C780.297 281.85 780.187 282.16 779.967 282.38C779.767 282.6 779.467 282.71 779.067 282.71ZM786.213 282.71C785.993 282.71 785.793 282.66 785.613 282.56C785.453 282.48 785.323 282.34 785.223 282.14C785.143 281.94 785.103 281.69 785.103 281.39V268.91C785.103 268.51 785.203 268.21 785.403 268.01C785.603 267.81 785.873 267.71 786.213 267.71C786.573 267.71 786.843 267.81 787.023 268.01C787.223 268.21 787.323 268.51 787.323 268.91V280.19H786.573L795.303 268.49C795.463 268.27 795.653 268.09 795.873 267.95C796.093 267.79 796.373 267.71 796.713 267.71C796.953 267.71 797.153 267.75 797.313 267.83C797.473 267.91 797.593 268.05 797.673 268.25C797.773 268.43 797.823 268.68 797.823 269V281.51C797.823 281.89 797.723 282.19 797.523 282.41C797.343 282.61 797.073 282.71 796.713 282.71C796.353 282.71 796.073 282.61 795.873 282.41C795.693 282.19 795.603 281.89 795.603 281.51V270.2H796.353L787.593 281.93C787.453 282.13 787.273 282.31 787.053 282.47C786.853 282.63 786.573 282.71 786.213 282.71ZM808.833 282.77C807.373 282.77 806.113 282.45 805.053 281.81C803.993 281.17 803.173 280.28 802.593 279.14C802.033 277.98 801.753 276.64 801.753 275.12C801.753 273.96 801.913 272.92 802.233 272C802.553 271.08 803.023 270.3 803.643 269.66C804.263 269 805.003 268.5 805.863 268.16C806.743 267.82 807.733 267.65 808.833 267.65C809.553 267.65 810.303 267.76 811.083 267.98C811.863 268.2 812.573 268.58 813.213 269.12C813.413 269.26 813.543 269.43 813.603 269.63C813.663 269.83 813.663 270.03 813.603 270.23C813.543 270.41 813.443 270.57 813.303 270.71C813.163 270.83 812.983 270.9 812.763 270.92C812.563 270.94 812.353 270.87 812.133 270.71C811.613 270.31 811.083 270.03 810.543 269.87C810.003 269.71 809.483 269.63 808.983 269.63C808.203 269.63 807.523 269.76 806.943 270.02C806.363 270.26 805.873 270.61 805.473 271.07C805.073 271.53 804.763 272.1 804.543 272.78C804.343 273.46 804.243 274.25 804.243 275.15C804.243 276.89 804.653 278.27 805.473 279.29C806.293 280.29 807.463 280.79 808.983 280.79C809.483 280.79 809.993 280.71 810.513 280.55C811.053 280.39 811.593 280.11 812.133 279.71C812.353 279.55 812.563 279.48 812.763 279.5C812.963 279.52 813.133 279.6 813.273 279.74C813.413 279.86 813.503 280.02 813.543 280.22C813.603 280.42 813.603 280.62 813.543 280.82C813.483 281 813.353 281.16 813.153 281.3C812.513 281.82 811.813 282.2 811.053 282.44C810.293 282.66 809.553 282.77 808.833 282.77ZM821.062 282.71C820.682 282.71 820.382 282.6 820.162 282.38C819.942 282.16 819.832 281.85 819.832 281.45V269.87H815.452C814.692 269.87 814.312 269.54 814.312 268.88C814.312 268.58 814.412 268.35 814.612 268.19C814.812 268.01 815.092 267.92 815.452 267.92H826.672C827.412 267.92 827.782 268.24 827.782 268.88C827.782 269.2 827.682 269.45 827.482 269.63C827.302 269.79 827.032 269.87 826.672 269.87H822.262V281.45C822.262 281.85 822.162 282.16 821.962 282.38C821.782 282.6 821.482 282.71 821.062 282.71ZM834.752 282.77C833.752 282.77 832.852 282.58 832.052 282.2C831.272 281.8 830.652 281.26 830.192 280.58C829.732 279.9 829.502 279.14 829.502 278.3C829.502 277.22 829.772 276.37 830.312 275.75C830.872 275.13 831.782 274.69 833.042 274.43C834.322 274.17 836.062 274.04 838.262 274.04H839.612V275.63H838.292C836.672 275.63 835.392 275.71 834.452 275.87C833.532 276.01 832.882 276.26 832.502 276.62C832.142 276.98 831.962 277.49 831.962 278.15C831.962 278.97 832.242 279.64 832.802 280.16C833.382 280.68 834.162 280.94 835.142 280.94C835.942 280.94 836.642 280.75 837.242 280.37C837.862 279.99 838.342 279.47 838.682 278.81C839.042 278.15 839.222 277.39 839.222 276.53V273.11C839.222 271.87 838.972 270.98 838.472 270.44C837.972 269.88 837.152 269.6 836.012 269.6C835.312 269.6 834.612 269.69 833.912 269.87C833.212 270.05 832.472 270.34 831.692 270.74C831.412 270.88 831.172 270.93 830.972 270.89C830.772 270.83 830.612 270.72 830.492 270.56C830.372 270.4 830.302 270.22 830.282 270.02C830.262 269.8 830.302 269.59 830.402 269.39C830.522 269.19 830.702 269.03 830.942 268.91C831.822 268.47 832.692 268.15 833.552 267.95C834.412 267.75 835.232 267.65 836.012 267.65C837.272 267.65 838.312 267.86 839.132 268.28C839.952 268.68 840.562 269.3 840.962 270.14C841.362 270.96 841.562 272.02 841.562 273.32V281.45C841.562 281.85 841.462 282.16 841.262 282.38C841.082 282.6 840.812 282.71 840.452 282.71C840.072 282.71 839.782 282.6 839.582 282.38C839.382 282.16 839.282 281.85 839.282 281.45V279.11H839.552C839.392 279.87 839.082 280.52 838.622 281.06C838.182 281.6 837.632 282.02 836.972 282.32C836.312 282.62 835.572 282.77 834.752 282.77Z" fill="white"/>
</g>
<defs>
<clipPath id="clip0_2863_2406">
<rect width="1251.7" height="545" fill="white"/>
</clipPath>
</defs>
</svg>
