<svg width="436" height="247" viewBox="0 0 436 247" fill="none" xmlns="http://www.w3.org/2000/svg">
<rect y="0.799805" width="436" height="246" fill="#191919"/>
<path d="M116.286 128.8C116.135 128.8 116.017 128.757 115.932 128.672C115.847 128.587 115.804 128.464 115.804 128.304V119.301C115.804 119.141 115.847 119.018 115.932 118.933C116.017 118.848 116.135 118.805 116.286 118.805H119.618C120.308 118.805 120.889 118.909 121.361 119.117C121.834 119.316 122.198 119.609 122.453 119.996C122.708 120.384 122.836 120.861 122.836 121.428C122.836 122.052 122.647 122.572 122.269 122.987C121.9 123.403 121.399 123.677 120.766 123.81V123.611C121.475 123.687 122.033 123.942 122.439 124.377C122.855 124.802 123.063 125.369 123.063 126.078C123.063 126.966 122.779 127.642 122.212 128.105C121.645 128.568 120.842 128.8 119.802 128.8H116.286ZM116.655 128.063H119.731C120.553 128.063 121.168 127.902 121.574 127.581C121.981 127.25 122.184 126.754 122.184 126.092C122.184 125.412 121.981 124.911 121.574 124.589C121.168 124.268 120.553 124.107 119.731 124.107H116.655V128.063ZM116.655 123.37H119.519C120.312 123.37 120.917 123.209 121.333 122.888C121.749 122.557 121.957 122.08 121.957 121.456C121.957 120.833 121.749 120.36 121.333 120.039C120.917 119.708 120.312 119.542 119.519 119.542H116.655V123.37ZM128.009 128.913C127.338 128.913 126.761 128.767 126.279 128.474C125.797 128.171 125.424 127.751 125.159 127.212C124.904 126.664 124.777 126.031 124.777 125.312C124.777 124.764 124.847 124.277 124.989 123.852C125.14 123.417 125.353 123.049 125.627 122.746C125.911 122.444 126.251 122.212 126.648 122.052C127.054 121.882 127.508 121.797 128.009 121.797C128.359 121.797 128.718 121.858 129.086 121.981C129.455 122.094 129.79 122.288 130.093 122.562C130.159 122.619 130.202 122.685 130.22 122.761C130.239 122.836 130.235 122.912 130.206 122.987C130.178 123.054 130.135 123.11 130.079 123.158C130.022 123.195 129.951 123.219 129.866 123.228C129.79 123.228 129.71 123.191 129.625 123.115C129.36 122.898 129.091 122.751 128.817 122.676C128.552 122.59 128.292 122.548 128.037 122.548C127.65 122.548 127.31 122.609 127.017 122.732C126.724 122.855 126.473 123.035 126.265 123.271C126.067 123.507 125.915 123.8 125.812 124.15C125.708 124.49 125.656 124.882 125.656 125.327C125.656 126.215 125.859 126.914 126.265 127.425C126.681 127.926 127.272 128.176 128.037 128.176C128.292 128.176 128.552 128.138 128.817 128.063C129.091 127.978 129.36 127.826 129.625 127.609C129.71 127.533 129.79 127.5 129.866 127.51C129.951 127.51 130.022 127.533 130.079 127.581C130.135 127.618 130.173 127.675 130.192 127.751C130.22 127.817 130.225 127.888 130.206 127.963C130.187 128.039 130.145 128.105 130.079 128.162C129.786 128.436 129.455 128.63 129.086 128.743C128.718 128.857 128.359 128.913 128.009 128.913ZM133.677 128.885C133.544 128.885 133.44 128.847 133.365 128.771C133.289 128.696 133.251 128.587 133.251 128.445V122.647H131.011C130.728 122.647 130.586 122.524 130.586 122.279C130.586 122.175 130.624 122.09 130.7 122.023C130.775 121.957 130.879 121.924 131.011 121.924H136.356C136.63 121.924 136.767 122.042 136.767 122.279C136.767 122.392 136.729 122.482 136.654 122.548C136.588 122.614 136.488 122.647 136.356 122.647H134.116V128.445C134.116 128.587 134.078 128.696 134.003 128.771C133.937 128.847 133.828 128.885 133.677 128.885ZM140.051 128.913C139.588 128.913 139.172 128.823 138.804 128.644C138.445 128.464 138.156 128.219 137.939 127.907C137.731 127.595 137.627 127.245 137.627 126.858C137.627 126.347 137.755 125.946 138.01 125.653C138.265 125.36 138.695 125.156 139.3 125.043C139.905 124.92 140.737 124.859 141.795 124.859H142.405V125.497H141.809C140.959 125.497 140.292 125.534 139.81 125.61C139.338 125.676 139.007 125.804 138.818 125.993C138.629 126.182 138.534 126.446 138.534 126.787C138.534 127.212 138.681 127.557 138.974 127.822C139.267 128.086 139.664 128.219 140.165 128.219C140.571 128.219 140.926 128.124 141.228 127.935C141.54 127.737 141.786 127.467 141.965 127.127C142.145 126.787 142.235 126.399 142.235 125.964V124.348C142.235 123.715 142.107 123.257 141.852 122.973C141.597 122.68 141.19 122.534 140.633 122.534C140.273 122.534 139.924 122.581 139.584 122.676C139.253 122.77 138.898 122.921 138.52 123.129C138.416 123.186 138.322 123.205 138.237 123.186C138.161 123.167 138.1 123.129 138.052 123.072C138.015 123.016 137.986 122.95 137.967 122.874C137.958 122.789 137.972 122.709 138.01 122.633C138.048 122.557 138.114 122.496 138.208 122.449C138.605 122.231 139.007 122.071 139.413 121.967C139.829 121.853 140.231 121.797 140.618 121.797C141.176 121.797 141.634 121.891 141.994 122.08C142.362 122.269 142.632 122.553 142.802 122.931C142.981 123.309 143.071 123.795 143.071 124.391V128.445C143.071 128.587 143.038 128.696 142.972 128.771C142.906 128.847 142.806 128.885 142.674 128.885C142.542 128.885 142.438 128.847 142.362 128.771C142.287 128.696 142.249 128.587 142.249 128.445V127.141H142.391C142.305 127.51 142.154 127.826 141.937 128.091C141.719 128.356 141.45 128.559 141.129 128.701C140.807 128.842 140.448 128.913 140.051 128.913ZM145.911 128.8C145.75 128.8 145.627 128.762 145.542 128.686C145.466 128.601 145.429 128.483 145.429 128.332V122.392C145.429 122.241 145.466 122.127 145.542 122.052C145.627 121.967 145.75 121.924 145.911 121.924H148.618C149.138 121.924 149.568 121.995 149.908 122.137C150.249 122.269 150.504 122.468 150.674 122.732C150.844 122.997 150.929 123.332 150.929 123.739C150.929 124.183 150.773 124.556 150.461 124.859C150.159 125.152 149.757 125.327 149.256 125.383V125.199C149.823 125.208 150.282 125.374 150.631 125.695C150.981 126.007 151.156 126.413 151.156 126.914C151.156 127.491 150.943 127.949 150.518 128.289C150.093 128.63 149.497 128.8 148.732 128.8H145.911ZM146.265 128.162H148.732C149.242 128.162 149.63 128.053 149.894 127.836C150.168 127.609 150.305 127.292 150.305 126.886C150.305 126.47 150.168 126.158 149.894 125.95C149.63 125.733 149.242 125.624 148.732 125.624H146.265V128.162ZM146.265 124.986H148.618C149.081 124.986 149.441 124.878 149.696 124.66C149.96 124.443 150.093 124.145 150.093 123.767C150.093 123.38 149.96 123.082 149.696 122.874C149.441 122.666 149.081 122.562 148.618 122.562H146.265V124.986ZM153.525 128.8C153.364 128.8 153.241 128.762 153.156 128.686C153.081 128.601 153.043 128.483 153.043 128.332V122.279C153.043 122.127 153.081 122.014 153.156 121.938C153.232 121.863 153.341 121.825 153.482 121.825C153.615 121.825 153.719 121.863 153.794 121.938C153.87 122.014 153.908 122.127 153.908 122.279V124.462H156.105C156.965 124.462 157.617 124.651 158.061 125.029C158.515 125.407 158.742 125.936 158.742 126.617C158.742 127.07 158.638 127.462 158.43 127.793C158.232 128.124 157.939 128.375 157.551 128.545C157.164 128.715 156.682 128.8 156.105 128.8H153.525ZM153.908 128.134H156.077C156.644 128.134 157.083 128.011 157.395 127.765C157.716 127.519 157.877 127.141 157.877 126.631C157.877 126.111 157.716 125.728 157.395 125.482C157.083 125.237 156.644 125.114 156.077 125.114H153.908V128.134ZM162.002 128.885C161.87 128.885 161.766 128.847 161.69 128.771C161.615 128.696 161.577 128.587 161.577 128.445V122.647H159.337C159.053 122.647 158.912 122.524 158.912 122.279C158.912 122.175 158.95 122.09 159.025 122.023C159.101 121.957 159.205 121.924 159.337 121.924H164.682C164.956 121.924 165.093 122.042 165.093 122.279C165.093 122.392 165.055 122.482 164.979 122.548C164.913 122.614 164.814 122.647 164.682 122.647H162.442V128.445C162.442 128.587 162.404 128.696 162.328 128.771C162.262 128.847 162.153 128.885 162.002 128.885ZM169.242 128.913C168.533 128.913 167.923 128.771 167.413 128.488C166.903 128.204 166.51 127.798 166.236 127.269C165.962 126.739 165.825 126.111 165.825 125.383C165.825 124.665 165.962 124.041 166.236 123.512C166.51 122.973 166.888 122.553 167.37 122.25C167.862 121.948 168.424 121.797 169.057 121.797C169.521 121.797 169.927 121.877 170.277 122.038C170.636 122.189 170.938 122.411 171.184 122.704C171.439 122.987 171.633 123.337 171.765 123.753C171.897 124.159 171.964 124.622 171.964 125.142C171.964 125.275 171.926 125.374 171.85 125.44C171.784 125.506 171.69 125.539 171.567 125.539H166.449V124.901H171.425L171.198 125.086C171.198 124.537 171.118 124.074 170.957 123.696C170.796 123.309 170.555 123.011 170.234 122.803C169.922 122.595 169.535 122.491 169.072 122.491C168.552 122.491 168.112 122.614 167.753 122.86C167.394 123.096 167.125 123.427 166.945 123.852C166.766 124.268 166.676 124.75 166.676 125.298V125.369C166.676 126.276 166.898 126.976 167.342 127.467C167.786 127.949 168.41 128.19 169.213 128.19C169.563 128.19 169.899 128.143 170.22 128.048C170.551 127.954 170.872 127.793 171.184 127.566C171.278 127.5 171.368 127.467 171.453 127.467C171.548 127.467 171.623 127.491 171.68 127.538C171.746 127.585 171.789 127.647 171.808 127.722C171.836 127.789 171.831 127.864 171.794 127.949C171.765 128.025 171.704 128.096 171.609 128.162C171.307 128.408 170.943 128.597 170.518 128.729C170.092 128.852 169.667 128.913 169.242 128.913ZM177.806 128.885C177.73 128.885 177.659 128.871 177.593 128.842C177.537 128.814 177.489 128.767 177.452 128.701C177.423 128.625 177.409 128.53 177.409 128.417V122.264C177.409 122.123 177.442 122.014 177.508 121.938C177.584 121.863 177.688 121.825 177.82 121.825C177.943 121.825 178.037 121.863 178.104 121.938C178.17 122.014 178.203 122.123 178.203 122.264V128.034H177.863L182.272 122.108C182.338 122.023 182.409 121.957 182.484 121.91C182.56 121.853 182.659 121.825 182.782 121.825C182.867 121.825 182.938 121.844 182.995 121.882C183.051 121.91 183.094 121.957 183.122 122.023C183.16 122.09 183.179 122.179 183.179 122.293V128.46C183.179 128.592 183.141 128.696 183.065 128.771C182.999 128.847 182.905 128.885 182.782 128.885C182.65 128.885 182.55 128.847 182.484 128.771C182.418 128.696 182.385 128.592 182.385 128.46V122.69H182.725L178.302 128.616C178.245 128.691 178.179 128.753 178.104 128.8C178.028 128.857 177.929 128.885 177.806 128.885ZM187.718 128.913C187.227 128.913 186.745 128.852 186.272 128.729C185.809 128.606 185.422 128.426 185.11 128.19C185.015 128.124 184.949 128.053 184.911 127.978C184.883 127.893 184.878 127.812 184.897 127.737C184.916 127.661 184.949 127.6 184.996 127.552C185.053 127.496 185.124 127.467 185.209 127.467C185.303 127.458 185.398 127.491 185.492 127.566C185.795 127.784 186.14 127.944 186.527 128.048C186.915 128.152 187.307 128.204 187.704 128.204C188.422 128.204 188.937 128.091 189.249 127.864C189.561 127.637 189.717 127.311 189.717 126.886C189.717 126.489 189.58 126.187 189.306 125.979C189.041 125.761 188.659 125.653 188.158 125.653H186.938C186.816 125.653 186.716 125.624 186.641 125.568C186.575 125.501 186.542 125.416 186.542 125.312C186.542 125.208 186.575 125.128 186.641 125.071C186.716 125.005 186.816 124.972 186.938 124.972H188.03C188.465 124.972 188.814 124.868 189.079 124.66C189.353 124.443 189.49 124.15 189.49 123.781C189.49 123.394 189.353 123.087 189.079 122.86C188.805 122.633 188.366 122.52 187.761 122.52C187.364 122.52 186.986 122.567 186.627 122.661C186.277 122.756 185.946 122.902 185.634 123.101C185.492 123.176 185.37 123.205 185.266 123.186C185.171 123.167 185.1 123.115 185.053 123.03C185.006 122.945 184.996 122.85 185.025 122.746C185.053 122.642 185.124 122.557 185.237 122.491C185.596 122.264 185.993 122.094 186.428 121.981C186.863 121.858 187.326 121.797 187.817 121.797C188.668 121.797 189.301 121.971 189.717 122.321C190.133 122.661 190.341 123.134 190.341 123.739C190.341 124.183 190.185 124.556 189.873 124.859C189.571 125.152 189.169 125.327 188.668 125.383V125.199C189.226 125.208 189.679 125.374 190.029 125.695C190.388 126.007 190.568 126.413 190.568 126.914C190.568 127.519 190.331 128.006 189.859 128.375C189.386 128.734 188.673 128.913 187.718 128.913ZM195.208 128.913C194.565 128.913 194.007 128.767 193.535 128.474C193.062 128.181 192.694 127.77 192.429 127.24C192.174 126.711 192.046 126.083 192.046 125.355C192.046 124.816 192.117 124.329 192.259 123.895C192.41 123.46 192.623 123.087 192.897 122.775C193.18 122.453 193.516 122.212 193.903 122.052C194.3 121.882 194.735 121.797 195.208 121.797C195.86 121.797 196.422 121.943 196.895 122.236C197.367 122.529 197.731 122.945 197.986 123.484C198.251 124.013 198.383 124.637 198.383 125.355C198.383 125.903 198.308 126.395 198.156 126.829C198.015 127.264 197.802 127.637 197.519 127.949C197.244 128.261 196.914 128.502 196.526 128.672C196.139 128.833 195.699 128.913 195.208 128.913ZM195.208 128.19C195.68 128.19 196.087 128.082 196.427 127.864C196.777 127.637 197.041 127.311 197.221 126.886C197.41 126.461 197.504 125.95 197.504 125.355C197.504 124.457 197.296 123.762 196.881 123.271C196.474 122.779 195.917 122.534 195.208 122.534C194.745 122.534 194.338 122.647 193.989 122.874C193.648 123.091 193.384 123.413 193.195 123.838C193.015 124.254 192.925 124.759 192.925 125.355C192.925 126.262 193.133 126.962 193.549 127.453C193.965 127.944 194.518 128.19 195.208 128.19ZM203.086 128.913C202.433 128.913 201.866 128.767 201.384 128.474C200.912 128.181 200.543 127.746 200.279 127.169C200.023 126.593 199.896 125.884 199.896 125.043V123.966C199.896 123.049 200.009 122.288 200.236 121.683C200.472 121.078 200.822 120.592 201.285 120.223C201.758 119.845 202.344 119.552 203.043 119.344L205.212 118.706C205.344 118.668 205.458 118.673 205.552 118.72C205.647 118.758 205.708 118.834 205.737 118.947C205.774 119.079 205.76 119.188 205.694 119.273C205.637 119.358 205.538 119.42 205.396 119.457L203.1 120.124C202.58 120.275 202.14 120.502 201.781 120.804C201.432 121.107 201.172 121.475 201.002 121.91C200.831 122.345 200.746 122.831 200.746 123.37V123.852H200.576C200.699 123.427 200.883 123.068 201.129 122.775C201.384 122.472 201.691 122.245 202.051 122.094C202.419 121.934 202.816 121.853 203.241 121.853C203.846 121.853 204.376 122 204.829 122.293C205.283 122.576 205.633 122.983 205.878 123.512C206.124 124.032 206.247 124.651 206.247 125.369C206.247 126.087 206.115 126.711 205.85 127.24C205.595 127.77 205.231 128.181 204.758 128.474C204.295 128.767 203.738 128.913 203.086 128.913ZM203.057 128.19C203.539 128.19 203.95 128.082 204.291 127.864C204.64 127.647 204.905 127.33 205.084 126.914C205.273 126.498 205.368 125.988 205.368 125.383C205.368 124.495 205.16 123.81 204.744 123.328C204.338 122.836 203.78 122.59 203.071 122.59C202.599 122.59 202.192 122.699 201.852 122.917C201.512 123.124 201.247 123.432 201.058 123.838C200.869 124.235 200.775 124.707 200.775 125.256C200.775 126.22 200.978 126.952 201.384 127.453C201.791 127.944 202.348 128.19 203.057 128.19ZM208.638 131.437C208.497 131.437 208.388 131.399 208.312 131.323C208.237 131.248 208.199 131.139 208.199 130.997V122.279C208.199 122.127 208.237 122.014 208.312 121.938C208.388 121.863 208.497 121.825 208.638 121.825C208.771 121.825 208.875 121.863 208.95 121.938C209.026 122.014 209.064 122.127 209.064 122.279V123.725L208.908 123.64C209.068 123.072 209.376 122.624 209.829 122.293C210.283 121.962 210.831 121.797 211.474 121.797C212.088 121.797 212.622 121.943 213.076 122.236C213.539 122.529 213.893 122.94 214.139 123.469C214.394 123.999 214.522 124.627 214.522 125.355C214.522 126.083 214.394 126.716 214.139 127.255C213.893 127.784 213.543 128.195 213.09 128.488C212.636 128.771 212.097 128.913 211.474 128.913C210.831 128.913 210.283 128.748 209.829 128.417C209.376 128.086 209.068 127.647 208.908 127.099H209.064V130.997C209.064 131.139 209.026 131.248 208.95 131.323C208.875 131.399 208.771 131.437 208.638 131.437ZM211.346 128.19C211.809 128.19 212.211 128.082 212.551 127.864C212.901 127.637 213.17 127.311 213.359 126.886C213.548 126.461 213.643 125.95 213.643 125.355C213.643 124.457 213.435 123.762 213.019 123.271C212.603 122.779 212.045 122.534 211.346 122.534C210.883 122.534 210.477 122.647 210.127 122.874C209.787 123.091 209.522 123.413 209.333 123.838C209.144 124.254 209.049 124.759 209.049 125.355C209.049 126.262 209.257 126.962 209.673 127.453C210.089 127.944 210.647 128.19 211.346 128.19ZM218.59 128.913C218.127 128.913 217.711 128.823 217.343 128.644C216.984 128.464 216.695 128.219 216.478 127.907C216.27 127.595 216.166 127.245 216.166 126.858C216.166 126.347 216.294 125.946 216.549 125.653C216.804 125.36 217.234 125.156 217.839 125.043C218.444 124.92 219.276 124.859 220.334 124.859H220.944V125.497H220.348C219.498 125.497 218.831 125.534 218.349 125.61C217.877 125.676 217.546 125.804 217.357 125.993C217.168 126.182 217.074 126.446 217.074 126.787C217.074 127.212 217.22 127.557 217.513 127.822C217.806 128.086 218.203 128.219 218.704 128.219C219.11 128.219 219.465 128.124 219.767 127.935C220.079 127.737 220.325 127.467 220.504 127.127C220.684 126.787 220.774 126.399 220.774 125.964V124.348C220.774 123.715 220.646 123.257 220.391 122.973C220.136 122.68 219.729 122.534 219.172 122.534C218.813 122.534 218.463 122.581 218.123 122.676C217.792 122.77 217.437 122.921 217.059 123.129C216.955 123.186 216.861 123.205 216.776 123.186C216.7 123.167 216.639 123.129 216.592 123.072C216.554 123.016 216.525 122.95 216.506 122.874C216.497 122.789 216.511 122.709 216.549 122.633C216.587 122.557 216.653 122.496 216.747 122.449C217.144 122.231 217.546 122.071 217.952 121.967C218.368 121.853 218.77 121.797 219.157 121.797C219.715 121.797 220.173 121.891 220.533 122.08C220.901 122.269 221.171 122.553 221.341 122.931C221.52 123.309 221.61 123.795 221.61 124.391V128.445C221.61 128.587 221.577 128.696 221.511 128.771C221.445 128.847 221.345 128.885 221.213 128.885C221.081 128.885 220.977 128.847 220.901 128.771C220.826 128.696 220.788 128.587 220.788 128.445V127.141H220.93C220.845 127.51 220.693 127.826 220.476 128.091C220.259 128.356 219.989 128.559 219.668 128.701C219.347 128.842 218.987 128.913 218.59 128.913ZM228.206 128.885C228.065 128.885 227.956 128.847 227.88 128.771C227.814 128.696 227.781 128.587 227.781 128.445V125.596H226.803C226.519 125.596 226.278 125.629 226.08 125.695C225.891 125.752 225.716 125.861 225.555 126.021C225.395 126.182 225.229 126.404 225.059 126.687L223.854 128.658C223.797 128.753 223.727 128.814 223.642 128.842C223.556 128.88 223.471 128.89 223.386 128.871C223.311 128.861 223.24 128.828 223.174 128.771C223.117 128.705 223.084 128.634 223.074 128.559C223.065 128.474 223.084 128.384 223.131 128.289L224.223 126.503C224.459 126.125 224.667 125.827 224.847 125.61C225.036 125.393 225.225 125.237 225.414 125.142C225.612 125.038 225.844 124.972 226.108 124.944L225.825 125.213L223.684 122.534C223.608 122.439 223.571 122.349 223.571 122.264C223.571 122.17 223.594 122.094 223.642 122.038C223.689 121.971 223.75 121.924 223.826 121.896C223.901 121.867 223.982 121.867 224.067 121.896C224.152 121.915 224.227 121.971 224.294 122.066L226.562 124.887H227.781V122.321C227.781 122.17 227.814 122.056 227.88 121.981C227.956 121.905 228.065 121.867 228.206 121.867C228.348 121.867 228.457 121.905 228.532 121.981C228.608 122.056 228.646 122.17 228.646 122.321V124.887H229.865L232.119 122.066C232.185 121.971 232.261 121.915 232.346 121.896C232.44 121.867 232.521 121.867 232.587 121.896C232.663 121.915 232.724 121.957 232.771 122.023C232.828 122.09 232.852 122.17 232.842 122.264C232.842 122.349 232.804 122.439 232.729 122.534L230.588 125.213L230.305 124.944C230.569 124.972 230.796 125.034 230.985 125.128C231.183 125.223 231.373 125.379 231.552 125.596C231.741 125.813 231.954 126.116 232.19 126.503L233.267 128.289C233.324 128.384 233.348 128.474 233.338 128.559C233.329 128.634 233.291 128.705 233.225 128.771C233.168 128.828 233.097 128.861 233.012 128.871C232.937 128.89 232.856 128.88 232.771 128.842C232.696 128.814 232.625 128.753 232.559 128.658L231.354 126.687C231.183 126.404 231.018 126.187 230.857 126.035C230.706 125.875 230.531 125.761 230.333 125.695C230.144 125.629 229.903 125.596 229.61 125.596H228.646V128.445C228.646 128.587 228.608 128.696 228.532 128.771C228.457 128.847 228.348 128.885 228.206 128.885ZM237.813 128.913C237.104 128.913 236.494 128.771 235.984 128.488C235.474 128.204 235.081 127.798 234.807 127.269C234.533 126.739 234.396 126.111 234.396 125.383C234.396 124.665 234.533 124.041 234.807 123.512C235.081 122.973 235.46 122.553 235.942 122.25C236.433 121.948 236.995 121.797 237.629 121.797C238.092 121.797 238.498 121.877 238.848 122.038C239.207 122.189 239.509 122.411 239.755 122.704C240.01 122.987 240.204 123.337 240.336 123.753C240.469 124.159 240.535 124.622 240.535 125.142C240.535 125.275 240.497 125.374 240.421 125.44C240.355 125.506 240.261 125.539 240.138 125.539H235.02V124.901H239.996L239.769 125.086C239.769 124.537 239.689 124.074 239.528 123.696C239.368 123.309 239.127 123.011 238.805 122.803C238.493 122.595 238.106 122.491 237.643 122.491C237.123 122.491 236.683 122.614 236.324 122.86C235.965 123.096 235.696 123.427 235.516 123.852C235.337 124.268 235.247 124.75 235.247 125.298V125.369C235.247 126.276 235.469 126.976 235.913 127.467C236.357 127.949 236.981 128.19 237.784 128.19C238.134 128.19 238.47 128.143 238.791 128.048C239.122 127.954 239.443 127.793 239.755 127.566C239.85 127.5 239.939 127.467 240.024 127.467C240.119 127.467 240.194 127.491 240.251 127.538C240.317 127.585 240.36 127.647 240.379 127.722C240.407 127.789 240.402 127.864 240.365 127.949C240.336 128.025 240.275 128.096 240.18 128.162C239.878 128.408 239.514 128.597 239.089 128.729C238.663 128.852 238.238 128.913 237.813 128.913ZM242.848 128.885C242.706 128.885 242.597 128.847 242.522 128.771C242.446 128.696 242.408 128.587 242.408 128.445V122.279C242.408 122.127 242.446 122.014 242.522 121.938C242.597 121.863 242.706 121.825 242.848 121.825C242.98 121.825 243.084 121.863 243.16 121.938C243.235 122.014 243.273 122.127 243.273 122.279V124.887H247.342V122.279C247.342 122.127 247.38 122.014 247.455 121.938C247.531 121.863 247.635 121.825 247.767 121.825C247.909 121.825 248.017 121.863 248.093 121.938C248.169 122.014 248.207 122.127 248.207 122.279V128.445C248.207 128.587 248.169 128.696 248.093 128.771C248.017 128.847 247.909 128.885 247.767 128.885C247.635 128.885 247.531 128.847 247.455 128.771C247.38 128.696 247.342 128.587 247.342 128.445V125.61H243.273V128.445C243.273 128.587 243.235 128.696 243.16 128.771C243.093 128.847 242.99 128.885 242.848 128.885ZM250.987 128.885C250.912 128.885 250.841 128.871 250.775 128.842C250.718 128.814 250.671 128.767 250.633 128.701C250.604 128.625 250.59 128.53 250.59 128.417V122.264C250.59 122.123 250.623 122.014 250.69 121.938C250.765 121.863 250.869 121.825 251.001 121.825C251.124 121.825 251.219 121.863 251.285 121.938C251.351 122.014 251.384 122.123 251.384 122.264V128.034H251.044L255.453 122.108C255.519 122.023 255.59 121.957 255.666 121.91C255.741 121.853 255.84 121.825 255.963 121.825C256.048 121.825 256.119 121.844 256.176 121.882C256.233 121.91 256.275 121.957 256.303 122.023C256.341 122.09 256.36 122.179 256.36 122.293V128.46C256.36 128.592 256.322 128.696 256.247 128.771C256.181 128.847 256.086 128.885 255.963 128.885C255.831 128.885 255.732 128.847 255.666 128.771C255.599 128.696 255.566 128.592 255.566 128.46V122.69H255.907L251.483 128.616C251.427 128.691 251.361 128.753 251.285 128.8C251.209 128.857 251.11 128.885 250.987 128.885ZM261.736 128.913C261.027 128.913 260.417 128.771 259.907 128.488C259.397 128.204 259.005 127.798 258.73 127.269C258.456 126.739 258.319 126.111 258.319 125.383C258.319 124.665 258.456 124.041 258.73 123.512C259.005 122.973 259.383 122.553 259.865 122.25C260.356 121.948 260.918 121.797 261.552 121.797C262.015 121.797 262.421 121.877 262.771 122.038C263.13 122.189 263.432 122.411 263.678 122.704C263.933 122.987 264.127 123.337 264.259 123.753C264.392 124.159 264.458 124.622 264.458 125.142C264.458 125.275 264.42 125.374 264.344 125.44C264.278 125.506 264.184 125.539 264.061 125.539H258.943V124.901H263.919L263.692 125.086C263.692 124.537 263.612 124.074 263.451 123.696C263.291 123.309 263.05 123.011 262.728 122.803C262.416 122.595 262.029 122.491 261.566 122.491C261.046 122.491 260.606 122.614 260.247 122.86C259.888 123.096 259.619 123.427 259.439 123.852C259.26 124.268 259.17 124.75 259.17 125.298V125.369C259.17 126.276 259.392 126.976 259.836 127.467C260.28 127.949 260.904 128.19 261.708 128.19C262.057 128.19 262.393 128.143 262.714 128.048C263.045 127.954 263.366 127.793 263.678 127.566C263.773 127.5 263.862 127.467 263.947 127.467C264.042 127.467 264.118 127.491 264.174 127.538C264.24 127.585 264.283 127.647 264.302 127.722C264.33 127.789 264.325 127.864 264.288 127.949C264.259 128.025 264.198 128.096 264.103 128.162C263.801 128.408 263.437 128.597 263.012 128.729C262.586 128.852 262.161 128.913 261.736 128.913ZM270.343 128.885C270.201 128.885 270.092 128.847 270.017 128.771C269.941 128.696 269.903 128.587 269.903 128.445V122.279C269.903 122.127 269.941 122.014 270.017 121.938C270.092 121.863 270.201 121.825 270.343 121.825C270.475 121.825 270.579 121.863 270.655 121.938C270.73 122.014 270.768 122.127 270.768 122.279V124.887H274.837V122.279C274.837 122.127 274.874 122.014 274.95 121.938C275.026 121.863 275.13 121.825 275.262 121.825C275.404 121.825 275.512 121.863 275.588 121.938C275.664 122.014 275.701 122.127 275.701 122.279V128.445C275.701 128.587 275.664 128.696 275.588 128.771C275.512 128.847 275.404 128.885 275.262 128.885C275.13 128.885 275.026 128.847 274.95 128.771C274.874 128.696 274.837 128.587 274.837 128.445V125.61H270.768V128.445C270.768 128.587 270.73 128.696 270.655 128.771C270.588 128.847 270.484 128.885 270.343 128.885ZM280.821 128.913C280.179 128.913 279.621 128.767 279.148 128.474C278.676 128.181 278.307 127.77 278.043 127.24C277.787 126.711 277.66 126.083 277.66 125.355C277.66 124.816 277.731 124.329 277.873 123.895C278.024 123.46 278.236 123.087 278.51 122.775C278.794 122.453 279.13 122.212 279.517 122.052C279.914 121.882 280.349 121.797 280.821 121.797C281.473 121.797 282.036 121.943 282.508 122.236C282.981 122.529 283.345 122.945 283.6 123.484C283.865 124.013 283.997 124.637 283.997 125.355C283.997 125.903 283.921 126.395 283.77 126.829C283.628 127.264 283.416 127.637 283.132 127.949C282.858 128.261 282.527 128.502 282.14 128.672C281.752 128.833 281.313 128.913 280.821 128.913ZM280.821 128.19C281.294 128.19 281.7 128.082 282.04 127.864C282.39 127.637 282.655 127.311 282.834 126.886C283.023 126.461 283.118 125.95 283.118 125.355C283.118 124.457 282.91 123.762 282.494 123.271C282.088 122.779 281.53 122.534 280.821 122.534C280.358 122.534 279.952 122.647 279.602 122.874C279.262 123.091 278.997 123.413 278.808 123.838C278.629 124.254 278.539 124.759 278.539 125.355C278.539 126.262 278.747 126.962 279.163 127.453C279.578 127.944 280.131 128.19 280.821 128.19ZM286.431 128.8C286.27 128.8 286.147 128.762 286.062 128.686C285.987 128.601 285.949 128.483 285.949 128.332V122.392C285.949 122.241 285.987 122.127 286.062 122.052C286.147 121.967 286.27 121.924 286.431 121.924H289.139C289.658 121.924 290.088 121.995 290.429 122.137C290.769 122.269 291.024 122.468 291.194 122.732C291.364 122.997 291.449 123.332 291.449 123.739C291.449 124.183 291.293 124.556 290.981 124.859C290.679 125.152 290.277 125.327 289.776 125.383V125.199C290.344 125.208 290.802 125.374 291.152 125.695C291.501 126.007 291.676 126.413 291.676 126.914C291.676 127.491 291.463 127.949 291.038 128.289C290.613 128.63 290.017 128.8 289.252 128.8H286.431ZM286.785 128.162H289.252C289.762 128.162 290.15 128.053 290.414 127.836C290.689 127.609 290.826 127.292 290.826 126.886C290.826 126.47 290.689 126.158 290.414 125.95C290.15 125.733 289.762 125.624 289.252 125.624H286.785V128.162ZM286.785 124.986H289.139C289.602 124.986 289.961 124.878 290.216 124.66C290.481 124.443 290.613 124.145 290.613 123.767C290.613 123.38 290.481 123.082 290.216 122.874C289.961 122.666 289.602 122.562 289.139 122.562H286.785V124.986ZM296.299 128.913C295.657 128.913 295.099 128.767 294.626 128.474C294.154 128.181 293.785 127.77 293.521 127.24C293.265 126.711 293.138 126.083 293.138 125.355C293.138 124.816 293.209 124.329 293.351 123.895C293.502 123.46 293.714 123.087 293.988 122.775C294.272 122.453 294.608 122.212 294.995 122.052C295.392 121.882 295.827 121.797 296.299 121.797C296.951 121.797 297.514 121.943 297.986 122.236C298.459 122.529 298.823 122.945 299.078 123.484C299.343 124.013 299.475 124.637 299.475 125.355C299.475 125.903 299.399 126.395 299.248 126.829C299.106 127.264 298.894 127.637 298.61 127.949C298.336 128.261 298.005 128.502 297.618 128.672C297.23 128.833 296.791 128.913 296.299 128.913ZM296.299 128.19C296.772 128.19 297.178 128.082 297.518 127.864C297.868 127.637 298.133 127.311 298.312 126.886C298.501 126.461 298.596 125.95 298.596 125.355C298.596 124.457 298.388 123.762 297.972 123.271C297.566 122.779 297.008 122.534 296.299 122.534C295.836 122.534 295.43 122.647 295.08 122.874C294.74 123.091 294.475 123.413 294.286 123.838C294.107 124.254 294.017 124.759 294.017 125.355C294.017 126.262 294.225 126.962 294.641 127.453C295.056 127.944 295.609 128.19 296.299 128.19ZM304.234 128.913C303.563 128.913 302.986 128.767 302.504 128.474C302.022 128.171 301.649 127.751 301.384 127.212C301.129 126.664 301.001 126.031 301.001 125.312C301.001 124.764 301.072 124.277 301.214 123.852C301.365 123.417 301.578 123.049 301.852 122.746C302.136 122.444 302.476 122.212 302.873 122.052C303.279 121.882 303.733 121.797 304.234 121.797C304.583 121.797 304.943 121.858 305.311 121.981C305.68 122.094 306.015 122.288 306.318 122.562C306.384 122.619 306.426 122.685 306.445 122.761C306.464 122.836 306.459 122.912 306.431 122.987C306.403 123.054 306.36 123.11 306.304 123.158C306.247 123.195 306.176 123.219 306.091 123.228C306.015 123.228 305.935 123.191 305.85 123.115C305.585 122.898 305.316 122.751 305.042 122.676C304.777 122.59 304.517 122.548 304.262 122.548C303.875 122.548 303.534 122.609 303.241 122.732C302.948 122.855 302.698 123.035 302.49 123.271C302.292 123.507 302.14 123.8 302.036 124.15C301.932 124.49 301.88 124.882 301.88 125.327C301.88 126.215 302.084 126.914 302.49 127.425C302.906 127.926 303.497 128.176 304.262 128.176C304.517 128.176 304.777 128.138 305.042 128.063C305.316 127.978 305.585 127.826 305.85 127.609C305.935 127.533 306.015 127.5 306.091 127.51C306.176 127.51 306.247 127.533 306.304 127.581C306.36 127.618 306.398 127.675 306.417 127.751C306.445 127.817 306.45 127.888 306.431 127.963C306.412 128.039 306.37 128.105 306.304 128.162C306.011 128.436 305.68 128.63 305.311 128.743C304.943 128.857 304.583 128.913 304.234 128.913ZM309.902 128.885C309.769 128.885 309.665 128.847 309.59 128.771C309.514 128.696 309.476 128.587 309.476 128.445V122.647H307.236C306.953 122.647 306.811 122.524 306.811 122.279C306.811 122.175 306.849 122.09 306.924 122.023C307 121.957 307.104 121.924 307.236 121.924H312.581C312.855 121.924 312.992 122.042 312.992 122.279C312.992 122.392 312.954 122.482 312.879 122.548C312.812 122.614 312.713 122.647 312.581 122.647H310.341V128.445C310.341 128.587 310.303 128.696 310.228 128.771C310.161 128.847 310.053 128.885 309.902 128.885ZM314.547 128.885C314.471 128.885 314.4 128.871 314.334 128.842C314.277 128.814 314.23 128.767 314.192 128.701C314.164 128.625 314.15 128.53 314.15 128.417V122.264C314.15 122.123 314.183 122.014 314.249 121.938C314.325 121.863 314.429 121.825 314.561 121.825C314.684 121.825 314.778 121.863 314.844 121.938C314.911 122.014 314.944 122.123 314.944 122.264V128.034H314.603L319.012 122.108C319.078 122.023 319.149 121.957 319.225 121.91C319.301 121.853 319.4 121.825 319.523 121.825C319.608 121.825 319.679 121.844 319.735 121.882C319.792 121.91 319.835 121.957 319.863 122.023C319.901 122.09 319.92 122.179 319.92 122.293V128.46C319.92 128.592 319.882 128.696 319.806 128.771C319.74 128.847 319.646 128.885 319.523 128.885C319.39 128.885 319.291 128.847 319.225 128.771C319.159 128.696 319.126 128.592 319.126 128.46V122.69H319.466L315.043 128.616C314.986 128.691 314.92 128.753 314.844 128.8C314.769 128.857 314.67 128.885 314.547 128.885Z" fill="white"/>
</svg>
