<svg width="262" height="263" viewBox="0 0 262 263" fill="none" xmlns="http://www.w3.org/2000/svg">
<g filter="url(#filter0_bd_3044_2149)">
<rect y="1" width="262" height="262" rx="6.10189" fill="#C7C7C7" fill-opacity="0.08" shape-rendering="crispEdges"/>
<rect x="0.190684" y="1.19068" width="261.619" height="261.619" rx="5.91121" stroke="#424242" stroke-width="0.381368" shape-rendering="crispEdges"/>
</g>
<g filter="url(#filter1_b_3044_2149)">
<path d="M56.0491 132C56.0491 143.989 46.1988 153.708 57.958 153.708C69.7173 153.708 79.25 143.989 79.25 132C79.25 120.012 69.7173 110.293 57.958 110.293C46.1988 110.293 56.0491 120.012 56.0491 132Z" fill="white" fill-opacity="0.14"/>
</g>
<g filter="url(#filter2_b_3044_2149)">
<path d="M102.494 132C102.494 143.989 112.344 153.708 100.585 153.708C88.8257 153.708 79.293 143.989 79.293 132C79.293 120.012 88.8257 110.293 100.585 110.293C112.344 110.293 102.494 120.012 102.494 132Z" fill="white" fill-opacity="0.14"/>
</g>
<g filter="url(#filter3_b_3044_2149)">
<path d="M130.381 139.5H128.003V129.002H127.931L123.656 139.377H121.851L117.576 129.002H117.504V139.5H115.116V124.706H118.181L122.713 135.871H122.795L127.326 124.706H130.381V139.5ZM149.205 135.338H151.768C151.85 136.015 152.198 136.561 152.814 136.978C153.429 137.388 154.191 137.594 155.1 137.594C155.988 137.594 156.713 137.395 157.273 136.999C157.841 136.602 158.124 136.097 158.124 135.482C158.124 134.948 157.919 134.518 157.509 134.19C157.099 133.855 156.429 133.578 155.5 133.359L153.582 132.908C152.222 132.594 151.211 132.105 150.548 131.442C149.892 130.779 149.564 129.918 149.564 128.859C149.564 127.553 150.076 126.494 151.101 125.68C152.127 124.867 153.449 124.46 155.069 124.46C156.696 124.46 158.005 124.863 158.996 125.67C159.994 126.47 160.51 127.522 160.544 128.828H158.022C157.96 128.137 157.663 127.597 157.13 127.208C156.597 126.811 155.903 126.613 155.049 126.613C154.215 126.613 153.538 126.801 153.019 127.177C152.506 127.553 152.25 128.049 152.25 128.664C152.25 129.156 152.448 129.556 152.844 129.863C153.248 130.171 153.904 130.434 154.813 130.653L156.515 131.042C158.012 131.384 159.098 131.883 159.775 132.539C160.452 133.195 160.79 134.074 160.79 135.174C160.79 136.575 160.264 137.689 159.211 138.516C158.165 139.336 156.747 139.747 154.956 139.747C153.248 139.747 151.874 139.354 150.835 138.568C149.803 137.775 149.259 136.698 149.205 135.338ZM165.434 139.5H162.789V124.706H165.434V139.5ZM194.52 139.5L193.259 135.676H187.815L186.554 139.5H183.827L189.076 124.706H192.06L197.309 139.5H194.52ZM190.501 127.321L188.43 133.636H192.634L190.573 127.321H190.501ZM208.258 137.265V139.5H198.898V124.706H201.543V137.265H208.258Z" fill="#F8F8F8" fill-opacity="0.14"/>
</g>
<path d="M147.639 132.513C147.639 134.632 146.955 136.31 145.588 137.547C144.221 138.778 142.355 139.393 139.99 139.393C137.639 139.393 135.78 138.774 134.413 137.537C133.039 136.293 132.352 134.619 132.352 132.513C132.352 130.791 132.844 129.339 133.829 128.156C134.806 126.974 136.088 126.3 137.673 126.136V128.74C136.744 128.911 135.999 129.345 135.438 130.043C134.878 130.733 134.598 131.556 134.598 132.513C134.598 133.785 135.086 134.8 136.064 135.558C137.034 136.31 138.343 136.686 139.99 136.686C141.651 136.686 142.967 136.31 143.938 135.558C144.908 134.806 145.393 133.788 145.393 132.503C145.393 131.526 145.144 130.706 144.645 130.043C144.139 129.373 143.442 128.935 142.553 128.73V126.136C144.139 126.369 145.383 127.052 146.285 128.187C147.188 129.321 147.639 130.764 147.639 132.513Z" fill="#F8F8F8" fill-opacity="0.14"/>
<path d="M183.715 132.513C183.715 134.632 183.031 136.31 181.664 137.547C180.297 138.778 178.431 139.393 176.067 139.393C173.715 139.393 171.856 138.774 170.489 137.537C169.115 136.293 168.428 134.619 168.428 132.513C168.428 130.791 168.921 129.339 169.905 128.156C170.882 126.974 172.164 126.3 173.749 126.136V128.74C172.82 128.911 172.075 129.345 171.514 130.043C170.954 130.733 170.674 131.556 170.674 132.513C170.674 133.785 171.162 134.8 172.14 135.558C173.11 136.31 174.419 136.686 176.067 136.686C177.727 136.686 179.043 136.31 180.014 135.558C180.984 134.806 181.47 133.788 181.47 132.503C181.47 131.526 181.22 130.706 180.721 130.043C180.215 129.373 179.518 128.935 178.63 128.73V126.136C180.215 126.369 181.459 127.052 182.361 128.187C183.264 129.321 183.715 130.764 183.715 132.513Z" fill="#F8F8F8" fill-opacity="0.14"/>
<defs>
<filter id="filter0_bd_3044_2149" x="-11.441" y="-10.441" width="284.882" height="284.882" filterUnits="userSpaceOnUse" color-interpolation-filters="sRGB">
<feFlood flood-opacity="0" result="BackgroundImageFix"/>
<feGaussianBlur in="BackgroundImageFix" stdDeviation="5.72052"/>
<feComposite in2="SourceAlpha" operator="in" result="effect1_backgroundBlur_3044_2149"/>
<feColorMatrix in="SourceAlpha" type="matrix" values="0 0 0 0 0 0 0 0 0 0 0 0 0 0 0 0 0 0 127 0" result="hardAlpha"/>
<feMorphology radius="0.381368" operator="dilate" in="SourceAlpha" result="effect2_dropShadow_3044_2149"/>
<feOffset/>
<feGaussianBlur stdDeviation="4.7671"/>
<feComposite in2="hardAlpha" operator="out"/>
<feColorMatrix type="matrix" values="0 0 0 0 0 0 0 0 0 0 0 0 0 0 0 0 0 0 0.3 0"/>
<feBlend mode="normal" in2="effect1_backgroundBlur_3044_2149" result="effect2_dropShadow_3044_2149"/>
<feBlend mode="normal" in="SourceGraphic" in2="effect2_dropShadow_3044_2149" result="shape"/>
</filter>
<filter id="filter1_b_3044_2149" x="40.7455" y="98.8519" width="49.9456" height="66.2966" filterUnits="userSpaceOnUse" color-interpolation-filters="sRGB">
<feFlood flood-opacity="0" result="BackgroundImageFix"/>
<feGaussianBlur in="BackgroundImageFix" stdDeviation="5.72052"/>
<feComposite in2="SourceAlpha" operator="in" result="effect1_backgroundBlur_3044_2149"/>
<feBlend mode="normal" in="SourceGraphic" in2="effect1_backgroundBlur_3044_2149" result="shape"/>
</filter>
<filter id="filter2_b_3044_2149" x="67.8519" y="98.8519" width="49.9456" height="66.2966" filterUnits="userSpaceOnUse" color-interpolation-filters="sRGB">
<feFlood flood-opacity="0" result="BackgroundImageFix"/>
<feGaussianBlur in="BackgroundImageFix" stdDeviation="5.72052"/>
<feComposite in2="SourceAlpha" operator="in" result="effect1_backgroundBlur_3044_2149"/>
<feBlend mode="normal" in="SourceGraphic" in2="effect1_backgroundBlur_3044_2149" result="shape"/>
</filter>
<filter id="filter3_b_3044_2149" x="106.344" y="115.689" width="110.686" height="32.8291" filterUnits="userSpaceOnUse" color-interpolation-filters="sRGB">
<feFlood flood-opacity="0" result="BackgroundImageFix"/>
<feGaussianBlur in="BackgroundImageFix" stdDeviation="4.38574"/>
<feComposite in2="SourceAlpha" operator="in" result="effect1_backgroundBlur_3044_2149"/>
<feBlend mode="normal" in="SourceGraphic" in2="effect1_backgroundBlur_3044_2149" result="shape"/>
</filter>
</defs>
</svg>
