<svg width="625" height="616" viewBox="0 0 625 616" fill="none" xmlns="http://www.w3.org/2000/svg">
<g clip-path="url(#clip0_2712_2149)">
<rect width="625" height="616" rx="30" fill="#1A1A1A"/>
<path d="M160.01 314.689C158.932 314.689 157.938 314.556 157.028 314.29C156.118 314.024 155.348 313.646 154.718 313.156C154.536 313.016 154.41 312.862 154.34 312.694C154.284 312.512 154.277 312.344 154.319 312.19C154.361 312.022 154.438 311.882 154.55 311.77C154.676 311.658 154.823 311.595 154.991 311.581C155.173 311.567 155.369 311.623 155.579 311.749C155.971 312.029 156.391 312.26 156.839 312.442C157.287 312.624 157.763 312.764 158.267 312.862C158.785 312.946 159.324 312.988 159.884 312.988C160.766 312.988 161.487 312.89 162.047 312.694C162.607 312.498 163.02 312.204 163.286 311.812C163.566 311.406 163.706 310.902 163.706 310.3C163.706 309.446 163.44 308.816 162.908 308.41C162.376 308.004 161.571 307.801 160.493 307.801H157.574C157.308 307.801 157.098 307.731 156.944 307.591C156.804 307.451 156.734 307.248 156.734 306.982C156.734 306.744 156.804 306.555 156.944 306.415C157.098 306.275 157.308 306.205 157.574 306.205H160.136C161.2 306.205 161.998 306.002 162.53 305.596C163.076 305.176 163.349 304.56 163.349 303.748C163.349 303.23 163.223 302.782 162.971 302.404C162.719 302.012 162.334 301.711 161.816 301.501C161.312 301.291 160.675 301.186 159.905 301.186C159.191 301.186 158.498 301.284 157.826 301.48C157.154 301.676 156.538 301.963 155.978 302.341C155.754 302.481 155.551 302.544 155.369 302.53C155.201 302.502 155.061 302.432 154.949 302.32C154.837 302.208 154.76 302.068 154.718 301.9C154.676 301.732 154.683 301.564 154.739 301.396C154.809 301.214 154.942 301.06 155.138 300.934C155.81 300.458 156.573 300.101 157.427 299.863C158.295 299.625 159.177 299.506 160.073 299.506C161.235 299.506 162.201 299.674 162.971 300.01C163.741 300.346 164.322 300.822 164.714 301.438C165.106 302.04 165.302 302.747 165.302 303.559C165.302 304.469 165.029 305.232 164.483 305.848C163.951 306.464 163.23 306.877 162.32 307.087V306.772C163.356 306.898 164.168 307.283 164.756 307.927C165.358 308.557 165.659 309.383 165.659 310.405C165.659 311.287 165.456 312.05 165.05 312.694C164.644 313.338 164.021 313.835 163.181 314.185C162.355 314.521 161.298 314.689 160.01 314.689ZM171.805 314.689C171.105 314.689 170.468 314.549 169.894 314.269C169.334 313.989 168.893 313.611 168.571 313.135C168.263 312.659 168.109 312.127 168.109 311.539C168.109 310.783 168.298 310.188 168.676 309.754C169.054 309.32 169.691 309.012 170.587 308.83C171.483 308.634 172.687 308.536 174.199 308.536H175.186V309.754H174.241C173.163 309.754 172.309 309.803 171.679 309.901C171.063 309.999 170.629 310.174 170.377 310.426C170.125 310.664 169.999 311 169.999 311.434C169.999 311.98 170.188 312.428 170.566 312.778C170.958 313.128 171.49 313.303 172.162 313.303C172.694 313.303 173.163 313.177 173.569 312.925C173.975 312.659 174.297 312.309 174.535 311.875C174.773 311.427 174.892 310.916 174.892 310.342V307.927C174.892 307.101 174.724 306.506 174.388 306.142C174.052 305.764 173.485 305.575 172.687 305.575C172.225 305.575 171.749 305.638 171.259 305.764C170.769 305.89 170.258 306.086 169.726 306.352C169.516 306.45 169.334 306.485 169.18 306.457C169.026 306.415 168.9 306.331 168.802 306.205C168.718 306.065 168.669 305.918 168.655 305.764C168.655 305.596 168.69 305.435 168.76 305.281C168.844 305.127 168.984 305.015 169.18 304.945C169.796 304.637 170.405 304.42 171.007 304.294C171.623 304.154 172.197 304.084 172.729 304.084C173.639 304.084 174.388 304.231 174.976 304.525C175.564 304.805 176.005 305.246 176.299 305.848C176.593 306.436 176.74 307.192 176.74 308.116V313.66C176.74 313.982 176.663 314.227 176.509 314.395C176.355 314.563 176.131 314.647 175.837 314.647C175.557 314.647 175.333 314.563 175.165 314.395C175.011 314.227 174.934 313.982 174.934 313.66V312.169H175.123C175.011 312.687 174.801 313.135 174.493 313.513C174.185 313.891 173.8 314.185 173.338 314.395C172.89 314.591 172.379 314.689 171.805 314.689ZM180.939 314.647C180.631 314.647 180.393 314.563 180.225 314.395C180.057 314.213 179.973 313.961 179.973 313.639V305.365C179.973 305.015 180.064 304.749 180.246 304.567C180.442 304.371 180.715 304.273 181.065 304.273H186.567C186.861 304.273 187.078 304.336 187.218 304.462C187.358 304.588 187.428 304.777 187.428 305.029C187.428 305.281 187.358 305.477 187.218 305.617C187.078 305.743 186.861 305.806 186.567 305.806H181.884V313.639C181.884 314.311 181.569 314.647 180.939 314.647ZM190.167 318.427C189.873 318.427 189.642 318.343 189.474 318.175C189.306 318.007 189.222 317.769 189.222 317.461V305.092C189.222 304.77 189.306 304.532 189.474 304.378C189.642 304.21 189.873 304.126 190.167 304.126C190.475 304.126 190.706 304.21 190.86 304.378C191.028 304.532 191.112 304.77 191.112 305.092V307.003L190.881 306.625C191.105 305.855 191.546 305.239 192.204 304.777C192.862 304.315 193.653 304.084 194.577 304.084C195.487 304.084 196.278 304.301 196.95 304.735C197.622 305.155 198.147 305.764 198.525 306.562C198.903 307.346 199.092 308.284 199.092 309.376C199.092 310.454 198.903 311.399 198.525 312.211C198.161 313.009 197.636 313.625 196.95 314.059C196.278 314.479 195.487 314.689 194.577 314.689C193.667 314.689 192.883 314.458 192.225 313.996C191.567 313.534 191.126 312.925 190.902 312.169H191.133V317.461C191.133 317.769 191.049 318.007 190.881 318.175C190.713 318.343 190.475 318.427 190.167 318.427ZM194.136 313.177C194.738 313.177 195.263 313.03 195.711 312.736C196.173 312.442 196.53 312.015 196.782 311.455C197.034 310.895 197.16 310.202 197.16 309.376C197.16 308.144 196.887 307.206 196.341 306.562C195.795 305.918 195.06 305.596 194.136 305.596C193.52 305.596 192.981 305.743 192.519 306.037C192.071 306.317 191.721 306.737 191.469 307.297C191.231 307.857 191.112 308.55 191.112 309.376C191.112 310.608 191.385 311.553 191.931 312.211C192.477 312.855 193.212 313.177 194.136 313.177ZM203.981 318.427C203.757 318.427 203.568 318.364 203.414 318.238C203.274 318.126 203.19 317.965 203.162 317.755C203.148 317.559 203.19 317.349 203.288 317.125L204.716 313.891V314.689L200.747 305.449C200.649 305.211 200.614 304.994 200.642 304.798C200.67 304.602 200.761 304.441 200.915 304.315C201.083 304.189 201.307 304.126 201.587 304.126C201.825 304.126 202.014 304.182 202.154 304.294C202.294 304.406 202.427 304.602 202.553 304.882L205.85 313.009H205.262L208.622 304.882C208.734 304.602 208.867 304.406 209.021 304.294C209.175 304.182 209.385 304.126 209.651 304.126C209.889 304.126 210.071 304.189 210.197 304.315C210.337 304.441 210.421 304.602 210.449 304.798C210.477 304.994 210.435 305.204 210.323 305.428L205.031 317.671C204.891 317.965 204.744 318.161 204.59 318.259C204.45 318.371 204.247 318.427 203.981 318.427ZM216.127 314.689C215.413 314.689 214.713 314.612 214.027 314.458C213.341 314.29 212.753 314.052 212.263 313.744C212.067 313.646 211.927 313.52 211.843 313.366C211.773 313.212 211.745 313.058 211.759 312.904C211.773 312.75 211.829 312.617 211.927 312.505C212.039 312.393 212.172 312.33 212.326 312.316C212.494 312.288 212.69 312.33 212.914 312.442C213.362 312.708 213.866 312.911 214.426 313.051C214.986 313.177 215.546 313.24 216.106 313.24C217.086 313.24 217.786 313.1 218.206 312.82C218.626 312.54 218.836 312.134 218.836 311.602C218.836 311.084 218.661 310.692 218.311 310.426C217.961 310.16 217.464 310.027 216.82 310.027H214.972C214.734 310.027 214.538 309.964 214.384 309.838C214.244 309.698 214.174 309.523 214.174 309.313C214.174 309.089 214.244 308.914 214.384 308.788C214.538 308.662 214.734 308.599 214.972 308.599H216.589C217.177 308.599 217.639 308.473 217.975 308.221C218.325 307.955 218.5 307.591 218.5 307.129C218.5 306.639 218.311 306.254 217.933 305.974C217.555 305.68 216.932 305.533 216.064 305.533C215.518 305.533 215 305.596 214.51 305.722C214.02 305.834 213.544 306.009 213.082 306.247C212.816 306.387 212.585 306.429 212.389 306.373C212.207 306.303 212.074 306.184 211.99 306.016C211.906 305.834 211.892 305.652 211.948 305.47C212.018 305.274 212.165 305.12 212.389 305.008C212.963 304.686 213.579 304.455 214.237 304.315C214.895 304.161 215.588 304.084 216.316 304.084C217.632 304.084 218.619 304.336 219.277 304.84C219.935 305.344 220.264 306.051 220.264 306.961C220.264 307.605 220.04 308.151 219.592 308.599C219.158 309.047 218.57 309.313 217.828 309.397V309.124C218.682 309.152 219.361 309.397 219.865 309.859C220.383 310.307 220.642 310.909 220.642 311.665C220.642 312.575 220.257 313.31 219.487 313.87C218.731 314.416 217.611 314.689 216.127 314.689ZM224.085 314.647C223.903 314.647 223.742 314.612 223.602 314.542C223.476 314.472 223.378 314.36 223.308 314.206C223.238 314.052 223.203 313.856 223.203 313.618V305.05C223.203 304.756 223.28 304.532 223.434 304.378C223.588 304.21 223.805 304.126 224.085 304.126C224.351 304.126 224.561 304.21 224.715 304.378C224.869 304.532 224.946 304.756 224.946 305.05V312.631H224.4L230.322 304.735C230.434 304.581 230.574 304.441 230.742 304.315C230.91 304.189 231.134 304.126 231.414 304.126C231.61 304.126 231.771 304.161 231.897 304.231C232.023 304.301 232.114 304.413 232.17 304.567C232.24 304.707 232.275 304.896 232.275 305.134V313.723C232.275 314.003 232.198 314.227 232.044 314.395C231.904 314.563 231.701 314.647 231.435 314.647C231.141 314.647 230.917 314.563 230.763 314.395C230.623 314.227 230.553 314.003 230.553 313.723V306.121H231.099L225.177 314.038C225.065 314.192 224.925 314.332 224.757 314.458C224.589 314.584 224.365 314.647 224.085 314.647ZM238.657 314.647C238.349 314.647 238.111 314.563 237.943 314.395C237.775 314.227 237.691 313.982 237.691 313.66V305.806H234.709C234.149 305.806 233.869 305.547 233.869 305.029C233.869 304.791 233.946 304.609 234.1 304.483C234.254 304.343 234.457 304.273 234.709 304.273H242.563C243.137 304.273 243.424 304.525 243.424 305.029C243.424 305.281 243.347 305.477 243.193 305.617C243.053 305.743 242.843 305.806 242.563 305.806H239.602V313.66C239.602 313.982 239.518 314.227 239.35 314.395C239.196 314.563 238.965 314.647 238.657 314.647ZM249.667 314.689C248.561 314.689 247.609 314.479 246.811 314.059C246.027 313.625 245.418 313.016 244.984 312.232C244.55 311.434 244.333 310.496 244.333 309.418C244.333 308.354 244.543 307.423 244.963 306.625C245.397 305.827 245.985 305.204 246.727 304.756C247.483 304.308 248.344 304.084 249.31 304.084C249.996 304.084 250.612 304.203 251.158 304.441C251.718 304.665 252.194 304.994 252.586 305.428C252.978 305.862 253.272 306.394 253.468 307.024C253.678 307.64 253.783 308.34 253.783 309.124C253.783 309.348 253.713 309.523 253.573 309.649C253.447 309.761 253.258 309.817 253.006 309.817H245.824V308.599H252.523L252.166 308.893C252.166 308.165 252.054 307.549 251.83 307.045C251.62 306.527 251.305 306.135 250.885 305.869C250.479 305.603 249.968 305.47 249.352 305.47C248.68 305.47 248.106 305.631 247.63 305.953C247.154 306.261 246.79 306.702 246.538 307.276C246.286 307.836 246.16 308.487 246.16 309.229V309.355C246.16 310.615 246.461 311.567 247.063 312.211C247.665 312.855 248.533 313.177 249.667 313.177C250.115 313.177 250.57 313.121 251.032 313.009C251.508 312.897 251.963 312.694 252.397 312.4C252.607 312.274 252.796 312.218 252.964 312.232C253.146 312.232 253.293 312.288 253.405 312.4C253.517 312.498 253.587 312.624 253.615 312.778C253.643 312.918 253.622 313.072 253.552 313.24C253.482 313.408 253.349 313.555 253.153 313.681C252.691 314.003 252.138 314.255 251.494 314.437C250.864 314.605 250.255 314.689 249.667 314.689ZM268.665 318.427C268.357 318.427 268.119 318.336 267.951 318.154C267.797 317.986 267.72 317.741 267.72 317.419V312.316H267.93C267.706 313.072 267.342 313.66 266.838 314.08C266.348 314.486 265.732 314.689 264.99 314.689C264.248 314.689 263.597 314.472 263.037 314.038C262.477 313.604 262.043 312.988 261.735 312.19C261.427 311.392 261.273 310.454 261.273 309.376C261.273 308.298 261.427 307.36 261.735 306.562C262.043 305.764 262.477 305.155 263.037 304.735C263.597 304.301 264.248 304.084 264.99 304.084C265.732 304.084 266.355 304.294 266.859 304.714C267.363 305.12 267.72 305.701 267.93 306.457H267.72V300.556C267.72 300.22 267.797 299.968 267.951 299.8C268.119 299.632 268.357 299.548 268.665 299.548C268.973 299.548 269.211 299.632 269.379 299.8C269.547 299.968 269.631 300.22 269.631 300.556V306.457H269.421C269.617 305.701 269.967 305.12 270.471 304.714C270.989 304.294 271.612 304.084 272.34 304.084C273.082 304.084 273.733 304.301 274.293 304.735C274.867 305.155 275.308 305.764 275.616 306.562C275.924 307.36 276.078 308.298 276.078 309.376C276.078 310.454 275.924 311.392 275.616 312.19C275.308 312.988 274.874 313.604 274.314 314.038C273.754 314.472 273.096 314.689 272.34 314.689C271.612 314.689 270.996 314.486 270.492 314.08C270.002 313.66 269.645 313.072 269.421 312.316H269.631V317.419C269.631 317.741 269.547 317.986 269.379 318.154C269.225 318.336 268.987 318.427 268.665 318.427ZM265.473 313.198C265.949 313.198 266.355 313.058 266.691 312.778C267.027 312.484 267.286 312.057 267.468 311.497C267.664 310.923 267.762 310.216 267.762 309.376C267.762 308.13 267.552 307.185 267.132 306.541C266.726 305.897 266.173 305.575 265.473 305.575C265.011 305.575 264.605 305.722 264.255 306.016C263.919 306.296 263.653 306.723 263.457 307.297C263.275 307.857 263.184 308.55 263.184 309.376C263.184 310.216 263.275 310.923 263.457 311.497C263.639 312.057 263.898 312.484 264.234 312.778C264.584 313.058 264.997 313.198 265.473 313.198ZM271.857 313.198C272.333 313.198 272.739 313.058 273.075 312.778C273.425 312.484 273.691 312.057 273.873 311.497C274.069 310.923 274.167 310.216 274.167 309.376C274.167 308.55 274.069 307.857 273.873 307.297C273.691 306.723 273.425 306.296 273.075 306.016C272.739 305.722 272.333 305.575 271.857 305.575C271.395 305.575 270.996 305.722 270.66 306.016C270.324 306.296 270.058 306.723 269.862 307.297C269.68 307.857 269.589 308.55 269.589 309.376C269.589 310.65 269.792 311.609 270.198 312.253C270.604 312.883 271.157 313.198 271.857 313.198ZM283.086 314.689C282.078 314.689 281.203 314.472 280.461 314.038C279.719 313.604 279.145 312.988 278.739 312.19C278.333 311.392 278.13 310.454 278.13 309.376C278.13 308.564 278.242 307.836 278.466 307.192C278.704 306.534 279.04 305.974 279.474 305.512C279.908 305.05 280.426 304.7 281.028 304.462C281.644 304.21 282.33 304.084 283.086 304.084C284.094 304.084 284.969 304.301 285.711 304.735C286.453 305.169 287.027 305.785 287.433 306.583C287.839 307.367 288.042 308.298 288.042 309.376C288.042 310.188 287.923 310.923 287.685 311.581C287.461 312.239 287.132 312.799 286.698 313.261C286.264 313.723 285.739 314.08 285.123 314.332C284.521 314.57 283.842 314.689 283.086 314.689ZM283.086 313.177C283.702 313.177 284.234 313.03 284.682 312.736C285.144 312.442 285.494 312.015 285.732 311.455C285.984 310.895 286.11 310.202 286.11 309.376C286.11 308.144 285.837 307.206 285.291 306.562C284.745 305.918 284.01 305.596 283.086 305.596C282.484 305.596 281.952 305.743 281.49 306.037C281.042 306.317 280.692 306.737 280.44 307.297C280.188 307.857 280.062 308.55 280.062 309.376C280.062 310.608 280.335 311.553 280.881 312.211C281.441 312.855 282.176 313.177 283.086 313.177ZM293.844 314.647C293.536 314.647 293.298 314.563 293.13 314.395C292.962 314.227 292.878 313.982 292.878 313.66V305.806H289.896C289.336 305.806 289.056 305.547 289.056 305.029C289.056 304.791 289.133 304.609 289.287 304.483C289.441 304.343 289.644 304.273 289.896 304.273H297.75C298.324 304.273 298.611 304.525 298.611 305.029C298.611 305.281 298.534 305.477 298.38 305.617C298.24 305.743 298.03 305.806 297.75 305.806H294.789V313.66C294.789 313.982 294.705 314.227 294.537 314.395C294.383 314.563 294.152 314.647 293.844 314.647ZM304.475 314.689C303.467 314.689 302.592 314.472 301.85 314.038C301.108 313.604 300.534 312.988 300.128 312.19C299.722 311.392 299.519 310.454 299.519 309.376C299.519 308.564 299.631 307.836 299.855 307.192C300.093 306.534 300.429 305.974 300.863 305.512C301.297 305.05 301.815 304.7 302.417 304.462C303.033 304.21 303.719 304.084 304.475 304.084C305.483 304.084 306.358 304.301 307.1 304.735C307.842 305.169 308.416 305.785 308.822 306.583C309.228 307.367 309.431 308.298 309.431 309.376C309.431 310.188 309.312 310.923 309.074 311.581C308.85 312.239 308.521 312.799 308.087 313.261C307.653 313.723 307.128 314.08 306.512 314.332C305.91 314.57 305.231 314.689 304.475 314.689ZM304.475 313.177C305.091 313.177 305.623 313.03 306.071 312.736C306.533 312.442 306.883 312.015 307.121 311.455C307.373 310.895 307.499 310.202 307.499 309.376C307.499 308.144 307.226 307.206 306.68 306.562C306.134 305.918 305.399 305.596 304.475 305.596C303.873 305.596 303.341 305.743 302.879 306.037C302.431 306.317 302.081 306.737 301.829 307.297C301.577 307.857 301.451 308.55 301.451 309.376C301.451 310.608 301.724 311.553 302.27 312.211C302.83 312.855 303.565 313.177 304.475 313.177ZM313.091 314.647C312.783 314.647 312.545 314.563 312.377 314.395C312.209 314.213 312.125 313.961 312.125 313.639V305.365C312.125 305.015 312.216 304.749 312.398 304.567C312.594 304.371 312.867 304.273 313.217 304.273H318.719C319.013 304.273 319.23 304.336 319.37 304.462C319.51 304.588 319.58 304.777 319.58 305.029C319.58 305.281 319.51 305.477 319.37 305.617C319.23 305.743 319.013 305.806 318.719 305.806H314.036V313.639C314.036 314.311 313.721 314.647 313.091 314.647ZM322.319 318.427C322.025 318.427 321.794 318.343 321.626 318.175C321.458 318.007 321.374 317.769 321.374 317.461V305.092C321.374 304.77 321.458 304.532 321.626 304.378C321.794 304.21 322.025 304.126 322.319 304.126C322.627 304.126 322.858 304.21 323.012 304.378C323.18 304.532 323.264 304.77 323.264 305.092V307.003L323.033 306.625C323.257 305.855 323.698 305.239 324.356 304.777C325.014 304.315 325.805 304.084 326.729 304.084C327.639 304.084 328.43 304.301 329.102 304.735C329.774 305.155 330.299 305.764 330.677 306.562C331.055 307.346 331.244 308.284 331.244 309.376C331.244 310.454 331.055 311.399 330.677 312.211C330.313 313.009 329.788 313.625 329.102 314.059C328.43 314.479 327.639 314.689 326.729 314.689C325.819 314.689 325.035 314.458 324.377 313.996C323.719 313.534 323.278 312.925 323.054 312.169H323.285V317.461C323.285 317.769 323.201 318.007 323.033 318.175C322.865 318.343 322.627 318.427 322.319 318.427ZM326.288 313.177C326.89 313.177 327.415 313.03 327.863 312.736C328.325 312.442 328.682 312.015 328.934 311.455C329.186 310.895 329.312 310.202 329.312 309.376C329.312 308.144 329.039 307.206 328.493 306.562C327.947 305.918 327.212 305.596 326.288 305.596C325.672 305.596 325.133 305.743 324.671 306.037C324.223 306.317 323.873 306.737 323.621 307.297C323.383 307.857 323.264 308.55 323.264 309.376C323.264 310.608 323.537 311.553 324.083 312.211C324.629 312.855 325.364 313.177 326.288 313.177ZM337.18 314.689C336.48 314.689 335.843 314.549 335.269 314.269C334.709 313.989 334.268 313.611 333.946 313.135C333.638 312.659 333.484 312.127 333.484 311.539C333.484 310.783 333.673 310.188 334.051 309.754C334.429 309.32 335.066 309.012 335.962 308.83C336.858 308.634 338.062 308.536 339.574 308.536H340.561V309.754H339.616C338.538 309.754 337.684 309.803 337.054 309.901C336.438 309.999 336.004 310.174 335.752 310.426C335.5 310.664 335.374 311 335.374 311.434C335.374 311.98 335.563 312.428 335.941 312.778C336.333 313.128 336.865 313.303 337.537 313.303C338.069 313.303 338.538 313.177 338.944 312.925C339.35 312.659 339.672 312.309 339.91 311.875C340.148 311.427 340.267 310.916 340.267 310.342V307.927C340.267 307.101 340.099 306.506 339.763 306.142C339.427 305.764 338.86 305.575 338.062 305.575C337.6 305.575 337.124 305.638 336.634 305.764C336.144 305.89 335.633 306.086 335.101 306.352C334.891 306.45 334.709 306.485 334.555 306.457C334.401 306.415 334.275 306.331 334.177 306.205C334.093 306.065 334.044 305.918 334.03 305.764C334.03 305.596 334.065 305.435 334.135 305.281C334.219 305.127 334.359 305.015 334.555 304.945C335.171 304.637 335.78 304.42 336.382 304.294C336.998 304.154 337.572 304.084 338.104 304.084C339.014 304.084 339.763 304.231 340.351 304.525C340.939 304.805 341.38 305.246 341.674 305.848C341.968 306.436 342.115 307.192 342.115 308.116V313.66C342.115 313.982 342.038 314.227 341.884 314.395C341.73 314.563 341.506 314.647 341.212 314.647C340.932 314.647 340.708 314.563 340.54 314.395C340.386 314.227 340.309 313.982 340.309 313.66V312.169H340.498C340.386 312.687 340.176 313.135 339.868 313.513C339.56 313.891 339.175 314.185 338.713 314.395C338.265 314.591 337.754 314.689 337.18 314.689ZM352.152 318.427C351.844 318.427 351.606 318.336 351.438 318.154C351.284 317.986 351.207 317.741 351.207 317.419V312.316H351.417C351.193 313.072 350.829 313.66 350.325 314.08C349.835 314.486 349.219 314.689 348.477 314.689C347.735 314.689 347.084 314.472 346.524 314.038C345.964 313.604 345.53 312.988 345.222 312.19C344.914 311.392 344.76 310.454 344.76 309.376C344.76 308.298 344.914 307.36 345.222 306.562C345.53 305.764 345.964 305.155 346.524 304.735C347.084 304.301 347.735 304.084 348.477 304.084C349.219 304.084 349.842 304.294 350.346 304.714C350.85 305.12 351.207 305.701 351.417 306.457H351.207V300.556C351.207 300.22 351.284 299.968 351.438 299.8C351.606 299.632 351.844 299.548 352.152 299.548C352.46 299.548 352.698 299.632 352.866 299.8C353.034 299.968 353.118 300.22 353.118 300.556V306.457H352.908C353.104 305.701 353.454 305.12 353.958 304.714C354.476 304.294 355.099 304.084 355.827 304.084C356.569 304.084 357.22 304.301 357.78 304.735C358.354 305.155 358.795 305.764 359.103 306.562C359.411 307.36 359.565 308.298 359.565 309.376C359.565 310.454 359.411 311.392 359.103 312.19C358.795 312.988 358.361 313.604 357.801 314.038C357.241 314.472 356.583 314.689 355.827 314.689C355.099 314.689 354.483 314.486 353.979 314.08C353.489 313.66 353.132 313.072 352.908 312.316H353.118V317.419C353.118 317.741 353.034 317.986 352.866 318.154C352.712 318.336 352.474 318.427 352.152 318.427ZM348.96 313.198C349.436 313.198 349.842 313.058 350.178 312.778C350.514 312.484 350.773 312.057 350.955 311.497C351.151 310.923 351.249 310.216 351.249 309.376C351.249 308.13 351.039 307.185 350.619 306.541C350.213 305.897 349.66 305.575 348.96 305.575C348.498 305.575 348.092 305.722 347.742 306.016C347.406 306.296 347.14 306.723 346.944 307.297C346.762 307.857 346.671 308.55 346.671 309.376C346.671 310.216 346.762 310.923 346.944 311.497C347.126 312.057 347.385 312.484 347.721 312.778C348.071 313.058 348.484 313.198 348.96 313.198ZM355.344 313.198C355.82 313.198 356.226 313.058 356.562 312.778C356.912 312.484 357.178 312.057 357.36 311.497C357.556 310.923 357.654 310.216 357.654 309.376C357.654 308.55 357.556 307.857 357.36 307.297C357.178 306.723 356.912 306.296 356.562 306.016C356.226 305.722 355.82 305.575 355.344 305.575C354.882 305.575 354.483 305.722 354.147 306.016C353.811 306.296 353.545 306.723 353.349 307.297C353.167 307.857 353.076 308.55 353.076 309.376C353.076 310.65 353.279 311.609 353.685 312.253C354.091 312.883 354.644 313.198 355.344 313.198ZM363.108 314.647C362.926 314.647 362.765 314.612 362.625 314.542C362.499 314.472 362.401 314.36 362.331 314.206C362.261 314.052 362.226 313.856 362.226 313.618V305.05C362.226 304.756 362.303 304.532 362.457 304.378C362.611 304.21 362.828 304.126 363.108 304.126C363.374 304.126 363.584 304.21 363.738 304.378C363.892 304.532 363.969 304.756 363.969 305.05V312.631H363.423L369.345 304.735C369.457 304.581 369.597 304.441 369.765 304.315C369.933 304.189 370.157 304.126 370.437 304.126C370.633 304.126 370.794 304.161 370.92 304.231C371.046 304.301 371.137 304.413 371.193 304.567C371.263 304.707 371.298 304.896 371.298 305.134V313.723C371.298 314.003 371.221 314.227 371.067 314.395C370.927 314.563 370.724 314.647 370.458 314.647C370.164 314.647 369.94 314.563 369.786 314.395C369.646 314.227 369.576 314.003 369.576 313.723V306.121H370.122L364.2 314.038C364.088 314.192 363.948 314.332 363.78 314.458C363.612 314.584 363.388 314.647 363.108 314.647ZM383.308 314.689C382.37 314.689 381.551 314.5 380.851 314.122C380.151 313.744 379.591 313.205 379.171 312.505C378.751 311.791 378.499 310.958 378.415 310.006H376.441V313.66C376.441 313.982 376.364 314.227 376.21 314.395C376.07 314.563 375.839 314.647 375.517 314.647C375.209 314.647 374.971 314.563 374.803 314.395C374.649 314.227 374.572 313.982 374.572 313.66V305.092C374.572 304.77 374.649 304.532 374.803 304.378C374.971 304.21 375.209 304.126 375.517 304.126C375.825 304.126 376.056 304.21 376.21 304.378C376.364 304.532 376.441 304.77 376.441 305.092V308.473H378.436C378.548 307.549 378.814 306.765 379.234 306.121C379.668 305.463 380.228 304.959 380.914 304.609C381.614 304.259 382.412 304.084 383.308 304.084C384.316 304.084 385.191 304.301 385.933 304.735C386.675 305.169 387.249 305.785 387.655 306.583C388.061 307.367 388.264 308.298 388.264 309.376C388.264 310.188 388.145 310.923 387.907 311.581C387.683 312.239 387.354 312.799 386.92 313.261C386.486 313.723 385.961 314.08 385.345 314.332C384.743 314.57 384.064 314.689 383.308 314.689ZM383.308 313.177C383.924 313.177 384.456 313.03 384.904 312.736C385.366 312.442 385.716 312.015 385.954 311.455C386.206 310.895 386.332 310.202 386.332 309.376C386.332 308.144 386.059 307.206 385.513 306.562C384.967 305.918 384.232 305.596 383.308 305.596C382.692 305.596 382.153 305.743 381.691 306.037C381.243 306.317 380.893 306.737 380.641 307.297C380.403 307.857 380.284 308.55 380.284 309.376C380.284 310.608 380.557 311.553 381.103 312.211C381.663 312.855 382.398 313.177 383.308 313.177ZM399.688 314.689C398.988 314.689 398.351 314.549 397.777 314.269C397.217 313.989 396.776 313.611 396.454 313.135C396.146 312.659 395.992 312.127 395.992 311.539C395.992 310.783 396.181 310.188 396.559 309.754C396.937 309.32 397.574 309.012 398.47 308.83C399.366 308.634 400.57 308.536 402.082 308.536H403.069V309.754H402.124C401.046 309.754 400.192 309.803 399.562 309.901C398.946 309.999 398.512 310.174 398.26 310.426C398.008 310.664 397.882 311 397.882 311.434C397.882 311.98 398.071 312.428 398.449 312.778C398.841 313.128 399.373 313.303 400.045 313.303C400.577 313.303 401.046 313.177 401.452 312.925C401.858 312.659 402.18 312.309 402.418 311.875C402.656 311.427 402.775 310.916 402.775 310.342V307.927C402.775 307.101 402.607 306.506 402.271 306.142C401.935 305.764 401.368 305.575 400.57 305.575C400.108 305.575 399.632 305.638 399.142 305.764C398.652 305.89 398.141 306.086 397.609 306.352C397.399 306.45 397.217 306.485 397.063 306.457C396.909 306.415 396.783 306.331 396.685 306.205C396.601 306.065 396.552 305.918 396.538 305.764C396.538 305.596 396.573 305.435 396.643 305.281C396.727 305.127 396.867 305.015 397.063 304.945C397.679 304.637 398.288 304.42 398.89 304.294C399.506 304.154 400.08 304.084 400.612 304.084C401.522 304.084 402.271 304.231 402.859 304.525C403.447 304.805 403.888 305.246 404.182 305.848C404.476 306.436 404.623 307.192 404.623 308.116V313.66C404.623 313.982 404.546 314.227 404.392 314.395C404.238 314.563 404.014 314.647 403.72 314.647C403.44 314.647 403.216 314.563 403.048 314.395C402.894 314.227 402.817 313.982 402.817 313.66V312.169H403.006C402.894 312.687 402.684 313.135 402.376 313.513C402.068 313.891 401.683 314.185 401.221 314.395C400.773 314.591 400.262 314.689 399.688 314.689ZM408.801 318.427C408.507 318.427 408.276 318.343 408.108 318.175C407.94 318.007 407.856 317.769 407.856 317.461V305.092C407.856 304.77 407.94 304.532 408.108 304.378C408.276 304.21 408.507 304.126 408.801 304.126C409.109 304.126 409.34 304.21 409.494 304.378C409.662 304.532 409.746 304.77 409.746 305.092V307.003L409.515 306.625C409.739 305.855 410.18 305.239 410.838 304.777C411.496 304.315 412.287 304.084 413.211 304.084C414.121 304.084 414.912 304.301 415.584 304.735C416.256 305.155 416.781 305.764 417.159 306.562C417.537 307.346 417.726 308.284 417.726 309.376C417.726 310.454 417.537 311.399 417.159 312.211C416.795 313.009 416.27 313.625 415.584 314.059C414.912 314.479 414.121 314.689 413.211 314.689C412.301 314.689 411.517 314.458 410.859 313.996C410.201 313.534 409.76 312.925 409.536 312.169H409.767V317.461C409.767 317.769 409.683 318.007 409.515 318.175C409.347 318.343 409.109 318.427 408.801 318.427ZM412.77 313.177C413.372 313.177 413.897 313.03 414.345 312.736C414.807 312.442 415.164 312.015 415.416 311.455C415.668 310.895 415.794 310.202 415.794 309.376C415.794 308.144 415.521 307.206 414.975 306.562C414.429 305.918 413.694 305.596 412.77 305.596C412.154 305.596 411.615 305.743 411.153 306.037C410.705 306.317 410.355 306.737 410.103 307.297C409.865 307.857 409.746 308.55 409.746 309.376C409.746 310.608 410.019 311.553 410.565 312.211C411.111 312.855 411.846 313.177 412.77 313.177ZM423.515 314.647C423.207 314.647 422.969 314.563 422.801 314.395C422.633 314.227 422.549 313.982 422.549 313.66V305.806H419.567C419.007 305.806 418.727 305.547 418.727 305.029C418.727 304.791 418.804 304.609 418.958 304.483C419.112 304.343 419.315 304.273 419.567 304.273H427.421C427.995 304.273 428.282 304.525 428.282 305.029C428.282 305.281 428.205 305.477 428.051 305.617C427.911 305.743 427.701 305.806 427.421 305.806H424.46V313.66C424.46 313.982 424.376 314.227 424.208 314.395C424.054 314.563 423.823 314.647 423.515 314.647ZM430.743 314.647C430.561 314.647 430.4 314.612 430.26 314.542C430.134 314.472 430.036 314.36 429.966 314.206C429.896 314.052 429.861 313.856 429.861 313.618V305.05C429.861 304.756 429.938 304.532 430.092 304.378C430.246 304.21 430.463 304.126 430.743 304.126C431.009 304.126 431.219 304.21 431.373 304.378C431.527 304.532 431.604 304.756 431.604 305.05V312.631H431.058L436.98 304.735C437.092 304.581 437.232 304.441 437.4 304.315C437.568 304.189 437.792 304.126 438.072 304.126C438.268 304.126 438.429 304.161 438.555 304.231C438.681 304.301 438.772 304.413 438.828 304.567C438.898 304.707 438.933 304.896 438.933 305.134V313.723C438.933 314.003 438.856 314.227 438.702 314.395C438.562 314.563 438.359 314.647 438.093 314.647C437.799 314.647 437.575 314.563 437.421 314.395C437.281 314.227 437.211 314.003 437.211 313.723V306.121H437.757L431.835 314.038C431.723 314.192 431.583 314.332 431.415 314.458C431.247 314.584 431.023 314.647 430.743 314.647ZM446.637 314.689C445.601 314.689 444.705 314.472 443.949 314.038C443.193 313.59 442.612 312.967 442.206 312.169C441.8 311.357 441.597 310.405 441.597 309.313C441.597 308.501 441.709 307.773 441.933 307.129C442.171 306.485 442.507 305.939 442.941 305.491C443.375 305.029 443.9 304.679 444.516 304.441C445.146 304.203 445.853 304.084 446.637 304.084C447.127 304.084 447.645 304.161 448.191 304.315C448.737 304.469 449.241 304.721 449.703 305.071C449.857 305.183 449.955 305.316 449.997 305.47C450.039 305.61 450.039 305.757 449.997 305.911C449.969 306.065 449.899 306.198 449.787 306.31C449.689 306.408 449.556 306.464 449.388 306.478C449.234 306.492 449.066 306.443 448.884 306.331C448.548 306.079 448.191 305.897 447.813 305.785C447.449 305.673 447.099 305.617 446.763 305.617C446.245 305.617 445.783 305.701 445.377 305.869C444.985 306.037 444.649 306.282 444.369 306.604C444.103 306.912 443.9 307.297 443.76 307.759C443.62 308.207 443.55 308.732 443.55 309.334C443.55 310.524 443.83 311.462 444.39 312.148C444.95 312.82 445.741 313.156 446.763 313.156C447.099 313.156 447.449 313.107 447.813 313.009C448.177 312.897 448.534 312.715 448.884 312.463C449.066 312.351 449.234 312.309 449.388 312.337C449.542 312.351 449.668 312.414 449.766 312.526C449.878 312.624 449.948 312.75 449.976 312.904C450.004 313.044 449.99 313.191 449.934 313.345C449.892 313.499 449.794 313.625 449.64 313.723C449.192 314.059 448.702 314.304 448.17 314.458C447.638 314.612 447.127 314.689 446.637 314.689ZM455.302 314.647C454.994 314.647 454.756 314.563 454.588 314.395C454.42 314.227 454.336 313.982 454.336 313.66V305.806H451.354C450.794 305.806 450.514 305.547 450.514 305.029C450.514 304.791 450.591 304.609 450.745 304.483C450.899 304.343 451.102 304.273 451.354 304.273H459.208C459.782 304.273 460.069 304.525 460.069 305.029C460.069 305.281 459.992 305.477 459.838 305.617C459.698 305.743 459.488 305.806 459.208 305.806H456.247V313.66C456.247 313.982 456.163 314.227 455.995 314.395C455.841 314.563 455.61 314.647 455.302 314.647ZM464.903 314.689C464.203 314.689 463.566 314.549 462.992 314.269C462.432 313.989 461.991 313.611 461.669 313.135C461.361 312.659 461.207 312.127 461.207 311.539C461.207 310.783 461.396 310.188 461.774 309.754C462.152 309.32 462.789 309.012 463.685 308.83C464.581 308.634 465.785 308.536 467.297 308.536H468.284V309.754H467.339C466.261 309.754 465.407 309.803 464.777 309.901C464.161 309.999 463.727 310.174 463.475 310.426C463.223 310.664 463.097 311 463.097 311.434C463.097 311.98 463.286 312.428 463.664 312.778C464.056 313.128 464.588 313.303 465.26 313.303C465.792 313.303 466.261 313.177 466.667 312.925C467.073 312.659 467.395 312.309 467.633 311.875C467.871 311.427 467.99 310.916 467.99 310.342V307.927C467.99 307.101 467.822 306.506 467.486 306.142C467.15 305.764 466.583 305.575 465.785 305.575C465.323 305.575 464.847 305.638 464.357 305.764C463.867 305.89 463.356 306.086 462.824 306.352C462.614 306.45 462.432 306.485 462.278 306.457C462.124 306.415 461.998 306.331 461.9 306.205C461.816 306.065 461.767 305.918 461.753 305.764C461.753 305.596 461.788 305.435 461.858 305.281C461.942 305.127 462.082 305.015 462.278 304.945C462.894 304.637 463.503 304.42 464.105 304.294C464.721 304.154 465.295 304.084 465.827 304.084C466.737 304.084 467.486 304.231 468.074 304.525C468.662 304.805 469.103 305.246 469.397 305.848C469.691 306.436 469.838 307.192 469.838 308.116V313.66C469.838 313.982 469.761 314.227 469.607 314.395C469.453 314.563 469.229 314.647 468.935 314.647C468.655 314.647 468.431 314.563 468.263 314.395C468.109 314.227 468.032 313.982 468.032 313.66V312.169H468.221C468.109 312.687 467.899 313.135 467.591 313.513C467.283 313.891 466.898 314.185 466.436 314.395C465.988 314.591 465.477 314.689 464.903 314.689Z" fill="white"/>
</g>
<defs>
<clipPath id="clip0_2712_2149">
<rect width="625" height="616" rx="30" fill="white"/>
</clipPath>
</defs>
</svg>
